<?xml version="1.0" encoding="UTF-8" standalone="no"?>
<!-- Created with Inkscape (http://www.inkscape.org/) -->

<svg
   xmlns:dc="http://purl.org/dc/elements/1.1/"
   xmlns:cc="http://creativecommons.org/ns#"
   xmlns:rdf="http://www.w3.org/1999/02/22-rdf-syntax-ns#"
   xmlns:svg="http://www.w3.org/2000/svg"
   xmlns="http://www.w3.org/2000/svg"
   xmlns:sodipodi="http://sodipodi.sourceforge.net/DTD/sodipodi-0.dtd"
   xmlns:inkscape="http://www.inkscape.org/namespaces/inkscape"
   version="1.1"
   id="svg3602"
   width="329.14285"
   height="438.85715"
   viewBox="0 0 329.14285 438.85715"
   sodipodi:docname="bar_girl_colorless[down].svg"
   inkscape:version="0.92.4 (5da689c313, 2019-01-14)">
  <metadata
     id="metadata3608">
    <rdf:RDF>
      <cc:Work
         rdf:about="">
        <dc:format>image/svg+xml</dc:format>
        <dc:type
           rdf:resource="http://purl.org/dc/dcmitype/StillImage" />
        <dc:title></dc:title>
      </cc:Work>
    </rdf:RDF>
  </metadata>
  <defs
     id="defs3606" />
  <sodipodi:namedview
     pagecolor="#ffffff"
     bordercolor="#666666"
     borderopacity="1"
     objecttolerance="10"
     gridtolerance="10"
     guidetolerance="10"
     inkscape:pageopacity="0"
     inkscape:pageshadow="2"
     inkscape:window-width="1920"
     inkscape:window-height="1046"
     id="namedview3604"
     showgrid="false"
     inkscape:zoom="2.1510416"
     inkscape:cx="108.98602"
     inkscape:cy="202.16874"
     inkscape:window-x="-11"
     inkscape:window-y="-11"
     inkscape:window-maximized="1"
     inkscape:current-layer="svg3602" />
  <path
     style="fill:#000000;stroke-width:0.2742857"
     d="m 149.34696,405.87652 c -2.22567,-0.63857 -2.86333,-1.62153 -3.17183,-4.88939 -0.28441,-3.01273 -0.68071,-4.70927 -1.63378,-6.99429 -0.50338,-1.20686 -1.1332,-2.90153 -1.3996,-3.76592 -0.45672,-1.48191 -0.53109,-1.56803 -1.30272,-1.50857 l -0.81834,0.0631 -1.87089,-5.62286 c -1.02899,-3.09257 -1.87326,-6.06728 -1.87616,-6.61045 -0.004,-0.83651 0.21498,-1.19849 1.43473,-2.36656 0.792,-0.75843 1.96957,-2.00541 2.61682,-2.77108 l 1.17682,-1.39211 -1.65511,-10.02685 c -2.10675,-12.76292 -2.29688,-14.93381 -2.13833,-24.41592 0.11443,-6.84365 0.20731,-8.09124 0.84778,-11.38846 0.91279,-4.6992 1.89473,-8.33702 2.88934,-10.70427 l 0.7812,-1.8593 -0.93353,-4.07249 c -0.51343,-2.23989 -1.54176,-7.09651 -2.28516,-10.79251 -1.33284,-6.62652 -1.36408,-6.72954 -2.24589,-7.40571 -0.49183,-0.37714 -1.16447,-0.97067 -1.49475,-1.31895 -0.57042,-0.60152 -0.6843,-0.61805 -2.27342,-0.32988 -1.75062,0.31744 -4.06683,0.0669 -5.29816,-0.5732 -0.97787,-0.5083 -4.31904,-3.09758 -4.31904,-3.34709 0,-1.27915 5.3193,-17.0227 7.46306,-22.08844 2.07607,-4.9058 6.62108,-14.05832 9.27886,-18.68532 2.15074,-3.74428 7.08673,-11.16721 7.93824,-11.93781 0.52754,-0.47742 0.51634,-0.50829 -0.68145,-1.87753 -0.66979,-0.76567 -1.33854,-1.73849 -1.48611,-2.16181 -0.29195,-0.83748 -0.34255,-0.8009 2.85883,-2.06678 0.60343,-0.23861 1.14146,-0.46837 1.19564,-0.51058 0.0542,-0.0422 -0.16183,-0.44233 -0.48,-0.88916 -0.71296,-1.00126 -0.74359,-1.87266 -0.0733,-2.0854 0.27785,-0.0882 0.75895,-0.43593 1.06909,-0.77277 l 0.56391,-0.61243 -0.53653,-3.56571 c -0.29509,-1.96114 -0.58023,-4.24457 -0.63365,-5.07429 -0.13744,-2.13503 -2.26528,-9.13378 -3.74994,-12.3341 -0.3127,-0.67404 -0.99098,-2.52546 -1.50729,-4.11428 -2.5733,-7.91864 -2.65421,-17.57321 -0.19054,-22.73555 1.92255,-4.02845 5.45344,-6.62178 9.01577,-6.62178 h 1.49828 v -1.08351 c 0,-0.73037 0.15048,-1.16773 0.46169,-1.3419 0.40499,-0.22664 0.31824,-0.42972 -0.70613,-1.65323 -1.38757,-1.6573 -1.4784,-1.97352 -2.11516,-7.36423 -0.47629,-4.03222 -0.51322,-4.16925 -1.08493,-4.02576 -0.95506,0.2397 -2.50091,-0.56966 -3.02546,-1.58405 -0.92315,-1.7852 -1.6534,-2.51368 -4.22715,-4.21692 -1.47576,-0.97661 -2.99705,-2.23796 -3.50814,-2.9087 -1.22419,-1.60659 -1.82915,-3.76247 -1.55989,-5.55894 0.32953,-2.19855 0.2605,-2.91079 -0.48072,-4.9599 -0.94429,-2.6105 -1.9147,-9.66421 -1.58486,-11.52 0.13407,-0.75429 0.25112,-1.71086 0.26011,-2.12572 0.0147,-0.67963 -0.0769,-0.75428 -0.92579,-0.75428 -1.9486,0 -3.81068,-1.35077 -4.82539,-3.50037 -1.10697,-2.34506 -0.99858,-8.6222 0.18025,-10.438 0.39356,-0.60624 0.35645,-0.68837 -0.80569,-1.78286 -1.52165,-1.433073 -2.01328,-2.391402 -2.36894,-4.617714 -0.58909,-3.687576 0.92608,-8.501008 3.91588,-12.440028 1.89123,-2.491658 4.42457,-3.907869 6.34575,-3.547455 0.89097,0.167147 0.90112,0.157023 1.08736,-1.084918 0.47541,-3.170258 3.43329,-7.127669 6.41938,-8.588627 1.95815,-0.958033 4.49324,-1.16412 6.21789,-0.505473 1.29529,0.494675 3.54107,2.715942 4.59186,4.541725 l 0.59173,1.028157 1.13045,-0.484567 c 1.814,-0.777575 4.06221,-1.183779 5.42266,-0.979768 4.99698,0.749344 8.33682,9.419244 6.5353,16.965014 -0.31581,1.322817 -0.80842,2.889891 -1.09468,3.482383 l -0.52048,1.07726 0.85941,0.1641 c 6.86491,1.310814 11.42755,3.93304 15.58263,8.955631 4.86277,5.87801 6.61256,12.83512 6.01765,23.92602 -0.14402,2.68504 -0.31171,4.93175 -0.37265,4.99268 -0.0609,0.0609 -0.52593,-0.44329 -1.03334,-1.12049 -0.9892,-1.32022 -1.36917,-1.52491 -1.36917,-0.73756 0,0.27154 -0.12671,0.62042 -0.28158,0.77529 -0.15486,0.15486 -0.35697,0.95098 -0.44912,1.76914 -0.0922,0.81816 -0.26213,1.611 -0.37771,1.76185 -0.11559,0.15086 -0.29019,1.01486 -0.38801,1.92 -0.29677,2.74592 -0.99142,5.38082 -1.97108,7.47656 -1.09169,2.33537 -2.0168,5.97983 -2.9956,11.80105 -0.81471,4.84538 -0.82734,8.52064 -0.0356,10.34525 l 0.4761,1.09714 -1.2431,-1.36726 c -0.6837,-0.75199 -1.744,-2.33006 -2.35622,-3.50682 l -1.11312,-2.13956 0.50491,-3.54191 0.5049,-3.5419 -0.55455,0.46292 c -0.30501,0.25461 -1.19517,1.05054 -1.97814,1.76873 -0.78297,0.71819 -1.53638,1.3058 -1.67424,1.3058 -0.13785,0 -0.5836,0.30858 -0.99055,0.68572 -0.40694,0.37714 -0.97458,0.68571 -1.26143,0.68571 -0.28684,0 -0.84795,0.14873 -1.24692,0.33051 -0.64063,0.29189 -0.70658,0.44412 -0.56449,1.30286 0.0885,0.53479 0.16225,1.31612 0.1639,1.73628 0.003,0.6607 0.0723,0.72687 0.51553,0.48965 0.61706,-0.33024 0.85892,-0.13602 0.85892,0.6897 0,0.98196 0.29171,1.48529 0.86081,1.48529 0.73168,0 0.85736,0.50992 0.50892,2.06475 -0.46658,2.08193 -0.1597,2.36842 5.27712,4.92659 1.46833,0.69089 2.78261,1.4679 2.92061,1.7267 0.33033,0.61946 1.54852,4.95391 2.40632,8.56196 0.37659,1.584 1.02941,3.99086 1.4507,5.34857 0.55068,1.77467 0.77845,3.11977 0.81028,4.78523 0.0243,1.27416 0.0866,2.35902 0.1384,2.41079 0.23921,0.23921 5.98101,-2.24035 8.25541,-3.56505 1.25141,-0.72886 3.13438,-1.34422 3.47295,-1.13497 0.28381,0.1754 1.60134,3.02624 1.60134,3.46494 0,0.42051 2.08023,-1.60749 2.74294,-2.67408 0.46556,-0.74927 1.87748,-4.57953 2.73386,-7.41639 0.25493,-0.84449 0.62812,-1.29732 1.54958,-1.88028 1.04,-0.65795 2.07374,-1.80733 1.62549,-1.80733 -0.0795,0 0.0631,-0.52457 0.31684,-1.16572 0.41804,-1.05613 1.94688,-3.45158 4.33265,-6.78857 0.48535,-0.67886 0.95742,-1.60457 1.04904,-2.05714 0.37982,-1.87606 1.02462,-4.97837 1.15255,-5.54523 0.11197,-0.49614 0.39298,-0.64201 1.52631,-0.79235 1.22567,-0.16259 1.46656,-0.30703 2.04786,-1.22788 1.5091,-2.39056 3.35155,-3.58688 4.81085,-3.12371 0.49167,0.15605 0.56165,0.33609 0.43473,1.11826 l -0.15129,0.93227 0.72435,-0.86083 c 1.16207,-1.38106 3.71461,-2.14815 4.06961,-1.22301 0.0815,0.21235 -0.29267,1.8605 -0.83146,3.66256 -1.07163,3.5842 -1.17085,4.23608 -0.61214,4.02169 0.6618,-0.25396 2.17781,2.28951 2.05612,3.44962 -0.0476,0.45418 0.20649,1.17713 0.64865,1.84528 0.67633,1.02199 0.69922,1.15206 0.32858,1.86647 -0.36298,0.69964 -0.33678,0.953 0.29466,2.84905 0.38119,1.14461 0.69308,2.37598 0.69308,2.73637 0,0.72139 -1.09043,3.5632 -3.37885,8.80572 l -1.4966,3.42858 1.07073,1.11204 c 1.00907,1.04801 1.05297,1.16302 0.76224,1.99703 -0.16968,0.48674 -0.24149,1.14125 -0.15958,1.45447 0.19227,0.73527 -0.7541,3.80145 -1.44404,4.67857 -0.29324,0.37278 -0.74468,1.22295 -1.00322,1.88926 -0.25853,0.66632 -0.62085,1.39663 -0.80515,1.62291 -0.18429,0.22629 -0.57709,0.96686 -0.87287,1.64572 -0.63925,1.46712 -0.81996,1.62963 -3.24084,2.91433 -1.7518,0.92963 -1.97655,0.98074 -3.58718,0.81572 -0.94506,-0.0968 -3.79358,-0.5936 -6.33004,-1.10395 -2.53646,-0.51035 -5.41403,-1.01233 -6.3946,-1.1155 l -1.78286,-0.18759 -0.0503,1.27697 c -0.0549,1.39371 -0.43809,2.06287 -1.18123,2.06287 -0.55285,0 -3.24245,0.87511 -10.56274,3.43675 -2.86628,1.00303 -5.61257,1.95679 -6.10285,2.11949 -0.50298,0.1669 -0.89258,0.48492 -0.89407,0.72978 -0.001,0.23869 0.26796,2.6588 0.5987,5.37801 0.55557,4.56768 0.56756,4.98527 0.15749,5.48572 -2.62788,3.2071 -3.30831,3.97025 -3.53988,3.97025 -0.40679,0 0.009,2.84156 0.75259,5.14852 0.35373,1.09682 1.52208,5.10825 2.59633,8.91428 1.07425,3.80604 2.74282,9.51206 3.70793,12.68006 0.9651,3.168 2.61289,8.96914 3.66174,12.89143 1.8159,6.79077 3.46206,12.00808 4.30009,13.62865 0.47719,0.92279 0.49911,2.56906 0.0419,3.15072 -1.78712,2.27375 -3.83354,3.44835 -6.68979,3.83984 -0.65776,0.0902 -1.19366,0.23973 -1.19089,0.33235 0.0208,0.69836 0.94306,6.58163 1.48825,9.49416 1.02407,5.47084 1.08842,6.40221 0.57956,8.38848 -0.76515,2.98669 -3.7602,7.84177 -9.7152,15.74866 -2.92438,3.88292 -9.53968,13.61631 -10.85837,15.97643 -0.61088,1.0933 -3.09871,5.16644 -5.5285,9.05143 -5.19927,8.31305 -7.80168,12.98929 -9.70076,17.43121 -1.48442,3.47202 -1.48892,3.6003 -0.16948,4.83445 0.39099,0.36573 0.7109,0.7756 0.7109,0.91079 0,0.13523 -0.49371,0.83136 -1.09714,1.547 -1.1693,1.38671 -1.32251,2.04195 -0.677,2.89539 0.22149,0.29286 0.40271,1.0628 0.40271,1.71105 0,1.05836 0.0629,1.17197 0.61635,1.1133 0.56733,-0.0602 0.62991,0.0761 0.78703,1.71346 0.12616,1.31471 0.0762,1.85146 -0.19159,2.05714 -0.29535,0.22692 -0.18714,1.08928 0.58562,4.66692 0.52136,2.41372 1.0742,5.1027 1.22854,5.97551 0.15434,0.87283 0.57682,2.53912 0.93886,3.70285 0.96352,3.09724 0.99574,4.12244 0.14948,4.75675 -1.20376,0.90232 -7.62073,1.38369 -9.86427,0.74 z m 8.62998,-1.27222 c 0.70809,-0.19815 0.80939,-0.34146 0.72629,-1.02756 -0.35524,-2.93299 -1.53866,-3.81254 -5.11486,-3.80146 -1.46147,0.005 -2.6065,0.17195 -3.42857,0.50139 -0.67886,0.27201 -1.54286,0.51231 -1.92,0.53395 -0.62419,0.0358 -0.67749,-0.0468 -0.59403,-0.92064 0.0699,-0.73135 0.0149,-0.88545 -0.23074,-0.64698 -0.4907,0.4764 -0.0615,3.7838 0.60014,4.62495 0.29339,0.37297 0.92681,0.80102 1.4076,0.95119 0.97427,0.30432 7.26339,0.14636 8.55417,-0.21484 z m -3.75876,-5.99652 c 1.21582,0.0872 1.69637,0.0315 1.62363,-0.18835 -0.22247,-0.67239 -2.33234,-0.82091 -4.79318,-0.3374 -1.31092,0.25758 -2.42038,0.50521 -2.46548,0.5503 -0.0451,0.0451 -0.0112,0.26652 0.0754,0.49204 0.13718,0.3575 0.39284,0.34272 1.99503,-0.11526 1.27595,-0.36471 2.36556,-0.4874 3.56463,-0.40133 z m 3.34733,0.3222 c 0,-0.22628 -0.11955,-0.41143 -0.26568,-0.41143 -0.14612,0 -0.19463,0.18515 -0.10779,0.41143 0.0868,0.22629 0.20639,0.41143 0.26568,0.41143 0.0593,0 0.10779,-0.18514 0.10779,-0.41143 z m -5.98019,-2.04548 c 1.52865,-0.23106 2.54434,-0.23904 3.68073,-0.029 0.86322,0.15958 1.6144,0.24524 1.66929,0.19036 0.0549,-0.0549 0.0167,-0.61964 -0.0849,-1.255 -0.22003,-1.37601 -0.75134,-1.6625 -3.07418,-1.65764 -1.7368,0.004 -3.66623,0.45196 -5.57102,1.29454 -1.50082,0.66388 -1.58502,0.77623 -1.4155,1.8889 l 0.13031,0.85525 1.27703,-0.48417 c 0.70237,-0.2663 2.22709,-0.62779 3.38827,-0.80327 z m -4.97854,-4.42859 c -0.15784,-1.25878 -0.28698,-3.00162 -0.28698,-3.87303 0,-0.87335 -0.12309,-1.58433 -0.27429,-1.58433 -0.36933,0 -0.33332,1.22436 0.13715,4.66286 0.21672,1.584 0.39795,2.99314 0.40273,3.13144 0.005,0.13827 0.0761,0.18399 0.15853,0.10159 0.0824,-0.0824 0.0207,-1.17975 -0.13714,-2.43853 z m 4.09065,0.98156 c 0.82369,-0.22256 2.09119,-0.40463 2.81665,-0.40463 1.22975,0 1.30881,-0.0418 1.16807,-0.61714 -0.083,-0.33943 -0.36637,-1.78972 -0.62965,-3.22286 -0.26328,-1.43314 -0.59885,-2.60039 -0.7457,-2.59389 -0.14685,0.007 -1.5654,0.11191 -3.15234,0.23418 l -2.88534,0.22234 0.20771,2.9201 c 0.28082,3.94809 0.36556,4.25414 1.11826,4.03921 0.33259,-0.095 1.27864,-0.35476 2.10234,-0.57731 z m 4.93792,-3.41162 c -0.66614,-3.21551 -1.06147,-4.00477 -0.53457,-1.0672 0.5474,3.05184 0.86848,4.39044 1.01739,4.24153 0.0796,-0.0796 -0.13763,-1.50808 -0.48282,-3.17433 z m -10.82051,-0.4438 c -0.22361,-1.64722 -0.58231,-3.48864 -0.79711,-4.09207 -0.7483,-2.10218 -1.29047,-5.4748 -1.53381,-9.54125 -0.13475,-2.25163 -0.30488,-4.15378 -0.37807,-4.22699 -0.0732,-0.0732 -0.57681,0.46443 -1.11913,1.19474 -0.79058,1.06458 -0.9543,1.49091 -0.82594,2.15065 0.4806,2.47008 0.48871,2.68128 0.098,2.55357 -0.21159,-0.0692 -0.50904,-0.63179 -0.661,-1.25025 -0.36136,-1.47069 -0.48162,-1.55613 -1.1575,-0.82226 l -0.56737,0.61608 0.63138,2.33143 c 0.50369,1.85987 2.24989,7.23028 3.02334,9.29823 0.11295,0.30196 0.27592,0.25964 0.76334,-0.19826 l 0.61972,-0.58219 1.0874,2.84755 c 0.59807,1.56617 1.11797,2.81795 1.15534,2.78175 0.0374,-0.0362 -0.11501,-1.41353 -0.33861,-3.06073 z m 6.85353,-3.95934 c 3.88947,-0.432 3.89813,-0.43518 3.75975,-1.37801 -0.0655,-0.44654 -0.26255,-0.81186 -0.43781,-0.81186 -0.35267,0 -7.8974,1.2861 -8.87623,1.51307 -0.33942,0.0787 -0.61714,0.32588 -0.61714,0.54931 0,0.4958 2.40759,0.54556 6.17143,0.12749 z m -7.55224,-5.51605 c -0.49164,-4.98811 -0.81702,-6.42468 -0.67551,-2.98239 0.11451,2.78526 0.62589,6.45902 0.8657,6.21918 0.0645,-0.0645 -0.0211,-1.52105 -0.19019,-3.23679 z m 7.62081,2.75279 2.26286,-0.34437 v -1.03285 -1.03285 l -2.94857,1.39669 c -3.31365,1.5696 -3.56869,1.73025 -2.4,1.51167 0.45257,-0.0847 1.84114,-0.3089 3.08571,-0.49829 z m -2.02573,-1.56662 3.25427,-1.56285 0.0618,-20.57143 c 0.0735,-24.46143 0.45317,-33.55274 1.93002,-46.21714 0.82708,-7.09237 1.97682,-15.64405 2.33428,-17.36207 0.15064,-0.724 0.27389,-1.372 0.27389,-1.44 0,-0.068 -0.60414,-0.12364 -1.34253,-0.12364 -1.68897,0 -4.71487,-0.91294 -6.3712,-1.92225 -1.22172,-0.74444 -1.36698,-0.7674 -3.97715,-0.62798 -2.23607,0.11945 -2.98451,0.0509 -4.28626,-0.39283 -1.27688,-0.43518 -1.57714,-0.46453 -1.57714,-0.15423 0,1.20041 3.66033,18.22927 4.71877,21.953 0.24392,0.85816 0.2503,1.24493 0.0243,1.47097 -0.41665,0.41664 -0.89878,0.0702 -0.92241,-0.66287 -0.0324,-1.00333 -1.01371,1.51395 -1.89627,4.86416 -0.90799,3.4467 -1.48588,6.40569 -1.93998,9.93339 -0.38636,3.0014 -0.36907,14.82723 0.0274,18.73961 0.31591,3.11754 3.1012,20.37414 3.54334,21.95331 0.14783,0.528 0.64913,3.552 1.11398,6.72 0.98116,6.68662 1.04666,6.99903 1.46349,6.98 0.17222,-0.008 1.77755,-0.71759 3.56739,-1.57715 z m 5.66002,-6.2257 c 0,-0.17952 -0.23202,-0.53637 -0.51559,-0.79302 -0.49205,-0.44528 -0.52055,-0.43159 -0.62455,0.30037 -0.0599,0.4218 -0.0639,0.99226 -0.009,1.26764 0.095,0.4755 0.12646,0.47682 0.62455,0.0261 0.28846,-0.26107 0.52447,-0.62153 0.52447,-0.80105 z m -0.57448,-5.96572 c 2.04388,-4.73516 4.35532,-8.92696 9.47241,-17.17827 2.3034,-3.71424 4.60174,-7.49373 5.10744,-8.39887 1.40169,-2.50889 7.8932,-12.06978 11.6394,-17.14286 7.10277,-9.61851 9.24045,-13.21799 9.80293,-16.50646 0.25121,-1.46861 0.20986,-2.17366 -0.27058,-4.61354 -0.3119,-1.584 -0.90974,-4.97829 -1.32852,-7.54286 -0.41878,-2.56457 -0.80187,-4.71585 -0.85131,-4.78058 -0.0494,-0.0648 -0.54905,0.10121 -1.11023,0.36883 -1.29784,0.6189 -4.6013,0.87618 -6.17192,0.48072 -1.02709,-0.25863 -1.4206,-0.22327 -2.63013,0.23629 -1.82903,0.69499 -4.2726,0.69825 -6.23552,0.008 -1.5043,-0.52871 -1.51985,-0.5286 -2.44201,0.0154 l -0.92807,0.54759 1.09927,2.65881 c 1.49306,3.61128 4.569,9.88976 6.07301,12.39596 0.94454,1.57394 1.16337,2.14429 0.9316,2.42817 -0.24782,0.30353 -0.39433,0.25813 -0.80547,-0.2496 -0.27639,-0.34135 -0.6151,-0.81688 -0.75268,-1.05674 -0.20634,-0.35975 -0.54405,-0.12395 -1.92869,1.34674 -7.92322,8.41561 -13.15641,18.19776 -17.53488,32.77715 -0.77019,2.56457 -1.52019,4.87718 -1.66667,5.13912 -0.27547,0.49262 -0.392,20.23231 -0.11944,20.23231 0.0808,0 0.37332,-0.52458 0.65006,-1.16572 z m 2.13298,-30.78857 c 2.39906,-6.79666 5.52553,-13.27082 8.78467,-18.1909 1.44542,-2.18203 4.96671,-6.61262 7.54477,-9.49301 l 1.21052,-1.3525 -1.83305,-3.6325 c -1.00818,-1.99787 -2.53101,-5.27723 -3.38408,-7.2875 l -1.55104,-3.65502 -2.01469,-0.0397 c -1.93986,-0.0383 -4.41235,-0.79324 -4.83445,-1.47621 -0.0986,-0.15961 -0.50193,-0.1316 -1.04231,0.0724 -1.19242,0.4501 -1.33252,0.98301 -2.5066,9.53502 -1.9871,14.47406 -2.3859,19.63222 -3.14912,40.73143 l -0.12898,3.56571 0.9681,-3.01714 c 0.53246,-1.65943 1.40378,-4.25143 1.93626,-5.76 z m 12.77021,-45.65138 c 1.8682,-1.18477 2.10636,-1.69881 1.85058,-3.99434 -0.11766,-1.056 -0.35237,-4.32685 -0.52157,-7.26857 -0.47484,-8.25561 -0.81785,-13.01314 -1.44362,-20.02286 -0.41718,-4.6732 -0.58388,-8.76515 -0.60619,-14.88033 l -0.0308,-8.43462 -0.82286,-0.1137 c -0.45257,-0.0625 -1.62514,-0.22986 -2.60571,-0.37182 -1.1431,-0.1655 -1.84474,-0.16269 -1.95529,0.008 -0.26305,0.40566 -1.00324,6.36222 -1.4569,11.7241 -0.65212,7.70762 -0.77812,13.16563 -0.45193,19.57762 0.3391,6.66587 1.29914,19.53815 1.56149,20.9366 0.14482,0.77195 0.0418,1.0193 -0.72186,1.73264 -0.48994,0.45767 -0.83373,0.88921 -0.76397,0.95896 0.47129,0.4713 2.61867,0.9185 4.48904,0.93484 1.99051,0.0176 2.3349,-0.0604 3.47956,-0.78632 z m 8.04436,0.40356 c 0.74395,-0.22118 1.75317,-0.74575 2.24271,-1.16571 0.84367,-0.72379 0.87625,-0.82083 0.62483,-1.86076 -4.43391,-18.34005 -6.16256,-29.50648 -7.13355,-46.08 -0.15025,-2.56457 -0.27438,-4.94057 -0.27584,-5.28 -0.002,-0.56487 -0.13042,-0.61714 -1.51122,-0.61714 h -1.50858 v 7.89682 c 0,5.97606 0.16401,9.89557 0.67426,16.11429 0.37084,4.5196 0.80249,10.43917 0.95921,13.1546 0.54866,9.50617 0.8775,13.72093 1.13276,14.51877 0.21226,0.66344 0.13875,0.98373 -0.41929,1.82699 l -0.67666,1.02251 1.01629,0.42174 c 1.30108,0.5399 3.15862,0.55814 4.87508,0.0479 z m -19.51624,-0.56141 c 1.66131,-0.50397 3.7267,-1.68738 3.72406,-2.13378 -0.002,-0.40363 -0.70015,-9.54848 -1.14495,-15.00556 -0.17829,-2.18743 -0.3326,-7.92686 -0.34291,-12.75429 -0.0192,-9.00141 0.35693,-14.78489 1.46001,-22.4478 0.42183,-2.93043 0.42621,-3.27159 0.0436,-3.40104 -0.23388,-0.0791 -1.13329,-0.42107 -1.9987,-0.75986 l -1.57346,-0.61599 -0.27906,0.9952 c -0.42499,1.51566 -2.3649,10.67877 -3.14317,14.84663 -2.06219,11.04368 -3.44227,24.51689 -3.44227,33.60555 v 5.27445 l -0.85655,0.17132 c -1.13651,0.2273 -0.72404,0.73994 1.21018,1.50405 3.0625,1.20985 4.27703,1.34789 6.3432,0.72112 z m 28.45984,-0.21698 c 0.50155,-0.21013 1.32604,-0.73128 1.83221,-1.15804 0.88337,-0.74482 0.91297,-0.8318 0.73753,-2.16729 -0.4198,-3.19561 -5.13607,-22.88427 -6.31227,-26.35132 -0.20471,-0.60343 -0.64036,-2.33143 -0.96811,-3.84 -0.32776,-1.50857 -1.01493,-4.53257 -1.52705,-6.72 -1.28906,-5.50598 -2.8085,-12.58929 -2.91242,-13.57714 -0.0857,-0.8151 -0.1007,-0.82208 -1.58627,-0.7403 -0.82484,0.0454 -1.5267,0.10956 -1.55969,0.14255 -0.1107,0.11071 0.44034,9.32265 0.87254,14.58632 0.98857,12.03981 3.81482,27.84889 6.6276,37.07255 0.41648,1.36568 0.41094,1.44449 -0.15778,2.24318 l -0.58942,0.82774 0.6218,0.13602 c 1.02494,0.2242 3.94552,-0.0454 4.92133,-0.45427 z m 6.28175,-1.17507 c 1.93953,-0.78158 3.06097,-1.68867 3.55136,-2.87259 0.28207,-0.68098 0.1871,-1.11854 -0.78187,-3.60207 -1.12652,-2.88736 -1.96171,-5.69955 -4.42381,-14.89549 -0.76741,-2.86629 -2.06329,-7.37143 -2.87975,-10.01143 -0.81645,-2.64 -2.36736,-7.94743 -3.44648,-11.79429 -1.99417,-7.10886 -3.50795,-12.06857 -3.68352,-12.06857 -0.0534,0 -0.69557,0.27772 -1.42712,0.61715 -1.1316,0.52504 -1.31726,0.71947 -1.24411,1.30285 0.38008,3.03141 3.38848,16.00525 6.90079,29.76 3.39127,13.28072 5.33135,22.27661 5.04248,23.38124 -0.0848,0.32415 -0.35745,0.64339 -0.60597,0.70939 -0.24852,0.066 -0.072,0.13434 0.39229,0.15184 0.46427,0.0176 1.63685,-0.28761 2.60571,-0.67803 z m -43.95763,-1.48881 1.42206,-0.61175 0.001,-5.52051 c 0.002,-12.09105 2.67075,-31.82722 6.18577,-45.75307 0.36866,-1.46048 0.67028,-2.76753 0.67028,-2.90455 0,-0.31659 -1.23338,-0.88575 -1.91943,-0.88575 -0.40826,0 -1.20824,1.39137 -3.66661,6.37715 -6.57965,13.34407 -9.44505,22.73398 -12.36671,40.52571 -0.85375,5.19906 -0.89945,5.35889 -1.63462,5.71755 l -0.75632,0.36898 0.64041,0.68628 c 0.76787,0.82288 2.29463,1.64118 4.34328,2.32791 1.99674,0.66934 5.09624,0.52578 7.08079,-0.32795 z M 136.3,285.91138 l 1.08876,-0.53568 0.99335,-5.89715 c 2.75654,-16.36456 5.77488,-26.36384 11.59349,-38.4073 0.98199,-2.03256 2.28108,-4.58319 2.88685,-5.66809 l 1.10141,-1.97253 -1.55918,-0.90728 c -0.85754,-0.49901 -1.63205,-0.94195 -1.72114,-0.98432 -0.30084,-0.14307 -3.47031,3.91809 -5.56481,7.13041 -1.14443,1.7552 -3.14061,5.14444 -4.43596,7.53162 -6.30912,11.62702 -10.16648,20.89309 -13.84474,33.25759 l -1.17723,3.95724 1.07236,0.93266 c 0.58979,0.51296 1.6895,1.23789 2.44378,1.61095 1.20085,0.59392 1.66142,0.66643 3.70286,0.58292 1.60026,-0.0655 2.67288,-0.26336 3.4202,-0.63104 z m 40.7398,-49.67927 c 2.10637,-0.50578 3.77175,-1.36358 3.9915,-2.05594 0.0866,-0.27289 0.0764,-1.03681 -0.0227,-1.69761 l -0.18017,-1.20146 -1.82575,0.63232 c -3.55586,1.23153 -8.1992,1.42333 -11.99572,0.49549 -0.44472,-0.10869 -0.83302,0.20166 -1.76695,1.4122 l -1.19697,1.55149 -1.52448,-0.16971 c -1.89448,-0.21091 -1.40091,0.16003 1.08123,0.81258 3.68555,0.96893 9.89887,1.07093 13.44,0.22064 z m -11.9824,-3.86213 c 1.90612,-2.99141 2.81498,-4.70656 3.96646,-7.4853 l 1.08434,-2.61673 -3.04849,0.011 c -2.34586,0.008 -3.23814,-0.0941 -3.87134,-0.44525 -0.86012,-0.47692 -2.60571,-1.95538 -2.60571,-2.20696 0,-0.0801 -0.82092,-1.55027 -1.82425,-3.26696 -1.00334,-1.71669 -2.34562,-4.22761 -2.98284,-5.57984 l -1.15858,-2.45859 -0.69727,1.36145 c -0.38349,0.7488 -0.95436,1.57624 -1.26859,1.83876 -0.69355,0.57943 -0.69909,1.13833 -0.056,5.6525 l 0.48253,3.38695 -1.04752,0.84181 c -0.57613,0.463 -1.04751,0.95638 -1.04751,1.09642 0,0.14003 0.25838,0.61747 0.57418,1.06097 0.3158,0.4435 0.51406,0.96303 0.44058,1.15452 -0.0735,0.19149 -0.97986,0.70009 -2.01418,1.13023 -1.03432,0.43014 -1.98357,0.87196 -2.10943,0.98181 -0.63788,0.55675 4.937,4.71948 7.506,5.60468 0.67414,0.23229 1.47256,0.54132 1.77427,0.68673 0.81539,0.39298 4.2198,1.05525 5.55609,1.08085 1.14918,0.022 1.18603,-0.007 2.34723,-1.82907 z m 13.07954,-1.40123 c 0.98057,-0.32167 1.94008,-0.68709 2.13224,-0.81203 0.26632,-0.17317 0.33153,-1.39615 0.27429,-5.1441 l -0.0751,-4.91693 -0.62617,1.81135 c -0.34439,0.99624 -0.79715,2.04519 -1.00614,2.331 -0.75179,1.02812 -0.77907,0.0658 -0.0572,-2.01794 1.00398,-2.89817 1.00227,-2.90364 -0.71047,-2.268 -1.85474,0.68834 -4.59754,1.43864 -5.20603,1.42412 -0.26103,-0.006 -0.54269,0.0988 -0.62592,0.23352 -0.0832,0.13467 -0.31264,0.18296 -0.50978,0.1073 -0.24142,-0.0926 -0.70012,0.69482 -1.40499,2.41198 -0.57559,1.40224 -1.529,3.51888 -2.11867,4.70363 -0.58967,1.18475 -1.00398,2.22225 -0.92069,2.30554 0.79995,0.79995 8.25428,0.68359 10.85465,-0.16944 z m 6.19807,-1.72078 0.9399,-1.28039 -0.996,-3.7988 c -0.5478,-2.08934 -1.11971,-4.26166 -1.27092,-4.82737 -0.2891,-1.08164 -0.39247,-1.16416 -0.98653,-0.7876 -0.2933,0.1859 -0.34538,1.40959 -0.25957,6.09865 0.059,3.22635 0.20855,6.08742 0.33223,6.35793 0.21545,0.47121 0.24745,0.47142 0.76294,0.005 0.29593,-0.26781 0.96101,-1.06311 1.47795,-1.76733 z m 0.22799,-9.35799 c -0.18169,-1.69232 -0.46083,-2.40541 -0.75517,-1.92914 -0.15473,0.25035 0.61098,3.64343 0.8222,3.64343 0.0643,0 0.0342,-0.77143 -0.067,-1.71429 z m -16.1632,1.15629 c 3.41517,-0.38627 8.09452,-1.61379 12.48,-3.27382 2.03657,-0.77091 6.10971,-2.24986 9.05143,-3.28658 2.94171,-1.03671 6.08914,-2.19746 6.99428,-2.57943 l 1.64572,-0.69451 0.0704,-1.5924 c 0.0388,-0.87583 -0.023,-3.19698 -0.13714,-5.15812 l -0.2076,-3.56572 -0.82286,-0.0446 c -0.45257,-0.0246 -2.42743,0.18341 -4.38857,0.46215 -1.96114,0.27875 -4.368,0.5829 -5.34857,0.67589 -3.62641,0.3439 -4.57433,0.44089 -6.72,0.68759 -1.20686,0.13877 -3.24343,0.33636 -4.52571,0.4391 -3.1497,0.25237 -4.41348,0.67433 -6.00135,2.00378 -0.73885,0.61859 -1.48051,1.12472 -1.64815,1.12472 -0.58382,0 -0.29839,-0.72145 0.64855,-1.63927 1.11996,-1.0855 1.15218,-0.76553 -0.62899,-6.24645 -0.75213,-2.31442 -1.4125,-3.90857 -1.6191,-3.90857 -0.19189,0 -2.12748,1.73305 -4.3013,3.85123 -3.73893,3.64322 -7.29538,8.11772 -7.29538,9.1786 0,0.63158 1.78974,4.35545 3.72926,7.75941 2.75672,4.83817 3.22248,5.36241 5.18503,5.83603 1.15881,0.27965 1.10788,0.28004 3.84,-0.029 z m 33.632,-10.59812 c 0.45698,-0.0914 0.80659,-0.34634 0.82814,-0.60388 0.0953,-1.13985 -0.0977,-7.27023 -0.26599,-8.44664 -0.21383,-1.49485 -0.50418,-1.65502 -2.1814,-1.20339 l -1.07999,0.29081 0.0658,1.43961 c 0.0362,0.79178 0.15798,3.14627 0.27069,5.23218 l 0.20492,3.79258 0.6835,-0.17155 c 0.37592,-0.0944 1.03938,-0.24273 1.47436,-0.32972 z m -48.62585,-2.482 0.60256,-1.4324 -1.60834,-4.05332 c -0.88458,-2.22932 -2.12528,-5.34931 -2.75709,-6.93331 -0.63181,-1.584 -1.20785,-3.15449 -1.28008,-3.48998 -0.0722,-0.33549 -0.26711,-0.95263 -0.43305,-1.37142 -0.60924,-1.53755 -0.98975,-3.31387 -0.78191,-3.65017 0.29231,-0.47296 1.09152,-0.12183 1.09278,0.48011 10e-4,0.46241 1.68923,5.47877 3.00659,8.93347 l 0.60543,1.58772 1.00491,-1.6443 c 0.5527,-0.90436 1.33766,-2.05619 1.74436,-2.55961 1.78886,-2.21427 6.39431,-6.33093 9.05062,-8.09006 l 1.01292,-0.67081 -1.52616,-4.43104 c -2.71631,-7.88651 -3.98728,-9.92449 -7.20677,-11.55593 -1.94631,-0.98627 -3.34031,-0.96381 -5.37131,0.0865 -3.70528,1.91621 -4.96968,4.12007 -5.61337,9.78415 -0.71376,6.28063 0.5244,13.35435 3.47233,19.83764 0.52575,1.15626 2.03784,5.81418 2.81943,8.68512 0.86718,3.18532 0.80389,3.05745 1.21136,2.44737 0.19372,-0.29005 0.62338,-1.17195 0.95479,-1.95977 z m 68.02974,1.00999 c 1.95553,-1.05406 2.2943,-1.31826 2.91719,-2.27509 l 0.50615,-0.77751 -1.07533,0.45853 c -1.86155,0.79376 -2.33427,0.95934 -2.7389,0.95934 -0.88965,0 -0.28491,-0.53303 1.43315,-1.26322 1.94067,-0.82479 3.65899,-2.21111 3.65899,-2.95203 0,-0.56394 -0.0394,-0.56113 -1.29441,0.0924 -1.20001,0.62493 -2.09442,0.80282 -2.22622,0.44277 -0.0506,-0.13831 0.99851,-0.81717 2.33143,-1.50857 1.90077,-0.98595 2.52525,-1.46099 2.89531,-2.20242 0.2595,-0.51992 0.4165,-1.00063 0.3489,-1.06824 -0.0676,-0.0676 -1.04714,0.28004 -2.17673,0.77255 -1.91175,0.83354 -2.89542,0.93885 -2.89542,0.30998 0,-0.1444 1.00672,-0.67285 2.23717,-1.17433 2.01166,-0.81987 2.28753,-1.02237 2.73683,-2.00892 0.64875,-1.42451 0.63883,-2.13137 -0.0385,-2.74438 -0.30264,-0.27389 -0.59315,-0.4473 -0.64558,-0.38537 -0.0524,0.0619 -0.43695,0.70447 -0.8545,1.42785 -0.41754,0.72339 -0.81859,1.25584 -0.8912,1.18323 -0.0726,-0.0726 -0.45621,-0.009 -0.85245,0.14189 -1.14983,0.43716 -5.50493,0.957 -7.48792,0.89378 -1.74525,-0.0556 -3.41189,-0.61987 -3.86819,-1.30956 -0.2881,-0.43546 -0.25619,-1.93 0.0589,-2.75875 0.14784,-0.38885 0.72281,-1.1066 1.2777,-1.59499 1.8603,-1.63735 2.58277,-2.52694 2.89452,-3.56404 0.17035,-0.56669 0.23074,-1.10932 0.13421,-1.20586 -0.17477,-0.17477 -1.85236,0.83436 -3.0081,1.80948 -0.73239,0.61793 -3.61532,2.90677 -4.84885,3.84963 -0.48933,0.37403 -1.74784,1.76794 -2.79668,3.09757 -1.15078,1.45885 -2.28447,2.59751 -2.85891,2.87144 l -0.95192,0.45395 0.16975,1.52278 c 0.0934,0.83753 0.25101,2.69446 0.35032,4.12653 l 0.18058,2.60375 1.37143,0.22472 c 0.75428,0.12359 3.26906,0.59649 5.58839,1.05089 3.99015,0.78174 6.77212,1.2212 8.22464,1.29925 0.35603,0.0191 1.34346,-0.34045 2.19429,-0.79906 z m -64.71643,-5.23711 c 1.57125,-2.34063 7.01167,-8.01266 9.17702,-9.56769 0.708,-0.50845 1.23761,-1.0549 1.17691,-1.21433 -0.0607,-0.15944 -0.56271,-1.74017 -1.1156,-3.51275 -0.55288,-1.77257 -1.07191,-3.22285 -1.15339,-3.22285 -0.36976,0 -4.51399,3.32847 -6.58453,5.28841 -2.53221,2.39694 -3.93898,4.17524 -4.93304,6.23582 -0.83483,1.73051 -0.82861,1.86825 0.1741,3.85458 0.45779,0.90689 0.8033,1.79823 0.76779,1.98076 -0.0772,0.39697 0.63986,2.39297 0.85495,2.37973 0.0828,-0.005 0.81894,-1.00486 1.63579,-2.22168 z m 18.44647,-1.37013 c 1.32798,-0.17031 2.58303,-0.44802 2.789,-0.61714 0.89413,-0.73418 1.62546,-3.41977 1.6364,-6.00923 0.0102,-2.40257 -0.0643,-2.72917 -1.51495,-6.64112 -2.53609,-6.83928 -2.13582,-6.24158 -6.56294,-9.80017 -2.16496,-1.74023 -4.23553,-3.48711 -4.60125,-3.88195 -0.36573,-0.39483 -0.75802,-0.71788 -0.87176,-0.71788 -0.22616,0 -3.69401,-3.38677 -3.85163,-3.76159 -0.16481,-0.39191 -5.12251,-3.64413 -5.55513,-3.64413 -0.22386,0 -0.48329,-0.12343 -0.57653,-0.27428 -0.0932,-0.15086 -0.50166,-0.27148 -0.90762,-0.26804 l -0.73809,0.006 0.82285,0.41518 c 2.8466,1.43626 5.03202,3.55094 6.27454,6.07143 0.28299,0.57407 0.73332,1.47576 1.00074,2.00376 0.26742,0.528 0.70318,1.76228 0.96836,2.74285 0.26518,0.98058 0.57018,1.90629 0.67779,2.05715 0.10761,0.15085 0.32629,0.70628 0.48596,1.23428 0.6609,2.18553 4.5804,14.3572 5.5704,17.29842 0.58736,1.74499 1.06793,3.38042 1.06793,3.63429 0,0.55802 0.55133,0.57958 3.88593,0.15193 z m 7.96706,-1.06467 c 1.31457,-0.12475 2.49724,-0.29302 2.62817,-0.37394 0.48139,-0.29751 0.95087,-4.75562 0.82882,-7.87036 -0.11161,-2.84833 -0.19293,-3.24608 -0.8875,-4.34063 -0.83872,-1.32171 -6.61858,-12.86451 -7.43126,-14.84075 -0.39875,-0.96968 -0.76154,-1.35791 -1.69225,-1.81093 -0.69621,-0.33889 -1.18417,-0.45198 -1.18342,-0.27429 8.2e-4,0.1663 0.24698,1.96865 0.5473,4.00522 0.30033,2.03657 0.54662,4.34969 0.54731,5.14027 8.2e-4,1.01805 0.32946,2.29842 1.12618,4.38858 3.068,8.04872 3.34992,9.05836 3.17235,11.36103 -0.0902,1.16998 -0.28862,2.34839 -0.44088,2.61868 -0.15226,0.27029 -0.4643,0.96748 -0.69342,1.54931 l -0.4166,1.05786 0.75253,-0.19162 c 0.4139,-0.10539 1.82809,-0.29369 3.14267,-0.41843 z m 6.79844,-0.68015 c 2.57607,-0.21767 6.82071,-0.95612 6.98033,-1.21438 0.12025,-0.19457 -1.36746,-5.19828 -1.62093,-5.45174 -0.0741,-0.0742 -1.85125,0.57206 -3.94913,1.43602 l -3.81431,1.57084 -0.18475,1.41686 c -0.10161,0.77928 -0.25636,1.70824 -0.3439,2.06435 -0.13205,0.53719 -0.071,0.6223 0.35819,0.49968 0.28454,-0.0813 1.44307,-0.22603 2.5745,-0.32163 z m 10.76571,-2.04778 c 0.61983,-0.0155 0.61138,-0.1106 -0.2233,-2.51327 -0.38681,-1.11347 -0.77254,-2.37371 -0.85718,-2.80055 -0.20413,-1.02944 -0.71344,-1.17787 -2.01999,-0.58871 -1.15389,0.52034 -1.22881,0.69704 -0.82292,1.94099 0.14272,0.43737 0.51381,1.67525 0.82467,2.75085 l 0.56519,1.95563 1.02676,-0.36645 c 0.56472,-0.20154 1.24277,-0.37187 1.50677,-0.37849 z m 4.25717,-1.58918 c 1.42896,-1.42467 3.29588,-3.64781 3.83127,-4.56232 0.18693,-0.31929 0.83705,-0.95082 1.44472,-1.40339 l 1.10485,-0.82286 -0.16911,-1.78286 c -0.2498,-2.63352 -0.55115,-2.9069 -0.96983,-0.87982 -0.1944,0.94117 -0.48264,1.66821 -0.64054,1.61565 -0.47753,-0.15896 -0.47768,-0.87903 -5.5e-4,-2.52036 0.45223,-1.55563 0.78356,-2.00845 2.1777,-2.97617 1.26672,-0.87926 2.34812,-3.19358 1.49227,-3.19358 -0.3714,0 -3.70146,1.98027 -4.72176,2.80786 -0.61067,0.49534 -1.11709,1.64564 -2.50723,5.69499 -1.48798,4.33434 -1.82283,5.07429 -2.29632,5.07429 -0.73064,0 -1.93734,1.14834 -1.82139,1.7333 0.0503,0.25354 0.16548,0.92384 0.25606,1.48956 0.23915,1.49359 1.13396,1.40655 2.81986,-0.27429 z m 16.74285,-0.89572 c 3.00396,-0.31643 3.42418,-0.49964 3.89818,-1.69951 0.19596,-0.49605 0.56628,-1.14877 0.82294,-1.45048 0.52818,-0.62089 3.03312,-6.4338 4.00987,-9.30519 1.10252,-3.24113 1.61239,-2.98574 -5.59387,-2.80187 -3.432,0.0876 -7.01584,0.24266 -7.96409,0.34466 -1.79886,0.1935 -1.78824,0.18658 -3.62742,2.36079 -0.47513,0.56168 -1.00827,0.99368 -1.18475,0.96 -0.33719,-0.0644 -0.36627,2.38131 -0.0489,4.11526 l 0.16197,0.88508 2.13391,-1.46977 c 2.51749,-1.73396 3.74354,-2.40047 3.98027,-2.16374 0.31237,0.31237 0.17869,2.27618 -0.21986,3.23007 -0.21549,0.51572 -1.13575,1.65347 -2.04504,2.52833 -1.45976,1.4045 -2.22604,2.57331 -2.22604,3.39541 0,0.14325 0.40115,0.50504 0.89143,0.80397 1.02576,0.62542 2.92302,0.69767 7.01145,0.26699 z m -36.86221,-11.72142 c -0.49427,-2.1958 -2.59536,-9.51326 -2.78008,-9.68212 -0.25642,-0.23442 -2.82059,-1.36407 -2.82059,-1.24262 0,0.0464 0.84772,1.86007 1.88383,4.0303 1.0361,2.17023 2.2639,4.77901 2.72844,5.7973 0.88473,1.93934 1.27565,2.37327 0.9884,1.09714 z m -9.44067,-4.83029 c 0,-0.6578 -0.0764,-1.75353 -0.16981,-2.43494 -0.1582,-1.15422 -0.24333,-1.26097 -1.24485,-1.56103 -1.9354,-0.57986 -3.64317,-0.66602 -4.48269,-0.22616 l -0.77759,0.40743 3.13176,2.49876 c 1.72246,1.37431 3.22433,2.50172 3.33747,2.50535 0.11314,0.004 0.20571,-0.53161 0.20571,-1.18941 z m 48.54857,0.2585 c 2.48915,-0.0851 5.18915,-0.15578 6,-0.15715 1.46175,-0.002 1.473,-0.009 1.32282,-0.75678 -0.0833,-0.41485 -0.29471,-1.12457 -0.46978,-1.57714 l -0.31831,-0.82286 -0.89643,1.02858 c -1.67965,1.92724 -3.08561,0.8689 -2.22011,-1.67119 0.61866,-1.81568 0.54541,-1.87261 -0.80634,-0.6266 -1.33172,1.22753 -1.51182,1.29953 -2.00842,0.80293 -0.44869,-0.44869 -0.41354,-1.83124 0.0823,-3.23657 0.22628,-0.64136 0.41143,-1.23063 0.41143,-1.30948 0,-0.26312 -7.53056,0.1685 -8.36572,0.4795 -0.58215,0.21678 -1.31636,1.04493 -2.50993,2.83105 -2.23049,3.33786 -2.94078,4.57107 -2.74535,4.7665 0.0887,0.0887 0.66557,0.0333 1.2819,-0.12314 0.99792,-0.2533 1.19229,-0.21801 1.7754,0.32241 0.60524,0.56092 0.817,0.59162 2.79782,0.40572 1.17866,-0.11062 4.17959,-0.27072 6.66873,-0.35578 z m 6.7558,-5.56119 c 0.0841,-0.33086 0.0724,-0.732 -0.0262,-0.89143 -0.62439,-1.01029 -2.20764,0.8274 -2.46782,2.86441 l -0.17516,1.37143 1.25807,-1.37143 c 0.69194,-0.75429 1.32692,-1.64213 1.41106,-1.97298 z m -3.56128,-0.70131 c 2.20189,-2.08083 2.68562,-3.01778 2.12138,-4.1089 -0.63867,-1.23505 -2.73338,-0.97023 -3.21182,0.40605 -0.19051,0.54804 0.15083,0.61365 0.95459,0.18349 1.01232,-0.54178 0.86597,-0.0154 -0.38146,1.37207 -0.67807,0.75417 -1.31097,1.76184 -1.40646,2.23926 -0.21052,1.05263 -0.22174,1.62232 -0.0319,1.62232 0.0779,0 0.95799,-0.77143 1.95569,-1.71429 z m -58.264,0.89246 c 1.05176,-0.64126 2.20937,-0.68424 4.42005,-0.16412 l 1.602,0.37691 -0.15464,-0.86119 c -0.0851,-0.47366 -0.23416,-1.37776 -0.33136,-2.00912 -0.15788,-1.02567 -0.22992,-1.11469 -0.67635,-0.83589 -0.3979,0.24849 -0.85265,0.16707 -2.233,-0.3998 -2.25439,-0.9258 -4.30543,-0.84226 -5.96287,0.2429 l -1.12933,0.7394 1.71385,1.72922 c 0.94262,0.95108 1.7453,1.72923 1.78372,1.72923 0.0384,0 0.474,-0.24639 0.96793,-0.54754 z m 55.9324,-4.59423 c 0.42515,-0.42515 1.13237,-4.51647 0.81466,-4.71282 -0.32477,-0.20072 -5.67147,-0.10361 -7.07717,0.12855 -0.80605,0.13311 -0.89504,0.25538 -1.14653,1.57518 -0.50135,2.63106 -0.61289,3.49576 -0.47887,3.7126 0.16378,0.26501 7.58092,-0.39652 7.88791,-0.70351 z m -60.33594,0.29926 c 0.37278,-0.33736 0.5016,-0.85048 0.5016,-1.998 0,-1.41345 -0.0674,-1.58387 -0.79661,-2.01463 -0.43813,-0.25882 -0.88298,-0.47057 -0.98855,-0.47057 -0.19614,0 0.10216,4.35846 0.32384,4.73143 0.18407,0.30971 0.40689,0.25208 0.95972,-0.24823 z m 8.28747,-2.63177 c -0.0997,-1.24457 -0.20467,-2.29296 -0.2333,-2.32974 -0.14387,-0.18486 -2.34115,1.9453 -2.34115,2.26963 0,0.77287 0.61892,1.69427 1.32656,1.97489 1.42022,0.5632 1.44351,0.52747 1.24789,-1.91478 z m -4.37974,1.27351 c 0.27767,-0.10655 0.43387,-0.50154 0.43387,-1.09714 0,-0.83331 -0.0789,-0.93027 -0.75429,-0.92691 -1.5757,0.008 -1.98857,0.26995 -1.98857,1.26253 0,0.87349 0.0551,0.92801 0.93757,0.92801 0.51566,0 1.1328,-0.0749 1.37142,-0.16649 z m -7.406,-1.07987 c -0.22338,-0.53464 -0.33323,-1.09007 -0.2441,-1.23429 0.0891,-0.14421 -0.0265,-0.26221 -0.25695,-0.26221 -0.25976,0 -0.35901,0.15637 -0.26113,0.41143 0.26306,0.68552 -0.439,0.46003 -0.75979,-0.24404 -0.49288,-1.08174 -2.56544,-1.76392 -2.38351,-0.78453 0.078,0.41978 3.60987,3.05876 4.11992,3.07835 0.10545,0.004 0.009,-0.43007 -0.21444,-0.96471 z m 1.006,-0.42811 c -0.14453,-0.36133 -0.27061,-0.51277 -0.28018,-0.33654 -0.0232,0.42806 0.2963,1.24019 0.43382,1.10266 0.06,-0.06 -0.009,-0.40479 -0.15364,-0.76612 z m 12.11243,-0.10839 c 0.0721,-0.37714 0.0248,-0.68571 -0.10517,-0.68571 -0.12994,0 -0.23625,0.30857 -0.23625,0.68571 0,0.37714 0.0473,0.68571 0.10517,0.68571 0.0578,0 0.16415,-0.30857 0.23625,-0.68571 z m 8.32916,-4.32138 c 0.0258,-3.06344 0.18682,-4.36382 1.02734,-8.29576 0.54822,-2.56457 1.07446,-4.97143 1.16941,-5.34857 0.16836,-0.66865 0.16178,-0.67206 -0.26433,-0.13715 -0.24034,0.30172 -0.44091,0.64614 -0.44571,0.76539 -0.01,0.24182 -0.75488,1.32645 -2.22077,3.23252 -0.91944,1.19554 -1.0078,1.49497 -1.48128,5.01992 -0.42793,3.18593 -0.44842,3.86084 -0.13648,4.49679 0.34823,0.70991 0.37769,0.63582 0.57503,-1.44605 0.3339,-3.52258 0.83292,-6.4422 1.13277,-6.62752 0.17822,-0.11015 0.21869,0.16226 0.1128,0.7593 -0.89488,5.0455 -0.92528,9.19081 -0.0767,10.46251 0.27682,0.41486 0.51997,0.75367 0.54033,0.75291 0.0204,-8.2e-4 0.0508,-1.63618 0.0676,-3.63429 z m -11.7594,2.45346 c 0.29736,-0.29735 0.28718,-0.7071 -0.0584,-2.34976 -0.23019,-1.09429 -0.41853,-2.51361 -0.41853,-3.15406 v -1.16444 l -1.65536,-0.49586 c -0.91044,-0.27272 -2.05216,-0.76126 -2.53714,-1.08565 -1.59276,-1.06533 -8.20323,-4.59515 -8.34328,-4.4551 -0.0753,0.0753 0.002,0.97817 0.17091,2.00631 0.16933,1.02813 0.42166,3.22705 0.56073,4.88648 0.40501,4.83259 0.59587,5.20875 2.94166,5.79751 0.65528,0.16447 0.69908,0.12234 0.53842,-0.51779 -0.2767,-1.10246 0.38415,-1.08125 2.17399,0.0698 1.60948,1.03504 1.64563,1.0436 3.94559,0.93367 1.41407,-0.0676 2.46197,-0.25169 2.68138,-0.4711 z m 58.2299,-4.09779 c 0.18507,-0.61676 0.14093,-0.75429 -0.24206,-0.75429 -0.68431,0 -1.5625,0.69284 -2.21367,1.74646 -0.76125,1.23173 -0.7265,1.41943 0.32036,1.73048 0.86377,0.25665 0.90722,0.23021 1.40023,-0.85175 0.27984,-0.61414 0.61065,-1.45605 0.73514,-1.8709 z m -71.03542,0.31538 c -0.29896,-1.26717 -0.67135,-3.16796 -0.82752,-4.22396 -0.34953,-2.36333 -1.10214,-12.03885 -1.10478,-14.20294 -0.002,-1.71685 -0.584,-3.70393 -1.90515,-6.50563 l -0.84071,-1.78285 0.12762,6.99428 c 0.16447,9.01379 1.08031,16.58069 2.25172,18.60439 0.37798,0.65299 0.72832,1.14617 0.77853,1.09596 0.0502,-0.0502 -0.13116,-1.025 -0.40304,-2.16618 -0.68974,-2.89503 -0.94339,-4.91703 -0.61682,-4.91703 0.14764,0 0.35666,0.70972 0.4645,1.57715 0.42411,3.41121 2.00617,8.44382 2.49938,7.95061 0.0659,-0.0659 -0.12476,-1.15663 -0.42373,-2.4238 z m 65.41593,2.28613 c 0.15802,-0.11083 0.55232,-0.84951 0.87623,-1.64151 0.50087,-1.22471 0.52575,-1.44 0.16644,-1.44 -1.02705,0 -3.11283,1.98709 -3.11283,2.96554 0,0.35613 1.59997,0.44576 2.07016,0.11597 z m -48.04785,-6.48594 c 2.65463,-1.91156 7.68805,-7.50882 7.40821,-8.23807 -0.0714,-0.186 0.0486,-0.48622 0.2666,-0.66715 0.27714,-0.23001 0.35215,-0.65867 0.24935,-1.42507 -0.13568,-1.01158 -0.086,-1.11996 0.64468,-1.40531 1.98169,-0.77393 2.97177,-3.25339 4.3046,-10.77997 0.374,-2.112 0.76447,-4.04659 0.86773,-4.29909 0.13815,-0.33785 -0.17001,-0.73622 -1.16701,-1.50857 -1.30738,-1.0128 -1.36116,-1.10967 -1.53827,-2.77092 -0.24676,-2.31464 -1.92044,-8.04729 -2.84587,-9.74761 l -0.74746,-1.37334 -0.36236,2.56145 c -0.3849,2.72074 -0.72902,3.40019 -2.3183,4.57729 l -0.88707,0.65702 -0.16679,-1.04241 c -0.0917,-0.57332 -0.18702,-0.79554 -0.21174,-0.49382 -0.0247,0.30171 -0.27948,1.06515 -0.56614,1.69654 -0.67733,1.49188 -2.44632,2.52599 -6.46104,3.777 -3.91262,1.21919 -5.02907,1.4197 -5.19826,0.93358 -0.0714,-0.20506 -0.32478,-2.22427 -0.56315,-4.48712 -0.54941,-5.21575 -0.97154,-7.56723 -1.3198,-7.352 -0.17314,0.107 -0.20224,1.85771 -0.0807,4.8568 0.21035,5.19236 0.44816,6.91847 0.93894,6.8152 0.45619,-0.096 0.40737,0.61948 -0.0693,1.01504 -0.72456,0.60133 -0.22241,1.04962 0.93802,0.83742 1.35778,-0.24829 2.96583,-8.2e-4 5.2628,0.81016 1.64823,0.58187 1.83684,0.72605 1.95381,1.49357 0.19365,1.27071 -0.0261,1.36471 -1.0626,0.4546 -1.17558,-1.03216 -3.58885,-1.77523 -5.73691,-1.76644 -2.43014,0.01 -3.11271,0.44884 -4.33954,2.79035 l -1.04812,2.00042 1.04582,-0.43697 c 0.57521,-0.24034 1.98297,-0.50924 3.12836,-0.59757 2.26857,-0.17494 4.28261,0.29626 5.55955,1.3007 0.37083,0.2917 1.12471,0.62395 1.67528,0.73835 0.55057,0.11439 0.96386,0.33098 0.91842,0.48131 -0.0454,0.15034 -0.23691,0.2562 -0.42548,0.23525 -0.18857,-0.021 -0.34286,0.13333 -0.34286,0.34285 0,0.5346 -0.14785,0.48245 -0.97377,-0.34346 l -0.72441,-0.72442 -0.65124,1.60233 c -1.17713,2.89626 -3.24208,4.13383 -4.82283,2.89041 -0.95446,-0.75078 -1.435,-2.71062 -1.09941,-4.4839 0.27515,-1.45399 0.2142,-1.49632 -1.26483,-0.87834 -2.07124,0.86542 -2.66783,2.02701 -1.97583,3.84709 0.40586,1.06751 0.0728,1.18657 -0.68094,0.24338 -0.35695,-0.44667 -0.73681,-0.72509 -0.84415,-0.61871 -0.32639,0.3235 -1.22544,3.8497 -1.22544,4.80635 0,1.15707 -0.34827,1.14654 -0.7713,-0.0233 -0.18311,-0.50638 -0.57819,-1.14265 -0.87796,-1.41394 -0.53733,-0.48627 -0.54503,-0.47273 -0.54503,0.95866 0,0.79854 0.14635,2.85591 0.32523,4.57193 l 0.32522,3.12003 2.50838,1.4968 c 5.07053,3.0257 11.82789,6.10165 13.53777,6.16241 0.20712,0.007 1.13284,-0.53118 2.05714,-1.19676 z m -1.07846,-6.34385 c 0.32904,-0.24739 1.162,-0.4003 2.18057,-0.4003 2.19418,0 1.65628,0.43369 -0.79299,0.63937 -1.72352,0.14473 -1.86552,0.12026 -1.38758,-0.23907 z m -8.01204,-2.03885 -0.89675,-1.0801 0.89675,-1.22941 c 0.49322,-0.67617 0.98368,-1.23705 1.08991,-1.24639 0.10623,-0.009 0.63419,0.56064 1.17324,1.26661 l 0.98009,1.28359 -1.02319,1.04784 c -0.56276,0.57631 -1.09072,1.04562 -1.17324,1.0429 -0.0825,-0.003 -0.55359,-0.49099 -1.04681,-1.08504 z m 10.6339,-2.17171 c 0,-0.1345 0.27772,-0.31701 0.61714,-0.40558 0.33943,-0.0886 0.97303,-0.44905 1.40799,-0.80107 l 0.79085,-0.64004 -0.9627,-1.35438 c -1.2102,-1.70259 -1.91702,-3.08316 -1.78353,-3.48362 0.0567,-0.17005 0.48921,0.36289 0.96117,1.18431 0.47196,0.82143 1.17365,1.91863 1.55931,2.43822 0.38566,0.51959 0.7012,1.1086 0.7012,1.3089 0,0.20029 -0.57959,0.73175 -1.28798,1.18099 -1.2968,0.82241 -2.00345,1.02425 -2.00345,0.57227 z m 3.96468,-7.83441 c -0.47457,-0.47457 -0.67325,-0.9757 -0.67325,-1.69814 0,-0.95197 -0.0277,-0.98704 -0.389,-0.4929 -0.59124,0.80857 -0.76811,0.33195 -0.29607,-0.79782 0.62158,-1.48763 2.36704,-2.64647 3.98615,-2.64647 0.99603,0 3.77385,0.62306 4.31456,0.96774 0.11715,0.0747 -0.59015,1.55238 -1.27635,2.66655 -0.6411,1.04095 -1.35805,1.4397 -0.98632,0.54857 0.81281,-1.94852 0.8134,-1.95512 0.24255,-2.71971 -0.9397,-1.25863 -1.17226,-1.10567 -1.01166,0.66542 0.17349,1.91323 -0.32961,3.12884 -1.55774,3.76393 -1.11082,0.57443 -1.57164,0.52406 -2.35287,-0.25717 z m 2.34915,-0.42764 c 0.90722,-0.646 1.2188,-1.75962 0.96529,-3.45013 -0.1661,-1.10763 -0.2476,-1.20898 -0.97206,-1.20898 -0.43491,0 -1.11835,0.28178 -1.51875,0.62619 -0.9463,0.81398 -1.24344,2.85967 -0.56562,3.89415 0.54732,0.83533 1.0647,0.86966 2.09114,0.13877 z m -1.52483,-1.1112 c -0.24845,-0.402 0.0998,-2.11423 0.47747,-2.34765 0.47872,-0.29586 1.36036,0.97016 1.14863,1.64939 -0.28543,0.91565 -1.23875,1.32501 -1.6261,0.69826 z m -9.82971,-2.84945 c -0.24251,-0.37013 -0.99728,-0.999 -1.67726,-1.39749 -0.67997,-0.39849 -1.23631,-0.83623 -1.23631,-0.97275 0,-0.34915 0.0558,-0.33173 1.47141,0.45948 1.19988,0.67063 2.36859,1.8284 2.36859,2.34643 0,0.46012 -0.49068,0.22937 -0.92643,-0.43567 z m 6.68643,0.41972 c 0,-0.55872 1.44729,-1.92354 2.35878,-2.22435 1.36961,-0.45202 1.46665,-0.13463 0.16229,0.53081 -0.60378,0.30803 -1.34322,0.87207 -1.64319,1.25342 -0.56596,0.71949 -0.87788,0.87587 -0.87788,0.44012 z m -0.24869,-3.08266 c -0.1663,-0.47703 -0.27095,-0.88866 -0.23255,-0.91472 0.0384,-0.0261 1.05724,-0.27921 2.26409,-0.56256 2.65837,-0.62414 6.79535,-0.7148 7.32308,-0.16048 0.30031,0.31544 0.1577,0.34652 -0.899,0.19595 -2.52131,-0.35928 -7.14073,0.80726 -7.56393,1.91011 -0.24402,0.6359 -0.56565,0.46698 -0.89169,-0.4683 z m -25.44249,16.44028 c 0.0851,-0.34341 0.0589,-2.72266 -0.0582,-5.28723 -0.24272,-5.31304 -0.47102,-6.01944 -2.72373,-8.42777 -3.31468,-3.54366 -6.57271,-3.81085 -8.13911,-0.66749 -0.90197,1.81 -0.91403,3.67496 -0.0358,5.52954 0.78703,1.66196 1.81527,2.66759 4.68669,4.58367 1.55253,1.03599 2.48176,1.89595 3.2023,2.96363 1.53548,2.2752 1.80547,2.52282 2.40237,2.20337 0.28091,-0.15034 0.58039,-0.55431 0.66552,-0.89772 z m -2.34326,-2.55596 c -0.0881,-0.0881 -0.0964,-0.63526 -0.0185,-1.21595 0.12888,-0.96092 0.0667,-1.09456 -0.69264,-1.4872 -0.56812,-0.29379 -0.86663,-0.33425 -0.93576,-0.12685 -0.19892,0.59675 -1.84888,-0.0804 -3.23713,-1.32859 -1.72236,-1.54854 -2.28721,-2.60724 -2.22789,-4.17569 0.0274,-0.72388 -0.0945,-1.30971 -0.30093,-1.44634 -0.59506,-0.39386 0.59215,-1.04208 1.90856,-1.04208 1.49546,0 2.70593,0.49971 4.03308,1.66498 1.3488,1.18425 1.54071,1.76322 1.08466,3.27216 -0.54102,1.79009 -0.48343,2.04287 0.58102,2.55048 0.77079,0.36756 0.95461,0.60733 0.93266,1.21651 -0.0563,1.56139 -0.62161,2.62406 -1.12709,2.11857 z m -1.80134,-4.22039 c -0.0777,-0.52924 -0.24866,-0.76323 -0.50107,-0.68571 -1.40895,0.43275 -1.38451,0.39899 -0.69562,0.96092 0.93929,0.76619 1.33614,0.67493 1.19669,-0.27521 z m -1.19149,-1.43521 c 1.21227,-0.27982 1.40255,-0.41992 1.56309,-1.15089 0.15483,-0.70493 0.0511,-0.94996 -0.67798,-1.60139 -1.04106,-0.93018 -1.28722,-0.9522 -1.69885,-0.15196 -0.1746,0.33942 -0.622,0.94401 -0.99423,1.34352 -0.5657,0.60715 -0.62614,0.82101 -0.36827,1.30286 0.35999,0.67265 0.37275,0.67416 2.17624,0.25786 z m -2.05571,-2.82602 c 0.64803,-0.98901 0.56341,-1.51822 -0.24274,-1.51822 -0.61714,0 -0.68571,0.10971 -0.68571,1.09714 0,1.25756 0.29323,1.39055 0.92845,0.42108 z m 13.66064,2.52069 0.68571,-2.13251 -0.84883,-0.90241 c -1.02777,-1.09264 -2.44289,-3.63095 -2.28367,-4.09625 0.0633,-0.18497 0.43659,0.28083 0.82955,1.03511 1.04519,2.00625 1.8356,3.10899 1.83777,2.56398 0.001,-0.25007 0.35007,-0.57457 0.77886,-0.72406 0.46994,-0.16381 0.916,-0.6063 1.12858,-1.11953 0.32519,-0.78506 0.28495,-0.95241 -0.53688,-2.23314 -0.90027,-1.40293 -2.17318,-4.23665 -2.1851,-4.86439 -0.0146,-0.77075 0.47811,-0.26633 0.80382,0.82286 0.19173,0.64114 0.648,1.75723 1.01394,2.4802 l 0.66533,1.3145 0.71219,-0.56021 c 0.3917,-0.30811 0.87894,-0.56021 1.08274,-0.56021 0.2038,0 0.67324,-0.46285 1.0432,-1.02857 0.65811,-1.00634 0.66703,-1.09377 0.4127,-4.04571 -0.29264,-3.39675 -0.025,-16.86857 0.33509,-16.86857 0.12818,0 0.23305,0.65074 0.23305,1.4461 0,0.79536 0.30893,2.9245 0.68652,4.73143 0.37759,1.80693 0.89954,5.29104 1.1599,7.74247 0.41808,3.93651 0.53112,4.45714 0.9678,4.45714 0.27193,0 0.55227,-0.18514 0.62296,-0.41143 0.40989,-1.31202 0.48479,-1.38947 0.65162,-0.67372 0.15333,0.65781 0.22732,0.68472 1.29397,0.47065 1.03599,-0.20791 1.14555,-0.31295 1.29984,-1.24628 0.0927,-0.56057 0.16985,-1.48208 0.17151,-2.04779 0.002,-0.58231 0.13802,-1.02857 0.31416,-1.02857 0.21527,0 0.26908,0.58796 0.17463,1.90802 l -0.13652,1.90802 0.95602,-0.39945 c 0.5258,-0.2197 0.98467,-0.39945 1.0197,-0.39945 0.11361,0 1.19303,-3.94697 1.36897,-5.00572 0.094,-0.56571 0.29111,-1.02857 0.438,-1.02857 0.1469,0 0.20516,0.27772 0.12948,0.61715 -0.0757,0.33942 -0.32508,1.45874 -0.55421,2.48737 -0.22913,1.02863 -0.54419,2.10863 -0.70013,2.4 -0.37269,0.69637 -0.18481,0.67007 1.40868,-0.19722 1.14977,-0.62578 1.41806,-0.94078 1.92725,-2.26285 0.73589,-1.91067 1.0089,-6.76461 0.53389,-9.49233 -0.1767,-1.01468 -0.26183,-1.90433 -0.18917,-1.97698 0.0727,-0.0727 0.34,0.52807 0.59411,1.33495 0.3058,0.97102 0.50907,2.83498 0.60117,5.51277 0.0765,2.22514 0.22692,4.04571 0.33417,4.04571 0.10725,0 0.5441,-0.3918 0.97078,-0.87067 0.63124,-0.70846 0.81286,-1.23228 0.9748,-2.81143 0.75926,-7.40412 -1.61008,-15.1596 -5.76994,-18.886462 -1.83605,-1.64493 -4.52535,-2.907226 -6.63666,-3.115091 l -1.7333,-0.170649 1.13765,0.839972 c 2.29654,1.695629 4.84142,4.90171 5.43167,6.84291 0.36392,1.19688 -0.26999,0.57007 -1.01454,-1.00317 -0.9284,-1.96172 -2.57588,-3.866106 -4.69259,-5.42434 -2.25388,-1.659211 -2.4959,-1.545013 -1.41456,0.667505 1.69228,3.462585 3.71825,10.668525 3.69832,13.154155 -0.0122,1.52343 -0.43076,0.57525 -0.63054,-1.42844 -0.30909,-3.10007 -3.01363,-11.369462 -4.23713,-12.955428 -0.43006,-0.55747 -0.6026,-0.591917 -1.91821,-0.382931 -0.7951,0.126306 -1.50189,0.285891 -1.57063,0.354635 -0.0687,0.06875 0.10994,0.743284 0.39708,1.498977 0.57301,1.50805 1.38491,5.454197 1.38491,6.731237 0,1.52996 -0.46841,0.51702 -0.64637,-1.39779 -0.16628,-1.78915 -1.23601,-5.712485 -1.79178,-6.57154 -0.46621,-0.720633 -1.75039,-0.03462 -3.72265,1.98866 -2.99908,3.07666 -4.95391,6.84204 -6.51217,12.54372 -1.67099,6.11415 0.0828,18.98894 3.51682,25.8179 0.51017,1.01452 0.92758,1.96497 0.92758,2.11211 0,0.14715 0.46286,0.99952 1.02857,1.89416 0.75668,1.19664 1.07169,1.50838 1.19168,1.17931 0.0897,-0.24602 0.47169,-1.40694 0.84884,-2.57982 z m -4.99666,-18.21798 c -0.40578,-2.85859 -0.22432,-7.60942 0.40132,-10.50665 0.51809,-2.39924 1.68006,-6.26719 2.05757,-6.8492 0.59763,-0.92139 0.48149,0.008 -0.26438,2.11585 -1.4314,4.04497 -2.00017,7.87279 -1.82341,12.27159 0.085,2.11454 0.23746,4.18405 0.33888,4.5989 0.1095,0.44792 0.0715,0.75429 -0.0935,0.75429 -0.15287,0 -0.43027,-1.07315 -0.61645,-2.38478 z m 7.69059,-2.48379 c 0.003,-4.25315 0.18098,-6.10286 0.58666,-6.10286 0.134,0 0.17263,0.28287 0.0859,0.62861 -0.0868,0.34573 -0.1817,2.62858 -0.21094,5.07298 -0.0292,2.44441 -0.14574,4.44497 -0.25889,4.44568 -0.11314,8.3e-4 -0.20435,-1.81927 -0.20269,-4.04441 z m 6.97472,20.75487 c 0.64924,-0.57004 1.11803,-1.33834 1.44019,-2.36038 0.46345,-1.47023 0.462,-1.52669 -0.0489,-1.90027 -1.07744,-0.78784 -3.45067,-1.16874 -4.22539,-0.67817 -0.50605,0.32044 -0.83405,2.59106 -0.55385,3.83407 0.24161,1.07184 1.10474,1.94988 1.91677,1.94988 0.27975,0 0.94178,-0.38031 1.47118,-0.84513 z M 167.11838,138.76 c -0.61093,-0.35648 -0.86646,-1.63567 -0.51263,-2.56629 0.23043,-0.60609 0.43173,-0.73477 1.0399,-0.6648 0.66195,0.0762 0.76492,0.21865 0.84226,1.16544 0.0803,0.9834 -0.36216,2.36196 -0.7516,2.34157 -0.0876,-0.005 -0.36572,-0.12875 -0.61793,-0.27592 z m -15.00903,-7.93033 c -1.0069,-3.79408 -1.69636,-8.06908 -1.86016,-11.53398 -0.30561,-6.46476 1.4472,-12.61616 5.1974,-18.24 0.60358,-0.90514 1.4749,-2.046855 1.93627,-2.537141 0.46136,-0.490286 0.75573,-0.891428 0.65415,-0.891428 -0.50518,0 -4.13524,1.524954 -5.91551,2.485059 -1.71277,0.92369 -3.57029,2.37114 -6.49072,5.0578 -0.32797,0.30171 -1.28962,1.47428 -2.13701,2.60571 -0.8474,1.13143 -1.79564,2.38904 -2.10721,2.7947 -0.81763,1.06454 -1.35111,2.46259 -2.12582,5.57102 -0.60468,2.42623 -0.66713,3.13864 -0.54094,6.17143 0.15203,3.65402 0.70633,6.8287 1.61751,9.26405 l 0.56031,1.49755 0.94033,-0.94032 0.94033,-0.94033 -0.69781,-3.44637 c -1.17304,-5.79344 -0.9087,-10.40076 0.83432,-14.54201 0.83168,-1.97597 2.45532,-4.60686 2.8431,-4.60686 0.14727,0 -0.22292,0.78257 -0.82263,1.73906 -1.47183,2.34742 -2.64833,5.68417 -2.9989,8.50538 -0.33113,2.66466 -0.0443,6.02922 0.8335,9.77842 l 0.54588,2.33143 1.37476,-0.0957 c 1.45586,-0.10136 1.4505,-0.0915 0.8766,-1.61858 -0.0709,-0.18857 -0.002,-0.34286 0.15351,-0.34286 0.1553,0 0.42591,0.43496 0.60136,0.96657 0.23125,0.7007 0.71308,1.21866 1.75175,1.88308 0.78801,0.50409 2.10432,1.66554 2.92513,2.581 l 1.49238,1.66449 0.0839,-1.54502 c 0.0507,-0.9327 -0.13394,-2.36584 -0.46576,-3.61614 z m 10.25721,0.85564 c -0.0502,-0.0502 -0.3566,0.0508 -0.68098,0.22443 -0.4858,0.25999 -0.52966,0.38807 -0.24879,0.7265 0.29621,0.35691 0.38563,0.32744 0.68098,-0.22443 0.187,-0.34941 0.29895,-0.67633 0.24879,-0.7265 z m 29.80282,-5.86779 c 0.0364,-8.07892 -0.64814,-11.71224 -3.13552,-16.64278 -1.71536,-3.40023 -4.99506,-7.07194 -7.76898,-8.69756 -0.66437,-0.38935 -1.20794,-0.800136 -1.20794,-0.91287 0,-0.310985 -4.11826,-2.176375 -5.21143,-2.360544 -0.84273,-0.141978 -0.89299,-0.120409 -0.41143,0.176574 2.40493,1.483148 4.43879,4.0932 5.90043,7.57203 0.81065,1.92938 1.91112,6.32787 1.92374,7.68899 0.004,0.41646 0.43957,1.43605 0.96824,2.26576 1.1198,1.75744 2.62408,6.2112 3.28877,9.73714 0.50822,2.69593 0.68522,3.20404 1.1727,3.36653 0.21348,0.0712 0.32327,-0.27812 0.32327,-1.02843 0,-0.70579 0.10645,-1.07039 0.28103,-0.9625 0.17125,0.10584 0.21102,0.70148 0.10181,1.52476 -0.11193,0.84373 -0.0754,1.35107 0.0973,1.35107 0.1521,0 0.78514,0.49358 1.40676,1.09684 l 1.13022,1.09684 -0.0141,-1.85112 c -0.008,-1.01812 -0.10749,-2.69163 -0.22164,-3.7189 -0.11416,-1.02728 -0.12136,-1.92106 -0.016,-1.98618 0.29065,-0.17962 0.48899,1.29821 0.69593,5.1854 0.27947,5.24951 0.66737,3.63454 0.6968,-2.90105 z m -4.02771,-5.35611 c -0.54596,-3.32866 -2.5535,-8.96191 -4.40205,-12.3523 -1.01885,-1.86868 -1.05802,-1.97913 -0.70186,-1.97913 0.438,0 3.01655,5.58494 4.16145,9.0134 0.62273,1.86481 1.20089,4.05566 1.28479,4.86857 0.17298,1.67607 -0.0855,2.01542 -0.34233,0.44946 z m -15.3533,10.90285 c -0.0932,-0.15085 -0.31652,-0.27239 -0.49619,-0.27008 -0.19628,0.002 -0.16245,0.11032 0.0848,0.27008 0.52694,0.34054 0.62189,0.34054 0.41143,0 z m -8.09143,-1.37142 c 0,-0.15086 -0.0544,-0.27429 -0.12095,-0.27429 -0.0665,0 -0.19724,0.12343 -0.29048,0.27429 -0.0932,0.15085 -0.0388,0.27428 0.12096,0.27428 0.15976,0 0.29047,-0.12343 0.29047,-0.27428 z m -25.63016,-15.42858 c 0.25909,-0.792 0.70101,-1.89794 0.98205,-2.45764 0.28103,-0.5597 0.51097,-1.06823 0.51097,-1.13004 0,-0.0618 -0.54425,-0.17375 -1.20945,-0.24872 -1.4296,-0.16114 -3.72769,-1.20913 -3.72769,-1.69993 0,-0.22501 0.53675,-0.0738 1.54722,0.4359 1.58219,0.79807 2.78851,0.97481 3.61919,0.53024 0.25712,-0.13761 1.24129,-1.24847 2.18705,-2.46857 l 1.71955,-2.21838 -1.45079,-0.004 c -1.60895,-0.004 -2.68508,-0.22318 -2.68508,-0.54648 0,-0.11657 1.04863,-0.14652 2.3303,-0.0666 l 2.33029,0.14538 1.31416,-1.22924 1.31416,-1.22924 -1.24446,-0.44754 c -1.46607,-0.52725 -4.02833,-2.482128 -5.1071,-3.896474 -0.83682,-1.097126 -1.81307,-3.664388 -1.5533,-4.084715 0.0901,-0.145859 0.27487,0.03587 0.41051,0.403842 0.75084,2.037041 1.80402,3.703041 3.05526,4.833032 1.46291,1.321155 3.73262,2.548735 4.72094,2.553335 0.31706,10e-4 1.42106,-0.55205 2.45334,-1.23006 1.03228,-0.678001 2.09973,-1.30346 2.3721,-1.38991 0.79393,-0.25198 0.57431,-0.476094 -1.42678,-1.455993 -2.97713,-1.457856 -4.90532,-4.080442 -6.17688,-8.401361 -1.24777,-4.240078 -1.17653,-10.348194 0.12576,-10.782292 0.27865,-0.09288 0.32365,0.01168 0.16808,0.39058 -1.21656,2.962774 -0.65829,8.927838 1.209,12.918144 0.94221,2.013463 1.27098,2.137366 0.85227,0.321197 -0.36304,-1.574666 -0.37479,-5.727629 -0.0162,-5.727629 0.1572,0 0.27631,0.84889 0.27904,1.988572 0.005,2.113994 0.55692,5.210863 1.14713,6.437442 0.48225,1.002207 2.78291,2.698154 4.19751,3.094217 1.05953,0.296651 1.42558,0.23512 4.55281,-0.765299 4.76953,-1.525799 5.31209,-1.623354 8.86066,-1.593188 l 3.15584,0.02683 0.86441,-2.605714 c 1.98279,-5.97696 1.06102,-12.482343 -2.3191,-16.366997 -1.46518,-1.68387 -3.00692,-2.199212 -5.36807,-1.794319 -3.53627,0.606404 -6.90419,2.874083 -7.98893,5.379088 -0.6255,1.444463 -1.08005,1.953115 -1.06671,1.193656 0.0111,-0.629675 1.11544,-2.803019 1.77707,-3.497143 l 0.6536,-0.685714 -0.94039,-1.294132 c -1.33161,-1.832506 -2.08393,-2.248008 -4.15403,-2.294244 -0.96074,-0.02145 -1.81949,-0.111703 -1.90833,-0.200541 -0.3054,-0.305404 1.315,-0.531544 2.57311,-0.359098 1.66272,0.227899 2.744,0.892114 3.87147,2.378183 1.09422,1.442236 1.12146,1.456386 1.80698,0.938571 0.49773,-0.375967 0.50434,-0.457525 0.10484,-1.293573 -0.64665,-1.353265 -2.90587,-3.729729 -4.14829,-4.363562 -2.35867,-1.2033 -6.40271,-0.109388 -8.83052,2.388653 -1.73238,1.782484 -2.51707,3.232945 -3.19119,5.898712 -0.69947,2.766034 -0.56319,4.941665 0.43649,6.968239 0.68266,1.38389 0.7172,1.732603 0.13605,1.373434 -0.60094,-0.371402 -1.37685,-2.572194 -1.54619,-4.38562 -0.19756,-2.115621 -0.60799,-2.511231 -2.16059,-2.082542 -1.73115,0.477995 -3.33427,1.634795 -4.60121,3.320201 -2.35451,3.132181 -3.76971,6.903774 -3.77972,10.073198 -0.0127,4.010559 1.25658,6.204184 4.25167,7.348014 1.20854,0.46154 3.05633,0.46828 4.07744,0.0148 0.29995,-0.13319 0.48,-0.0967 0.48,0.0973 0,0.74483 -3.0408,1.13569 -4.5049,0.57903 -0.61626,-0.23429 -0.74863,-0.17353 -1.09932,0.50463 -1.06996,2.06907 -1.24355,7.5403 -0.31013,9.77429 0.86739,2.07596 2.62006,3.42479 4.45231,3.42643 1.13723,0.001 1.14632,-0.007 1.61474,-1.43897 z m -2.46772,-16.182854 c -0.48881,-0.490285 -1.168,-1.632 -1.50933,-2.537143 -0.52662,-1.396558 -0.60155,-2.019445 -0.49492,-4.114285 0.13802,-2.711238 0.96175,-5.147103 1.91268,-5.656027 0.80478,-0.430705 0.87096,-0.113875 0.14078,0.674 -1.38878,1.498521 -2.00266,5.914516 -1.17603,8.459904 0.58246,1.793518 1.59914,3.18223 2.49418,3.40687 0.82317,0.206603 0.88997,0.65811 0.0974,0.65811 -0.3168,0 -0.97593,-0.401143 -1.46474,-0.891429 z m 21.7348,-2.88 c -2.22936,-2.382783 -2.6642,-7.014484 -1.01041,-10.762297 0.72651,-1.646419 1.48062,-2.417258 3.12206,-3.191325 1.69498,-0.79931 3.68844,-0.843566 5.21143,-0.115696 1.41063,0.674169 2.51624,1.564506 2.26044,1.820305 -0.10996,0.109964 -0.43938,-0.01676 -0.73203,-0.281606 -1.37199,-1.241637 -4.56592,-1.60673 -6.46555,-0.739069 -2.54687,1.16329 -3.79257,3.712677 -3.74683,7.668105 0.0257,2.223908 0.76194,4.236227 2.04939,5.601583 0.39256,0.416319 0.55576,0.754286 0.36423,0.754286 -0.19086,0 -0.66459,-0.339429 -1.05273,-0.754286 z"
     id="path4157"
     inkscape:connector-curvature="0" />
</svg>
