<?xml version="1.0" encoding="UTF-8" standalone="no"?>
<!-- Created with Inkscape (http://www.inkscape.org/) -->

<svg
   xmlns:dc="http://purl.org/dc/elements/1.1/"
   xmlns:cc="http://creativecommons.org/ns#"
   xmlns:rdf="http://www.w3.org/1999/02/22-rdf-syntax-ns#"
   xmlns:svg="http://www.w3.org/2000/svg"
   xmlns="http://www.w3.org/2000/svg"
   xmlns:sodipodi="http://sodipodi.sourceforge.net/DTD/sodipodi-0.dtd"
   xmlns:inkscape="http://www.inkscape.org/namespaces/inkscape"
   version="1.1"
   id="svg3047"
   width="329.14285"
   height="438.85715"
   viewBox="0 0 329.14285 438.85715"
   sodipodi:docname="bar_girl_colorless[up].svg"
   inkscape:version="0.92.4 (5da689c313, 2019-01-14)">
  <metadata
     id="metadata3053">
    <rdf:RDF>
      <cc:Work
         rdf:about="">
        <dc:format>image/svg+xml</dc:format>
        <dc:type
           rdf:resource="http://purl.org/dc/dcmitype/StillImage" />
        <dc:title></dc:title>
      </cc:Work>
    </rdf:RDF>
  </metadata>
  <defs
     id="defs3051" />
  <sodipodi:namedview
     pagecolor="#ffffff"
     bordercolor="#666666"
     borderopacity="1"
     objecttolerance="10"
     gridtolerance="10"
     guidetolerance="10"
     inkscape:pageopacity="0"
     inkscape:pageshadow="2"
     inkscape:window-width="1920"
     inkscape:window-height="1046"
     id="namedview3049"
     showgrid="false"
     inkscape:zoom="2.1510416"
     inkscape:cx="165.70548"
     inkscape:cy="224.50618"
     inkscape:window-x="-11"
     inkscape:window-y="-11"
     inkscape:window-maximized="1"
     inkscape:current-layer="svg3047" />
  <path
     style="fill:#000000;stroke-width:0.2742857"
     d="m 159.35143,401.24155 c -2.22567,-0.63856 -2.86333,-1.62152 -3.17183,-4.88939 -0.28441,-3.01273 -0.68071,-4.70927 -1.63378,-6.99428 -0.50338,-1.20686 -1.1332,-2.90154 -1.3996,-3.76592 -0.45672,-1.48191 -0.53109,-1.56804 -1.30272,-1.50857 l -0.81834,0.0631 -1.8709,-5.62286 c -1.02899,-3.09257 -1.87326,-6.06728 -1.87616,-6.61045 -0.004,-0.83652 0.21499,-1.19849 1.43474,-2.36657 0.792,-0.75842 1.96957,-2.00541 2.61682,-2.77108 l 1.17682,-1.39211 -1.65512,-10.02684 c -2.10675,-12.76293 -2.29687,-14.93382 -2.13832,-24.41593 0.11443,-6.84365 0.20731,-8.09123 0.84777,-11.38845 0.9128,-4.6992 1.89474,-8.33702 2.88935,-10.70427 l 0.7812,-1.85931 -0.93353,-4.07248 c -0.51344,-2.2399 -1.54176,-7.09651 -2.28516,-10.79251 -1.33284,-6.62653 -1.36408,-6.72955 -2.24589,-7.40572 -0.49183,-0.37714 -1.16447,-0.97067 -1.49475,-1.31895 -0.57042,-0.60151 -0.6843,-0.61805 -2.27342,-0.32989 -1.75062,0.31746 -4.06683,0.0669 -5.29817,-0.57317 -0.97786,-0.50831 -4.31903,-3.09759 -4.31903,-3.34711 0,-1.27914 5.3193,-17.0227 7.46306,-22.08844 2.07607,-4.9058 6.62107,-14.05831 9.27885,-18.68531 2.15074,-3.74428 7.08674,-11.16721 7.93825,-11.93782 0.52754,-0.47741 0.51633,-0.50828 -0.68145,-1.87752 -0.66979,-0.76568 -1.33854,-1.73849 -1.48611,-2.16181 -0.29195,-0.83749 -0.34255,-0.8009 2.85883,-2.06679 0.60343,-0.2386 1.14146,-0.46836 1.19563,-0.51057 0.0542,-0.0422 -0.16183,-0.44234 -0.48,-0.88917 -0.71295,-1.00125 -0.74358,-1.87265 -0.0733,-2.08539 0.27785,-0.0882 0.75894,-0.43594 1.06909,-0.77277 l 0.5639,-0.61243 -0.53652,-3.56571 c -0.29509,-1.96115 -0.58023,-4.24458 -0.63365,-5.07429 -0.13744,-2.13503 -2.26528,-9.13379 -3.74994,-12.3341 -0.3127,-0.67404 -0.99098,-2.52547 -1.50729,-4.11429 -2.5733,-7.91863 -2.65422,-17.57321 -0.19054,-22.73554 1.92255,-4.02846 5.45344,-6.62179 9.01576,-6.62179 h 1.49829 v -1.08351 c 0,-0.73036 0.15048,-1.16773 0.46169,-1.34189 0.40499,-0.22664 0.31824,-0.42973 -0.70613,-1.65323 -1.38758,-1.65731 -1.4784,-1.97353 -2.11516,-7.36424 -0.47629,-4.03221 -0.51322,-4.16924 -1.08493,-4.02576 -0.95506,0.23971 -2.50091,-0.56965 -3.02547,-1.58404 -0.92314,-1.7852 -1.65339,-2.51368 -4.22715,-4.21692 -1.47575,-0.97662 -2.99704,-2.23796 -3.50813,-2.9087 -1.22419,-1.6066 -1.82915,-3.76248 -1.55989,-5.55894 0.32953,-2.19856 0.2605,-2.91079 -0.48072,-4.95991 -0.94429,-2.61049 -1.9147,-9.66421 -1.58486,-11.52 0.13407,-0.75428 0.25112,-1.71086 0.26011,-2.12571 0.0147,-0.67964 -0.0769,-0.75429 -0.92579,-0.75429 -1.94861,0 -3.81068,-1.35076 -4.82539,-3.50036 -1.10697,-2.34507 -0.99858,-8.622207 0.18024,-10.438006 0.39357,-0.606234 0.35646,-0.688366 -0.80568,-1.782857 -1.52165,-1.433074 -2.01329,-2.391404 -2.36894,-4.617715 -0.58909,-3.687577 0.92608,-8.501009 3.91588,-12.440029 1.89122,-2.491658 4.42457,-3.907869 6.34575,-3.547455 0.89097,0.167147 0.90112,0.157023 1.08736,-1.084918 0.47541,-3.170257 3.43329,-7.127668 6.41937,-8.588626 1.95816,-0.958033 4.49325,-1.164121 6.2179,-0.505473 1.29528,0.494674 3.54107,2.715942 4.59186,4.541724 l 0.59173,1.028158 1.13045,-0.484567 c 1.814,-0.777576 4.06221,-1.183779 5.42266,-0.979768 4.99698,0.749343 8.33682,9.419243 6.5353,16.965013 -0.31582,1.322817 -0.80842,2.889891 -1.09469,3.482384 l -0.52047,1.07726 0.8594,0.1641 c 6.86492,1.310814 11.42755,3.93304 15.58264,8.955625 4.86277,5.87802 6.61256,12.83512 6.01765,23.92603 -0.14402,2.68504 -0.31172,4.93174 -0.37265,4.99268 -0.0609,0.0609 -0.52594,-0.44329 -1.03334,-1.12049 -0.9892,-1.32022 -1.36918,-1.52491 -1.36918,-0.73757 0,0.27155 -0.12671,0.62043 -0.28157,0.77529 -0.15487,0.15487 -0.35697,0.95098 -0.44913,1.76915 -0.0922,0.81816 -0.26212,1.61099 -0.3777,1.76185 -0.11559,0.15086 -0.29019,1.01486 -0.38801,1.92 -0.29694,2.74756 -0.9916,5.38122 -1.97323,7.48109 -1.07886,2.30783 -1.99865,5.91905 -2.97294,11.67214 -0.8718,5.14785 -0.9136,8.54235 -0.12425,10.08962 0.31053,0.60868 0.51684,1.25 0.45846,1.42514 -0.15105,0.45313 -2.55222,-2.89002 -3.67517,-5.11693 l -0.94677,-1.87751 0.50257,-3.5255 0.50257,-3.5255 -0.55456,0.46292 c -0.305,0.2546 -1.19516,1.05053 -1.97813,1.76872 -0.78297,0.7182 -1.53638,1.30581 -1.67424,1.30581 -0.13786,0 -0.5836,0.30857 -0.99055,0.68571 -0.40694,0.37715 -0.97459,0.68572 -1.26143,0.68572 -0.28684,0 -0.84796,0.14873 -1.24692,0.33051 -0.64063,0.29189 -0.70658,0.44412 -0.56449,1.30285 0.0885,0.5348 0.16224,1.31612 0.1639,1.73629 0.003,0.6607 0.0723,0.72687 0.51553,0.48965 0.61706,-0.33024 0.85892,-0.13603 0.85892,0.68969 0,0.98197 0.29171,1.48529 0.86081,1.48529 0.71729,0 0.85843,0.50794 0.53775,1.93518 -0.14882,0.66233 -0.21893,1.25588 -0.15581,1.319 0.0631,0.0631 1.01275,-0.0289 2.11029,-0.20438 3.89159,-0.62237 4.38479,-0.54293 8.14321,1.31163 1.87265,0.92405 3.56438,1.81251 3.75941,1.97437 0.50232,0.41689 0.72818,0.20985 2.20491,-2.02117 0.72198,-1.09076 2.12914,-3.15577 3.12704,-4.58891 2.99169,-4.29657 3.50049,-5.36069 3.74528,-7.83312 l 0.21568,-2.17831 1.02749,-0.0851 c 1.29268,-0.10702 1.3569,-0.33245 1.40478,-4.93074 0.0348,-3.34205 -0.007,-3.61823 -0.99957,-6.64134 -0.56972,-1.73486 -1.14699,-3.40115 -1.2828,-3.70286 -0.69183,-1.53695 -0.72396,-2.15586 -0.19645,-3.78473 0.48249,-1.48987 0.49302,-1.70579 0.11482,-2.35629 -0.59692,-1.02669 -0.70974,-1.85028 -0.90593,-6.61327 l -0.17512,-4.25142 -1.34504,-2.7659 c -0.73977,-1.52123 -1.34503,-2.96055 -1.34503,-3.19847 0,-0.23792 0.38999,-0.76074 0.86664,-1.16182 0.84804,-0.71358 0.86718,-0.78138 0.89143,-3.15854 0.0257,-2.51288 0.38491,-3.45345 1.61569,-4.2298 0.60546,-0.38192 1.347,0.065 1.59837,0.96334 0.13956,0.49875 0.19129,0.36443 0.21195,-0.55043 0.03,-1.32664 1.06836,-3.40433 1.85163,-3.7049 0.67654,-0.25962 1.094,0.28954 1.86275,2.45043 1.72677,4.85375 1.62504,4.66727 2.49349,4.57084 1.00543,-0.11166 3.28858,0.94263 3.61226,1.66803 0.13523,0.30305 0.79453,0.75368 1.46511,1.00139 0.98969,0.36559 1.24539,0.60136 1.35813,1.25225 0.0943,0.54466 0.5347,1.0943 1.37286,1.71358 3.37341,2.49241 3.0351,1.9041 4.4805,7.79152 1.89968,7.73775 1.76157,7.36917 2.76309,7.37395 1.22224,0.006 2.15029,0.56758 2.38367,1.44284 0.11162,0.41865 0.4509,0.97408 0.75394,1.23429 0.61381,0.52705 1.32652,2.46808 1.55855,4.24461 0.18701,1.43178 0.57766,3.79342 0.97964,5.9223 0.2973,1.57444 0.28351,1.64258 -0.79083,3.90857 -1.01191,2.1343 -1.21335,2.37705 -2.70257,3.25677 -0.88504,0.52281 -3.27545,1.72953 -5.31202,2.68159 -2.03657,0.95207 -4.38171,2.08527 -5.21143,2.51824 l -1.50857,0.7872 0.0315,7.50263 c 0.0173,4.12644 0.063,10.95937 0.10154,15.18428 0.0832,9.11532 -0.13012,10.42097 -1.97432,12.0871 -1.80237,1.62833 -3.28833,2.15736 -5.97583,2.1275 -1.28229,-0.0142 -3.08982,-0.22559 -4.01674,-0.46965 -0.92691,-0.24406 -1.74556,-0.44374 -1.81921,-0.44374 -0.0736,0 -0.66425,0.83314 -1.31245,1.85143 -1.83205,2.87804 -4.01236,4.88595 -5.90197,5.43527 -0.88719,0.25792 -2.06428,0.39955 -2.71296,0.32643 l -1.14583,-0.12915 -0.48894,2.90944 c -0.87836,5.22672 -0.8788,9.3911 -0.002,16.43508 0.72021,5.7842 0.74363,6.26759 0.32825,6.77436 -2.64238,3.22362 -3.31164,3.97428 -3.54341,3.97428 -0.40679,0 0.009,2.84155 0.75258,5.14851 0.35374,1.09683 1.52209,5.10826 2.59634,8.91429 1.07425,3.80603 2.74282,9.51206 3.70793,12.68006 0.9651,3.168 2.61289,8.96914 3.66173,12.89143 1.81591,6.79077 3.46207,12.00807 4.3001,13.62865 0.47719,0.92278 0.4991,2.56907 0.0419,3.15072 -1.78712,2.27375 -3.83354,3.44835 -6.6898,3.83984 -0.65775,0.0901 -1.19365,0.23972 -1.19089,0.33235 0.0208,0.69836 0.94307,6.58162 1.48826,9.49415 1.02407,5.47085 1.08842,6.40221 0.57956,8.38848 -0.76515,2.9867 -3.7602,7.84177 -9.7152,15.74866 -2.92438,3.88293 -9.53968,13.61632 -10.85837,15.97643 -0.61089,1.09331 -3.09871,5.16645 -5.5285,9.05143 -5.19927,8.31305 -7.80168,12.9893 -9.70076,17.43122 -1.48442,3.47202 -1.48892,3.6003 -0.16948,4.83445 0.39099,0.36573 0.7109,0.7756 0.7109,0.91079 0,0.13522 -0.49372,0.83136 -1.09715,1.547 -1.16929,1.38671 -1.3225,2.04195 -0.67699,2.89539 0.22149,0.29285 0.40271,1.0628 0.40271,1.71105 0,1.05835 0.0629,1.17196 0.61634,1.11329 0.56734,-0.0602 0.62992,0.0761 0.78704,1.71347 0.12548,1.30763 0.0755,1.85255 -0.18848,2.05714 -0.29132,0.22576 -0.18028,1.10743 0.58773,4.66692 0.5208,2.41371 1.07224,5.1027 1.22542,5.9755 0.15318,0.87284 0.57472,2.53912 0.93676,3.70286 0.96352,3.09723 0.99573,4.12243 0.14947,4.75675 -1.20375,0.90231 -7.62073,1.38368 -9.86426,0.73999 z m 8.62998,-1.27222 c 0.70809,-0.19814 0.80939,-0.34146 0.72629,-1.02756 -0.35524,-2.93299 -1.53867,-3.81254 -5.11486,-3.80146 -1.46147,0.005 -2.6065,0.17195 -3.42857,0.5014 -0.67886,0.27201 -1.54286,0.51231 -1.92,0.53395 -0.62419,0.0358 -0.67749,-0.0468 -0.59403,-0.92064 0.0698,-0.73136 0.0149,-0.88545 -0.23074,-0.64699 -0.4907,0.47641 -0.0615,3.7838 0.60014,4.62495 0.29338,0.37298 0.9268,0.80103 1.4076,0.9512 0.97427,0.30432 7.26338,0.14636 8.55417,-0.21485 z m -3.75876,-5.99652 c 1.21581,0.0873 1.69637,0.0315 1.62363,-0.18835 -0.22247,-0.67238 -2.33235,-0.82091 -4.79318,-0.3374 -1.31092,0.25759 -2.42039,0.50521 -2.46548,0.5503 -0.0451,0.0451 -0.0112,0.26653 0.0754,0.49204 0.13718,0.35751 0.39284,0.34272 1.99503,-0.11525 1.27595,-0.36472 2.36555,-0.48741 3.56463,-0.40134 z m 3.34733,0.32221 c 0,-0.22629 -0.11956,-0.41143 -0.26568,-0.41143 -0.14612,0 -0.19463,0.18514 -0.1078,0.41143 0.0868,0.22628 0.20639,0.41143 0.26568,0.41143 0.0593,0 0.1078,-0.18515 0.1078,-0.41143 z m -5.98019,-2.04549 c 1.52865,-0.23106 2.54433,-0.23904 3.68073,-0.029 0.86322,0.15958 1.6144,0.24524 1.66928,0.19035 0.0549,-0.0549 0.0167,-0.61964 -0.0849,-1.25499 -0.22003,-1.37601 -0.75134,-1.6625 -3.07418,-1.65765 -1.73681,0.004 -3.66623,0.45197 -5.57102,1.29455 -1.50082,0.66388 -1.58502,0.77623 -1.4155,1.88889 l 0.13031,0.85525 1.27703,-0.48416 c 0.70237,-0.26631 2.22709,-0.62779 3.38827,-0.80328 z m -4.97855,-4.42859 c -0.15783,-1.25878 -0.28697,-3.00162 -0.28697,-3.87302 0,-0.87335 -0.12309,-1.58433 -0.27429,-1.58433 -0.36933,0 -0.33332,1.22436 0.13714,4.66286 0.21673,1.584 0.39796,2.99314 0.40274,3.13143 0.005,0.13827 0.0761,0.184 0.15853,0.1016 0.0824,-0.0824 0.0207,-1.17976 -0.13715,-2.43854 z m 4.09065,0.98156 c 0.8237,-0.22255 2.09119,-0.40462 2.81666,-0.40462 1.22975,0 1.30881,-0.0418 1.16807,-0.61715 -0.083,-0.33943 -0.36637,-1.78971 -0.62965,-3.22285 -0.26328,-1.43315 -0.59885,-2.6004 -0.7457,-2.5939 -0.14685,0.007 -1.56541,0.11191 -3.15234,0.23419 l -2.88534,0.22233 0.20771,2.9201 c 0.28082,3.9481 0.36555,4.25415 1.11826,4.03922 0.33259,-0.095 1.27864,-0.35476 2.10233,-0.57732 z m 4.93793,-3.41162 c -0.66614,-3.21551 -1.06147,-4.00476 -0.53457,-1.06719 0.5474,3.05184 0.86848,4.39044 1.01738,4.24153 0.0796,-0.0796 -0.13762,-1.50808 -0.48281,-3.17434 z m -10.82052,-0.44379 c -0.2236,-1.64723 -0.5823,-3.48864 -0.7971,-4.09207 -0.7483,-2.10218 -1.29047,-5.4748 -1.53382,-9.54125 -0.13474,-2.25164 -0.30487,-4.15378 -0.37806,-4.22699 -0.0732,-0.0732 -0.57681,0.46442 -1.11913,1.19473 -0.79059,1.06459 -0.95431,1.49091 -0.82594,2.15065 0.4806,2.47008 0.48871,2.68128 0.098,2.55357 -0.21159,-0.0692 -0.50905,-0.63179 -0.66101,-1.25025 -0.36135,-1.47069 -0.48161,-1.55613 -1.15749,-0.82225 l -0.56737,0.61607 0.63138,2.33143 c 0.50369,1.85988 2.24989,7.23028 3.02334,9.29823 0.11294,0.30196 0.27592,0.25964 0.76333,-0.19825 l 0.61973,-0.5822 1.0874,2.84755 c 0.59807,1.56617 1.11797,2.81796 1.15534,2.78175 0.0374,-0.0362 -0.11501,-1.41353 -0.33862,-3.06072 z m 6.85354,-3.95935 c 3.88946,-0.432 3.89813,-0.43518 3.75975,-1.37801 -0.0655,-0.44653 -0.26255,-0.81185 -0.43782,-0.81185 -0.35267,0 -7.89739,1.28609 -8.87622,1.51306 -0.33943,0.0787 -0.61714,0.32588 -0.61714,0.54932 0,0.4958 2.40759,0.54555 6.17143,0.12748 z m -7.55224,-5.51605 c -0.49164,-4.9881 -0.81702,-6.42467 -0.67551,-2.98239 0.11451,2.78527 0.62588,6.45902 0.8657,6.21919 0.0645,-0.0645 -0.0211,-1.52106 -0.19019,-3.2368 z m 7.62081,2.75279 2.26286,-0.34436 v -1.03286 -1.03285 l -2.94858,1.39669 c -3.31364,1.5696 -3.56869,1.73025 -2.4,1.51168 0.45258,-0.0847 1.84115,-0.3089 3.08572,-0.4983 z m -2.02573,-1.56661 3.25427,-1.56285 0.0618,-20.57143 c 0.0735,-24.46143 0.45318,-33.55274 1.93003,-46.21714 0.82707,-7.09237 1.97682,-15.64406 2.33428,-17.36207 0.15064,-0.72401 0.27389,-1.37201 0.27389,-1.44 0,-0.068 -0.60414,-0.12365 -1.34254,-0.12365 -1.68896,0 -4.71487,-0.91293 -6.3712,-1.92225 -1.22171,-0.74444 -1.36697,-0.76739 -3.97714,-0.62798 -2.23607,0.11946 -2.98451,0.0509 -4.28626,-0.39283 -1.25788,-0.42871 -1.57715,-0.46135 -1.57715,-0.1613 0,1.11993 2.82464,14.50664 4.29123,20.33732 0.49085,1.95143 0.6243,2.92123 0.42886,3.11665 -0.39657,0.39659 -0.87636,0.0308 -0.89946,-0.68579 -0.0324,-1.00334 -1.01371,1.51395 -1.89627,4.86415 -0.90799,3.44671 -1.48588,6.4057 -1.93998,9.9334 -0.38636,3.0014 -0.36906,14.82723 0.0274,18.73961 0.31592,3.11753 3.1012,20.37414 3.54334,21.95331 0.14784,0.528 0.64913,3.552 1.11398,6.72 0.98117,6.68662 1.04666,6.99903 1.46349,6.97999 0.17222,-0.008 1.77755,-0.71758 3.5674,-1.57714 z m 5.66001,-6.22571 c 0,-0.17952 -0.23201,-0.53636 -0.51558,-0.79301 -0.49205,-0.44528 -0.52055,-0.43159 -0.62455,0.30037 -0.0599,0.42179 -0.0639,0.99225 -0.009,1.26764 0.095,0.4755 0.12646,0.47681 0.62455,0.026 0.28846,-0.26106 0.52447,-0.62153 0.52447,-0.80105 z m -0.57447,-5.96571 c 2.04388,-4.73516 4.35531,-8.92696 9.4724,-17.17827 2.3034,-3.71424 4.60175,-7.49373 5.10745,-8.39888 1.40168,-2.50889 7.89319,-12.06978 11.63939,-17.14285 7.10278,-9.61852 9.24046,-13.218 9.80294,-16.50646 0.2512,-1.46861 0.20985,-2.17366 -0.27058,-4.61354 -0.31191,-1.584 -0.90974,-4.97829 -1.32852,-7.54286 -0.41878,-2.56457 -0.80187,-4.71585 -0.85131,-4.78058 -0.0494,-0.0648 -0.54905,0.10121 -1.11023,0.36883 -1.29785,0.6189 -4.60131,0.87618 -6.17192,0.48071 -1.02709,-0.25862 -1.4206,-0.22327 -2.63013,0.2363 -1.82904,0.69498 -4.2726,0.69825 -6.23552,0.008 -1.5043,-0.52871 -1.51986,-0.52861 -2.44201,0.0154 l -0.92807,0.54758 1.09927,2.65882 c 1.49306,3.61127 4.569,9.88975 6.07301,12.39596 0.94454,1.57393 1.16337,2.14428 0.9316,2.42817 -0.24783,0.30352 -0.39433,0.25813 -0.80547,-0.2496 -0.2764,-0.34135 -0.61511,-0.81688 -0.75268,-1.05674 -0.20634,-0.35976 -0.54405,-0.12395 -1.92869,1.34674 -7.92322,8.41561 -13.15641,18.19776 -17.53488,32.77714 -0.77019,2.56457 -1.52019,4.87719 -1.66668,5.13913 -0.27546,0.49262 -0.39199,20.2323 -0.11943,20.2323 0.0808,0 0.37331,-0.52457 0.65006,-1.16571 z m 2.13298,-30.78858 c 2.39905,-6.79666 5.52553,-13.27082 8.78467,-18.1909 1.44542,-2.18202 4.96671,-6.61262 7.54477,-9.493 l 1.21052,-1.3525 -1.83305,-3.63251 c -1.00818,-1.99787 -2.53101,-5.27723 -3.38408,-7.28749 l -1.55104,-3.65502 -2.0147,-0.0397 c -1.93985,-0.0383 -4.41234,-0.79323 -4.83444,-1.4762 -0.0986,-0.15961 -0.50193,-0.13161 -1.04231,0.0724 -1.19242,0.4501 -1.33252,0.98301 -2.5066,9.53502 -1.9871,14.47406 -2.3859,19.63222 -3.14912,40.73143 l -0.12898,3.56572 0.9681,-3.01715 c 0.53246,-1.65942 1.40378,-4.25142 1.93626,-5.76 z m 12.7702,-45.65137 c 1.86821,-1.18478 2.10637,-1.69882 1.85059,-3.99434 -0.11766,-1.056 -0.35237,-4.32686 -0.52157,-7.26857 -0.47484,-8.25561 -0.81785,-13.01315 -1.44362,-20.02286 -0.41719,-4.67321 -0.58388,-8.76515 -0.60619,-14.88033 l -0.0308,-8.43462 -0.82286,-0.12105 c -3.90569,-0.57458 -4.40097,-0.6139 -4.56101,-0.36208 -0.26356,0.41473 -1.00382,6.37453 -1.45689,11.72951 -0.65213,7.70761 -0.77812,13.16562 -0.45193,19.57762 0.3391,6.66587 1.29914,19.53816 1.56149,20.9366 0.14482,0.77195 0.0418,1.0193 -0.72186,1.73264 -0.48994,0.45767 -0.83373,0.8892 -0.76398,0.95895 0.4713,0.47131 2.61868,0.9185 4.48905,0.93485 1.99051,0.0173 2.33489,-0.0604 3.47955,-0.78632 z m 8.04437,0.40356 c 0.74395,-0.22119 1.75317,-0.74576 2.24271,-1.16572 0.84367,-0.72378 0.87625,-0.82083 0.62483,-1.86075 -4.43391,-18.34005 -6.16256,-29.50648 -7.13355,-46.08 -0.15025,-2.56457 -0.27438,-4.94057 -0.27584,-5.28 -0.002,-0.56488 -0.13043,-0.61715 -1.51123,-0.61715 h -1.50857 v 7.89683 c 0,5.97606 0.164,9.89556 0.67426,16.11428 0.37084,4.51961 0.80248,10.43918 0.95921,13.15461 0.54866,9.50617 0.87749,13.72092 1.13275,14.51877 0.21226,0.66344 0.13876,0.98372 -0.41928,1.82698 l -0.67666,1.02251 1.01629,0.42175 c 1.30108,0.5399 3.15861,0.55814 4.87508,0.0479 z m -19.51624,-0.56141 c 1.66131,-0.50397 3.7267,-1.68738 3.72406,-2.13378 -0.002,-0.40364 -0.70016,-9.54849 -1.14495,-15.00557 -0.17829,-2.18743 -0.3326,-7.92686 -0.34291,-12.75428 -0.0192,-9.00141 0.35693,-14.78489 1.46,-22.4478 0.42184,-2.93044 0.42622,-3.27159 0.0436,-3.40104 -0.23388,-0.0791 -1.13329,-0.42108 -1.9987,-0.75987 l -1.57347,-0.61598 -0.27905,0.9952 c -0.42499,1.51566 -2.3649,10.67876 -3.14317,14.84663 -2.06219,11.04368 -3.44228,24.51689 -3.44228,33.60555 v 5.27445 l -0.85654,0.17132 c -1.13652,0.2273 -0.72404,0.73994 1.21018,1.50404 3.0625,1.20985 4.27703,1.3479 6.3432,0.72113 z m 28.45984,-0.21699 c 0.50154,-0.21013 1.32603,-0.73127 1.8322,-1.15803 0.88338,-0.74483 0.91297,-0.8318 0.73754,-2.1673 -0.4198,-3.19559 -5.13607,-22.88427 -6.31227,-26.35131 -0.20471,-0.60343 -0.64036,-2.33143 -0.96812,-3.84 -0.32775,-1.50858 -1.01492,-4.53258 -1.52704,-6.72 -1.28906,-5.50599 -2.8085,-12.58929 -2.91242,-13.57715 -0.0857,-0.8151 -0.1007,-0.82208 -1.58627,-0.74029 -0.82484,0.0454 -1.5267,0.10956 -1.55969,0.14255 -0.11071,0.1107 0.44034,9.32265 0.87254,14.58631 0.99029,12.06073 3.82337,27.89607 6.63818,37.10368 0.42924,1.40409 0.42491,1.46989 -0.14776,2.24448 l -0.58997,0.79795 0.61178,0.1347 c 1.01411,0.2233 3.93856,-0.048 4.9113,-0.45559 z m 6.28175,-1.17507 c 1.93953,-0.78157 3.06096,-1.68866 3.55136,-2.87259 0.28207,-0.68097 0.18709,-1.11854 -0.78187,-3.60206 -1.12652,-2.88737 -1.96171,-5.69956 -4.42381,-14.8955 -0.76741,-2.86628 -2.0633,-7.37142 -2.87975,-10.01142 -0.81645,-2.64 -2.36737,-7.94743 -3.44648,-11.79429 -1.99418,-7.10887 -3.50796,-12.06857 -3.68352,-12.06857 -0.0534,0 -0.69557,0.27771 -1.42712,0.61714 -1.1316,0.52505 -1.31726,0.71947 -1.24412,1.30286 0.38009,3.0314 3.38848,16.00524 6.9008,29.76 3.39127,13.28072 5.33135,22.27661 5.04248,23.38124 -0.0848,0.32415 -0.35746,0.64339 -0.60597,0.70938 -0.24852,0.066 -0.072,0.13435 0.39228,0.15185 0.46428,0.0176 1.63685,-0.28762 2.60572,-0.67804 z m -43.95763,-1.48879 1.42206,-0.61177 0.001,-5.5205 c 0.002,-12.09106 2.67075,-31.82722 6.18577,-45.75308 0.36866,-1.46048 0.67027,-2.76752 0.67027,-2.90454 0,-0.31659 -1.23337,-0.88575 -1.91942,-0.88575 -0.40826,0 -1.20824,1.39136 -3.66661,6.37714 -6.57966,13.34408 -9.44505,22.73398 -12.36671,40.52572 -0.85376,5.19905 -0.89945,5.35888 -1.63463,5.71754 l -0.75631,0.36899 0.64041,0.68629 c 0.76787,0.82286 2.29463,1.64117 4.34327,2.32789 1.99675,0.66934 5.09625,0.52578 7.0808,-0.32793 z m -12.71203,-3.71139 1.08877,-0.53568 0.99335,-5.89714 c 2.75653,-16.36456 5.77488,-26.36385 11.59348,-38.40731 0.982,-2.03255 2.28108,-4.58319 2.88686,-5.66808 l 1.1014,-1.97253 -1.55917,-0.90729 c -0.85754,-0.499 -1.63206,-0.94195 -1.72114,-0.98431 -0.30084,-0.14308 -3.47031,3.91809 -5.56481,7.13041 -1.14443,1.7552 -3.14061,5.14443 -4.43596,7.53162 -6.30913,11.62702 -10.16648,20.89309 -13.84474,33.25758 l -1.17723,3.95724 1.07236,0.93266 c 0.58979,0.51297 1.68949,1.23788 2.44378,1.61094 1.20085,0.59394 1.66141,0.66643 3.70286,0.58294 1.60025,-0.0655 2.67288,-0.26337 3.42019,-0.63105 z m 40.73981,-49.67926 c 2.10637,-0.50579 3.77175,-1.36359 3.9915,-2.05595 0.0866,-0.27288 0.0764,-1.0368 -0.0227,-1.69761 l -0.18017,-1.20145 -1.82575,0.63232 c -3.55587,1.23153 -8.1992,1.42332 -11.99572,0.49549 -0.44473,-0.10869 -0.83303,0.20165 -1.76695,1.41219 l -1.19697,1.5515 -1.52448,-0.16972 c -1.89448,-0.2109 -1.40091,0.16003 1.08123,0.81259 3.68555,0.96893 9.89887,1.07093 13.44,0.22064 z m -11.9824,-3.86213 c 2.5719,-4.03628 3.97376,-7.05167 6.35783,-13.67561 0.53704,-1.49213 1.14664,-3.08325 1.35466,-3.53582 3.24022,-7.04944 4.46831,-10.03073 5.44986,-13.22992 l 0.69293,-2.25849 -8.13644,-4.08244 c -9.27023,-4.65132 -12.11228,-6.14211 -13.47594,-7.06874 -0.5276,-0.35851 -1.03207,-0.65184 -1.12104,-0.65184 -0.089,0 -0.10824,2.99314 -0.0428,6.65143 0.0953,5.33111 0.0301,7.1615 -0.32872,9.22105 -0.52206,2.99652 -1.84697,6.37776 -2.95228,7.53436 -0.91463,0.95707 -0.92643,1.22446 -0.2603,5.90011 l 0.48253,3.38696 -1.04752,0.84181 c -0.57613,0.46299 -1.04752,0.95638 -1.04752,1.09641 0,0.14004 0.25839,0.61748 0.57418,1.06098 0.3158,0.4435 0.51407,0.96303 0.44058,1.15451 -0.0735,0.19149 -0.97986,0.70009 -2.01417,1.13023 -1.03432,0.43015 -1.98357,0.87196 -2.10943,0.98182 -0.63789,0.55675 4.937,4.71947 7.506,5.60467 0.67414,0.23229 1.47256,0.54132 1.77427,0.68674 0.81538,0.39298 4.21979,1.05525 5.55609,1.08084 1.14918,0.022 1.18603,-0.007 2.34723,-1.82906 z m 13.07954,-1.40124 c 0.98057,-0.32167 1.94008,-0.68708 2.13224,-0.81203 0.26632,-0.17317 0.33153,-1.39615 0.27428,-5.1441 l -0.0751,-4.91692 -0.62617,1.81134 c -0.34439,0.99625 -0.79716,2.04519 -1.00615,2.331 -0.85866,1.1743 -0.70227,-0.0705 0.4244,-3.37795 1.11783,-3.28153 1.19832,-3.71603 1.25072,-6.75125 0.0352,-2.03835 -0.0968,-3.97522 -0.3551,-5.21143 -0.22611,-1.08209 -0.4952,-3.13635 -0.59798,-4.56504 l -0.18687,-2.59761 -1.06153,2.8719 c -0.58384,1.57954 -1.97241,4.91753 -3.08571,7.41775 -1.1133,2.50021 -2.02418,4.7281 -2.02418,4.95085 0,0.22276 -0.11273,0.52227 -0.25051,0.66558 -0.13778,0.14332 -0.83105,1.80343 -1.5406,3.68915 -0.70954,1.88571 -1.95534,4.8369 -2.76844,6.55819 -0.81309,1.72129 -1.41719,3.19079 -1.34243,3.26554 0.78556,0.78556 8.26991,0.65784 10.83912,-0.18497 z m 6.18197,-1.69885 0.92381,-1.25847 -0.38069,-1.62644 c -0.64098,-2.73848 -2.25877,-8.4358 -2.64262,-9.30643 l -0.36278,-0.82286 -0.0977,1.23429 c -0.16972,2.14377 0.0992,13.0065 0.3347,13.52041 0.21594,0.47121 0.24796,0.47142 0.76345,0.005 0.29592,-0.26781 0.95376,-1.05325 1.46185,-1.74541 z m -0.0286,-11.27148 c -0.51489,-3.75985 -0.42903,-6.71627 0.33943,-11.6873 0.69831,-4.51726 0.85265,-4.08224 -1.82995,-5.15796 -1.28229,-0.51419 -2.38078,-0.93676 -2.4411,-0.93903 -0.24338,-0.009 0.24596,6.04496 0.66331,8.20646 0.24568,1.2724 0.85522,3.67926 1.35453,5.34857 0.49931,1.66931 1.18818,4.11659 1.53082,5.43841 0.34264,1.32181 0.67338,2.35289 0.73499,2.29129 0.0616,-0.0616 -0.0968,-1.6368 -0.35203,-3.50044 z m -30.76877,-10.38272 c 0.38463,-0.98057 0.83339,-2.46171 0.99722,-3.29143 0.41632,-2.10835 0.73089,-8.73329 0.63281,-13.32727 l -0.0825,-3.86441 -0.96068,-0.45813 c -0.95636,-0.45605 -1.04447,-1.00325 -0.16098,-0.99981 0.2551,0.001 0.8341,0.24704 1.28667,0.54676 0.45257,0.29973 0.99764,0.54577 1.21127,0.54677 0.21362,0.001 1.26276,0.54097 2.33143,1.19995 2.77071,1.70852 7.85043,4.36873 8.01944,4.19972 0.0786,-0.0786 -0.005,-0.85736 -0.18666,-1.73056 -0.64979,-3.13003 -0.35333,-8.6999 0.73972,-13.89744 0.43435,-2.06539 0.43186,-2.15125 -0.0727,-2.50467 -0.28737,-0.20127 -0.61392,-0.3825 -0.72567,-0.40273 -0.11175,-0.0202 -1.09918,-0.58724 -2.19429,-1.26004 -2.82784,-1.73733 -7.25024,-3.88826 -8.77445,-4.26765 -0.7137,-0.17764 -2.15503,-0.27454 -3.20296,-0.21532 -1.90097,0.10741 -1.90929,0.1114 -3.63951,1.74553 -1.98925,1.87878 -2.20522,2.2888 -3.17433,6.02644 -0.60845,2.34667 -0.71253,3.33715 -0.72058,6.85715 -0.0134,5.85582 1.08282,10.85073 3.57177,16.27487 0.52542,1.14503 2.03367,5.78486 2.82325,8.68513 0.86803,3.18845 0.80257,3.05722 1.22077,2.44737 0.1989,-0.29006 0.67634,-1.32966 1.06098,-2.31023 z m 0.3697,-9.82802 c -0.12707,-0.2056 -2.08574,-10.43541 -2.08574,-10.89347 0,-0.0683 0.216,-0.12367 0.48,-0.123 0.40695,0.001 0.62108,0.7837 1.40705,5.14286 0.50988,2.82789 0.94188,5.31349 0.96,5.52354 0.0392,0.454 -0.53415,0.71763 -0.76131,0.35007 z m 38.26803,1.98686 c 1.8693,-1.82865 3.6017,-4.35352 4.4311,-6.45804 0.98476,-2.49874 2.59553,-6.65549 5.14084,-13.26652 1.21971,-3.168 3.03401,-7.8422 4.03178,-10.38712 l 1.81411,-4.62713 -0.66294,-0.52847 c -0.36462,-0.29065 -0.97152,-0.73508 -1.34866,-0.98762 -0.37714,-0.25255 -1.36457,-1.02923 -2.19429,-1.72597 -1.87042,-1.57066 -4.07937,-3.13148 -4.2152,-2.97843 -0.056,0.0631 -0.67284,1.12784 -1.37074,2.36607 -2.79768,4.96369 -4.8541,8.13332 -7.88192,12.14867 -0.28439,0.37715 -0.71057,1.0336 -0.94707,1.45878 -0.2365,0.42518 -1.40063,2.08033 -2.58695,3.67811 -2.90697,3.9152 -3.27128,4.69655 -3.35982,7.20597 -0.0569,1.61346 -0.16132,2.05714 -0.48401,2.05714 -0.33642,0 -0.41143,-0.46824 -0.41143,-2.56845 v -2.56845 l -2.85873,-1.62196 c -1.5723,-0.89208 -2.95502,-1.52567 -3.07269,-1.408 -1.01244,1.01244 -1.21904,14.36896 -0.26123,16.88818 0.23568,0.6199 2.78277,2.11297 3.60459,2.11297 0.23166,0 0.53846,0.11571 0.68178,0.25713 0.30184,0.29785 4.25798,1.91893 5.472,2.24221 0.45257,0.12052 1.78569,0.18295 2.96248,0.13874 l 2.13963,-0.0804 z m -17.40885,-4.07955 c -0.28922,-0.75371 -0.77981,-6.21176 -0.61674,-6.8615 0.0895,-0.35675 0.23295,-2.29384 0.31869,-4.30464 0.0857,-2.01081 0.27997,-4.13457 0.43162,-4.71947 0.15165,-0.5849 0.17417,-1.1509 0.05,-1.25776 -0.73927,-0.63646 -5.70649,-3.30958 -5.96534,-3.21025 -0.43035,0.16514 -0.89941,2.19998 -1.38897,6.02552 -0.50448,3.94216 -0.50889,5.73788 -0.0207,8.42024 0.59555,3.27205 0.68301,3.40155 2.87905,4.26314 1.06634,0.41837 1.93881,0.84918 1.93881,0.95736 0,0.24492 1.65029,1.07335 2.15506,1.08182 0.21477,0.004 0.30716,-0.16324 0.21844,-0.39446 z m 32.11137,-1.67629 c 1.61339,-0.78763 2.39334,-1.63788 2.84149,-3.0976 0.44475,-1.44866 0.57705,-9.3039 0.3286,-19.51112 l -0.21697,-8.91428 -0.61829,1.59318 c -0.34005,0.87625 -0.99196,2.39243 -1.44868,3.36929 -0.45672,0.97687 -2.10288,5.13536 -3.65815,9.24111 -1.55526,4.10574 -3.54171,9.29473 -4.41432,11.53109 -1.79759,4.60691 -1.78794,4.9433 0.16701,5.82486 2.45035,1.10495 4.70513,1.09322 7.01931,-0.0365 z M 195.0878,173.95692 c 0.71198,-1.10367 1.54716,-2.27624 1.85595,-2.60571 0.4616,-0.49253 0.52974,-0.81258 0.38319,-1.79983 -0.098,-0.66043 -0.23329,-1.33929 -0.30057,-1.50858 -0.23849,-0.60009 -5.69137,-3.17412 -6.82783,-3.22307 -1.57274,-0.0677 -4.78091,0.33106 -4.95714,0.61622 -0.13569,0.21955 0.25184,0.35689 0.77428,0.2744 0.11315,-0.0179 0.20572,0.0807 0.20572,0.21912 0,0.13838 0.55748,0.46451 1.23885,0.72472 0.91945,0.35115 1.28344,0.65754 1.41179,1.1884 0.0951,0.39341 1.08396,2.54121 2.19741,4.77291 2.29177,4.59341 1.98628,4.49142 4.01835,1.34142 z m -3.65497,2.04505 c 0,-0.0543 -0.80229,-1.76714 -1.78286,-3.80628 -0.98057,-2.03914 -1.7885,-3.81526 -1.79539,-3.94695 -0.0191,-0.36421 -2.45576,-1.4453 -2.45761,-1.09037 -8.3e-4,0.1663 0.19941,1.6163 0.44507,3.22222 l 0.44665,2.91986 2.36635,1.37801 c 2.22628,1.29644 2.77779,1.55921 2.77779,1.32351 z m -6.36645,-4.71341 c -0.15441,-0.15441 -3.31795,-0.95487 -3.40999,-0.86282 -0.044,0.044 0.68734,0.53401 1.62532,1.08881 1.61355,0.95439 1.71029,0.97822 1.79614,0.44247 0.0499,-0.31144 0.0447,-0.61224 -0.0115,-0.66846 z m -0.51877,-3.35875 c -0.29135,-1.76416 -0.36381,-1.90886 -0.81486,-1.62717 -0.39197,0.24479 -0.85606,0.16093 -2.22843,-0.40266 -2.14187,-0.8796 -4.44204,-0.83877 -5.71371,0.10141 l -0.80131,0.59244 2.20399,1.32488 c 1.75338,1.054 2.46699,1.33026 3.49034,1.35121 0.70748,0.0145 1.90348,0.1764 2.65777,0.35981 0.75428,0.18342 1.4062,0.31166 1.44871,0.28496 0.0425,-0.0267 -0.0666,-0.91988 -0.2425,-1.98488 z m -9.62912,-4.34383 c 0.0759,-1.53473 0.0391,-1.6405 -0.72803,-2.09368 -0.44439,-0.26251 -0.89436,-0.47729 -0.99993,-0.47729 -0.20157,0 0.10526,4.36415 0.33379,4.74753 0.0727,0.122 0.39816,0.0459 0.72322,-0.16918 0.47476,-0.31409 0.60673,-0.7089 0.67095,-2.00738 z m 7.84307,-0.71954 c -0.0997,-1.24457 -0.20468,-2.29295 -0.23331,-2.32974 -0.14386,-0.18486 -2.34114,1.9453 -2.34114,2.26964 0,0.77286 0.61892,1.69426 1.32656,1.97488 1.42022,0.5632 1.4435,0.52747 1.24789,-1.91478 z m -4.37974,1.27351 c 0.27767,-0.10655 0.43386,-0.50153 0.43386,-1.09714 0,-0.83331 -0.0789,-0.93026 -0.75428,-0.92691 -1.5757,0.008 -1.98857,0.26996 -1.98857,1.26253 0,0.8735 0.0551,0.92801 0.93756,0.92801 0.51567,0 1.13281,-0.0749 1.37143,-0.16649 z m -7.406,-1.07987 c -0.22339,-0.53464 -0.33323,-1.09007 -0.2441,-1.23428 0.0891,-0.14422 -0.0265,-0.26221 -0.25695,-0.26221 -0.25977,0 -0.35901,0.15636 -0.26113,0.41142 0.26306,0.68553 -0.439,0.46003 -0.7598,-0.24404 -0.49287,-1.08173 -2.56543,-1.76392 -2.3835,-0.78453 0.078,0.41979 3.60987,3.05877 4.11992,3.07836 0.10545,0.004 0.009,-0.43008 -0.21444,-0.96472 z m 1.006,-0.4281 c -0.14453,-0.36133 -0.27062,-0.51277 -0.28018,-0.33654 -0.0232,0.42805 0.29629,1.24018 0.43382,1.10265 0.06,-0.06 -0.009,-0.40478 -0.15364,-0.76611 z m 12.11242,-0.10839 c 0.0721,-0.37715 0.0248,-0.68572 -0.10516,-0.68572 -0.12994,0 -0.23625,0.30857 -0.23625,0.68572 0,0.37714 0.0473,0.68571 0.10516,0.68571 0.0579,0 0.16416,-0.30857 0.23625,-0.68571 z m -18.24427,-0.30286 c -0.0911,-0.0911 -0.32772,-0.10089 -0.52571,-0.0216 -0.21881,0.0875 -0.15382,0.15255 0.16571,0.16571 0.28914,0.0119 0.45114,-0.0529 0.36,-0.14406 z m 26.57343,-4.01852 c 0.0258,-3.06345 0.18683,-4.36382 1.02735,-8.29577 0.54822,-2.56457 1.07445,-4.97143 1.16941,-5.34857 0.16835,-0.66864 0.16177,-0.67206 -0.26433,-0.13714 -0.24034,0.30171 -0.44091,0.64614 -0.44571,0.76539 -0.01,0.24182 -0.75488,1.32645 -2.22077,3.23252 -0.91945,1.19553 -1.0078,1.49496 -1.48128,5.01991 -0.42794,3.18594 -0.44842,3.86085 -0.13648,4.49679 0.34823,0.70991 0.37769,0.63583 0.57502,-1.44604 0.33391,-3.52258 0.83293,-6.44221 1.13278,-6.62753 0.17822,-0.11014 0.21869,0.16227 0.1128,0.75931 -0.89489,5.0455 -0.92528,9.19081 -0.0767,10.46251 0.27682,0.41485 0.51997,0.75366 0.54033,0.7529 0.0204,-8.2e-4 0.0508,-1.63618 0.0676,-3.63428 z m -11.75939,2.45346 c 0.29735,-0.29736 0.28717,-0.7071 -0.0584,-2.34977 -0.23019,-1.09428 -0.41853,-2.51361 -0.41853,-3.15405 v -1.16445 l -1.65536,-0.49585 c -0.91045,-0.27273 -2.05216,-0.76127 -2.53714,-1.08565 -1.59276,-1.06533 -8.20323,-4.59515 -8.34328,-4.4551 -0.0753,0.0753 0.002,0.97817 0.17091,2.0063 0.16933,1.02814 0.42166,3.22706 0.56073,4.88649 0.405,4.83258 0.59587,5.20875 2.94165,5.7975 0.65529,0.16447 0.69909,0.12235 0.53843,-0.51778 -0.2767,-1.10247 0.38414,-1.08126 2.17398,0.0698 1.60948,1.03505 1.64564,1.0436 3.94559,0.93368 1.41408,-0.0676 2.46198,-0.25169 2.68139,-0.4711 z m -12.80552,-3.78242 c -0.29896,-1.26717 -0.67135,-3.16795 -0.82752,-4.22395 -0.34953,-2.36334 -1.10214,-12.03886 -1.10478,-14.20294 -0.002,-1.71622 -0.58347,-3.70209 -1.90457,-6.50563 l -0.84012,-1.78286 0.12396,6.99429 c 0.15925,8.98598 1.07859,16.57342 2.25421,18.60439 0.37798,0.65298 0.72832,1.14616 0.77853,1.09595 0.0502,-0.0502 -0.13116,-1.02499 -0.40305,-2.16618 -0.68973,-2.89502 -0.94338,-4.91702 -0.61681,-4.91702 0.14763,0 0.35666,0.70971 0.4645,1.57714 0.42411,3.41122 2.00617,8.44382 2.49938,7.95061 0.0659,-0.0659 -0.12477,-1.15662 -0.42373,-2.4238 z m 50.73918,1.10393 c 0.31364,-0.6148 0.53215,-1.27403 0.48557,-1.46496 -0.0944,-0.38707 -3.73925,-3.40687 -6.15154,-5.09669 l -1.56508,-1.09634 -0.48181,0.79227 c -0.26499,0.43575 -0.61524,0.87474 -0.77832,0.97553 -0.654,0.40419 -0.18239,0.99427 2.34083,2.92882 1.45055,1.11214 3.20714,2.48492 3.90355,3.05063 0.6964,0.56572 1.35851,1.02857 1.47136,1.02857 0.11284,0 0.46179,-0.50302 0.77544,-1.11783 z m 2.43106,-4.46232 c 2.01926,-1.15452 2.9148,-1.59762 7.56981,-3.74544 1.20686,-0.55684 2.89045,-1.45866 3.74133,-2.00402 1.39586,-0.89469 1.62766,-1.18697 2.37208,-2.99099 0.68376,-1.65701 0.88038,-2.72408 0.64159,-3.48192 -0.0192,-0.0611 -0.53015,0.655 -1.13534,1.59135 -1.61139,2.49312 -1.85868,1.79217 -0.3716,-1.0533 1.16015,-2.21991 1.2448,-2.51232 1.00799,-3.48232 l -0.2585,-1.05892 -0.58945,1.09714 c -1.81666,3.38139 -2.4351,2.79165 -0.76432,-0.72886 0.94378,-1.98866 1.18224,-2.76487 1.06473,-3.46589 -0.0833,-0.49683 -0.2909,-0.85838 -0.46139,-0.80344 -0.17049,0.0549 -0.7879,0.92429 -1.37204,1.9319 -0.71446,1.23241 -1.23063,1.83201 -1.57714,1.83201 -0.28329,0 -0.51508,-0.0983 -0.51508,-0.21833 0,-0.12008 0.57058,-1.13837 1.26795,-2.26286 l 1.26796,-2.04453 -0.51367,-1.50857 c -0.46641,-1.36978 -0.59467,-1.5164 -1.39414,-1.5937 l -0.88046,-0.0851 0.16232,1.37058 c 0.15093,1.2744 0.0886,1.471 -0.88823,2.80172 -1.57922,2.15132 -5.92355,5.64442 -7.3415,5.90299 -1.52107,0.27738 -1.85663,0.19979 -2.57086,-0.59448 -0.89924,-1 -1.03512,-2.30451 -0.48387,-4.64529 0.45754,-1.9429 0.45798,-2.11092 0.009,-3.28782 -0.26054,-0.68216 -0.5806,-1.24029 -0.71127,-1.24029 -0.13067,0 -0.44536,0.70972 -0.6993,1.57715 -0.25394,0.86742 -0.6795,2.31771 -0.94569,3.22285 -1.1291,3.83931 -1.38258,5.18049 -1.6126,8.53232 -0.21284,3.10139 -0.3497,3.76834 -1.11292,5.42355 -0.47863,1.03801 -0.76912,1.98138 -0.64553,2.09638 0.42477,0.39525 5.4362,4.10609 5.54633,4.10692 0.0606,5.5e-4 1.04803,-0.53538 2.19428,-1.19075 z m -35.80216,-0.84141 c 2.65462,-1.91156 7.68805,-7.50883 7.40821,-8.23808 -0.0714,-0.186 0.0486,-0.48621 0.2666,-0.66714 0.27714,-0.23001 0.35214,-0.65867 0.24935,-1.42508 -0.13568,-1.01157 -0.086,-1.11996 0.64468,-1.4053 1.98169,-0.77393 2.97177,-3.25339 4.30459,-10.77998 0.374,-2.112 0.76448,-4.04659 0.86773,-4.29908 0.13816,-0.33786 -0.17001,-0.73622 -1.16701,-1.50858 -1.30737,-1.01279 -1.36116,-1.10967 -1.53826,-2.77092 -0.24676,-2.31463 -1.92044,-8.04728 -2.84587,-9.7476 l -0.74746,-1.37334 -0.36237,2.56144 c -0.3849,2.72075 -0.72902,3.40019 -2.31829,4.5773 l -0.88707,0.65701 -0.16679,-1.0424 c -0.0917,-0.57332 -0.18702,-0.79554 -0.21174,-0.49383 -0.0247,0.30172 -0.27949,1.06516 -0.56614,1.69654 -0.67733,1.49189 -2.44632,2.526 -6.46105,3.77701 -3.91261,1.21918 -5.02906,1.41969 -5.19825,0.93358 -0.0714,-0.20507 -0.32478,-2.22427 -0.56315,-4.48713 -0.54941,-5.21574 -0.97154,-7.56723 -1.3198,-7.35199 -0.17314,0.107 -0.20224,1.85771 -0.0807,4.85679 0.21035,5.19236 0.44816,6.91848 0.93894,6.8152 0.45618,-0.096 0.40737,0.61948 -0.0693,1.01504 -0.72456,0.60133 -0.22241,1.04963 0.93802,0.83743 1.35778,-0.24829 2.96583,-8.3e-4 5.2628,0.81015 1.64822,0.58187 1.83684,0.72606 1.9538,1.49357 0.19366,1.27072 -0.026,1.36471 -1.0626,0.45461 -1.17557,-1.03217 -3.58884,-1.77523 -5.7369,-1.76645 -2.43014,0.01 -3.11272,0.44885 -4.33954,2.79035 l -1.04812,2.00043 1.04582,-0.43698 c 0.5752,-0.24033 1.98297,-0.50924 3.12836,-0.59756 2.26857,-0.17494 4.28261,0.29626 5.55955,1.30069 0.37083,0.2917 1.12471,0.62396 1.67528,0.73835 0.55057,0.11439 0.96386,0.33099 0.91841,0.48132 -0.0454,0.15034 -0.2369,0.25619 -0.42547,0.23524 -0.18857,-0.0209 -0.34286,0.13333 -0.34286,0.34286 0,0.5346 -0.14786,0.48245 -0.97377,-0.34346 l -0.72442,-0.72442 -0.65123,1.60232 c -1.17713,2.89627 -3.24208,4.13383 -4.82283,2.89042 -0.95446,-0.75078 -1.435,-2.71062 -1.09941,-4.48391 0.27515,-1.45398 0.21419,-1.49631 -1.26483,-0.87834 -2.07124,0.86542 -2.66783,2.02702 -1.97584,3.8471 0.40587,1.06751 0.0728,1.18656 -0.68094,0.24338 -0.35694,-0.44668 -0.73681,-0.7251 -0.84414,-0.61872 -0.32639,0.32351 -1.22545,3.84971 -1.22545,4.80636 0,1.15707 -0.34827,1.14653 -0.77129,-0.0233 -0.18311,-0.50639 -0.5782,-1.14266 -0.87796,-1.41394 -0.53733,-0.48628 -0.54503,-0.47273 -0.54503,0.95865 0,0.79855 0.14635,2.85592 0.32522,4.57194 l 0.32523,3.12003 2.50838,1.4968 c 5.07053,3.0257 11.82789,6.10165 13.53776,6.1624 0.20713,0.007 1.13285,-0.53118 2.05715,-1.19676 z m -1.07846,-6.34385 c 0.32904,-0.24739 1.16199,-0.4003 2.18057,-0.4003 2.19417,0 1.65628,0.43369 -0.793,0.63936 -1.72351,0.14473 -1.86551,0.12027 -1.38757,-0.23906 z m -8.01204,-2.03886 -0.89675,-1.08009 0.89675,-1.22941 c 0.49322,-0.67618 0.98368,-1.23705 1.08991,-1.24639 0.10623,-0.009 0.63419,0.56063 1.17324,1.26661 l 0.98009,1.28358 -1.02319,1.04785 c -0.56276,0.57631 -1.09072,1.04561 -1.17324,1.04289 -0.0825,-0.003 -0.55359,-0.49098 -1.04681,-1.08504 z m 10.6339,-2.1717 c 0,-0.13451 0.27771,-0.31702 0.61714,-0.40558 0.33943,-0.0886 0.97303,-0.44905 1.40799,-0.80107 l 0.79085,-0.64004 -0.9627,-1.35438 c -1.2102,-1.7026 -1.91702,-3.08316 -1.78353,-3.48362 0.0567,-0.17006 0.48921,0.36288 0.96117,1.18431 0.47196,0.82142 1.17365,1.91862 1.55931,2.43821 0.38566,0.5196 0.7012,1.1086 0.7012,1.3089 0,0.2003 -0.57959,0.73175 -1.28799,1.181 -1.29679,0.8224 -2.00344,1.02425 -2.00344,0.57227 z m 3.96468,-7.83442 c -0.47457,-0.47457 -0.67325,-0.97569 -0.67325,-1.69814 0,-0.95196 -0.0277,-0.98703 -0.389,-0.49289 -0.59124,0.80857 -0.76811,0.33195 -0.29607,-0.79782 0.62157,-1.48763 2.36703,-2.64647 3.98615,-2.64647 0.99603,0 3.77385,0.62305 4.31456,0.96774 0.11715,0.0747 -0.59016,1.55237 -1.27635,2.66655 -0.6411,1.04095 -1.35805,1.4397 -0.98633,0.54857 0.81282,-1.94853 0.81341,-1.95513 0.24256,-2.71971 -0.93971,-1.25863 -1.17226,-1.10567 -1.01166,0.66542 0.17348,1.91322 -0.32961,3.12884 -1.55774,3.76393 -1.11082,0.57443 -1.57164,0.52406 -2.35287,-0.25718 z m 2.34915,-0.42764 c 0.90722,-0.646 1.21879,-1.75961 0.96528,-3.45012 -0.16609,-1.10763 -0.24759,-1.20899 -0.97205,-1.20899 -0.43492,0 -1.11835,0.28179 -1.51875,0.6262 -0.94631,0.81397 -1.24344,2.85966 -0.56562,3.89414 0.54732,0.83533 1.0647,0.86966 2.09114,0.13877 z m -1.52483,-1.11119 c -0.24845,-0.402 0.0998,-2.11423 0.47747,-2.34765 0.47872,-0.29586 1.36036,0.97015 1.14863,1.64939 -0.28543,0.91565 -1.23875,1.32501 -1.6261,0.69826 z m -9.82971,-2.84945 c -0.24251,-0.37013 -0.99728,-0.999 -1.67726,-1.39749 -0.67997,-0.39849 -1.23632,-0.83623 -1.23632,-0.97276 0,-0.34914 0.0558,-0.33172 1.47142,0.45949 1.19988,0.67062 2.36858,1.82839 2.36858,2.34642 0,0.46012 -0.49067,0.22938 -0.92642,-0.43566 z m 6.68642,0.41972 c 0,-0.55873 1.4473,-1.92354 2.35879,-2.22436 1.36961,-0.45201 1.46665,-0.13462 0.16229,0.53081 -0.60379,0.30803 -1.34322,0.87207 -1.64319,1.25342 -0.56596,0.71949 -0.87789,0.87588 -0.87789,0.44013 z m -0.24869,-3.08267 c -0.16629,-0.47703 -0.27094,-0.88865 -0.23254,-0.91471 0.0384,-0.0261 1.05723,-0.27922 2.26409,-0.56257 2.65836,-0.62414 6.79535,-0.71479 7.32308,-0.16047 0.3003,0.31544 0.1577,0.34652 -0.89901,0.19594 -2.5213,-0.35927 -7.14072,0.80727 -7.56392,1.91011 -0.24402,0.6359 -0.56565,0.46699 -0.8917,-0.4683 z m 21.09441,24.45591 c 0,-0.15086 -0.0544,-0.27429 -0.12096,-0.27429 -0.0665,0 -0.19724,0.12343 -0.29047,0.27429 -0.0932,0.15086 -0.0388,0.27429 0.12095,0.27429 0.15976,0 0.29048,-0.12343 0.29048,-0.27429 z m 4.57707,-4.88611 c 0.22117,-0.52615 0.43847,-2.31666 0.51597,-4.25143 0.0736,-1.83835 0.27235,-4.05999 0.44158,-4.93696 l 0.3077,-1.5945 -1.34141,-1.36189 c -0.73778,-0.74905 -1.38179,-1.24076 -1.43114,-1.09271 -0.0493,0.14805 0.15749,0.82808 0.45966,1.51117 0.35104,0.79358 0.44813,1.30455 0.26893,1.4153 -0.43737,0.27032 -0.77214,-0.22457 -1.49032,-2.20313 -0.48101,-1.32517 -0.59118,-1.96875 -0.39861,-2.32857 0.55754,-1.04177 0.78171,-2.76382 0.48544,-3.72915 -0.54455,-1.7743 -0.9909,-1.23309 -2.44261,2.96174 -0.68798,1.98797 -0.62161,2.48547 1.00585,7.53967 1.17296,3.64273 1.23617,4.00134 1.23617,7.01275 0,2.71303 0.0683,3.21193 0.47052,3.43702 0.37526,0.21001 0.57779,0.0878 1.00035,-0.60351 0.29141,-0.47676 0.70177,-1.27587 0.91192,-1.7758 z m -51.11397,-3.12951 c 0.0851,-0.34341 0.0589,-2.72267 -0.0582,-5.28724 -0.24272,-5.31303 -0.47102,-6.01944 -2.72373,-8.42776 -3.31468,-3.54366 -6.57271,-3.81086 -8.13912,-0.66749 -0.90196,1.80999 -0.91402,3.67495 -0.0358,5.52954 0.78703,1.66195 1.81526,2.66759 4.68669,4.58366 1.55253,1.03599 2.48175,1.89596 3.2023,2.96363 1.53548,2.2752 1.80547,2.52283 2.40237,2.20337 0.28091,-0.15033 0.58039,-0.5543 0.66551,-0.89771 z m -2.34325,-2.55596 c -0.0881,-0.0881 -0.0964,-0.63526 -0.0186,-1.21595 0.12889,-0.96092 0.0667,-1.09456 -0.69263,-1.4872 -0.56813,-0.29379 -0.86663,-0.33426 -0.93576,-0.12686 -0.19892,0.59676 -1.84888,-0.0804 -3.23714,-1.32858 -1.72235,-1.54854 -2.28721,-2.60725 -2.22788,-4.17569 0.0274,-0.72389 -0.0945,-1.30971 -0.30094,-1.44635 -0.59505,-0.39386 0.59216,-1.04208 1.90857,-1.04208 1.49546,0 2.70592,0.49972 4.03308,1.66498 1.34879,1.18426 1.54071,1.76323 1.08466,3.27217 -0.54102,1.79008 -0.48343,2.04287 0.58102,2.55047 0.77079,0.36756 0.95461,0.60734 0.93266,1.21652 -0.0563,1.56139 -0.62161,2.62405 -1.1271,2.11857 z m -1.80135,-4.22039 c -0.0777,-0.52925 -0.24866,-0.76324 -0.50106,-0.68572 -1.40895,0.43276 -1.38451,0.399 -0.69563,0.96092 0.9393,0.7662 1.33614,0.67493 1.19669,-0.2752 z m -1.19148,-1.43521 c 1.21226,-0.27983 1.40255,-0.41993 1.56309,-1.15089 0.15483,-0.70493 0.0511,-0.94996 -0.67798,-1.60139 -1.04106,-0.93019 -1.28722,-0.95221 -1.69885,-0.15197 -0.1746,0.33943 -0.62069,0.94264 -0.99131,1.34047 -0.59345,0.63702 -0.63067,0.79249 -0.31193,1.30286 0.42388,0.67875 0.34757,0.66935 2.11698,0.26092 z m -2.05571,-2.82603 c 0.64803,-0.98901 0.56341,-1.51822 -0.24274,-1.51822 -0.61714,0 -0.68571,0.10972 -0.68571,1.09714 0,1.25756 0.29323,1.39055 0.92845,0.42108 z m 70.24442,3.42264 c 3.69426,-3.21603 3.90603,-3.52543 3.48654,-5.09387 -0.17582,-0.65736 -0.25709,-1.3583 -0.1806,-1.55763 0.15228,-0.39683 -1.73124,-8.21616 -2.56108,-10.63222 -0.29676,-0.86402 -0.70403,-1.54489 -0.95322,-1.59359 -0.2393,-0.0468 -0.90649,0.32917 -1.48266,0.8354 -0.57616,0.50624 -1.41786,1.15335 -1.87043,1.43802 -1.00849,0.63436 -4.52302,3.49444 -7.2,5.85928 -1.90553,1.68335 -1.98857,1.80749 -1.98857,2.97305 0,0.669 -0.14051,1.7744 -0.31226,2.45645 l -0.31226,1.2401 1.46861,1.48708 c 0.80773,0.81789 1.54403,1.48707 1.63621,1.48707 0.0922,0 0.51657,-1.01828 0.94308,-2.26286 0.64994,-1.89658 1.3827,-3.6694 1.64653,-3.9836 0.2431,-0.28949 1.08236,0.46531 1.56137,1.40423 0.51555,1.01056 0.55161,1.37507 0.35616,3.60046 -0.41831,4.76297 -0.26075,5.22965 1.69136,5.00962 0.98534,-0.11106 1.59089,-0.50775 4.07122,-2.66699 z m -56.58379,-0.90194 0.68572,-2.13252 -0.84883,-0.9024 c -1.02778,-1.09264 -2.44289,-3.63095 -2.28367,-4.09625 0.0633,-0.18498 0.43659,0.28082 0.82955,1.03511 1.04519,2.00624 1.83559,3.10899 1.83777,2.56397 0.001,-0.25006 0.35007,-0.57457 0.77886,-0.72405 0.46993,-0.16382 0.91599,-0.60631 1.12858,-1.11954 0.32518,-0.78506 0.28495,-0.95241 -0.53689,-2.23313 -0.90026,-1.40294 -2.17317,-4.23666 -2.18509,-4.86439 -0.0146,-0.77075 0.47811,-0.26634 0.80382,0.82285 0.19173,0.64115 0.64799,1.75724 1.01393,2.48021 l 0.66534,1.31449 0.71219,-0.56021 c 0.3917,-0.30811 0.87893,-0.5602 1.08273,-0.5602 0.2038,0 0.67324,-0.46286 1.0432,-1.02857 0.65812,-1.00635 0.66704,-1.09378 0.41271,-4.04572 -0.29264,-3.39675 -0.025,-16.86857 0.33509,-16.86857 0.12818,0 0.23305,0.65075 0.23305,1.44611 0,0.79535 0.30893,2.9245 0.68652,4.73142 0.37758,1.80693 0.89954,5.29104 1.15989,7.74247 0.41809,3.93652 0.53113,4.45714 0.96781,4.45714 0.27193,0 0.55227,-0.18514 0.62296,-0.41142 0.40989,-1.31203 0.48479,-1.38947 0.65162,-0.67373 0.15333,0.65781 0.22732,0.68473 1.29397,0.47066 1.03599,-0.20792 1.14554,-0.31296 1.29984,-1.24628 0.0927,-0.56057 0.16985,-1.48208 0.17151,-2.0478 0.002,-0.5823 0.13802,-1.02857 0.31416,-1.02857 0.21526,0 0.26907,0.58796 0.17462,1.90802 l -0.13651,1.90802 0.95601,-0.39945 c 0.52581,-0.21969 0.98468,-0.39945 1.01971,-0.39945 0.11361,0 1.19303,-3.94696 1.36897,-5.00571 0.094,-0.56571 0.29111,-1.02857 0.438,-1.02857 0.1469,0 0.20516,0.27771 0.12947,0.61714 -0.0757,0.33943 -0.32507,1.45875 -0.55421,2.48738 -0.22913,1.02863 -0.54418,2.10863 -0.70012,2.4 -0.37269,0.69637 -0.18481,0.67007 1.40868,-0.19722 1.14977,-0.62579 1.41805,-0.94079 1.92725,-2.26286 0.73589,-1.91067 1.0089,-6.7646 0.53389,-9.49232 -0.17671,-1.01469 -0.26183,-1.90433 -0.18918,-1.97699 0.0727,-0.0726 0.34001,0.52808 0.59412,1.33496 0.3058,0.97101 0.50906,2.83498 0.60117,5.51277 0.0765,2.22514 0.22691,4.04571 0.33417,4.04571 0.30955,0 1.58218,-1.52184 1.7476,-2.0898 0.0826,-0.28375 0.22981,-1.81191 0.32706,-3.39591 0.19673,-3.20442 -0.33238,-6.5514 -1.64493,-10.40527 -1.82684,-5.363953 -6.24331,-9.335122 -10.89075,-9.792677 l -1.7333,-0.17065 1.13765,0.839973 c 2.29654,1.695629 4.84142,4.901711 5.43166,6.842905 0.36393,1.196879 -0.26998,0.570075 -1.01453,-1.003162 -0.9284,-1.961724 -2.57589,-3.866109 -4.69259,-5.424343 -2.25389,-1.659212 -2.4959,-1.545013 -1.41456,0.667505 1.08085,2.211541 2.66955,7.066519 3.27226,9.999869 0.49852,2.42623 0.58368,4.43842 0.16011,3.78299 -0.14624,-0.22629 -0.26778,-0.86595 -0.27009,-1.42147 -0.01,-2.39592 -3.05335,-11.954404 -4.32737,-13.591103 -0.43376,-0.557247 -0.6074,-0.591832 -1.92247,-0.38293 -0.7951,0.126306 -1.50189,0.285891 -1.57064,0.354635 -0.0687,0.06875 0.10995,0.743284 0.39709,1.498977 0.57301,1.50805 1.38491,5.454199 1.38491,6.731231 0,1.52996 -0.46841,0.51702 -0.64637,-1.397789 -0.16629,-1.789141 -1.23601,-5.71248 -1.79178,-6.571535 -0.46621,-0.720634 -1.75039,-0.03462 -3.72265,1.988659 -2.99909,3.076663 -4.95391,6.842045 -6.51217,12.543715 -1.70027,6.22128 0.0895,18.99565 3.65656,26.09781 0.58685,1.16847 1.07735,2.21761 1.08999,2.33143 0.0127,0.11381 0.41269,0.84591 0.88899,1.62687 0.65462,1.07335 0.90581,1.30767 1.02911,0.96 0.0897,-0.25296 0.47169,-1.41956 0.84883,-2.59244 z m -4.99666,-18.21798 c -0.40578,-2.85859 -0.22431,-7.60942 0.40133,-10.50665 0.51809,-2.39924 1.68006,-6.2672 2.05757,-6.849203 0.59763,-0.921392 0.48149,0.0081 -0.26438,2.115853 -1.4314,4.04496 -2.00017,7.87279 -1.82342,12.27159 0.085,2.11454 0.23747,4.18404 0.33889,4.5989 0.1095,0.44791 0.0715,0.75429 -0.0935,0.75429 -0.15286,0 -0.43026,-1.07316 -0.61645,-2.38478 z m 7.6906,-2.4838 c 0.003,-4.25315 0.18098,-6.10285 0.58666,-6.10285 0.13399,0 0.17263,0.28287 0.0858,0.6286 -0.0868,0.34574 -0.18169,2.62858 -0.21094,5.07299 -0.0292,2.44441 -0.14574,4.44496 -0.25888,4.44568 -0.11314,8.2e-4 -0.20436,-1.81927 -0.20269,-4.04442 z m 6.97472,20.75487 c 0.64924,-0.57003 1.11802,-1.33834 1.44019,-2.36037 0.46345,-1.47023 0.462,-1.5267 -0.0489,-1.90028 -1.07744,-0.78784 -3.45067,-1.16874 -4.22539,-0.67817 -0.50605,0.32045 -0.83405,2.59106 -0.55386,3.83408 0.24162,1.07183 1.10475,1.94987 1.91677,1.94987 0.27976,0 0.94179,-0.3803 1.47119,-0.84513 z m -1.53917,-1.08484 c -0.61092,-0.35649 -0.86645,-1.63567 -0.51263,-2.5663 0.23044,-0.60608 0.43173,-0.73477 1.0399,-0.66479 0.66196,0.0762 0.76493,0.21865 0.84227,1.16544 0.0803,0.9834 -0.36216,2.36195 -0.75161,2.34157 -0.0876,-0.005 -0.36571,-0.12875 -0.61793,-0.27592 z m -15.00902,-7.93033 c -1.0069,-3.79409 -1.69636,-8.06908 -1.86016,-11.53398 -0.30562,-6.46477 1.44719,-12.61616 5.1974,-18.240002 0.60358,-0.905143 1.4749,-2.046857 1.93627,-2.537143 0.46135,-0.490286 0.75572,-0.891429 0.65415,-0.891429 -0.50518,0 -4.13524,1.524955 -5.91551,2.485056 -1.71278,0.923696 -3.5703,2.371145 -6.49072,5.057798 -0.32797,0.30172 -1.28963,1.47429 -2.13702,2.60572 -0.84739,1.13143 -1.79563,2.38904 -2.1072,2.7947 -0.81764,1.06454 -1.35111,2.46258 -2.12582,5.57101 -0.60469,2.42623 -0.66713,3.13865 -0.54095,6.17143 0.15204,3.65403 0.70634,6.82871 1.61752,9.26405 l 0.5603,1.49756 0.94034,-0.94033 0.94032,-0.94033 -0.69781,-3.44636 c -1.17304,-5.79344 -0.9087,-10.40076 0.83433,-14.54201 0.83168,-1.97597 2.45531,-4.60687 2.8431,-4.60687 0.14726,0 -0.22292,0.78258 -0.82263,1.73906 -1.47183,2.34742 -2.64833,5.68417 -2.99891,8.50538 -0.33112,2.66466 -0.0443,6.02922 0.83351,9.77842 l 0.54588,2.33143 1.37476,-0.0957 c 1.45586,-0.10135 1.4505,-0.0915 0.8766,-1.61857 -0.0709,-0.18858 -0.002,-0.34286 0.15351,-0.34286 0.1553,0 0.42591,0.43495 0.60135,0.96656 0.23126,0.70071 0.71309,1.21866 1.75175,1.88309 0.78802,0.50409 2.10433,1.66554 2.92513,2.581 l 1.49238,1.66448 0.0839,-1.54502 c 0.0506,-0.9327 -0.13395,-2.36584 -0.46576,-3.61613 z m 10.25721,0.85564 c -0.0502,-0.0502 -0.35661,0.0508 -0.68098,0.22443 -0.4858,0.25999 -0.52966,0.38806 -0.24879,0.72649 0.29621,0.35691 0.38563,0.32744 0.68098,-0.22443 0.187,-0.3494 0.29895,-0.67633 0.24879,-0.72649 z m 39.13995,-1.0028 c 0.57565,0.14448 1.08307,-0.17303 3.15322,-1.97303 1.35694,-1.17987 3.381,-2.85321 4.4979,-3.71853 4.5177,-3.50008 5.59645,-4.38775 5.59645,-4.60512 0,-0.33128 -2.24635,-1.90665 -2.44106,-1.71194 -0.0906,0.0906 -0.16465,0.6277 -0.16465,1.19365 0,1.42987 -0.23306,1.89672 -0.94684,1.89672 -0.774,0 -1.35316,-0.65524 -1.81828,-2.05714 -0.54449,-1.64111 -0.70749,-1.67768 -0.90316,-0.20264 -0.43316,3.26527 -1.81156,2.85243 -3.25851,-0.97596 l -0.34179,-0.90431 -3.21868,2.62279 c -2.01505,1.64199 -3.28205,2.87525 -3.38813,3.2979 -0.18652,0.74318 0.0631,6.71205 0.33819,8.08767 l 0.17319,0.86595 1.01806,-0.99409 c 0.80888,-0.78986 1.159,-0.95873 1.70409,-0.82192 z m -9.33714,-4.865 c 0.0364,-8.07891 -0.64814,-11.71223 -3.13551,-16.64278 -1.71536,-3.40022 -4.99507,-7.071932 -7.76898,-8.697555 -0.66437,-0.389346 -1.20794,-0.800135 -1.20794,-0.912869 0,-0.310985 -4.11826,-2.176375 -5.21143,-2.360544 -0.84273,-0.141979 -0.89299,-0.120409 -0.41143,0.176574 2.40492,1.483148 4.43879,4.093204 5.90043,7.572024 0.81064,1.92939 1.91111,6.32787 1.92374,7.68899 0.004,0.41646 0.43957,1.43605 0.96824,2.26577 1.1198,1.75743 2.62408,6.2112 3.28877,9.73714 0.50822,2.69592 0.68522,3.20404 1.1727,3.36653 0.21348,0.0712 0.32326,-0.27812 0.32326,-1.02843 0,-0.7058 0.10646,-1.0704 0.28104,-0.9625 0.17124,0.10584 0.21101,0.70148 0.1018,1.52476 -0.11192,0.84373 -0.0754,1.35107 0.0973,1.35107 0.1521,0 0.78514,0.49358 1.40676,1.09684 l 1.13022,1.09684 -0.0141,-1.85113 c -0.008,-1.01812 -0.10749,-2.69162 -0.22165,-3.7189 -0.11415,-1.02728 -0.12135,-1.92105 -0.016,-1.98617 0.29065,-0.17963 0.48898,1.2982 0.69593,5.18539 0.27947,5.24951 0.66737,3.63454 0.6968,-2.90105 z m -4.0277,-5.35611 c -0.54596,-3.32865 -2.55351,-8.96191 -4.40205,-12.3523 -1.01885,-1.86867 -1.05803,-1.97913 -0.70186,-1.97913 0.438,0 3.01655,5.58495 4.16145,9.01341 0.62273,1.8648 1.20089,4.05566 1.28479,4.86857 0.17298,1.67606 -0.0855,2.01542 -0.34233,0.44945 z m -15.3533,10.90286 c -0.0932,-0.15086 -0.31652,-0.2724 -0.49619,-0.27009 -0.19628,0.002 -0.16245,0.11033 0.0848,0.27009 0.52693,0.34053 0.62189,0.34053 0.41143,0 z m -8.09143,-1.37143 c 0,-0.15086 -0.0544,-0.27428 -0.12096,-0.27428 -0.0665,0 -0.19723,0.12342 -0.29047,0.27428 -0.0932,0.15086 -0.0388,0.27429 0.12095,0.27429 0.15976,0 0.29048,-0.12343 0.29048,-0.27429 z m 35.99812,-10.35832 c 3.46116,-3.06217 3.36654,-2.83131 2.19515,-5.35612 -0.53947,-1.16277 -1.0798,-2.11413 -1.20074,-2.11413 -0.24988,0 -5.45019,4.13963 -5.93666,4.7258 -0.24956,0.3007 -0.077,0.86675 0.80151,2.62871 0.61575,1.23502 1.25974,2.24367 1.43109,2.24145 0.17134,-0.002 1.39068,-0.95879 2.70965,-2.12571 z m 7.38068,-5.15692 c -0.16933,-0.37163 -0.62058,-0.81817 -1.00278,-0.99232 -0.61343,-0.2795 -0.79078,-0.22477 -1.51261,0.46679 -0.80755,0.77368 -1.07681,1.85968 -0.5429,2.18966 0.15114,0.0934 0.39494,-0.14616 0.54178,-0.53239 0.49962,-1.31409 0.78954,-0.74213 0.65203,1.28636 -0.11782,1.73813 -0.0563,2.10947 0.48823,2.94857 l 0.62303,0.96 0.53055,-2.82549 c 0.41328,-2.20102 0.4625,-2.97483 0.22267,-3.50118 z m 3.19285,3.35123 c -0.0594,-1.20671 -0.20699,-1.70907 -0.56803,-1.93318 -1.10711,-0.68724 -1.40094,1.85385 -0.43361,3.74996 0.57413,1.1254 0.59264,1.13609 0.83451,0.48226 0.13604,-0.36777 0.21125,-1.40233 0.16713,-2.29904 z m -72.20181,-3.26456 c 0.25909,-0.792 0.70101,-1.89794 0.98205,-2.45764 0.28103,-0.55971 0.51097,-1.06823 0.51097,-1.13005 0,-0.0618 -0.54426,-0.17374 -1.20945,-0.24872 -1.4296,-0.16113 -3.7277,-1.20913 -3.7277,-1.69992 0,-0.22501 0.53676,-0.0738 1.54723,0.43589 1.58219,0.79808 2.7885,0.97481 3.61919,0.53024 0.25712,-0.1376 1.24129,-1.24846 2.18704,-2.46857 l 1.71956,-2.21837 -1.45079,-0.004 c -1.60896,-0.004 -2.68508,-0.22318 -2.68508,-0.54648 0,-0.11657 1.04863,-0.146523 2.33029,-0.0666 l 2.3303,0.14538 1.31416,-1.229243 1.31416,-1.229239 -1.24446,-0.447546 c -1.46607,-0.527246 -4.02833,-2.482124 -5.1071,-3.89647 -0.83682,-1.097127 -1.81308,-3.664389 -1.5533,-4.084715 0.0901,-0.14586 0.27487,0.03587 0.41051,0.403842 0.75084,2.03704 1.80402,3.703041 3.05525,4.833032 1.46291,1.321158 3.73263,2.548737 4.72095,2.553331 0.31706,0.0014 1.42106,-0.552049 2.45334,-1.230053 1.03228,-0.678004 2.09972,-1.303464 2.3721,-1.389913 0.79392,-0.251981 0.57431,-0.476094 -1.42678,-1.455994 -2.97713,-1.457856 -4.90532,-4.080441 -6.17688,-8.40136 -1.24778,-4.240079 -1.17653,-10.348194 0.12576,-10.782292 0.27865,-0.09288 0.32365,0.01168 0.16808,0.39058 -1.21656,2.962774 -0.65829,8.927838 1.209,12.918144 0.94221,2.013463 1.27097,2.137366 0.85227,0.321197 -0.36304,-1.574666 -0.3748,-5.727629 -0.0162,-5.727629 0.1572,0 0.27632,0.848889 0.27905,1.988571 0.005,2.113994 0.55691,5.210864 1.14713,6.437442 0.48219,1.002103 2.78286,2.698141 4.19715,3.094116 1.05976,0.296717 1.42357,0.235164 4.55281,-0.770304 4.72089,-1.516882 5.28765,-1.618459 8.86102,-1.588082 l 3.15583,0.02683 0.86442,-2.605715 c 1.98279,-5.97696 1.06102,-12.482342 -2.3191,-16.366996 -1.46518,-1.68387 -3.00692,-2.199212 -5.36807,-1.79432 -3.53627,0.606405 -6.90419,2.874084 -7.98894,5.379089 -0.62549,1.444463 -1.08004,1.953114 -1.0667,1.193656 0.0111,-0.629675 1.11544,-2.803019 1.77706,-3.497143 l 0.65361,-0.685715 -0.94039,-1.294132 c -1.33161,-1.832505 -2.08393,-2.248007 -4.15403,-2.294243 -0.96074,-0.02145 -1.81949,-0.111703 -1.90834,-0.200542 -0.3054,-0.305403 1.315,-0.531543 2.57312,-0.359097 1.66271,0.227898 2.744,0.892114 3.87147,2.378183 1.09422,1.442236 1.12146,1.456386 1.80698,0.93857 0.49773,-0.375966 0.50434,-0.457525 0.10484,-1.293572 -0.64665,-1.353266 -2.90587,-3.729729 -4.1483,-4.363563 -2.35866,-1.203299 -6.4027,-0.109387 -8.83051,2.388653 -1.73238,1.782484 -2.51708,3.232946 -3.19119,5.898712 -0.69947,2.766034 -0.56319,4.941666 0.43649,6.96824 0.68265,1.383889 0.7172,1.732602 0.13605,1.373433 -0.60094,-0.371402 -1.37685,-2.572193 -1.54619,-4.38562 -0.19756,-2.11562 -0.608,-2.511231 -2.16059,-2.082541 -1.73115,0.477994 -3.33427,1.634795 -4.60122,3.320201 -2.3545,3.132181 -3.7697,6.903774 -3.77971,10.073198 -0.0127,4.010559 1.25658,6.204175 4.25166,7.34801 1.20854,0.461543 3.05634,0.468274 4.07745,0.01484 0.29995,-0.133194 0.48,-0.0967 0.48,0.09727 0,0.744839 -3.0408,1.135691 -4.5049,0.579039 -0.61626,-0.234297 -0.74863,-0.173535 -1.09932,0.504628 -1.06996,2.069062 -1.24356,7.540292 -0.31013,9.774292 0.86739,2.07596 2.62006,3.42479 4.45231,3.42643 1.13723,0.001 1.14632,-0.007 1.61474,-1.43897 z m -2.46772,-16.182858 c -0.48881,-0.490286 -1.16801,-1.632 -1.50933,-2.537143 -0.52663,-1.396559 -0.60156,-2.019445 -0.49492,-4.114286 0.13802,-2.711237 0.96175,-5.147103 1.91268,-5.656026 0.80478,-0.430706 0.87096,-0.113876 0.14078,0.673999 -1.38878,1.498522 -2.00266,5.914516 -1.17603,8.459904 0.58245,1.793519 1.59913,3.18223 2.49418,3.40687 0.82316,0.206603 0.88997,0.658111 0.0974,0.658111 -0.3168,0 -0.97594,-0.401143 -1.46474,-0.891429 z m 21.73479,-2.88 c -2.22935,-2.382783 -2.66419,-7.014484 -1.0104,-10.762297 0.72651,-1.646419 1.48062,-2.417258 3.12206,-3.191325 1.69498,-0.79931 3.68844,-0.843566 5.21143,-0.115697 1.41063,0.67417 2.51624,1.564507 2.26044,1.820306 -0.10996,0.109964 -0.43938,-0.01676 -0.73203,-0.281607 -1.37199,-1.241636 -4.56592,-1.60673 -6.46555,-0.739068 -1.70382,0.77822 -2.75534,2.043009 -3.2937,3.961725 -0.5392,1.921693 -0.59366,4.95481 -0.11576,6.44747 0.33514,1.046795 1.39659,2.676233 2.13138,3.271922 0.37076,0.300567 0.37204,0.342857 0.0104,0.342857 -0.2269,0 -0.73011,-0.339429 -1.11826,-0.754286 z m 40.37829,15.444288 c -0.20112,-0.83836 -0.46622,-1.52429 -0.58911,-1.52429 -0.73251,0 -1.35955,3.01551 -0.88447,4.25353 0.15034,0.39179 0.29675,0.33755 1.00757,-0.37327 l 0.83168,-0.83168 z m 3.47965,-0.42714 c 0.76552,0 0.76341,0.0928 0.0524,-2.29482 l -0.57851,-1.94252 -0.51863,0.64048 c -0.37362,0.4614 -0.51863,1.07936 -0.51863,2.2101 0,1.6485 0.18907,2.13025 0.65371,1.66561 0.15337,-0.15337 0.56274,-0.27885 0.90971,-0.27885 z"
     id="path4159"
     inkscape:connector-curvature="0" />
</svg>
