<?xml version="1.0" encoding="UTF-8" standalone="no"?>
<!-- Created with Inkscape (http://www.inkscape.org/) -->

<svg
   xmlns:dc="http://purl.org/dc/elements/1.1/"
   xmlns:cc="http://creativecommons.org/ns#"
   xmlns:rdf="http://www.w3.org/1999/02/22-rdf-syntax-ns#"
   xmlns:svg="http://www.w3.org/2000/svg"
   xmlns="http://www.w3.org/2000/svg"
   xmlns:sodipodi="http://sodipodi.sourceforge.net/DTD/sodipodi-0.dtd"
   xmlns:inkscape="http://www.inkscape.org/namespaces/inkscape"
   version="1.1"
   id="svg815"
   width="329.14285"
   height="438.85715"
   viewBox="0 0 329.14285 438.85715"
   sodipodi:docname="bar_boy_colorless[rest].svg"
   inkscape:version="0.92.4 (5da689c313, 2019-01-14)">
  <metadata
     id="metadata821">
    <rdf:RDF>
      <cc:Work
         rdf:about="">
        <dc:format>image/svg+xml</dc:format>
        <dc:type
           rdf:resource="http://purl.org/dc/dcmitype/StillImage" />
        <dc:title />
      </cc:Work>
    </rdf:RDF>
  </metadata>
  <defs
     id="defs819" />
  <sodipodi:namedview
     pagecolor="#ffffff"
     bordercolor="#666666"
     borderopacity="1"
     objecttolerance="10"
     gridtolerance="10"
     guidetolerance="10"
     inkscape:pageopacity="0"
     inkscape:pageshadow="2"
     inkscape:window-width="1920"
     inkscape:window-height="1046"
     id="namedview817"
     showgrid="false"
     inkscape:zoom="1.9345703"
     inkscape:cx="14.485771"
     inkscape:cy="231.4867"
     inkscape:window-x="-11"
     inkscape:window-y="-11"
     inkscape:window-maximized="1"
     inkscape:current-layer="svg815" />
  <path
     style="fill:#000000;stroke-width:0.2742857"
     d="m 129.38904,399.32774 c -3.14276,-0.37316 -6.25114,-1.22916 -7.0575,-1.94351 -0.26105,-0.23125 -0.55485,-0.86638 -0.6529,-1.41139 -0.098,-0.545 -0.2786,-1.11853 -0.40121,-1.27452 -0.12262,-0.15599 -0.35852,-1.88399 -0.52423,-3.84 -0.53633,-6.3306 -1.13525,-10.89556 -1.50672,-11.48412 -0.19965,-0.31631 -0.64101,-1.50084 -0.98078,-2.63227 -0.33978,-1.13143 -0.95555,-2.98286 -1.36839,-4.11429 -0.41284,-1.13142 -0.83821,-2.46947 -0.94527,-2.97342 -0.14341,-0.6751 -0.31384,-0.88246 -0.6474,-0.78775 -0.24901,0.0707 -0.63789,0.17448 -0.86418,0.2306 -0.53193,0.13187 -1.57934,-3.01303 -2.60376,-7.81794 -0.63774,-2.99128 -0.69752,-3.61769 -0.39856,-4.17633 0.19345,-0.36145 0.4126,-0.59633 0.48699,-0.52191 0.0744,0.0744 0.40632,-0.26521 0.73759,-0.7547 0.67152,-0.99223 0.67047,-1.04023 -0.25661,-11.72426 -0.61733,-7.11429 -1.59239,-23.24591 -1.63303,-27.01714 -0.034,-3.15659 0.035,-3.5836 1.68474,-10.42286 0.94611,-3.92229 2.06918,-8.42743 2.4957,-10.01143 0.42652,-1.584 0.92604,-3.49714 1.11005,-4.25143 0.36,-1.47571 0.66057,-7.4649 1.11478,-22.2134 0.1579,-5.12709 0.46978,-11.48366 0.69306,-14.12572 0.22329,-2.64205 0.59502,-7.57788 0.82608,-10.9685 0.59728,-8.76487 2.11639,-19.20786 3.58619,-24.65298 0.38099,-1.41148 0.65442,-2.60028 0.60761,-2.64178 -0.0468,-0.0415 -0.86219,-0.465 -1.81195,-0.94111 -0.94976,-0.47611 -1.79077,-1.03224 -1.8689,-1.23585 -0.0781,-0.20361 0.65361,-1.95804 1.62609,-3.89873 2.45872,-4.90663 5.61395,-11.70168 5.82612,-12.54703 0.14113,-0.56234 -0.0533,-0.99489 -0.9581,-2.13125 l -1.13517,-1.42571 1.10697,-1.12793 c 0.60883,-0.62035 1.10697,-1.31169 1.10697,-1.53631 0,-0.22461 -0.86523,-2.99709 -1.92274,-6.16105 -1.0575,-3.16395 -1.86444,-5.90491 -1.79319,-6.091 0.25341,-0.66188 -4.89936,-14.18811 -7.34201,-19.27308 -0.83337,-1.73486 -1.84104,-4.20343 -2.23926,-5.48571 -0.39822,-1.28229 -0.90519,-2.83807 -1.1266,-3.45729 -1.03913,-2.90621 -0.99756,-8.52936 0.0819,-11.07986 1.47299,-3.48022 2.43548,-5.04974 3.63351,-5.92511 0.68503,-0.50053 1.58352,-0.98621 1.99664,-1.07929 0.41313,-0.0931 0.82156,-0.28316 0.90762,-0.42241 0.24535,-0.39699 2.17177,-0.29985 5.74696,0.28976 1.81028,0.29855 3.44168,0.54538 3.62533,0.54851 0.25411,0.004 0.29314,-0.84648 0.16334,-3.56018 -0.15075,-3.15151 -0.11519,-3.62705 0.30599,-4.09245 0.40436,-0.44681 0.47721,-1.10907 0.48084,-4.37088 0.002,-2.11435 -0.0697,-3.96401 -0.16017,-4.11036 -0.0905,-0.14635 -0.39486,-0.20583 -0.67647,-0.13219 -0.3674,0.0961 -0.68352,-0.1436 -1.11924,-0.84861 -0.5842,-0.94525 -1.11105,-1.28109 -1.11105,-0.70822 0,0.15086 -0.53234,0.27429 -1.18297,0.27429 -1.33771,0 -2.04169,-0.58988 -3.27339,-2.74286 -0.87595,-1.53113 -1.71875,-2.31751 -4.24866,-3.96425 -2.45429,-1.59752 -3.99744,-3.31602 -4.72583,-5.26283 -0.68476,-1.83017 -0.73028,-4.4247 -0.1081,-6.16079 0.44968,-1.25475 0.44717,-1.27569 -0.42774,-3.56571 -0.84666,-2.21613 -1.98402,-7.246006 -2.3505,-10.394985 -0.11828,-1.016234 -0.0481,-1.866635 0.21502,-2.605714 0.23299,-0.654443 0.30329,-1.318491 0.17423,-1.645714 -0.119,-0.301714 -0.22504,-1.434871 -0.23564,-2.518124 -0.0227,-2.323143 0.43366,-3.272857 2.60884,-5.428743 1.23565,-1.224694 1.41358,-1.548312 1.56796,-2.851729 0.23234,-1.961744 1.17281,-3.841421 2.19789,-4.392801 1.21754,-0.654907 2.19485,-1.731154 3.2665,-3.597175 1.69439,-2.950376 4.21081,-5.268642 6.42222,-5.916513 1.0662,-0.312356 1.835,-0.826653 3.1641,-2.116622 0.96562,-0.937204 2.36841,-2.012579 3.1173,-2.389722 0.7489,-0.377143 1.67872,-0.89421 2.06627,-1.149041 0.91462,-0.601396 4.10671,-1.15274 5.55179,-0.958916 0.9123,0.122367 1.50293,-0.02529 3.0599,-0.764934 2.56732,-1.219625 4.53136,-1.613582 7.31304,-1.466885 2.75531,0.145305 4.77887,0.966421 6.66403,2.7041 1.90211,1.753298 2.54605,4.329529 1.61741,6.470752 l -0.46062,1.062067 -0.17358,-0.977245 c -0.24793,-1.395908 -1.07369,-2.395998 -2.29072,-2.774337 -1.23567,-0.384137 -1.67131,-0.191053 -2.58018,1.143594 -0.83624,1.227993 -0.78018,1.572504 0.33145,2.036972 1.27992,0.534785 4.54371,2.46283 5.22284,3.08533 0.41526,0.380632 0.98543,0.502829 2.34621,0.502829 1.52161,0 2.11423,0.156507 3.85933,1.019215 1.13393,0.560572 2.63026,1.519697 3.32518,2.131392 1.45359,1.279507 3.16451,3.843678 2.56466,3.843678 -0.20875,0 -0.457,-0.201838 -0.55167,-0.448528 -0.14344,-0.373808 -0.47241,-0.424424 -1.97464,-0.30384 -0.9914,0.07958 -1.91347,0.255626 -2.04906,0.391216 -0.14585,0.145849 0.34978,0.826113 1.21361,1.665699 0.80308,0.780541 1.68472,1.917189 1.9592,2.525881 0.46493,1.031021 0.57594,1.10682 1.62312,1.108246 1.63254,0.0022 3.15342,0.494323 3.93104,1.271945 0.37387,0.373873 0.61805,0.741485 0.54263,0.816913 -0.0754,0.07543 -0.44068,-0.166395 -0.81168,-0.537386 -0.77621,-0.776214 -3.64764,-1.513006 -4.10686,-1.053794 -0.18513,0.185129 -0.11893,1.435153 0.20108,3.796962 0.65227,4.814128 0.43761,7.659239 -1.0788,14.298544 -0.66476,2.910523 -1.38449,5.564233 -1.59939,5.897143 -0.43478,0.67354 -0.96948,3.70827 -1.16985,6.63957 -0.29168,4.26719 -0.56182,5.22009 -2.41053,8.50285 -3.357,5.96108 -7.11761,11.05642 -9.81998,13.30536 -1.45816,1.21349 -1.74245,1.33713 -3.45413,1.50223 -1.02585,0.099 -2.01947,0.229 -2.20804,0.28899 -0.37387,0.11893 -0.42301,1.66466 -0.11682,3.67465 0.18242,1.19746 0.20262,1.21722 1.26153,1.23429 1.31715,0.0212 1.34883,0.1097 1.82512,5.09727 0.27703,2.90097 0.42079,3.56665 0.7765,3.59562 0.24008,0.0196 1.51832,0.0142 2.84053,-0.012 1.8955,-0.0375 2.43679,0.0379 2.55901,0.35639 0.10436,0.27197 0.75268,0.46237 1.98456,0.58281 2.5074,0.24516 4.41568,1.20519 5.88892,2.96265 1.30175,1.55288 4.11803,5.47935 5.10299,7.11459 0.97999,1.627 1.70559,1.46823 6.36686,-1.3932 2.1698,-1.33197 4.46364,-2.70904 5.09743,-3.06014 0.9881,-0.54737 1.11245,-0.71293 0.8724,-1.16147 -0.33862,-0.63273 -0.0689,-1.01906 1.19402,-1.71018 0.57155,-0.31278 1.14359,-0.99397 1.58123,-1.88296 0.37714,-0.76608 1.08686,-2.06208 1.57714,-2.87998 0.49029,-0.81791 0.89143,-1.65729 0.89143,-1.8653 0,-0.22762 0.30032,-0.38165 0.75429,-0.38687 0.78369,-0.009 0.74545,0.0382 3.2813,-4.05078 0.53019,-0.85492 0.90108,-1.81527 0.90039,-2.33142 -5.4e-4,-0.48274 -0.48537,-3.15517 -1.07718,-5.93875 -1.11348,-5.23729 -1.11752,-5.73378 -0.0513,-6.30442 0.41835,-0.22389 0.55916,-0.86282 0.83254,-3.77771 0.18096,-1.92954 0.4554,-4.3353 0.60985,-5.34615 0.27301,-1.78684 0.24802,-1.93438 -0.89955,-5.31058 l -1.18038,-3.47268 0.5949,-0.48172 c 0.37735,-0.30556 0.7434,-1.12188 1.00097,-2.23227 0.81399,-3.50902 2.31744,-6.002 3.61965,-6.002 0.91473,0 1.4888,1.11811 1.4888,2.8997 0,1.13107 0.0923,1.50928 0.34285,1.40531 3.39818,-1.41 3.15931,-1.20856 4.28716,-3.61534 1.23564,-2.636765 2.81008,-4.529666 3.76762,-4.529666 0.76577,0 1.75158,0.888716 1.74945,1.577143 -8.2e-4,0.264 -0.2529,2.192493 -0.56017,4.285543 -0.30728,2.09304 -0.50233,3.8619 -0.43344,3.93079 0.0689,0.0689 0.37457,-0.008 0.67929,-0.17125 0.30472,-0.16308 0.78484,-0.29651 1.06693,-0.29651 0.72613,0 3.12182,1.5753 3.27261,2.15191 0.0743,0.28421 0.61311,0.62548 1.31439,0.83254 1.68333,0.49703 2.34188,1.19668 2.34188,2.48803 0,0.96276 0.16948,1.21404 1.80482,2.67582 l 1.80482,1.61328 0.23228,2.18207 c 0.12775,1.20013 0.37921,3.80822 0.5588,5.79574 l 0.32652,3.61369 2.56809,1.59774 c 1.41245,0.87876 2.64384,1.78289 2.73641,2.00917 0.50808,1.242 1.46311,5.62758 1.33587,6.13451 -0.0818,0.326 0.0408,1.32036 0.2724,2.20967 0.48371,1.8571 0.31152,3.63014 -0.41424,4.26527 -0.26341,0.23052 -0.92461,1.5917 -1.46933,3.02484 -1.641,4.3174 -1.5939,4.24803 -3.6388,5.35999 -1.02642,0.55813 -2.20064,1.24675 -2.60939,1.53026 -0.40875,0.2835 -1.02589,0.51581 -1.37143,0.51624 -1.05431,0.001 -9.76823,1.87121 -12.25567,2.62992 -2.69999,0.82355 -6.46751,3.20668 -7.27156,4.59961 -1.46219,2.53308 -5.26335,10.43642 -6.7463,14.02684 -3.20372,7.75665 -6.59818,13.94152 -8.6313,15.72661 -1.7697,1.55382 -3.90071,1.74701 -6.58388,0.59687 l -1.17551,-0.50389 -2.98201,1.38245 c -1.64011,0.76035 -3.02177,1.41669 -3.07035,1.45853 -0.13118,0.113 5.34859,17.43078 5.9862,18.91826 0.30131,0.70294 0.54784,1.54936 0.54784,1.88092 0,0.72063 -4.00754,4.71355 -5.5274,5.50723 l -1.00168,0.52309 -0.12291,3.44925 c -0.0868,2.43564 0.14168,6.71366 0.77746,14.55782 1.27229,15.69729 1.98415,27.27246 2.30641,37.50331 0.32688,10.37768 0.49967,9.48716 -2.95452,15.22757 -1.20296,1.99916 -3.97564,7.21427 -6.16153,11.58912 -2.18588,4.37486 -5.60016,10.97829 -7.58729,14.67429 -4.93064,9.17082 -8.6187,16.52349 -11.07523,22.08 -2.74128,6.20061 -7.06718,17.10377 -8.49356,21.40751 l -1.1488,3.4662 -1.04966,-0.16786 -1.04966,-0.16784 -0.73764,1.58241 c -0.64814,1.39044 -0.74427,1.95911 -0.79226,4.68713 -0.0323,1.83289 -0.18222,3.25843 -0.36612,3.48 -0.38364,0.46228 -0.1037,2.75317 0.4427,3.6228 0.20993,0.33413 0.3817,0.97316 0.3817,1.42008 0,0.9086 0.68036,1.56609 2.56432,2.47812 1.46978,0.7115 2.76878,2.07338 3.15853,3.31145 0.16622,0.528 0.37143,2.34956 0.45601,4.04794 l 0.1538,3.08791 -0.7088,0.26948 c -0.60642,0.23057 -0.66593,0.34958 -0.41199,0.82406 0.48395,0.90427 2.73202,3.6239 3.90956,4.72962 l 1.09433,1.02761 -0.16997,2.40096 c -0.32683,4.61681 -0.3612,4.72584 -1.67272,5.30601 -0.64004,0.28311 -2.01439,0.63771 -3.0541,0.78799 -1.78801,0.25846 -6.40569,0.31716 -8.19897,0.10423 z m 10.13313,-1.52697 c 1.38898,-0.50691 1.66807,-1.11437 0.38034,-0.82783 -0.50241,0.1118 -3.44376,0.18633 -6.53633,0.16559 -4.41904,-0.0296 -6.13668,-0.15034 -8.02286,-0.56388 -1.75339,-0.38441 -2.4,-0.4377 -2.4,-0.19781 0,0.54539 2.29128,1.29084 5.76,1.874 1.62184,0.27267 9.76696,-0.0662 10.81885,-0.45007 z m -0.13802,-2.08326 c 1.56892,-0.4097 1.79229,-0.55334 1.99662,-1.28415 0.3452,-1.23462 -0.008,-3.06509 -0.75493,-3.9137 -0.36271,-0.41203 -0.66337,-0.59487 -0.66814,-0.4063 -0.006,0.24411 -0.6221,0.34286 -2.13844,0.34286 -1.57257,0 -2.3856,0.13711 -3.1076,0.52407 -2.47359,1.32576 -5.94503,1.77356 -7.78605,1.00433 -0.72429,-0.30262 -1.13539,-0.78561 -1.80942,-2.12572 -1.01678,-2.02159 -1.15093,-2.13578 -2.51573,-2.14134 -1.20274,-0.005 -1.20148,-0.0113 -0.7197,3.58647 0.42919,3.20498 0.55663,3.45658 1.94195,3.83405 4.13053,1.12553 12.3045,1.42988 15.56144,0.57943 z m -6.01797,-5.43952 c 1.28228,-0.53327 2.66745,-1.0334 3.07815,-1.11141 l 0.74672,-0.14183 -1.28595,-1.82143 c -1.4901,-2.11054 -1.61875,-2.223 -2.5495,-2.22862 -0.38296,-0.003 -1.15778,-0.23948 -1.72183,-0.52704 l -1.02554,-0.52287 -0.52609,1.03123 c -0.39453,0.77335 -0.86835,1.17847 -1.89473,1.61999 -0.75275,0.32382 -1.4303,0.58878 -1.50565,0.58878 -0.0754,0 -0.45375,0.12041 -0.84088,0.26762 l -0.70386,0.26759 0.72864,1.48567 c 1.29807,2.64672 3.12359,2.91256 7.50052,1.09232 z m 5.48571,-1.28254 c 0,-0.0491 -0.33943,-0.38855 -0.75428,-0.75428 l -0.75429,-0.66495 0.66495,0.75428 c 0.62151,0.705 0.84362,0.88008 0.84362,0.66495 z m -14.12571,-2.38285 c 0.87529,-0.003 3.70286,-1.12929 3.70286,-1.47533 0,-0.17321 -0.23293,-1.17647 -0.51761,-2.22942 -0.28469,-1.05296 -0.60223,-2.3954 -0.70567,-2.98316 -0.10343,-0.58777 -0.36465,-1.33819 -0.5805,-1.66761 -0.21584,-0.32941 -0.31542,-0.67594 -0.22129,-0.77008 0.0941,-0.0941 0.0895,-0.71575 -0.0103,-1.38136 l -0.18148,-1.2102 -2.62001,-0.19233 c -1.441,-0.10576 -2.79363,-0.25895 -3.00584,-0.34039 -0.52776,-0.2025 -0.51065,0.39654 0.19771,6.91908 l 0.59729,5.49987 1.39815,-0.0837 c 0.76898,-0.046 1.64501,-0.0845 1.94672,-0.0854 z m 4.74522,-3.49095 c -0.40676,-0.49012 -0.58461,-0.24082 -0.35171,0.493 0.14614,0.46045 0.24694,0.51687 0.42078,0.23559 0.13125,-0.21238 0.10183,-0.52268 -0.0691,-0.72859 z m 6.00334,0.65458 c 0.0663,-0.0663 -0.19047,-0.71961 -0.57063,-1.45173 -1.3969,-2.69014 -3.41194,-8.23126 -3.45147,-9.49114 -0.0121,-0.38666 -0.41778,-0.18972 -1.34448,0.65274 -0.90959,0.82689 -0.92043,0.86324 -0.59118,1.98051 0.18447,0.626 0.49822,1.50846 0.69722,1.96103 0.19899,0.45258 0.50964,1.31658 0.69032,1.92 0.18068,0.60343 0.47545,1.344 0.65504,1.64572 0.17959,0.30171 0.49231,1.06755 0.69494,1.70183 0.20262,0.63432 0.5665,1.21169 0.80861,1.28308 0.47614,0.14038 2.21486,-0.005 2.41163,-0.20204 z m 2.00572,-1.13716 c 0,-0.54857 -0.13714,-0.68571 -0.68571,-0.68571 -0.70526,0 -0.80789,0.18533 -0.51923,0.93756 0.28028,0.7304 1.20494,0.53711 1.20494,-0.25185 z m -6.85714,-0.65417 c 0,-0.33767 -1.27057,-1.13812 -1.47773,-0.93095 -0.23328,0.23328 0.65516,1.17369 1.10881,1.17369 0.20291,0 0.36892,-0.10922 0.36892,-0.24274 z m 6.53402,-1.12493 c 0.27907,-0.003 0.32148,-0.3671 0.1841,-1.5809 -0.2548,-2.25133 -0.62531,-3.27415 -1.40947,-3.89096 l -0.68593,-0.53955 -0.83792,0.95433 -0.83793,0.95435 0.59904,1.56949 c 0.87665,2.29681 1.32125,2.88685 2.03167,2.69628 0.32662,-0.0876 0.75702,-0.16098 0.95644,-0.16304 z m -7.90545,-2.29267 c 0,-0.20291 -0.2346,-0.58124 -0.52134,-0.84074 -0.70354,-0.6367 -1.07461,-0.0416 -0.42301,0.67836 0.56061,0.61948 0.94435,0.68544 0.94435,0.16238 z m -1.09714,-3.95388 c 0,-0.4275 0.29852,-1.07904 0.68571,-1.49661 0.37715,-0.40674 0.68572,-1.06942 0.68572,-1.47264 v -0.73312 l -1.85143,0.1846 c -1.01829,0.10154 -2.53029,0.33636 -3.36,0.52186 -1.41517,0.31636 -1.50857,0.38781 -1.50857,1.1537 0,0.81188 0.0106,0.81734 1.91034,0.98029 1.64893,0.14142 1.98467,0.2634 2.45355,0.89143 0.69444,0.9301 0.98468,0.92141 0.98468,-0.0295 z m 5.78147,0.31979 c 0.30977,-0.37325 0.26448,-0.51294 -0.30928,-0.95391 -0.94125,-0.72338 -1.08262,-0.65884 -0.79019,0.36082 0.14033,0.4893 0.25514,0.9213 0.25514,0.96 0,0.23586 0.53817,0.003 0.84433,-0.36691 z m -14.94819,-1.27699 c -0.10313,-0.64115 -0.22899,-1.94389 -0.27968,-2.89501 -0.0507,-0.95111 -0.14585,-1.78296 -0.21146,-1.84857 -0.0656,-0.0656 -0.5054,-0.1965 -0.97733,-0.29088 l -0.85805,-0.17162 0.28848,1.06019 c 0.41623,1.52967 1.89169,5.3116 2.07224,5.3116 0.0843,0 0.0689,-0.52457 -0.0342,-1.16571 z m 2.58386,-0.58602 c 0,-0.21284 -0.36229,-0.43348 -0.82285,-0.50106 -0.82928,-0.12173 -1.19489,0.41124 -0.48,0.6997 0.67293,0.27155 1.30285,0.17549 1.30285,-0.19864 z m 2.60572,-2.33853 c 1.20685,-0.3064 2.91315,-0.63231 3.79177,-0.72425 l 1.59749,-0.16718 -0.18882,-1.14344 c -0.23096,-1.39855 -0.22622,-1.39312 -0.89975,-1.03266 -0.70138,0.37536 -5.66443,1.1235 -7.45317,1.1235 -1.50185,0 -1.56029,0.0933 -1.1968,1.91079 0.16696,0.83479 0.22962,0.87434 1.16572,0.73626 0.5441,-0.0803 1.9767,-0.39664 3.18356,-0.70302 z m 7.13143,0.52455 c 0.0932,-0.15086 -0.0156,-0.27429 -0.24192,-0.27429 -0.22628,0 -0.48771,0.12343 -0.58094,0.27429 -0.0932,0.15085 0.0156,0.27428 0.24191,0.27428 0.22629,0 0.48771,-0.12343 0.58095,-0.27428 z m -7.49945,-3.71638 c 2.62768,-0.32986 3.77326,-0.6121 5.11954,-1.26136 l 1.73439,-0.83644 -0.17006,-4.2929 c -0.50111,-12.65038 -0.0848,-23.30849 1.5015,-38.4415 0.15022,-1.43314 0.39475,-4.08685 0.54338,-5.89714 0.14863,-1.81028 0.45837,-4.464 0.6883,-5.89714 0.22993,-1.43314 0.91468,-6.24686 1.52167,-10.69715 2.64465,-19.38991 5.73032,-34.81459 12.18118,-60.89142 1.93882,-7.83748 2.25004,-9.32572 1.95018,-9.32572 -0.0664,0 -0.99373,0.31488 -2.06064,0.69974 -1.95267,0.70437 -2.58167,0.7035 -2.31049,-0.003 0.15041,-0.39196 7.35786,-2.89084 8.33796,-2.89084 1.1488,0 0.51699,0.79135 -0.97903,1.22626 -0.83687,0.24328 -1.56306,0.59147 -1.61376,0.77375 -0.0507,0.18228 -0.89214,3.66399 -1.86986,7.73713 l -1.77769,7.40571 0.38026,3.01715 c 1.37716,10.92699 1.87474,13.93929 3.28479,19.88571 2.17901,9.18934 2.01519,8.61806 2.36979,8.26346 0.43312,-0.43312 1.29661,-0.38603 1.29661,0.0707 0,0.20893 -0.31811,0.58832 -0.70691,0.84307 -0.90369,0.5921 -4.58205,3.82174 -7.29083,6.40139 -2.02413,1.92763 -2.15455,2.13005 -3.53445,5.48572 -1.54835,3.76526 -5.25777,13.81122 -7.05944,19.11851 -1.01521,2.99059 -1.18176,3.89313 -1.82212,9.87428 -1.28966,12.0457 -1.82952,19.66752 -1.99403,28.15187 l -0.16294,8.40329 1.5777,0.45866 c 0.86773,0.25226 1.63308,0.40325 1.70077,0.33556 0.0677,-0.0677 0.65166,-1.6487 1.29771,-3.51335 1.48432,-4.28413 5.95694,-15.47737 8.23105,-20.59913 2.31447,-5.21267 6.41872,-13.38016 11.52966,-22.94417 2.30636,-4.31586 6.19182,-11.82616 8.63434,-16.68952 2.44252,-4.86338 4.72581,-9.18339 5.07397,-9.6 0.34816,-0.41664 1.05112,-1.49806 1.56212,-2.40321 l 0.92911,-1.64571 -0.0666,-7.13143 c -0.0952,-10.18421 -0.82964,-22.97164 -2.28437,-39.77143 -0.30045,-3.46971 -0.62274,-7.512 -0.71621,-8.98286 -0.0935,-1.47085 -0.21673,-2.67428 -0.27392,-2.67428 -0.0572,0 -0.85041,0.31417 -1.76273,0.69816 -2.67425,1.12557 -7.91344,2.53245 -11.25665,3.02273 -2.38057,0.34912 -4.34812,0.42488 -8.45665,0.32562 -5.90048,-0.14254 -8.41263,-0.56488 -15.83798,-2.66265 -2.07853,-0.58722 -4.55916,-1.2477 -5.5125,-1.46774 -1.69634,-0.39152 -1.73796,-0.38758 -1.94871,0.18476 -1.36355,3.70305 -3.58511,19.88383 -4.39219,31.99055 -0.15588,2.33828 -0.41418,6.22628 -0.57401,8.64 -0.15983,2.41371 -0.34758,5.12914 -0.41723,6.03428 -0.0696,0.90515 -0.30921,7.01486 -0.53235,13.57715 -0.5331,15.67784 -0.61043,16.73142 -1.22809,16.73142 -0.52113,0 -1.52107,3.48459 -3.85677,13.44001 l -1.12615,4.8 0.29879,5.89714 c 0.79055,15.60238 1.22854,21.9019 2.22171,31.95428 0.52346,5.29819 1.60638,13.89526 1.77324,14.07744 0.2443,0.26667 3.37573,1.40767 3.87852,1.41321 0.32559,0.004 2.11531,-0.18473 3.97715,-0.41845 z m -8.64292,-0.0581 c -0.071,-0.11482 -0.45669,-2.34781 -0.85715,-4.96216 -0.40046,-2.61438 -0.82142,-5.00566 -0.93548,-5.31399 -0.18881,-0.51041 -0.2468,-0.47742 -0.64832,0.36873 -0.49249,1.03781 -0.37887,1.84081 1.01468,7.17106 0.38504,1.47275 0.70006,2.73789 0.70006,2.81143 0,0.0735 0.19243,0.13371 0.42762,0.13371 0.23519,0 0.36955,-0.0939 0.29859,-0.20878 z m 16.9612,-11.592 c -0.35924,-0.58127 -0.68114,-0.21614 -0.67071,0.76078 l 0.011,1.02857 0.41262,-0.76078 c 0.22693,-0.41845 0.33814,-0.88131 0.24711,-1.02857 z m 5.19873,-56.49636 c 1.01062,-2.79086 2.63125,-7.06212 3.60139,-9.49171 0.97015,-2.4296 1.7639,-4.54777 1.7639,-4.70705 0,-0.1593 0.40115,-0.62216 0.89143,-1.02863 0.49029,-0.40643 2.00308,-1.80597 3.36177,-3.11007 1.35869,-1.30412 2.92661,-2.7414 3.48427,-3.19397 l 1.01392,-0.82286 -1.20979,-5.09443 c -0.66538,-2.80193 -1.3366,-5.42799 -1.4916,-5.83567 -0.37759,-0.99314 -1.52033,-7.93567 -2.06102,-12.52133 -0.71138,-6.03344 -0.69617,-5.99233 -1.26873,-3.42857 -0.26953,1.20686 -1.17657,5.09486 -2.01565,8.64 -3.39881,14.36009 -6.49836,31.5603 -8.22966,45.66857 -0.16558,1.34927 -0.17066,1.36123 2.15977,-5.07428 z m 18.94244,-77.51247 c 4.75627,-0.77113 13.03379,-3.55052 12.61107,-4.2345 -0.0724,-0.11717 -0.15515,-1.39719 -0.18386,-2.84447 -0.0499,-2.51395 -0.0792,-2.63142 -0.65669,-2.63142 -0.33248,0 -1.46421,0.36583 -2.51495,0.81296 -1.05074,0.44714 -3.00014,1.12875 -4.332,1.51471 -1.33186,0.38596 -2.4852,0.76538 -2.56299,0.84317 -0.0778,0.0778 -0.12548,0.82308 -0.10597,1.65619 0.0333,1.42331 -0.0171,1.54676 -0.83529,2.045 -2.38998,1.45539 -8.26002,2.93673 -12.09623,3.05255 -1.66116,0.0502 -1.65964,0.0508 0.52833,0.23241 2.86774,0.238 7.06539,0.0533 10.14858,-0.4466 z m -4.8534,-1.60484 c 2.20384,-0.57143 5.5273,-1.79931 5.4972,-2.03098 -0.0127,-0.0976 -0.003,-0.23914 0.0209,-0.31457 0.17935,-0.56 0.006,-19.59195 -0.22831,-25.09714 -0.16067,-3.77143 -0.29371,-7.19975 -0.29567,-7.61848 l -0.004,-0.76133 -0.89143,0.46511 c -1.45585,0.75958 -4.76879,0.6216 -6.57455,-0.27384 -1.4819,-0.73483 -9.5207,-6.56267 -12.14499,-8.80468 -0.80266,-0.68573 -1.57887,-1.24678 -1.72491,-1.24678 -0.14604,0 -0.42233,-0.18895 -0.61399,-0.41988 -0.19166,-0.23093 -0.93642,-0.91214 -1.65504,-1.5138 l -1.30657,-1.09392 -3.31491,4.37713 c -1.82321,2.40742 -3.44071,4.45488 -3.59445,4.5499 -0.15375,0.095 -0.20853,0.28766 -0.12173,0.42809 0.0868,0.14043 0.0271,0.25533 -0.13267,0.25533 -0.35992,0 -0.38303,0.89404 -0.0323,1.248 0.14202,0.14332 1.05507,2.66288 2.029,5.59903 l 1.77077,5.33846 -1.06503,1.20994 -1.06503,1.20994 0.84344,1.06492 c 0.46389,0.58571 0.87804,1.28008 0.92034,1.54303 0.12769,0.79384 -1.06322,3.64247 -4.27514,10.22608 -1.68016,3.4439 -2.9879,6.43606 -2.9061,6.64925 0.0818,0.21318 0.86956,0.66736 1.75056,1.00928 0.881,0.34192 1.97211,0.78169 2.42468,0.97726 2.16955,0.93757 8.12849,2.63329 11.10857,3.16114 4.51283,0.79935 12.23246,0.73172 15.58089,-0.13649 z m 9.98209,-6.90089 c 2.84527,-0.89387 5.34283,-1.93 6.31225,-2.61868 0.4748,-0.3373 0.90469,-1.04515 1.18864,-1.95719 l 0.44484,-1.42879 -1.14008,-2.74286 c -1.04644,-2.51759 -1.12759,-2.63585 -0.98817,-1.44 0.1183,1.01464 0.0656,1.30286 -0.23809,1.30286 -0.2145,0 -0.45452,-0.1044 -0.53337,-0.23199 -0.19152,-0.30987 -1.41279,-8.82375 -1.9523,-13.61 -0.421,-3.73495 -0.46619,-3.89421 -1.81054,-6.38061 -0.75833,-1.40252 -1.46208,-2.50654 -1.56389,-2.45337 -0.10182,0.0532 -0.97502,0.56859 -1.94044,1.14538 l -1.7553,1.04872 0.18224,5.78379 c 0.19094,6.06015 0.62489,16.48443 0.85162,20.45808 0.0732,1.28228 0.1358,2.67086 0.13918,3.08571 0.003,0.41486 0.1232,0.75429 0.26627,0.75429 0.14307,0 1.28479,-0.32191 2.53714,-0.71534 z m 11.3739,-4.30585 c 0.98269,-0.92941 1.90679,-1.91423 2.05357,-2.18849 0.34341,-0.64167 -1.42972,-3.97248 -5.99819,-11.26759 -0.48511,-0.77465 -1.39548,-2.43179 -2.02304,-3.68255 -0.62756,-1.25076 -1.19422,-2.22089 -1.25926,-2.15586 -0.18047,0.18047 0.50628,6.03716 0.74459,6.34996 0.11493,0.15086 0.63772,1.632 1.16175,3.29143 0.52404,1.65943 1.40672,4.11302 1.96151,5.45241 l 1.00873,2.43527 -0.50282,1.54188 c -0.27655,0.84803 -0.45804,1.82748 -0.40332,2.17656 0.0958,0.61137 0.12465,0.61819 0.78464,0.18576 0.37682,-0.24691 1.48915,-1.20936 2.47184,-2.13878 z m -0.75626,-12.94687 c -2.37616,-7.59488 -5.49681,-16.96788 -5.73725,-17.23205 -0.23813,-0.26163 -3.8236,2.00585 -3.83132,2.42295 -0.003,0.15085 0.58732,1.32342 1.31137,2.60571 1.46223,2.58958 1.41462,2.50023 3.06886,5.76 1.11549,2.19813 6.66657,11.78774 6.77004,11.69538 0.0264,-0.0236 -0.68535,-2.38698 -1.5817,-5.25199 z m 0.88944,-12.72319 2.3542,-1.08765 0.0511,-2.52781 c 0.0281,-1.39029 0.16855,-3.14688 0.31204,-3.90353 0.1435,-0.75664 0.22137,-1.41524 0.17306,-1.46356 -0.0483,-0.0483 -0.50476,0.77395 -1.01431,1.82725 -0.50956,1.05331 -1.03416,1.9151 -1.16579,1.9151 -0.54373,0 -1.49597,-0.68099 -2.41923,-1.73008 l -0.98168,-1.11548 -0.943,0.5828 c -0.51865,0.32055 -1.23141,0.88981 -1.58392,1.26503 l -0.64091,0.68223 1.19416,3.45831 c 1.37533,3.98295 0.97378,3.80238 4.66423,2.09739 z m -16.49863,-0.10854 c 1.99221,-0.95945 8.52603,-5.25782 8.84597,-5.81945 0.11329,-0.19886 1.00814,-0.93399 1.98857,-1.63361 0.98043,-0.69962 1.7826,-1.33428 1.7826,-1.41037 0,-0.0761 -0.47607,-0.84127 -1.05792,-1.70042 -1.28147,-1.89217 -3.65005,-6.37896 -5.25275,-9.95028 -1.06428,-2.37155 -1.24229,-2.61617 -1.82296,-2.50517 -0.35393,0.0677 -0.64351,0.23206 -0.64351,0.36533 0,0.13327 -0.1141,0.21145 -0.25355,0.17374 -0.13945,-0.0377 -1.21945,0.56349 -2.4,1.33601 -1.18055,0.77252 -3.39218,2.20831 -4.91474,3.19063 l -2.76829,1.78606 -0.17278,2.24056 c -0.095,1.23231 -0.2464,2.35968 -0.33638,2.50527 -0.40504,0.65537 -0.67426,-0.2233 -0.67426,-2.20066 v -2.14975 l -1.46421,-1.89507 c -0.80531,-1.04229 -1.9296,-2.69048 -2.49841,-3.66263 -0.56881,-0.97216 -1.63792,-2.59882 -2.3758,-3.61479 -0.73787,-1.01598 -1.34158,-1.95391 -1.34158,-2.0843 0,-1.24202 -12.41118,-15.26195 -15.74332,-17.78397 -2.28769,-1.73151 -4.89231,-2.9245 -6.38497,-2.9245 -1.43101,0 -2.31756,0.72525 -3.96757,3.24571 -1.38799,2.12021 -1.89634,3.80219 -2.07247,6.85714 -0.24378,4.22855 0.7042,7.8252 4.27597,16.22305 1.33801,3.14589 3.38412,8.31181 4.54691,11.47981 1.16278,3.168 2.20412,5.85476 2.31409,5.97058 0.10997,0.11582 0.62033,-0.37478 1.13412,-1.09023 0.5138,-0.71545 2.03249,-2.70591 3.37488,-4.42326 l 2.4407,-3.12245 -2.44388,-2.50732 c -1.34412,-1.37903 -3.21061,-3.32978 -4.14774,-4.33501 -0.93712,-1.00523 -1.70309,-1.68408 -1.70215,-1.50857 8.2e-4,0.17551 0.35365,1.5534 0.7838,3.06197 0.43014,1.50858 0.83052,2.92067 0.88971,3.138 0.0592,0.21733 -0.091,0.43904 -0.33383,0.49269 -0.56994,0.12594 -0.83949,-0.56183 -1.98347,-5.06095 -0.77296,-3.03998 -1.08304,-3.82157 -1.92262,-4.84616 -1.0557,-1.28834 -1.23984,-1.815 -0.63459,-1.815 0.38899,0 2.01915,1.67757 6.90214,7.10287 3.13457,3.48269 8.55504,8.57813 12.34286,11.60271 3.67493,2.93445 5.56744,4.33442 5.85938,4.33442 0.15301,0 0.68695,0.38364 1.18655,0.85254 1.29504,1.21547 3.54697,2.63494 4.62227,2.91357 1.66736,0.43206 4.10039,0.0973 6.02323,-0.82874 z m 26.95492,-1.58643 c 2.30033,-2.46517 5.66456,-8.76701 9.06752,-16.98523 0.53096,-1.28229 1.58806,-3.66333 2.34912,-5.2912 0.76105,-1.62788 1.23308,-2.87573 1.04894,-2.77302 -0.18413,0.10272 -1.43931,0.93362 -2.78928,1.84645 -1.85846,1.25667 -2.66187,1.64573 -3.30847,1.60218 -0.69116,-0.0465 -1.76579,0.57371 -5.63693,3.25354 -4.26715,2.95398 -4.81409,3.42042 -5.07156,4.32513 -0.15873,0.55773 -0.60634,1.69292 -0.99469,2.52263 -1.10418,2.35908 -1.72201,5.51307 -1.7283,8.82286 -0.003,1.60914 0.0695,3.00073 0.16114,3.09242 0.55331,0.5533 3.2433,1.24662 4.35902,1.12349 1.05252,-0.11616 1.42708,-0.34284 2.54349,-1.53925 z m -8.06125,-8.42405 c 0.92277,-1.70279 1.67776,-3.26139 1.67776,-3.46356 0,-0.20218 0.18514,-0.52125 0.41142,-0.70905 0.57628,-0.47827 0.55227,-0.58433 -0.76744,-3.39047 -0.64838,-1.37867 -2.09866,-4.56069 -3.22286,-7.07116 l -2.04398,-4.56449 -2.262,-0.19149 c -1.92286,-0.16278 -7.98492,0.0364 -8.24568,0.27096 -0.13561,0.12197 0.6649,2.85768 1.404,4.79808 1.89829,4.98372 4.17978,9.61067 6.34445,12.86681 1.38347,2.08103 4.46572,5.15706 4.80246,4.79277 0.12326,-0.13334 0.9791,-1.63562 1.90187,-3.3384 z m -23.53453,-8.59116 c 1.34561,-0.92162 2.44444,-1.75477 2.44183,-1.85143 -0.003,-0.0966 -0.31231,-0.46749 -0.68823,-0.82409 -0.37592,-0.3566 -2.62636,-3.07203 -5.00098,-6.03429 -2.37461,-2.96226 -5.37119,-6.49678 -6.65907,-7.8545 -1.28788,-1.35771 -2.66349,-2.90057 -3.05692,-3.42857 -0.39342,-0.528 -2.34841,-2.60624 -4.34442,-4.61832 -3.46734,-3.49525 -3.66894,-3.65085 -4.52269,-3.49068 -0.63421,0.11897 -0.93653,0.0557 -1.04153,-0.2179 -0.13844,-0.36077 -4.19644,-1.28759 -5.53856,-1.26497 -0.47264,0.008 -0.43662,0.0926 0.26022,0.61171 5.07302,3.77887 10.60359,9.51075 16.15469,16.74273 2.46623,3.21301 3.22705,4.36235 6.30018,9.51743 1.37841,2.31224 2.85115,4.38857 3.11281,4.38857 0.0749,0 1.23706,-0.75406 2.58267,-1.67569 z m 31.59188,-1.82145 c 2.7965,-1.92343 5.26923,-3.62057 5.49495,-3.77143 0.34674,-0.23174 0.0214,-1.13564 -2.09779,-5.82769 -1.3795,-3.05438 -2.61433,-5.55381 -2.74405,-5.55429 -0.4417,-0.002 -11.42128,6.7281 -11.42128,7.00047 0,0.098 3.84605,8.66162 4.70868,10.48437 0.30343,0.64114 0.64692,1.16571 0.76332,1.16571 0.11639,0 2.49967,-1.57371 5.29617,-3.49714 z m -25.3974,-2.17379 2.60853,-1.55665 -0.17442,-1.25478 c -0.24928,-1.79327 -2.25693,-11.59453 -2.84147,-13.87192 l -0.49281,-1.92 -1.24693,-0.082 -1.24694,-0.082 -0.15604,1.31759 c -0.0858,0.72467 -0.10637,2.6747 -0.0457,4.3334 0.0607,1.6587 0.17446,5.36096 0.25275,8.22724 0.13156,4.8164 0.28529,6.44572 0.60818,6.44572 0.0695,0 1.30011,-0.70049 2.7348,-1.55665 z m -4.52747,-9.46084 c -0.0992,-4.92818 -0.26726,-9.04701 -0.37338,-9.15294 -0.10612,-0.10593 -0.48679,-0.11885 -0.84593,-0.0287 -0.60979,0.15304 -0.64469,0.26412 -0.52738,1.67865 0.14481,1.74623 0.0902,1.77247 -2.34232,1.12491 -1.42477,-0.3793 -1.44,-0.37681 -1.44,0.23518 0,0.74433 1.24727,7.50924 1.50247,8.14907 0.11495,0.28822 -0.0181,0.59037 -0.36788,0.83536 -0.52526,0.36791 -0.44535,0.50634 1.92765,3.33953 1.36159,1.62565 2.51422,2.91602 2.56141,2.8675 0.0472,-0.0485 0.005,-4.12037 -0.0946,-9.04856 z m 39.94987,5.73876 c 0.80082,-0.58896 1.41532,-1.15418 1.36557,-1.25605 -0.21158,-0.43323 -1.66031,-3.46705 -3.36918,-7.05545 -1.00921,-2.1192 -2.04548,-4.13223 -2.30283,-4.47341 l -0.46791,-0.62032 -1.76941,0.9961 c -0.97317,0.54785 -1.87427,1.09821 -2.00244,1.22301 -0.17348,0.16893 4.66613,11.59259 5.50005,12.98261 0.14419,0.24035 0.81268,-0.1539 3.04615,-1.79649 z m 3.78854,-2.19107 0.44067,-0.85216 -0.81353,0.66384 c -0.44745,0.36511 -0.75712,0.81741 -0.68817,1.00512 0.17344,0.4721 0.54073,0.18936 1.06103,-0.8168 z m 1.21543,-2.78335 c 1.59184,-1.26122 3.75184,-2.73318 4.8,-3.27103 2.80584,-1.43981 9.51625,-3.23294 13.99307,-3.73917 1.58031,-0.1787 2.33394,-0.45056 4.07605,-1.47035 1.25647,-0.73551 2.40325,-1.64252 2.78265,-2.20086 0.62601,-0.92126 1.83316,-3.77194 1.66745,-3.93766 -0.0451,-0.0451 -0.43559,0.28694 -0.86767,0.73794 -0.43208,0.45099 -0.88701,0.81999 -1.01095,0.81999 -0.12394,0 -0.73341,0.36804 -1.35438,0.81787 -1.04915,0.76 -1.60907,0.85805 -1.60907,0.28177 0,-0.13168 1.01829,-0.97793 2.26286,-1.88057 1.24457,-0.90263 2.7323,-2.14129 3.30607,-2.75258 0.9723,-1.03588 1.03756,-1.20993 0.96,-2.56039 -0.0485,-0.845 -0.21239,-1.44895 -0.39311,-1.44895 -0.17044,0 -1.29593,0.90485 -2.5011,2.01078 -2.80883,2.57755 -4.45758,3.60828 -4.45758,2.78668 0,-0.15225 0.61715,-0.65655 1.37144,-1.12067 1.45876,-0.89759 5.46428,-5.23787 5.51729,-5.9784 0.0858,-1.19859 -0.50015,-3.86982 -0.84886,-3.86982 -0.16412,0 -4.50488,4.81177 -4.94272,5.47905 -0.26105,0.39782 -3.01715,1.66049 -3.01715,1.38225 0,-0.15365 0.59745,-0.70858 1.32766,-1.23318 1.42839,-1.0262 6.07806,-6.42828 6.07806,-7.06161 0,-0.53638 -1.29177,-1.68893 -2.66336,-2.37634 -0.63513,-0.31831 -1.21526,-0.57875 -1.28917,-0.57875 -0.0739,0 -0.1714,0.70675 -0.21664,1.57055 l -0.0823,1.57054 -3.08216,2.64183 c -3.4351,2.94435 -5.27782,3.9309 -8.71054,4.66341 -2.10256,0.44866 -2.2335,0.44709 -3.18472,-0.0382 -0.80302,-0.40966 -1.02483,-0.70469 -1.16428,-1.54854 -0.46161,-2.79343 -0.19408,-3.66355 2.2217,-7.22574 0.81301,-1.19883 1.16571,-2.0047 1.16571,-2.6635 0,-0.95385 -0.71651,-2.81036 -1.08464,-2.81036 -0.2517,0 -3.44309,3.80422 -4.71706,5.62286 -1.50003,2.14135 -3.29313,8.70382 -3.6723,13.44 -0.15771,1.97001 -0.2588,2.27124 -0.98905,2.94715 -0.44737,0.41407 -1.08419,0.89436 -1.41517,1.06731 -0.73256,0.38279 -5.71283,3.53803 -6.06608,3.84316 -0.23187,0.20027 4.45199,10.36899 4.77859,10.37437 0.0754,0.001 1.43957,-1.02964 3.03142,-2.29085 z m -51.50058,-0.63795 c -0.74796,-1.17561 -1.90496,-3.15564 -2.5711,-4.40006 -0.66614,-1.24442 -1.29007,-2.26271 -1.3865,-2.26286 -0.0964,-1.5e-4 -0.46671,0.23886 -0.82285,0.53112 -0.48092,0.39466 -0.57696,0.63365 -0.37325,0.92885 0.72438,1.04968 6.3086,7.54545 6.40432,7.44973 0.0601,-0.0601 -0.50266,-1.07117 -1.25062,-2.24678 z m 23.45404,1.48361 c 0.38737,-0.0602 -4.31147,-6.45053 -6.11631,-8.31807 -1.14075,-1.18038 -2.75575,-1.74873 -4.96913,-1.74873 -0.78976,0 -0.93944,0.0872 -0.8243,0.48 0.16716,0.57034 2.09057,9.31339 2.09057,9.50288 0,0.072 0.40115,0.16961 0.89143,0.21689 0.8774,0.0846 8.23266,-0.025 8.92774,-0.13297 z m -23.12775,-5.47251 -0.57974,-3.36 -1.21584,0.0936 c -0.66871,0.0515 -1.25393,0.13073 -1.30049,0.17608 -0.13224,0.12879 3.42142,6.45028 3.62606,6.45028 0.0274,0 -0.21114,-1.512 -0.52999,-3.36 z m -5.30669,-3.52578 c 0.98305,-0.77859 1.06165,-0.93711 0.91804,-1.85143 -0.0864,-0.54996 -0.21296,-1.37022 -0.28128,-1.82279 -0.0969,-0.64196 -0.41065,-0.98159 -1.42714,-1.54488 -0.7166,-0.39711 -1.57911,-0.80609 -1.91669,-0.90884 -0.56863,-0.17308 -0.60186,-0.11999 -0.45187,0.72202 0.26899,1.51001 1.26129,5.83166 1.38954,6.0517 0.22187,0.38065 0.68843,0.21037 1.7694,-0.64578 z m 8.64227,-0.45136 c -0.0783,-0.41486 -0.2871,-2.01943 -0.46408,-3.56572 -0.17697,-1.54628 -0.42965,-2.81143 -0.56151,-2.81143 -0.13185,0 -0.67526,0.46286 -1.20757,1.02857 -0.96149,1.02184 -0.96717,1.04253 -0.86692,3.15963 0.0555,1.17208 0.14993,2.17104 0.20985,2.21991 0.0985,0.0803 2.25154,0.61025 2.80503,0.69038 0.12513,0.0181 0.16347,-0.30649 0.0852,-0.72134 z m -4.17079,-1.50858 c -0.25636,-1.84796 -0.63088,-2.4 -1.62827,-2.4 -0.47737,0 -0.93507,0.0671 -1.01713,0.1492 -0.0821,0.082 0.036,0.88434 0.26233,1.78286 l 0.41152,1.63366 h 1.06663 1.06663 z m 45.74997,-0.0686 c 1.01539,-0.60343 1.84854,-1.17965 1.85142,-1.28049 0.003,-0.10085 -0.79568,-0.44989 -1.77462,-0.77566 -0.97893,-0.32577 -1.85021,-0.70612 -1.93618,-0.84522 -0.30107,-0.48712 -0.59143,-0.2417 -1.33892,1.13169 -0.82627,1.51813 -0.79045,2.22382 0.10106,1.99069 0.44384,-0.11607 0.56535,-0.0188 0.56535,0.45283 0,0.75323 0.23642,0.69031 2.53189,-0.67384 z m -53.79684,-0.0877 c -0.26349,-0.49232 -1.39791,-1.02463 -1.39791,-0.65594 0,0.0908 0.33743,0.51722 0.74983,0.94768 0.77426,0.80815 1.14693,0.64038 0.64808,-0.29174 z m -0.57082,-3.31757 c -0.16749,-0.92364 -0.22967,-1.80046 -0.13819,-1.94848 0.24559,-0.39737 1.14548,-0.3275 2.09307,0.16252 0.4591,0.23741 0.89261,0.37377 0.96336,0.30302 0.0708,-0.0708 -1.37486,-0.913 -3.21247,-1.87165 -1.88868,-0.98531 -4.34039,-2.55059 -5.63984,-3.60072 l -2.29873,-1.85763 v 2.35573 c 0,2.61464 0.27442,3.4168 1.16891,3.4168 0.37926,0 1.33949,0.7338 2.60219,1.98857 1.42924,1.42027 2.37172,2.11517 3.29787,2.43155 0.71321,0.24364 1.33535,0.41074 1.38255,0.37134 0.0472,-0.0394 -0.0512,-0.82735 -0.21872,-1.75099 z m 58.96656,0.36237 c 1.30478,-0.93739 1.37253,-1.04836 1.38164,-2.26286 0.005,-0.70242 0.18311,-2.25097 0.39523,-3.44123 0.38183,-2.14261 0.37901,-2.17389 -0.28386,-3.14938 -0.36823,-0.54191 -0.66952,-1.06504 -0.66952,-1.16252 0,-0.0975 -0.53736,-1.14883 -1.19414,-2.33633 -1.88596,-3.40992 -1.90166,-3.17671 0.3524,-5.23394 2.19776,-2.00585 2.80208,-2.97018 2.94642,-4.70161 l 0.0995,-1.1936 -1.85637,1.01872 c -1.021,0.56029 -1.91808,1.09772 -1.99351,1.19429 -0.11386,0.14576 -3.2783,2.54843 -3.49756,2.65559 -0.11399,0.0557 1.52913,7.83561 1.96688,9.31289 0.22352,0.75428 0.6567,2.15894 0.96263,3.12147 0.30592,0.96252 0.47833,1.87607 0.38313,2.03012 -0.23279,0.37666 -0.90909,-0.57217 -0.92337,-1.29545 -0.01,-0.48602 -0.12594,-0.43094 -0.83494,0.39528 -0.83446,0.97243 -2.84809,4.36456 -2.67606,4.50805 0.16907,0.14102 3.65444,1.51061 3.86437,1.51852 0.11279,0.004 0.82251,-0.43586 1.57714,-0.97801 z m -45.616,-0.8657 c -0.069,-0.264 -0.12544,-0.048 -0.12544,0.48 0,0.528 0.0564,0.744 0.12544,0.48 0.069,-0.264 0.069,-0.696 0,-0.96 z m -5.2858,0.5878 c 0.28461,-0.10922 0.43387,-0.50666 0.43387,-1.15533 0,-0.77649 0.22923,-1.22669 1.06745,-2.09637 l 1.06745,-1.10753 -0.37085,-2.05714 c -0.20397,-1.13143 -0.37575,-2.63023 -0.38174,-3.33065 -0.0119,-1.39128 -0.24186,-1.60325 -1.7476,-1.61092 -1.07009,-0.005 -7.88563,-3.32051 -12.25186,-5.95928 l -3.15428,-1.90633 -0.0752,4.82095 -0.0752,4.82096 1.03516,0.8982 c 1.77469,1.5399 4.94469,3.58106 7.63792,4.91805 2.03939,1.0124 2.58581,1.40567 2.58581,1.86102 0,1.1577 0.73253,1.76117 2.26851,1.86884 0.78889,0.0553 1.45511,0.12337 1.48048,0.15128 0.0254,0.0279 0.24138,-0.0242 0.48,-0.11575 z m 3.88878,-2.52905 c 0.54575,0.0633 0.83743,0.29255 0.98659,0.77554 0.13007,0.42116 0.16999,0.016 0.10347,-1.05024 -0.0596,-0.95478 -0.1839,-1.81155 -0.27629,-1.90393 -0.24065,-0.24066 -3.17154,2.71823 -3.17154,3.20183 0,0.27324 0.25555,0.1587 0.79147,-0.35474 0.56423,-0.54056 1.01394,-0.73249 1.5663,-0.66846 z m 60.81582,-5.66887 c 2.16305,-0.5634 3.45045,-1.26578 5.90369,-3.22091 3.81449,-3.04001 3.88316,-3.12598 3.87947,-4.85706 -0.005,-2.19462 -0.73653,-9.76247 -1.11546,-11.53477 -0.1774,-0.82971 -0.45177,-1.59086 -0.60972,-1.69144 -0.15794,-0.10058 -0.85194,0.047 -1.54223,0.32805 -3.24067,1.31923 -9.28812,4.01637 -12.66762,5.64971 l -3.73256,1.80398 -0.58928,1.42175 c -0.38435,0.92731 -1.20867,2.03562 -2.3703,3.18693 -0.97956,0.97084 -1.78101,1.92735 -1.78101,2.12555 0,0.40769 3.03101,6.17875 3.1714,6.03836 0.0499,-0.0499 0.52702,-1.42244 1.06016,-3.04998 0.53315,-1.62755 1.24186,-3.35184 1.57492,-3.83176 1.45136,-2.0913 5.52106,-6.76972 5.8889,-6.76972 0.22734,0 0.70778,0.68829 1.10089,1.57714 0.8597,1.94386 0.75627,3.15132 -0.43141,5.03628 -0.46467,0.73748 -1.23085,1.9536 -1.70262,2.70249 -0.86818,1.37816 -1.09335,2.69083 -0.71154,4.14809 0.34591,1.32025 1.96085,1.64408 4.67432,0.93731 z m -58.8487,-4.2647 c 1.84843,-0.39642 3.61709,-2.02024 6.76075,-6.20709 l 2.56922,-3.4218 -1.06743,-1.82665 c -1.19236,-2.04044 -1.33098,-3.08037 -0.51886,-3.8925 0.65676,-0.65676 1.05361,-0.68569 1.84097,-0.1342 0.37446,0.26229 0.65447,0.31262 0.76293,0.13714 0.234,-0.37862 1.32791,-0.34999 1.723,0.0451 0.24691,0.24691 0.48204,-0.0266 1.00495,-1.16873 1.06049,-2.31642 1.93987,-9.32518 1.92424,-15.33645 l -0.0125,-4.799996 -1.04957,-2.414441 c -0.99013,-2.277726 -1.09038,-2.406163 -1.77037,-2.268252 -3.39248,0.688029 -6.32129,0.818723 -18.60593,0.830268 -12.8959,0.01212 -13.23234,0.02598 -13.63042,0.560996 -0.74514,1.0015 -3.36704,5.744615 -3.71468,6.720005 -0.57185,1.60446 -0.56825,5.42185 0.009,9.36757 0.29448,2.01355 0.59311,3.84614 0.66363,4.07242 0.0705,0.22629 0.18908,1.01324 0.26347,1.74879 0.0812,0.80243 0.31731,1.47048 0.5904,1.67017 0.42132,0.30808 0.41912,0.34664 -0.0296,0.51884 -0.28726,0.11023 -0.61024,0.0276 -0.79277,-0.20274 -0.1694,-0.21381 -0.78124,-0.6251 -1.35964,-0.91398 -0.99214,-0.49552 -1.05726,-0.60663 -1.15114,-1.96425 -0.12966,-1.87517 -0.82506,-4.23398 -1.61664,-5.48371 -1.92328,-3.03643 -4.90739,-5.2474 -7.08234,-5.2474 -1.558,0 -2.46987,0.60545 -3.35148,2.22526 -0.65586,1.20503 -0.78656,1.76765 -0.7856,3.38157 0.002,3.42646 1.30921,5.42291 5.31346,8.11536 2.5296,1.7009 3.3962,2.5748 4.5719,4.61044 0.77965,1.34992 1.10188,1.67918 1.65002,1.68602 0.59492,0.007 1.24159,-1.34067 1.41487,-2.94957 0.12892,-1.197 0.2827,-1.58718 0.65353,-1.65826 0.43289,-0.083 0.47705,0.12022 0.41143,1.89315 -0.0425,1.14723 0.0423,2.02523 0.20078,2.07873 0.15085,0.0509 1.23101,0.8094 2.40034,1.68547 3.43009,2.56983 10.05146,6.37814 13.70883,7.8847 1.94124,0.79964 2.59201,0.93495 4.51732,0.93925 1.23715,0.003 2.85,-0.12379 3.58411,-0.28123 z m -5.28922,-8.22362 c -0.16865,-0.27287 0.32792,-0.45364 1.88926,-0.68778 0.86363,-0.12951 1.26936,-0.0927 1.26936,0.11508 0,0.16798 -0.15429,0.3108 -0.34286,0.31737 -0.18857,0.007 -0.87009,0.11391 -1.51448,0.23854 -0.64439,0.12462 -1.22997,0.13218 -1.30128,0.0168 z m -8.82413,-1.03657 c 0.86485,-0.9027 0.91729,-1.1507 0.24332,-1.1507 -1.38305,0 -1.54289,-1.73 -0.29153,-3.15523 1.66766,-1.89936 2.14332,-1.852 3.54682,0.35315 0.90909,1.42835 0.78443,2.12594 -0.46035,2.57606 -0.51139,0.18492 -0.9298,0.4259 -0.9298,0.53552 0,0.10962 0.40114,0.51546 0.89143,0.90186 l 0.89143,0.70255 -2.31418,0.003 -2.31417,0.003 0.73703,-0.76929 z m 13.07989,0.49501 c 0,-0.15086 0.54814,-0.27429 1.2181,-0.27429 0.66995,0 1.29438,0.12343 1.38761,0.27429 0.10448,0.16905 -0.36286,0.27429 -1.2181,0.27429 -0.76318,0 -1.38761,-0.12343 -1.38761,-0.27429 z m -27.29957,-6.24938 c 0.17846,-1.29755 0.16954,-1.31745 -0.79712,-1.77842 -0.53768,-0.2564 -0.9776,-0.34475 -0.9776,-0.19633 0,0.39453 -1.01119,0.32943 -1.86505,-0.12006 -1.04979,-0.55265 -3.25351,-2.88588 -3.64718,-3.86152 -0.18262,-0.45258 -0.35305,-1.31658 -0.37875,-1.92 -0.0257,-0.60343 -0.1403,-1.42365 -0.25468,-1.82272 -0.1874,-0.65382 -0.11443,-0.75645 0.73776,-1.0377 0.53499,-0.17656 1.44009,-0.23307 2.08399,-0.1301 1.3908,0.2224 3.79587,1.85332 4.49228,3.0463 0.49077,0.84072 0.49295,0.94978 0.0504,2.52691 -0.25436,0.90655 -0.38959,1.8382 -0.30051,2.07034 0.0891,0.23213 0.60162,0.63173 1.13899,0.88798 0.95486,0.45534 0.97326,0.49422 0.81083,1.71388 -0.22995,1.72676 -0.31856,1.93368 -0.82808,1.93368 -0.37455,0 -0.41694,-0.20969 -0.2653,-1.31224 z m -1.88251,-2.96162 c -0.0916,-0.23863 -0.16649,-0.61673 -0.16649,-0.84024 0,-0.29165 -0.2457,-0.38211 -0.87031,-0.32042 -1.13844,0.11243 -1.27866,0.63064 -0.31238,1.15445 1.0209,0.55344 1.56012,0.55591 1.34918,0.006 z m 0.0477,-2.45863 c 0.0424,-0.0276 0.19354,-0.45641 0.33595,-0.95295 0.23769,-0.82879 0.17918,-0.97801 -0.71371,-1.82011 -0.53494,-0.50452 -1.11902,-0.91731 -1.29795,-0.91731 -0.17893,0 -0.66149,0.52458 -1.07235,1.16572 -0.41086,0.64114 -0.89518,1.36924 -1.07627,1.61801 -0.26231,0.36035 -0.23854,0.59072 0.1169,1.1332 l 0.44615,0.68091 1.59212,-0.42866 c 0.87567,-0.23576 1.62678,-0.45123 1.66916,-0.47881 z m -3.52953,-3.02571 c 0.68062,-1.15356 0.5592,-1.48751 -0.54084,-1.48751 -0.85391,0 -1.00874,0.4523 -0.63379,1.85143 0.23008,0.85854 0.5033,0.77389 1.17463,-0.36392 z m 32.58811,8.7681 c -0.0831,-0.0831 0.47662,-0.756 1.24375,-1.49542 1.32367,-1.27584 1.37135,-1.37028 0.93518,-1.85225 -0.47922,-0.52953 -2.37741,-4.70924 -2.37741,-5.23492 0,-0.16588 0.12343,-0.30159 0.27429,-0.30159 0.15086,0 0.27428,0.16232 0.27428,0.36073 0,0.1984 0.61233,1.58163 1.36072,3.07386 l 1.36072,2.71313 -0.67437,0.88415 c -0.75764,0.99331 -2.16707,2.0824 -2.39716,1.85231 z m -13.50133,-6.14133 c 0.0932,-0.15086 0.35054,-0.27429 0.5718,-0.27429 0.34618,0 0.34145,-0.11763 -0.0339,-0.84343 -0.23989,-0.46389 -0.50669,-1.68474 -0.5929,-2.71301 l -0.15674,-1.86959 -0.98485,-0.15982 c -0.91609,-0.14866 -1.06816,-0.0646 -2.17827,1.20445 -0.73464,0.8398 -1.4192,1.36426 -1.78071,1.36426 -0.48471,0 -0.3037,-0.28657 1.03619,-1.64059 1.58321,-1.59992 1.65442,-1.63762 2.87141,-1.52045 0.68636,0.0661 2.66736,0.19167 4.40222,0.27907 3.65192,0.18398 4.93714,0.37318 4.93714,0.72681 0,0.13879 -0.40582,0.22502 -0.90182,0.19161 -1.2867,-0.0867 -1.56675,0.19126 -1.56675,1.55481 0,0.66253 -0.13365,1.82782 -0.29701,2.58953 l -0.29702,1.38492 h -2.59917 c -1.66294,0 -2.53811,-0.0988 -2.42965,-0.27428 z m 4.65811,-0.75429 c 0.1051,-0.264 0.25936,-1.43656 0.34282,-2.60571 l 0.15174,-2.12571 h -1.93676 c -1.06522,0 -2.132,-0.0749 -2.37062,-0.16649 -0.97902,-0.37568 -0.2729,4.25246 0.75909,4.97529 0.83171,0.58256 2.81097,0.5324 3.05373,-0.0774 z m -9.81823,-1.11215 c -0.78766,-0.82214 -0.91456,-1.1507 -0.44444,-1.1507 0.39409,0 2.17598,1.37432 2.17598,1.67827 0,0.5178 -1.03095,0.20369 -1.73154,-0.52757 z m 24.22297,-0.0311 c 0,-0.13095 0.19297,-0.31213 0.42882,-0.40263 0.24524,-0.0941 0.34289,-0.30358 0.2281,-0.48931 -0.1104,-0.17863 -0.27538,-1.07435 -0.36663,-1.99051 -0.0913,-0.91616 -0.28647,-1.65072 -0.43382,-1.63235 -0.14734,0.0184 -0.60732,0.1133 -1.02218,0.21094 -0.41486,0.0976 -0.75429,0.0617 -0.75429,-0.0799 0,-0.33479 2.0329,-0.97767 4.84525,-1.53225 l 2.23954,-0.44162 1.80618,0.81895 c 0.9934,0.45043 1.80617,0.98764 1.80617,1.19379 0,0.48506 -1.69283,2.12815 -2.19257,2.12815 -0.22477,0 2e-5,-0.39581 0.54288,-0.95589 0.50957,-0.52574 0.87321,-1.00055 0.80809,-1.05512 -0.43326,-0.36314 -3.02512,-1.61941 -3.12826,-1.51627 -0.0699,0.0699 -0.27365,1.31947 -0.45275,2.7768 l -0.32562,2.64967 -1.26017,0.15823 c -0.69309,0.087 -1.59959,0.21206 -2.01445,0.27784 -0.41486,0.0658 -0.75429,0.0125 -0.75429,-0.11849 z m 2.9161,-0.73544 c 0.50328,-0.13506 0.62442,-0.46834 0.87031,-2.39451 0.15712,-1.23068 0.24302,-2.28025 0.19091,-2.33236 -0.0521,-0.0521 -0.79813,0.0627 -1.65781,0.25504 l -1.56305,0.3498 0.13104,1.83152 c 0.17876,2.49837 0.38524,2.7315 2.0286,2.29051 z m -29.06736,-4.70315 c -0.18607,-0.30107 1.74836,-2.79814 3.28291,-4.23776 1.78358,-1.67324 6.09671,-2.690711 9.74417,-2.298653 1.55779,0.167446 1.84784,0.283518 1.98483,0.794313 0.29293,1.09222 0.19889,1.62878 -0.25495,1.45462 -1.16952,-0.44878 -5.39026,-0.7104 -7.78601,-0.4826 l -2.58603,0.24589 -1.6727,1.74729 c -0.91998,0.96101 -1.86414,2.04763 -2.09814,2.41471 -0.2703,0.42405 -0.49423,0.55612 -0.61408,0.36219 z m 14.63126,-5.28783 c 0,-0.15459 -0.33943,-0.41416 -0.75428,-0.57682 -0.96859,-0.379769 -6.04858,-0.13421 -6.47638,0.31305 -0.24035,0.25131 0.003,0.28842 1.05923,0.16128 0.75429,-0.0908 2.23543,-0.0579 3.29143,0.0732 2.73995,0.34007 2.88,0.3415 2.88,0.0293 z m -0.92922,4.34209 c -0.70019,-1.17418 -0.74474,-1.63826 -0.10598,-1.10404 0.61691,0.51593 1.3306,1.93475 1.05797,2.10324 -0.14312,0.0885 -0.57152,-0.36118 -0.95199,-0.9992 z m 10.2563,0.12184 c 0.002,-0.39127 1.32158,-1.85075 1.50677,-1.66727 0.10224,0.10128 -0.095,0.56414 -0.43842,1.02857 -0.5926,0.80154 -1.07133,1.08774 -1.06835,0.6387 z m 10.07344,-2.74015 -1.30624,-1.30556 -2.25857,0.0328 c -1.96617,0.0286 -3.8554,0.35803 -6.18729,1.07895 -0.58982,0.18235 -0.63069,0.12798 -0.54857,-0.72976 0.12514,-1.30717 1.06526,-1.6895 4.18191,-1.700713 3.76453,-0.01355 5.01358,0.379693 6.43032,2.024423 1.56381,1.81547 1.33858,2.2491 -0.31156,0.59983 z m -6.57766,-1.52331 c 1.09371,-0.17454 1.98857,-0.43106 1.98857,-0.57005 0,-0.32707 -3.96121,8.2e-4 -4.68419,0.38779 -0.63466,0.33966 -0.41107,0.93131 0.25479,0.67422 0.24874,-0.096 1.34712,-0.31742 2.44083,-0.49196 z m 40.71947,22.56652 c 1.69467,-0.80145 1.72329,-0.80506 2.24492,-0.28344 0.52163,0.52164 0.54544,0.51972 1.86817,-0.15056 0.7369,-0.37341 2.47617,-1.17676 3.86505,-1.7852 1.38889,-0.60845 3.29501,-1.55405 4.23583,-2.10132 1.69211,-0.9843 1.70511,-1.00113 1.20318,-1.55737 -0.27908,-0.30927 -0.6321,-0.79681 -0.7845,-1.08342 -0.25691,-0.48318 -0.30459,-0.46369 -0.65524,0.26791 -0.43884,0.91562 -1.4908,1.37172 -2.55039,1.10578 -0.52355,-0.1314 -0.89648,-0.52655 -1.26678,-1.34226 -0.62993,-1.38759 -0.66233,-2.36867 -0.13558,-4.10461 0.21744,-0.71657 0.28334,-1.30285 0.14644,-1.30285 -0.44872,0 -5.83937,2.41574 -8.54903,3.83111 l -2.65274,1.38565 -0.16322,1.84876 c -0.0898,1.01682 -0.28125,2.65104 -0.42552,3.63162 -0.14426,0.98057 -0.3153,2.30506 -0.38009,2.9433 l -0.11779,1.16045 1.20037,-0.82587 c 0.6602,-0.45424 1.97282,-1.19119 2.91692,-1.63768 z m -70.41223,-10.8771 -0.71947,-4.06596 -1.83041,-2.88 c -3.40943,-5.36447 -6.15447,-8.615753 -11.13601,-13.189788 -2.01051,-1.846042 -3.08071,-2.654845 -3.26674,-2.468819 -0.39158,0.391581 -0.38697,3.895883 0.008,6.360557 0.18392,1.146643 0.66972,3.1215 1.07956,4.38857 0.40984,1.26707 0.72107,2.39977 0.69162,2.51712 -0.10096,0.40232 0.68118,0.49459 2.18866,0.2582 1.89211,-0.29672 4.47811,0.19241 6.12738,1.15894 1.33979,0.78517 3.66375,3.27347 4.68842,5.01996 0.55326,0.943 0.7033,1.62264 0.7881,3.57005 0.13585,3.11973 0.14202,3.14022 1.10756,3.67669 0.6586,0.36592 0.83979,0.38365 0.90764,0.0888 0.0466,-0.20261 -0.23897,-2.19806 -0.63468,-4.43433 z m 88.6129,3.9968 c 0.97106,-0.46833 1.76557,-0.95306 1.76557,-1.07717 0,-0.24205 -1.93291,-1.91131 -2.21318,-1.91131 -0.20553,0 -1.4934,2.36989 -1.7514,3.22286 -0.24952,0.82493 0.0741,0.79044 2.19901,-0.23438 z m -6.1119,-2.66173 c 0.68362,-1.61285 1.32726,-3.49853 1.43033,-4.19039 0.17543,-1.1777 0.132,-1.30454 -0.68092,-1.98857 -0.97227,-0.81811 -1.20058,-0.85845 -2.43101,-0.42952 -0.70126,0.24446 -0.86378,0.45089 -0.86378,1.09714 0,0.79978 0.35704,1.05354 0.70048,0.49784 0.10457,-0.1692 0.28756,-0.19491 0.42304,-0.0594 0.13547,0.13548 -0.22392,1.12465 -0.83083,2.28676 -0.89734,1.71823 -1.06123,2.28459 -1.0178,3.51725 0.0409,1.1598 0.18325,1.57571 0.67612,1.97482 0.3434,0.27806 0.78795,0.4428 0.98789,0.36607 0.19994,-0.0767 0.92286,-1.4591 1.60648,-3.07196 z m 3.20893,2.70103 c 0.43121,-0.80573 1.92569,-5.12127 1.92569,-5.56073 0,-0.21042 -0.4572,-0.6006 -1.01598,-0.86707 -0.95296,-0.45443 -1.03704,-0.45568 -1.35551,-0.0202 -0.44925,0.61439 -1.46851,3.88648 -1.46851,4.71428 0,0.89119 0.74847,2.27162 1.23168,2.27162 0.2171,0 0.52428,-0.24207 0.68263,-0.53794 z m -17.39775,-1.89972 c 0.14331,-0.13391 2.57062,-1.25764 5.39402,-2.49718 3.34111,-1.46682 5.18741,-2.4237 5.28798,-2.74058 0.16294,-0.51338 -0.29942,-2.08184 -1.24156,-4.21171 -0.37049,-0.83755 -0.7355,-1.27849 -1.05834,-1.27849 -1.39026,0 -7.77509,2.8319 -9.86699,4.37636 -1.14247,0.84349 -1.18905,0.93263 -1.02468,1.96054 0.23451,1.46656 1.56137,4.63452 1.9411,4.63452 0.16935,0 0.42515,-0.10956 0.56847,-0.24346 z m 1.38994,-10.97979 c -0.0936,-1.11908 -0.24221,-2.1065 -0.33025,-2.19428 -0.088,-0.0878 -0.45596,0.18417 -0.8176,0.60433 -0.58575,0.68054 -1.10443,2.09253 -1.6084,4.37845 l -0.16619,0.75381 1.54631,-0.75381 1.54631,-0.75381 z m -70.41115,0.81225 c 0.0289,-1.20035 0.20764,-2.71235 0.39713,-3.36 l 0.34453,-1.17756 -2.20994,-1.751401 c -3.70724,-2.938014 -12.81269,-8.583001 -13.20757,-8.18812 -0.0753,0.07529 1.07238,1.25619 2.55037,2.624229 3.26874,3.02556 6.58061,6.752695 8.52113,9.589552 0.79544,1.16287 1.62062,2.32216 1.83372,2.5762 0.21311,0.25405 0.59499,0.77862 0.84863,1.16572 0.25364,0.3871 0.55301,0.70382 0.66528,0.70382 0.11227,0 0.22779,-0.9821 0.25672,-2.18244 z m -12.21039,-0.3745 c 0.76062,-0.29125 0.44902,-0.40048 -0.72497,-0.25413 -0.74122,0.0924 -1.02857,0.26032 -1.02857,0.60107 0,0.75469 0.36886,0.91868 0.81881,0.36404 0.22851,-0.28168 0.64914,-0.60162 0.93473,-0.71098 z m 54.31188,-4.32097 c 1.3014,-5.077076 1.93161,-9.774123 1.56128,-11.63638 l -0.21818,-1.097143 -0.38426,0.822857 c -0.6194,1.326372 -2.27833,3.977143 -2.48902,3.977143 -0.10655,0 0.36201,-1.044689 1.04125,-2.32153 1.12297,-2.110966 1.24827,-2.540108 1.38149,-4.731428 0.11587,-1.906028 0.059,-2.524597 -0.27207,-2.958471 -0.41677,-0.546226 -0.42287,-0.54627 -1.42592,-0.01031 -2.19633,1.173548 -4.40286,4.637486 -5.08959,7.989921 -0.42949,2.096733 -0.23871,2.701487 0.78751,2.496244 0.72879,-0.145758 0.79455,-0.05792 1.88197,2.513675 1.01863,2.408931 1.14508,2.966529 1.31732,5.809022 0.18293,3.01886 0.36026,4.26113 0.57729,4.04411 0.0558,-0.0558 0.65476,-2.25981 1.33093,-4.8977 z m 38.14383,1.01654 c 0.52977,-3.408106 0.37264,-3.944198 -0.8828,-3.011849 -0.82988,0.616309 -2.22109,3.129149 -2.33102,4.210359 -0.056,0.55047 0.0409,0.67067 0.49124,0.60942 0.57677,-0.0784 1.7634,1.02594 1.77881,1.65552 0.0252,1.03007 0.53751,-0.84997 0.94377,-3.46345 z m -78.87743,-2.847206 c 0.29234,-0.565714 1.04237,-1.707428 1.66672,-2.537143 l 1.13519,-1.508571 -2.00401,-0.199842 c -3.52893,-0.351911 -6.47073,-1.727899 -9.44767,-4.419015 -1.91045,-1.727018 -3.91338,-4.734659 -4.63389,-6.958346 -0.3271,-1.009503 -0.72802,-1.879894 -0.89096,-1.934205 -0.69533,-0.23178 -2.49617,1.894829 -3.22936,3.813551 -0.78954,2.066219 -0.82959,4.347053 -0.0805,4.58683 2.20522,0.705902 10.97784,5.997417 14.3584,8.660775 1.056,0.831963 2.07178,1.515335 2.25728,1.518599 0.18551,0.0033 0.57648,-0.456919 0.86883,-1.022633 z m 7.29675,-4.81813 3.56571,0.05044 -1.79357,-0.46599 c -1.82993,-0.475435 -4.66481,-2.077382 -7.59336,-4.290887 -1.74971,-1.322493 -4.09871,-3.66638 -3.22714,-3.220123 0.3034,0.155348 0.79711,0.554255 1.09714,0.886462 0.94311,1.044269 3.75608,3.171099 5.89407,4.456397 2.99271,1.799127 6.51331,2.605379 12.0088,2.750139 l 4.19165,0.110411 -1.31165,-0.464379 c -2.36543,-0.837458 -7.67326,-3.741301 -7.37811,-4.036458 0.0754,-0.07543 0.8541,0.294446 1.73037,0.821941 4.4938,2.705163 7.15171,3.49725 11.6588,3.474454 l 2.82586,-0.01429 -1.37143,-0.531105 c -0.75429,-0.292106 -2.32732,-1.248921 -3.49563,-2.126254 -2.57408,-1.932982 -6.5158,-5.475114 -6.5158,-5.855265 0,-0.151475 1.08106,0.715979 2.40236,1.927677 5.53519,5.076047 9.18387,6.860857 12.62052,6.173527 l 0.82859,-0.165721 -1.06869,-1.52561 c -1.07506,-1.534694 -1.23345,-2.426883 -0.20522,-1.155996 l 0.55147,0.681616 -0.18661,-0.822857 c -0.95921,-4.229565 -0.36388,-7.890646 1.88386,-11.585055 1.61592,-2.655947 3.53493,-4.033501 5.18065,-3.718903 0.4123,0.07882 0.94759,0.06734 1.18955,-0.02551 0.37415,-0.143577 0.32801,-0.301964 -0.30874,-1.059672 -0.41176,-0.489976 -1.17697,-1.182463 -1.70048,-1.538861 -0.5235,-0.356399 -1.17063,-0.866801 -1.43805,-1.134227 -0.89699,-0.896988 -3.5605,-1.706622 -5.22805,-1.589178 -2.15563,0.151814 -3.37395,0.981679 -4.38677,2.988074 -1.46546,2.903048 -1.65343,6.12093 -0.62962,10.778378 0.56163,2.554947 -2.20887,-2.657864 -3.11943,-5.869336 -0.82284,-2.902129 -1.16865,-9.513073 -0.61961,-11.845566 0.47769,-2.029352 1.26907,-3.49127 2.05082,-3.788495 0.9895,-0.376205 3.25105,0.372796 3.8401,1.271797 0.57831,0.882619 0.99799,0.429707 0.78547,-0.847674 -0.4515,-2.713838 -1.56915,-4.010274 -4.68768,-5.437542 -1.87551,-0.858371 -6.05807,-0.852296 -8.5773,0.01245 -1.89323,0.649876 -4.76824,2.687037 -5.23753,3.711187 -0.15218,0.332108 -0.47346,0.966857 -0.71396,1.410558 -0.24051,0.443699 -0.56175,1.677984 -0.71388,2.742857 -0.23195,1.623528 -0.18844,2.356842 0.26951,4.541846 0.30036,1.433142 0.6381,2.852571 0.75052,3.154285 0.19836,0.532329 0.19192,0.533291 -0.21745,0.0325 -1.15841,-1.417105 -1.53539,-7.595786 -0.62954,-10.318214 0.29264,-0.879475 0.91635,-1.9375 1.49567,-2.537143 l 0.99371,-1.028571 h -1.17568 c -1.58045,0 -5.27759,0.967433 -7.00012,1.831726 -1.86412,0.935345 -3.61573,2.387024 -4.42277,3.665456 -0.62579,0.99132 -0.64608,1.15988 -0.40048,3.327801 0.49004,4.325607 1.32732,7.080275 3.30524,10.874346 0.733,1.40606 1.19651,2.511061 1.03,2.455559 -0.39103,-0.130343 -2.29567,-3.868934 -3.31976,-6.516335 -0.86978,-2.248454 -1.23041,-3.816263 -1.53018,-6.652284 -0.25321,-2.395548 -0.45224,-2.58308 -2.14483,-2.020893 -1.60833,0.534201 -3.56268,2.326667 -5.05612,4.637315 -0.91536,1.416234 -1.0652,1.864784 -1.0652,3.188627 0,1.887733 0.83632,5.018298 1.62594,6.08632 0.32162,0.435012 0.46464,0.790933 0.31782,0.790933 -0.4234,0 -1.07691,-1.09189 -1.55217,-2.59336 -0.51332,-1.621709 -1.53976,-3.7152 -1.82158,-3.7152 -0.48318,0 -2.15048,1.777281 -2.66567,2.841509 -0.70231,1.450782 -0.76898,3.192777 -0.12219,3.192777 0.351,0 0.37748,0.08138 0.12534,0.385193 -0.60107,0.724235 0.29228,3.299983 2.07474,5.982031 3.17812,4.782079 9.16721,8.053964 13.53777,7.395791 0.67885,-0.102229 2.83885,-0.163172 4.8,-0.135431 z m 27.67635,-5.31922 c 0.90806,-2.733894 3.05617,-5.468196 5.1442,-6.547958 l 0.80051,-0.413957 -0.62768,-1.130172 c -0.34522,-0.621598 -1.22196,-1.743284 -1.94832,-2.492638 l -1.32066,-1.362465 -0.96084,0.927986 c -0.52846,0.510391 -1.47025,1.954137 -2.09285,3.208328 -1.00862,2.031791 -1.14447,2.54103 -1.24636,4.671974 -0.13653,2.855696 0.28164,5.853085 0.95667,6.857311 l 0.48902,0.727512 0.1679,-1.514668 c 0.0923,-0.833069 0.37963,-2.152134 0.63841,-2.931253 z m -8.49049,-14.754079 c 0.65099,-1.820264 1.24185,-2.604129 2.58437,-3.428571 1.18669,-0.728745 1.27369,-1.017367 0.4488,-1.488977 -0.28271,-0.161634 -1.2207,-0.737113 -2.08443,-1.278841 -2.11153,-1.324347 -3.22617,-1.770327 -3.56865,-1.427851 -0.42933,0.429334 -0.33021,6.55262 0.14563,8.995669 0.23506,1.206857 0.70597,2.873143 1.04647,3.702857 l 0.61909,1.508571 0.15912,-2.605714 c 0.0875,-1.433143 0.37984,-3.222857 0.6496,-3.977143 z"
     id="path4709"
     inkscape:connector-curvature="0" />
</svg>
