<?xml version="1.0" encoding="UTF-8" standalone="no"?>
<!-- Created with Inkscape (http://www.inkscape.org/) -->

<svg
   xmlns:dc="http://purl.org/dc/elements/1.1/"
   xmlns:cc="http://creativecommons.org/ns#"
   xmlns:rdf="http://www.w3.org/1999/02/22-rdf-syntax-ns#"
   xmlns:svg="http://www.w3.org/2000/svg"
   xmlns="http://www.w3.org/2000/svg"
   xmlns:sodipodi="http://sodipodi.sourceforge.net/DTD/sodipodi-0.dtd"
   xmlns:inkscape="http://www.inkscape.org/namespaces/inkscape"
   version="1.1"
   id="svg1935"
   width="329.14285"
   height="438.85715"
   viewBox="0 0 329.14285 438.85715"
   sodipodi:docname="bar_boy_colorless[up].svg"
   inkscape:version="0.92.4 (5da689c313, 2019-01-14)">
  <metadata
     id="metadata1941">
    <rdf:RDF>
      <cc:Work
         rdf:about="">
        <dc:format>image/svg+xml</dc:format>
        <dc:type
           rdf:resource="http://purl.org/dc/dcmitype/StillImage" />
        <dc:title></dc:title>
      </cc:Work>
    </rdf:RDF>
  </metadata>
  <defs
     id="defs1939" />
  <sodipodi:namedview
     pagecolor="#ffffff"
     bordercolor="#666666"
     borderopacity="1"
     objecttolerance="10"
     gridtolerance="10"
     guidetolerance="10"
     inkscape:pageopacity="0"
     inkscape:pageshadow="2"
     inkscape:window-width="1920"
     inkscape:window-height="1046"
     id="namedview1937"
     showgrid="false"
     inkscape:zoom="2.1510416"
     inkscape:cx="195.07019"
     inkscape:cy="233.2731"
     inkscape:window-x="-11"
     inkscape:window-y="-11"
     inkscape:window-maximized="1"
     inkscape:current-layer="svg1935" />
  <path
     style="fill:#000000;stroke-width:0.2742857"
     d="m 123.07237,380.34327 c -1.97612,-0.27618 -4.49765,-0.96757 -5.59127,-1.53312 -0.54352,-0.28106 -0.79017,-0.66415 -0.91003,-1.41345 -0.0904,-0.56533 -0.28036,-1.241 -0.42205,-1.50147 -0.14169,-0.26048 -0.38482,-1.92677 -0.54028,-3.70285 -0.56265,-6.42814 -1.13064,-10.87436 -1.47806,-11.57033 -0.19503,-0.39072 -1.07867,-2.93209 -1.96364,-5.64752 -0.88497,-2.71543 -1.64968,-4.99419 -1.69935,-5.06389 -0.0497,-0.0697 -0.35335,0.0375 -0.67484,0.23827 -0.76374,0.47696 -1.08506,0.0528 -1.81944,-2.40156 -0.67444,-2.25408 -1.95966,-7.99919 -1.95966,-8.76 0,-0.3086 0.47508,-1.07057 1.05573,-1.69328 1.20034,-1.28725 1.15272,-0.41398 0.45686,-8.37668 -0.64179,-7.34411 -1.53036,-20.93903 -1.95407,-29.89715 l -0.15568,-3.29142 1.781,-7.40572 c 0.97955,-4.07314 2.04946,-8.39314 2.37757,-9.6 0.32812,-1.20686 0.71802,-2.74971 0.86646,-3.42857 0.14845,-0.67886 0.38457,-1.61085 0.52473,-2.07108 0.26938,-0.8846 0.61511,-8.18828 1.08369,-22.89318 0.1563,-4.9052 0.40196,-10.21263 0.54589,-11.79429 0.14394,-1.58165 0.45131,-5.71459 0.68304,-9.18431 0.55566,-8.31981 0.79398,-10.58622 1.79337,-17.0545 0.89942,-5.82131 1.33515,-8.08672 2.17798,-11.32361 0.2931,-1.12568 0.50764,-2.06763 0.47675,-2.09321 -0.0309,-0.0256 -0.83325,-0.43606 -1.78302,-0.91217 -0.94976,-0.47611 -1.78623,-1.02043 -1.85883,-1.20961 -0.0726,-0.18917 1.14982,-2.99254 2.71648,-6.22971 2.82941,-5.84639 4.35014,-9.1917 4.68619,-10.30865 0.12924,-0.42957 -0.12284,-0.96014 -0.95839,-2.0172 l -1.13377,-1.43432 1.12616,-1.14746 c 0.61938,-0.63111 1.12615,-1.2942 1.12615,-1.47354 0,-0.17934 -0.87273,-2.93262 -1.93939,-6.11842 -1.06667,-3.18579 -1.87778,-5.95291 -1.80247,-6.14915 0.19458,-0.50708 -4.66926,-13.66731 -6.38748,-17.28274 -0.43016,-0.90514 -1.2192,-2.57142 -1.75342,-3.70285 -0.87202,-1.84684 -2.24718,-5.95769 -2.98202,-8.91429 -0.28484,-1.14603 -0.37384,-5.98426 -0.13624,-7.40571 0.44092,-2.63775 2.81294,-6.98095 4.38229,-8.02402 2.87581,-1.91143 3.77192,-2.02579 8.96379,-1.14399 1.84303,0.31302 3.38543,0.52902 3.42756,0.48 0.0421,-0.049 -0.0166,-1.57028 -0.13062,-3.38057 -0.18848,-2.99378 -0.15979,-3.35955 0.31721,-4.0448 0.46668,-0.67041 0.51605,-1.18388 0.44833,-4.66285 -0.0631,-3.23856 -0.14672,-3.915825 -0.48754,-3.946415 -0.22629,-0.0203 -0.53765,-0.0512 -0.69191,-0.0686 -0.15427,-0.0174 -0.51497,-0.46705 -0.80156,-0.99922 -0.35673,-0.66241 -0.60998,-0.87868 -0.80295,-0.68572 -0.15503,0.15503 -0.78175,0.2813 -1.39272,0.2806 -0.85903,-0.001 -1.31295,-0.19067 -2.00229,-0.836762 -0.49029,-0.45952 -0.89143,-0.96334 -0.89143,-1.1196 0,-0.82843 -1.99828,-2.88134 -4.50032,-4.62336 -2.92954,-2.03966 -4.26829,-3.52294 -4.97153,-5.50826 -0.55972,-1.58014 -0.56043,-4.83024 -10e-4,-6.168315 0.42007,-1.005389 0.40535,-1.106535 -0.55319,-3.79909 -1.31866,-3.70413 -2.44651,-9.704136 -2.16985,-11.543345 0.11346,-0.754286 0.17744,-2.688121 0.14218,-4.297413 -0.06,-2.737113 -0.0167,-3.00684 0.67,-4.17866 0.40376,-0.688973 1.34028,-1.797669 2.08114,-2.463766 0.95761,-0.860981 1.33305,-1.397409 1.29872,-1.855623 -0.10859,-1.448996 0.65989,-3.565994 1.68603,-4.644694 0.56198,-0.590773 1.19519,-1.07435 1.40712,-1.074621 0.21193,-2.69e-4 0.57047,-0.296218 0.79676,-0.65766 1.79121,-2.861091 3.7677,-5.507496 4.73886,-6.345071 1.34168,-1.157099 2.96218,-2.048207 3.72475,-2.048207 0.29213,0 1.47197,-0.854542 2.62185,-1.898981 3.57278,-3.245165 7.10944,-4.777372 10.76805,-4.665093 1.23423,0.03788 1.9101,-0.109281 2.96937,-0.646513 2.10234,-1.066248 4.43395,-1.638869 6.7103,-1.647986 6.25425,-0.02504 10.66993,4.22928 9.33573,8.994586 -0.3706,1.323659 -0.82317,1.64818 -0.82317,0.590263 0,-1.087861 -1.14017,-2.470113 -2.39936,-2.908803 -1.09656,-0.382031 -1.17691,-0.371756 -1.82043,0.232808 -0.64555,0.606462 -1.45412,2.137704 -1.23427,2.337436 0.058,0.05271 0.84606,0.467594 1.7512,0.921959 0.90514,0.454368 2.32457,1.294138 3.15429,1.866158 1.28662,0.887021 1.80005,1.066239 3.48973,1.218152 3.47165,0.312123 7.27288,2.598561 9.28334,5.583936 0.90226,1.339771 0.87955,2.068172 -0.0359,1.152691 -0.50415,-0.504153 -1.73041,-0.554446 -3.2476,-0.133198 l -1.07045,0.297213 1.48188,1.415545 c 0.81504,0.778546 1.71663,1.940113 2.00354,2.581256 0.51427,1.149208 0.54146,1.165799 1.92,1.171738 1.61893,0.007 3.54842,0.78831 3.99158,1.616374 0.34526,0.645131 -0.0959,0.819719 -0.45403,0.179698 -0.38231,-0.683147 -1.81932,-1.250085 -3.173,-1.251835 -1.21061,-0.0016 -1.29889,0.0443 -1.18465,0.615454 0.94327,4.71603 0.84459,10.825286 -0.24921,15.428571 -0.39431,1.659429 -0.89976,3.864061 -1.12324,4.899182 -0.22348,1.035121 -0.6347,2.331121 -0.91383,2.88 -0.27912,0.548879 -0.64188,2.108818 -0.80612,3.466533 -1.12452,9.295911 -0.8771,8.336621 -3.25,12.601171 -3.08091,5.536992 -8.4324,12.385727 -10.52258,13.466607 -0.4252,0.21988 -1.71964,0.54056 -2.87653,0.71263 l -2.10343,0.31284 0.18259,1.95052 c 0.26142,2.79256 0.27475,2.81841 1.38591,2.68869 1.24265,-0.14507 1.38434,0.23018 1.8103,4.79433 0.18062,1.93541 0.43677,3.63869 0.56921,3.78506 0.13254,0.14649 1.40976,0.2342 2.84094,0.1951 1.50752,-0.0412 2.60015,0.0384 2.60015,0.18929 0,0.14318 1.12819,0.52009 2.50709,0.83757 1.3789,0.31749 2.976,0.84078 3.54911,1.16289 0.88378,0.49672 1.32625,0.56182 2.91384,0.42872 1.60445,-0.13451 4.79549,-0.8207 8.62379,-1.85443 0.76401,-0.2063 1.37379,-0.73796 2.5877,-2.25616 0.87348,-1.09244 2.31903,-2.81979 3.21232,-3.83855 0.95752,-1.09201 1.56252,-2.01296 1.47397,-2.24372 -0.0826,-0.21529 0.19243,-0.86442 0.6112,-1.44252 0.78216,-1.07975 0.76922,-1.00239 1.25687,-7.51106 0.0707,-0.94365 0.35083,-1.35041 0.93001,-1.35041 0.38222,0 0.61232,-0.56921 1.13652,-2.81143 1.03872,-4.443027 1.06498,-4.325247 -2.14365,-9.615517 -2.62023,-4.32015 -3.18296,-5.67861 -2.52163,-6.08734 0.45502,-0.28121 0.31609,-1.51464 -0.55799,-4.953837 -0.45775,-1.8011 -0.94474,-3.921186 -1.0822,-4.711299 -0.24177,-1.389666 -0.8632,-2.348042 -4.23602,-6.53291 -0.44836,-0.556314 -0.47828,-0.762994 -0.19913,-1.375666 0.1981,-0.434778 0.31062,-1.83377 0.28343,-3.524119 -0.0932,-5.797958 1.94463,-7.883687 3.73883,-3.826661 l 0.66954,1.513936 1.37735,-1.186148 c 0.84686,-0.729301 1.3774,-1.410005 1.37749,-1.767363 5.4e-4,-2.343654 1.23047,-6.773332 2.02697,-7.300301 0.55123,-0.364696 1.7202,-0.218688 2.16255,0.270108 0.23893,0.264011 0.7719,2.146297 1.18439,4.182857 0.41249,2.036561 0.84008,3.806897 0.95021,3.934086 0.11012,0.127186 0.52525,0.0183 0.9225,-0.242005 0.90642,-0.593908 2.9646,-0.378621 4.05669,0.424334 0.5132,0.377335 1.17658,0.546421 2.14375,0.546421 1.75627,0 2.3684,0.322486 2.59821,1.368806 0.22475,1.0233 0.86048,1.479026 3.10527,2.226043 l 1.75952,0.585531 1.43862,3.052666 c 0.79124,1.678968 1.93246,4.109313 2.53606,5.400765 l 1.09744,2.348097 2.78954,0.632478 c 2.80686,0.636406 3.6101,1.038056 4.22192,2.111117 0.18271,0.320454 0.79506,1.279422 1.36077,2.131041 0.56572,0.851616 1.02858,1.847284 1.02858,2.212594 0,0.365311 0.11586,0.735809 0.25747,0.823329 0.14161,0.0875 0.62973,0.80977 1.08472,1.605 0.90359,1.57933 1.13093,3.0084 0.62702,3.94164 -0.19932,0.36914 -0.3235,1.91666 -0.3235,4.03148 v 3.43236 l -1.44,1.691282 c -2.54843,2.993115 -2.77134,3.184555 -5.41714,4.652355 -3.04645,1.69007 -7.49217,4.5289 -9.50743,6.07099 -2.11234,1.61638 -4.05406,4.59657 -4.43952,6.81385 -0.8271,4.75781 -1.33303,9.35175 -1.69161,15.36 -0.36829,6.17103 -1.18222,12.50917 -1.90824,14.85977 -0.38703,1.25306 -0.84174,2.03929 -1.61749,2.79679 -0.98074,0.95767 -1.24603,1.06713 -2.91019,1.20071 -2.1153,0.16979 -1.76618,-0.21994 -4.91394,5.48559 -1.01955,1.848 -1.98224,3.36 -2.1393,3.36 -0.87496,0 -4.42939,-3.96913 -6.32493,-7.06286 -1.02673,-1.67573 -1.53591,-2.26285 -1.96245,-2.26285 -0.37781,0 -2.025,1.4529 -4.78748,4.22276 l -4.2115,4.22277 0.14634,1.19438 c 0.1403,1.14512 0.94411,3.70977 3.21124,10.2458 0.57559,1.65943 1.9954,5.97943 3.15512,9.6 1.15972,3.62057 2.27327,6.90211 2.47455,7.2923 0.29998,0.58154 0.3023,0.8288 0.0128,1.37143 -0.54331,1.01843 -3.42826,3.78838 -5.00793,4.80832 l -1.41623,0.9144 -0.114,3.22963 c -0.0741,2.09885 0.1538,6.49484 0.65085,12.55535 1.33075,16.22567 2.13442,29.04439 2.4419,38.94857 0.25389,8.17785 0.23983,9.76254 -0.0948,10.69714 -0.21609,0.60343 -1.40766,2.76343 -2.64793,4.8 -1.24028,2.03658 -3.58299,6.41829 -5.20603,9.73715 -1.62303,3.31885 -4.86309,9.61371 -7.20013,13.98857 -8.87659,16.61667 -11.0379,21.0291 -15.18669,31.00443 -2.52602,6.07354 -5.89459,14.92326 -6.58693,17.30483 l -0.44613,1.53465 -1.08156,-0.17296 -1.08157,-0.17294 -0.71241,1.58241 c -0.61142,1.3581 -0.72163,2.02006 -0.77738,4.66919 -0.0365,1.7342 -0.19663,3.24541 -0.36545,3.44882 -0.33688,0.40591 -0.008,3.06229 0.48627,3.92974 0.15866,0.27838 0.38916,0.93145 0.51223,1.4513 0.18723,0.79096 0.48579,1.0819 1.82955,1.78286 1.85345,0.96686 3.15171,2.27493 3.66038,3.68802 0.19593,0.54429 0.43078,2.43994 0.52187,4.21251 0.16279,3.16748 0.15549,3.22285 -0.42481,3.22285 -0.32475,0 -0.59045,0.17157 -0.59045,0.38126 0,0.53025 2.14567,3.35035 3.6591,4.80922 1.56637,1.50991 1.81484,2.68748 1.1769,5.5776 -0.24113,1.09242 -0.47299,2.23307 -0.51525,2.53475 -0.0541,0.38609 -0.56319,0.74387 -1.71879,1.20782 -1.44529,0.58031 -2.15117,0.66855 -5.89339,0.73671 -2.33828,0.0426 -5.0299,-0.0314 -5.98138,-0.16433 z m 11.42418,-1.52072 c 1.27408,-0.50979 1.56687,-1.07498 0.38577,-0.74469 -0.41485,0.11603 -3.34628,0.20114 -6.51428,0.18918 -4.73385,-0.0178 -6.18757,-0.11997 -8.16,-0.5729 -1.74718,-0.4012 -2.4,-0.46135 -2.4,-0.22119 0,0.56248 3.03415,1.50772 6.03428,1.87988 0.528,0.0655 2.88469,0.0756 5.23709,0.0225 3.16651,-0.0715 4.5731,-0.21504 5.41714,-0.55277 z m 0.24692,-2.04738 c 1.03269,-0.29727 1.19773,-0.46028 1.46287,-1.44494 0.35529,-1.31942 -0.0621,-3.1909 -0.87582,-3.92733 -0.28422,-0.25722 -0.51677,-0.34022 -0.51677,-0.18443 0,0.16433 -1.00756,0.33224 -2.4,0.39994 -1.57627,0.0766 -2.63535,0.26904 -3.08571,0.56064 -1.02371,0.66281 -3.56099,1.31997 -5.2701,1.36493 -2.11606,0.0557 -3.14966,-0.59891 -4.21162,-2.66721 -0.6682,-1.30143 -1.00747,-1.67509 -1.64572,-1.81265 -1.84631,-0.39788 -1.83497,-0.40805 -1.64511,1.47612 0.32864,3.26137 0.75467,5.15079 1.2165,5.3951 0.41401,0.21901 3.74516,0.93687 5.65891,1.2195 1.6096,0.23769 10.16536,-0.0495 11.31257,-0.37967 z m -6.51257,-5.40433 c 1.28228,-0.53031 2.65989,-1.02366 3.06135,-1.09638 l 0.72993,-0.13218 -1.38366,-1.89641 c -0.93432,-1.28053 -1.61673,-1.94531 -2.10136,-2.04699 -0.39473,-0.0828 -1.20103,-0.32602 -1.79178,-0.54043 -1.16954,-0.42448 -1.64398,-0.24334 -1.95853,0.74771 -0.17449,0.54975 -3.13714,2.14488 -3.98452,2.14529 -0.77164,0 -0.77909,0.30501 -0.0441,1.80362 1.25913,2.56732 3.11197,2.81917 7.47267,1.01577 z m 5.21142,-1.55131 c 0,-0.0569 -0.216,-0.27294 -0.48,-0.48 -0.43503,-0.34115 -0.44473,-0.33147 -0.10356,0.10357 0.35832,0.45688 0.58356,0.6022 0.58356,0.37643 z m -13.54996,-2.21379 c 1.27993,-0.1339 3.48402,-1.18582 3.32967,-1.58912 -0.0726,-0.18973 -0.40508,-1.57923 -0.73882,-3.0878 -0.33374,-1.50858 -0.74336,-3.02543 -0.91026,-3.37081 -0.16691,-0.34538 -0.31768,-0.96252 -0.33504,-1.37143 -0.10236,-2.40968 0.0181,-2.25043 -1.71559,-2.2684 -0.86742,-0.009 -2.16782,-0.11352 -2.88977,-0.23229 -0.79503,-0.13078 -1.37724,-0.11139 -1.47648,0.0492 -0.0901,0.14581 0.12545,2.89887 0.47906,6.11791 0.70845,6.44945 0.62986,6.26795 2.58434,5.96794 0.45257,-0.0694 1.20537,-0.1663 1.67289,-0.21521 z m 4.44376,-3.37149 c -0.39765,-0.47915 -0.50763,-0.32045 -0.30772,0.44402 0.11909,0.45539 0.22502,0.53013 0.38486,0.27151 0.12157,-0.19672 0.087,-0.51782 -0.0771,-0.71553 z m 6.02241,0.63549 c 0.0608,-0.0608 -0.0743,-0.39889 -0.30018,-0.7514 -0.74033,-1.15546 -2.82965,-6.35986 -3.34046,-8.32095 -0.27505,-1.056 -0.53757,-1.96814 -0.58337,-2.02697 -0.0458,-0.0588 -0.52016,0.3174 -1.05414,0.83605 l -0.97087,0.94299 0.39271,1.22112 c 0.72114,2.24234 1.86492,5.3322 2.07655,5.60966 0.11506,0.15086 0.36112,0.74571 0.54679,1.3219 0.19306,0.59912 0.58999,1.15386 0.92717,1.29583 0.53546,0.22547 2.03553,0.14206 2.3058,-0.12823 z m 1.98665,-1.11807 c 0,-0.54857 -0.13714,-0.68571 -0.68571,-0.68571 -0.70526,0 -0.80789,0.18533 -0.51923,0.93756 0.28027,0.7304 1.20494,0.53711 1.20494,-0.25185 z m -6.85714,-0.65417 c 0,-0.33767 -1.27057,-1.13812 -1.47773,-0.93095 -0.23328,0.23328 0.65515,1.17369 1.10881,1.17369 0.2029,0 0.36892,-0.10922 0.36892,-0.24274 z m 6.72386,-2.56868 c -0.30886,-2.40722 -0.6699,-3.44185 -1.40197,-4.01771 l -0.69917,-0.54995 -0.83214,0.94774 c -0.81914,0.93296 -0.8256,0.96384 -0.41357,1.97527 1.31839,3.2363 1.19979,3.08465 2.41241,3.08465 h 1.1192 z m -8.09529,-0.84892 c 0,-0.20291 -0.23461,-0.58124 -0.52134,-0.84074 -0.70355,-0.6367 -1.07461,-0.0416 -0.42302,0.67836 0.56061,0.61948 0.94436,0.68544 0.94436,0.16238 z m -1.09714,-3.90081 c 0,-0.38721 0.30857,-1.10858 0.68571,-1.60303 0.88303,-1.15771 0.91352,-2.0823 0.0686,-2.07945 -0.8327,0.003 -3.93738,0.50661 -5.22819,0.84843 -0.91947,0.24348 -1.03506,0.36581 -0.96,1.016 0.0814,0.70536 0.17279,0.74669 1.99568,0.90306 1.64892,0.14142 1.98467,0.2634 2.45355,0.89143 0.68376,0.91581 0.98468,0.92303 0.98468,0.0236 z m 5.74499,0.18347 c 0.22575,-0.42179 0.14955,-0.60507 -0.40178,-0.96631 -0.72942,-0.47794 -0.82482,-0.31444 -0.50748,0.86971 0.20207,0.75401 0.53831,0.78972 0.90926,0.0966 z m -14.95233,-0.91946 c -0.0714,-0.49028 -0.17815,-1.79602 -0.23719,-2.90164 -0.059,-1.10562 -0.15803,-2.0609 -0.21998,-2.12286 -0.0619,-0.062 -0.49967,-0.19005 -0.97271,-0.28465 l -0.86007,-0.17201 0.63591,2.02058 c 0.67378,2.14088 1.53218,4.35201 1.68956,4.35201 0.0519,0 0.0359,-0.40114 -0.0355,-0.89143 z m 2.62448,-0.8603 c 0,-0.21284 -0.36229,-0.43348 -0.82286,-0.50106 -0.89763,-0.13174 -1.19539,0.46949 -0.34285,0.6923 0.89593,0.23413 1.16571,0.18986 1.16571,-0.19124 z m 0.42514,-1.78464 c 0.33772,-0.31743 3.6169,-1.03913 5.83693,-1.28461 1.594,-0.17626 1.72361,-0.23951 1.58089,-0.77124 -0.0855,-0.31855 -0.15716,-0.85388 -0.15922,-1.18955 -0.003,-0.54328 -0.0819,-0.58063 -0.71523,-0.33987 -1.12254,0.42679 -5.57431,1.08505 -7.34642,1.08626 h -1.6122 l 0.18222,1.13954 c 0.10022,0.62678 0.24671,1.24392 0.32553,1.37143 0.18988,0.30723 1.57686,0.29774 1.9075,-0.0132 z m 9.17486,-0.0293 c 0,-0.15086 -0.12343,-0.27429 -0.27429,-0.27429 -0.15085,0 -0.27428,0.12343 -0.27428,0.27429 0,0.15085 0.12343,0.27428 0.27428,0.27428 0.15086,0 0.27429,-0.12343 0.27429,-0.27428 z m -5.93318,-3.9857 c 1.41812,-0.21589 3.05598,-0.67535 3.92754,-1.10178 l 1.495,-0.73144 -0.21159,-4.1534 c -0.34662,-6.80382 -0.22019,-17.70429 0.27882,-24.03911 1.21315,-15.40079 2.04005,-23.44109 3.44143,-33.46286 3.05005,-21.81189 3.73744,-25.47234 10.01819,-53.34857 0.20393,-0.90515 1.39097,-5.81118 2.63786,-10.9023 1.24688,-5.09111 2.20159,-9.32205 2.12157,-9.40207 -0.08,-0.08 -1.04048,0.17735 -2.13436,0.57193 -1.32602,0.47833 -2.08028,0.62601 -2.26317,0.44312 -0.15087,-0.15088 -0.19482,-0.40294 -0.0977,-0.56015 0.21335,-0.34519 7.56225,-2.7791 8.39119,-2.7791 1.16056,0 0.45883,0.87878 -1.06902,1.33875 l -1.47739,0.44478 -0.89844,3.9768 c -0.49415,2.18724 -1.32531,5.6651 -1.84704,7.72858 -0.78857,3.11885 -0.9101,3.97487 -0.72041,5.07428 0.12551,0.72739 0.48682,3.54423 0.80292,6.25966 0.79183,6.80213 1.14241,8.72956 3.02121,16.61021 0.90009,3.77543 1.63653,6.9456 1.63653,7.04482 0,0.0992 0.14811,0.0323 0.32914,-0.14874 0.44371,-0.44371 1.31657,-0.41833 1.31657,0.0383 0,0.20208 -0.70971,0.91885 -1.57714,1.5928 -0.86743,0.67394 -3.14117,2.66685 -5.05277,4.42867 l -3.47563,3.2033 -2.19198,5.55821 c -2.29464,5.8185 -6.26619,16.82534 -7.00348,19.40961 -1.05499,3.69781 -2.8874,25.04426 -3.11202,36.25305 l -0.1576,7.86449 1.20531,0.31183 c 0.66292,0.17151 1.40971,0.37086 1.65953,0.44297 0.3551,0.10251 0.58618,-0.2751 1.05906,-1.73063 1.07551,-3.31035 4.90006,-13.11925 7.44208,-19.08686 2.84044,-6.66816 7.32328,-15.7248 13.53581,-27.34628 2.37901,-4.45029 5.94876,-11.36229 7.93279,-15.36 3.69638,-7.44801 4.88134,-9.64435 5.66451,-10.49925 0.2458,-0.2683 0.80473,-1.19402 1.24207,-2.05714 l 0.79518,-1.56933 -0.0649,-6.44571 c -0.0747,-7.41826 -0.41798,-14.85037 -1.172,-25.37143 -0.72306,-10.08905 -1.92847,-25.10017 -2.07461,-25.83538 l -0.11949,-0.60109 -1.98737,0.82052 c -2.43144,1.00386 -7.45082,2.36543 -10.6116,2.87854 -3.21403,0.52175 -11.48726,0.49999 -14.8105,-0.039 -2.50348,-0.406 -6.21369,-1.30101 -13.52191,-3.26187 -1.92158,-0.51557 -3.54073,-0.85417 -3.59812,-0.75244 -0.31563,0.55956 -1.33771,5.4138 -1.94476,9.23639 -1.43881,9.06023 -2.28343,17.52017 -3.02592,30.30858 -0.0832,1.43314 -0.26883,4.08685 -0.4125,5.89714 -0.14367,1.81028 -0.32516,5.26628 -0.40332,7.68 -0.7936,24.5077 -0.77922,24.27428 -1.49552,24.27428 -0.5517,0 -0.53235,-0.0659 -3.22117,10.97143 l -1.77071,7.26858 0.28761,5.07428 c 0.15819,2.79086 0.4165,7.60457 0.57403,10.69714 0.52537,10.31408 1.61307,22.68011 2.77944,31.59934 l 0.59922,4.58219 1.39132,0.54492 c 2.31241,0.90572 2.93556,0.91801 7.93814,0.15643 z m -10.12279,0.1291 c -0.0989,-0.15999 -0.47099,-2.29448 -0.82691,-4.7433 -0.35592,-2.44883 -0.7583,-4.75294 -0.89417,-5.12023 l -0.24704,-0.66781 -0.43217,0.83573 c -0.39692,0.76756 -0.39159,1.01312 0.0653,3.0111 1.18615,5.18661 1.73001,6.97539 2.12079,6.97539 0.21666,0 0.31303,-0.13089 0.21416,-0.29088 z m 16.97572,-11.56855 c -0.30862,-0.49933 -0.6447,-0.13868 -0.63574,0.68229 l 0.01,0.89143 0.37764,-0.68229 c 0.20771,-0.37522 0.31947,-0.77636 0.24838,-0.89143 z m 5.1026,-56.16343 c 0.94392,-2.64 2.55323,-6.89828 3.57624,-9.46285 1.02301,-2.56458 1.90469,-4.81416 1.95929,-4.99905 0.10091,-0.34176 6.30473,-6.25594 7.81246,-7.44768 l 0.82543,-0.65247 -1.04478,-4.55897 c -0.57463,-2.50744 -1.22125,-5.11441 -1.43692,-5.79326 -0.68315,-2.15028 -2.41702,-13.12039 -2.92626,-18.51429 -0.0142,-0.15086 -0.1923,0.64535 -0.39569,1.76936 -0.20339,1.124 -0.49591,2.29658 -0.65004,2.60572 -0.34131,0.68455 -3.14043,13.06024 -4.65588,20.58492 -2.16974,10.77348 -5.48449,32.10786 -4.87599,31.38287 0.0527,-0.0629 0.86822,-2.2743 1.81214,-4.9143 z m 21.54336,-78.27908 c 3.61288,-0.85834 5.98215,-1.61724 8.31604,-2.66368 l 1.73317,-0.77711 -0.0599,-2.13435 c -0.0803,-2.8625 -0.23775,-3.64292 -0.73507,-3.64292 -0.22785,0 -1.601,0.47379 -3.05143,1.05288 -1.45043,0.57908 -3.47029,1.27626 -4.48857,1.54928 -2.00696,0.5381 -2.02412,0.56385 -1.87081,2.80655 0.0503,0.73591 -0.0915,0.97615 -0.85156,1.44215 -2.21727,1.35952 -6.74053,2.6354 -10.66762,3.00904 -2.14896,0.20446 -1.6348,0.23165 3.0357,0.16056 4.92352,-0.0749 5.99812,-0.17474 8.64,-0.8024 z m -8.83555,-0.84983 c 2.84088,-0.49541 6.2339,-1.68093 6.72982,-2.35139 0.4557,-0.61609 0.49568,-14.7913 0.0684,-24.25684 -0.15662,-3.46972 -0.28687,-7.9288 -0.28944,-9.90908 l -0.005,-3.60051 -1.30285,-0.56331 c -2.30441,-0.99635 -7.54714,-3.5699 -9.80572,-4.81341 -4.17558,-2.29897 -5.22464,-2.91382 -8.22857,-4.82272 l -3.01714,-1.91731 -0.78071,0.88174 c -0.42939,0.48496 -1.10825,1.37361 -1.50857,1.97479 -0.40032,0.60117 -2.17815,2.97722 -3.95072,5.2801 -1.77257,2.30288 -3.22286,4.31044 -3.22286,4.46124 0,0.1508 -0.10657,0.27418 -0.23683,0.27418 -0.33513,0 -0.22144,0.79799 0.27355,1.92 0.23293,0.528 1.07593,2.93486 1.87333,5.34857 0.79741,2.41372 1.53497,4.48295 1.63904,4.59829 0.10406,0.11535 -0.34196,0.76408 -0.99117,1.44163 l -1.18038,1.23191 0.95695,1.25367 c 0.52632,0.68952 0.95694,1.42479 0.95694,1.63393 0,0.6937 -1.10465,3.21214 -4.27178,9.73902 -1.72367,3.55215 -3.13393,6.609 -3.13393,6.79301 0,0.3622 0.6106,0.66784 3.97714,1.99076 4.28388,1.68339 8.67404,2.81529 14.12571,3.64196 1.91731,0.29073 9.18423,0.14299 11.32445,-0.23023 z m 10.89358,-7.01548 c 2.38712,-0.66151 5.86776,-2.05314 6.86783,-2.74591 0.43644,-0.30233 0.87273,-1.03958 1.16626,-1.97075 l 0.46896,-1.48772 -1.10856,-2.5799 c -0.91631,-2.13247 -1.07871,-2.37773 -0.93643,-1.41419 0.15566,1.05418 0.11734,1.16572 -0.40055,1.16572 -0.31497,0 -0.57382,-0.0926 -0.57521,-0.20572 -0.001,-0.11314 -0.30217,-2.24228 -0.66841,-4.73142 -0.36623,-2.48915 -0.8722,-6.37715 -1.12437,-8.64 l -0.45851,-4.11429 -1.52241,-2.80571 c -1.34002,-2.46958 -1.59492,-2.78751 -2.12768,-2.6538 -0.33291,0.0836 -1.12803,0.0112 -1.76694,-0.16088 -0.63892,-0.17205 -1.21485,-0.25962 -1.27987,-0.19461 -0.065,0.065 0.006,2.88112 0.15701,6.25803 0.15136,3.3769 0.40191,9.22554 0.55679,12.99697 0.34955,8.51187 0.60458,13.85143 0.6616,13.85143 0.0239,0 0.96464,-0.25526 2.09049,-0.56725 z m 12.28711,-4.82961 c 1.08617,-1.02956 1.97486,-2.00577 1.97486,-2.16935 0,-0.34844 -4.42003,-8.09382 -5.81847,-10.19592 -0.52766,-0.79317 -1.55813,-2.60884 -2.28992,-4.03482 -0.7318,-1.42598 -1.36999,-2.55325 -1.4182,-2.50503 -0.32653,0.32652 0.6659,5.92071 1.46469,8.25626 0.51595,1.50858 1.0741,3.17486 1.24032,3.70286 0.16622,0.528 0.73107,1.97011 1.25522,3.20469 l 0.953,2.24469 -0.43618,1.50038 c -0.23989,0.82521 -0.43617,1.82922 -0.43617,2.23113 v 0.73075 l 0.76799,-0.54685 c 0.4224,-0.30078 1.65668,-1.38923 2.74286,-2.41879 z m -2.14424,-15.80004 c -1.35506,-4.32188 -2.46375,-7.92404 -2.46375,-8.00481 0,-0.0808 -0.25073,-0.14686 -0.55718,-0.14686 -0.70612,0 -0.74386,-0.11186 -1.17894,-3.49441 -0.1987,-1.54478 -0.42512,-2.87254 -0.50315,-2.95057 -0.078,-0.078 -0.98294,0.41053 -2.0109,1.0857 -1.02797,0.67517 -1.99667,1.27013 -2.15269,1.32213 -0.15601,0.052 0.23338,0.81659 0.86532,1.69908 0.63193,0.88248 1.14896,1.7279 1.14896,1.8787 0,0.15081 0.3749,0.85842 0.8331,1.57247 0.45821,0.71405 0.88071,1.52714 0.9389,1.80687 0.18731,0.90042 7.26981,13.35157 7.48033,13.15054 0.0351,-0.0335 -1.04493,-3.59696 -2.4,-7.91884 z m -8.58618,-13.71973 c 3.62736,-1.86267 9.25271,-7.15972 14.30345,-13.46867 l 1.95534,-2.44244 -2.66818,-2.77493 c -2.36838,-2.46313 -5.59554,-6.29317 -7.47032,-8.8659 -0.35728,-0.49029 -0.80998,-0.89143 -1.006,-0.89143 -0.19603,0 -0.65307,0.46286 -1.01566,1.02857 -0.36259,0.56571 -1.1158,1.46057 -1.67381,1.98857 -0.55801,0.528 -2.23509,2.26919 -3.72685,3.86932 l -2.71228,2.90932 0.40281,2.29109 c 0.28297,1.60943 0.31652,2.37598 0.11276,2.5764 -0.47972,0.47186 -1.00623,-0.55096 -1.2393,-2.40752 -0.11708,-0.93266 -0.19423,-1.77546 -0.17145,-1.87288 0.0433,-0.18501 -6.48084,-5.44532 -12.83094,-10.34544 -7.46547,-5.76081 -14.19035,-9.90543 -19.87964,-12.25205 -2.57879,-1.06366 -7.47307,-2.40179 -7.87534,-2.15317 -0.67648,0.41809 -2.61732,3.48454 -3.19063,5.04108 -0.81948,2.22487 -1.0958,5.96427 -0.60449,8.1804 0.91452,4.12511 1.79588,6.91692 3.19642,10.12499 2.019,4.62471 4.3681,10.53114 6.13789,15.43275 0.7898,2.18743 1.51578,4.06558 1.61328,4.17367 0.0975,0.10808 1.22438,-1.22656 2.50418,-2.96589 1.27979,-1.73932 3.29893,-4.39401 4.48697,-5.89931 1.18804,-1.5053 2.11375,-2.76758 2.05714,-2.80507 -0.0566,-0.0375 -1.06956,-0.78346 -2.251,-1.65771 -1.18144,-0.87425 -2.18766,-1.54818 -2.23605,-1.49762 -0.0484,0.0506 0.5171,0.9884 1.25665,2.08409 0.73954,1.09569 1.34462,2.18473 1.34462,2.42011 0,1.12833 -1.18047,-0.0792 -3.56571,-3.64756 -1.43315,-2.14399 -2.94515,-4.24903 -3.36,-4.67787 -0.65743,-0.67959 -1.02608,-1.7097 -0.61186,-1.7097 0.0783,0 1.15834,0.88292 2.4,1.96204 4.19462,3.64553 8.33555,6.53981 14.87471,10.39661 6.77677,3.99694 16.70722,8.68014 19.06286,8.99004 0.0754,0.01 1.14662,-0.50033 2.38043,-1.13389 z m 23.70613,-5.06051 c 0.79105,-1.47086 1.734,-3.14865 2.09544,-3.72843 l 0.65716,-1.05414 -0.69026,-1.00301 c -0.37965,-0.55165 -1.19935,-2.11385 -1.82157,-3.47157 -1.19083,-2.59847 -1.38768,-2.66805 -1.75539,-0.62047 -0.30712,1.71017 -1.2513,1.82516 -3.34027,0.40683 -0.61744,-0.41922 -1.2963,-0.68948 -1.50858,-0.60059 -0.57431,0.24051 -2.44309,2.6648 -2.44309,3.16933 0,1.5234 6.03255,9.57633 7.17374,9.57633 0.10699,0 0.84176,-1.20343 1.63282,-2.67428 z m 6.82571,-5.99692 c 1.29229,-0.51707 1.95344,-1.36219 2.55054,-3.26023 0.38481,-1.22322 0.51775,-2.08027 0.87215,-5.62285 0.73361,-7.33298 0.98476,-10.17678 1.24327,-14.07723 0.1682,-2.5379 0.3734,-4.79047 0.456,-5.00571 0.33277,-0.86719 -0.22212,-0.30273 -1.1657,1.18579 -1.59468,2.51565 -1.72388,2.62388 -2.51408,2.10612 -0.3657,-0.23962 -0.69192,-0.39495 -0.72494,-0.34518 -0.033,0.0498 -0.68331,0.89278 -1.4451,1.87335 -0.76178,0.98057 -2.5019,3.34101 -3.86692,5.24543 -2.46128,3.43386 -2.47742,3.46702 -1.94661,3.99783 0.53081,0.53082 0.52946,0.55704 -0.16353,3.16152 -0.38433,1.44445 -0.69878,2.83989 -0.69878,3.10099 0,0.68006 2.0766,5.27783 2.96431,6.56322 1.05026,1.52078 2.46962,1.8651 4.43939,1.07695 z m -8.3637,-8.12849 c 0.60343,-2.30002 1.13355,-4.31826 1.17804,-4.48496 0.0846,-0.31702 -0.21816,-0.72689 -5.56661,-7.53533 -1.81029,-2.30444 -3.36873,-4.30526 -3.46322,-4.44626 -0.4193,-0.62571 -2.63817,-0.50336 -5.90963,0.32586 -1.83621,0.46543 -3.65957,0.96827 -4.0519,1.11744 l -0.71334,0.27121 0.84258,1.58158 c 2.2818,4.28309 6.90207,10.18037 10.82941,13.82258 1.59434,1.47858 4.68682,3.53058 5.32005,3.53008 0.33328,-2.6e-4 0.69881,-0.99641 1.53462,-4.1822 z m -25.44815,-1.92031 1.4131,-1.44 -0.37771,-1.43736 c -0.20775,-0.79055 -0.88274,-3.69113 -1.49999,-6.44572 -1.57936,-7.04823 -1.47509,-6.7912 -2.75519,-6.7912 -0.58283,0 -1.13559,0.12281 -1.22836,0.27293 -0.21715,0.35135 -0.1798,14.38465 0.0398,14.95695 0.16176,0.42154 2.47001,2.3244 2.81959,2.3244 0.0966,0 0.81154,-0.648 1.58875,-1.44 z m -5.95356,-15.41807 c -0.1832,-0.48186 -0.44543,-0.7047 -0.75909,-0.64507 -0.37377,0.0711 -0.49774,0.42241 -0.56348,1.5971 -0.0464,0.8283 -0.17145,1.59406 -0.27798,1.7017 -0.10654,0.10763 -0.68575,0.0205 -1.28715,-0.19368 -0.60139,-0.21415 -1.38693,-0.39479 -1.74565,-0.40141 -0.74641,-0.0138 -0.75692,-0.2133 0.2858,5.42796 l 0.57458,3.10856 1.95306,1.61196 1.95305,1.61197 0.0734,-6.54146 c 0.0446,-3.97258 -0.0365,-6.83056 -0.20652,-7.27763 z m 11.07667,9.97395 c 1.44849,-1.52338 2.63367,-2.91195 2.63374,-3.08571 7e-5,-0.17376 -0.5245,-1.38321 -1.16571,-2.68767 -1.11314,-2.26452 -1.23405,-2.403 -2.67442,-3.06332 -0.82971,-0.38037 -2.23164,-0.77927 -3.1154,-0.88643 -1.49112,-0.18081 -1.5952,-0.15774 -1.44527,0.32047 0.36881,1.17628 2.63247,11.55565 2.63976,12.10388 0.005,0.40977 0.92208,-0.38197 3.1273,-2.70122 z m 23.73841,-3.4702 c 1.37635,-1.92343 3.05457,-4.25387 3.72939,-5.17875 l 1.22693,-1.6816 -2.67627,-2.40252 c -1.47195,-1.32139 -3.4638,-3.15372 -4.42634,-4.07186 l -1.75005,-1.66933 -1.26709,1.37975 c -0.69689,0.75887 -2.24179,2.58017 -3.4331,4.04735 -1.91383,2.357 -2.13217,2.73849 -1.8753,3.27656 0.1599,0.33493 1.49329,2.15182 2.9631,4.03754 3.98359,5.11081 4.52175,5.76 4.7749,5.76 0.12726,0 1.35748,-1.57372 2.73383,-3.49714 z m -41.73633,1.23428 c -0.21861,-0.33943 -0.99369,-1.728 -1.7224,-3.08571 -0.72871,-1.35772 -1.35561,-2.5093 -1.39312,-2.55906 -0.12155,-0.16126 -1.48723,0.83162 -1.48723,1.08124 0,0.13307 0.41274,0.70516 0.91721,1.27131 0.50447,0.56615 1.02904,1.23522 1.16572,1.48683 0.21955,0.40419 2.55817,2.41298 2.81718,2.41987 0.0551,0.001 -0.0787,-0.27505 -0.29736,-0.61448 z m 1.0441,-2.72831 c -0.24738,-1.40343 -0.5032,-2.79984 -0.56848,-3.10313 -0.10171,-0.47251 -0.296,-0.53734 -1.3573,-0.45294 l -1.2386,0.0985 0.4326,0.86437 c 1.06928,2.13648 2.95183,5.3746 3.0611,5.26532 0.0662,-0.0662 -0.082,-1.2687 -0.32932,-2.67213 z m -8.37487,-2.8801 c -0.32794,-0.4228 -2.19462,-2.39575 -4.14817,-4.38432 -3.98247,-4.05386 -3.74575,-3.92763 -9.38916,-5.00659 -3.41186,-0.65231 -5.19766,-0.69857 -6.36322,-0.16487 -0.66344,0.30378 -0.71429,0.3811 -0.26243,0.39906 2.85728,0.11358 10.91583,3.77728 16.85671,7.66366 2.03657,1.33228 3.74779,2.3862 3.8027,2.34205 0.0549,-0.0441 -0.16848,-0.42619 -0.49643,-0.84899 z m 3.01281,-0.9142 c 0.94978,-0.75224 1.03678,-0.92806 0.91608,-1.85143 -0.36473,-2.79021 -0.26135,-2.61968 -2.17831,-3.59346 -0.98922,-0.5025 -1.83848,-0.86967 -1.88726,-0.81593 -0.0975,0.10745 1.07844,6.05585 1.3234,6.69419 0.22726,0.59223 0.66119,0.48925 1.82609,-0.43337 z m 8.30339,-3.2831 c -0.22757,-1.88572 -0.46555,-3.48227 -0.52886,-3.54789 -0.0633,-0.0656 -0.61313,0.36637 -1.22182,0.96 l -1.10671,1.07932 0.12795,2.01049 c 0.0704,1.10577 0.20988,2.0932 0.31,2.19428 0.1459,0.1473 2.62448,0.81314 2.78937,0.74933 0.0241,-0.009 -0.14236,-1.55982 -0.36993,-3.44553 z m -3.88472,1.12353 c -0.12193,-1.66138 -0.52872,-2.22068 -1.61516,-2.22068 -1.01603,0 -1.04692,0.11862 -0.56949,2.18693 0.32125,1.39176 0.33433,1.40509 1.29891,1.32378 0.97183,-0.0819 0.97416,-0.0853 0.88574,-1.29003 z m -7.98043,0.14879 c -0.15134,-0.39806 -0.47065,-0.72375 -0.70958,-0.72375 -0.45935,0 -0.35787,0.32065 0.36944,1.16739 0.54407,0.63341 0.68149,0.45418 0.34014,-0.44364 z m 57.95095,-1.74557 c 1.20925,-1.9222 1.28448,-2.13677 0.85846,-2.44829 -0.25683,-0.18779 -1.0384,-0.8804 -1.73684,-1.53913 -2.44571,-2.30665 -7.91434,-6.78505 -8.28531,-6.78505 -0.32099,0 -2.72133,3.0605 -2.72155,3.47006 -1e-4,0.17367 2.11698,2.21024 4.70461,4.52571 2.58763,2.31547 4.8402,4.35954 5.00571,4.54237 0.544,0.60092 0.83442,0.36515 2.17492,-1.76567 z m -58.32239,-0.44375 c -0.0778,-0.20264 -0.22861,-1.06664 -0.33523,-1.92 -0.19319,-1.54625 -0.19135,-1.55157 0.53708,-1.55157 0.40202,0 1.0951,0.18831 1.54018,0.41847 0.44508,0.23016 0.80203,0.32273 0.79322,0.20571 -0.009,-0.11701 -1.01454,-0.70647 -2.23496,-1.3099 -2.91089,-1.43927 -5.20263,-2.91136 -7.14331,-4.58847 l -1.57714,-1.36295 v 1.91285 c 0,2.85224 0.21015,3.60323 1.06356,3.80066 0.39561,0.0915 1.615,1.04425 2.70976,2.11717 1.24698,1.22212 2.37395,2.06996 3.01714,2.26986 1.40935,0.43801 1.79539,0.43994 1.6297,0.008 z m 13.16149,-1.603 c -0.0876,-0.21881 -0.15255,-0.15382 -0.16571,0.16571 -0.0119,0.28914 0.0529,0.45114 0.14406,0.36 0.0911,-0.0911 0.10088,-0.32771 0.0216,-0.52571 z m -4.85023,-0.71577 c 0,-0.84806 0.19741,-1.23423 1.06298,-2.07944 1.02691,-1.00275 1.05414,-1.07676 0.80259,-2.18138 -0.14321,-0.62888 -0.34384,-2.12826 -0.44584,-3.33196 l -0.18544,-2.18856 -1.60464,-0.35541 c -2.1104,-0.46744 -6.22309,-2.43715 -11.21515,-5.37134 -2.22346,-1.30688 -4.10574,-2.37614 -4.18286,-2.37614 -0.0771,0 -0.14021,2.12015 -0.14021,4.71145 v 4.71145 l 0.89143,0.77868 c 1.86907,1.63265 4.28993,3.22806 7.2,4.745 2.62865,1.37025 3.04586,1.68353 3.24016,2.43309 0.32093,1.23801 0.88807,1.54604 2.84655,1.54604 h 1.73043 z m 3.49308,-1.42709 c 0.66429,0 0.88922,0.13896 0.9989,0.61714 0.0779,0.33943 0.0825,-0.1171 0.0103,-1.01451 -0.0722,-0.89742 -0.19209,-1.69247 -0.26641,-1.76679 -0.21804,-0.21802 -3.13871,2.79197 -3.13871,3.23468 0,0.27593 0.24327,0.17047 0.76929,-0.33349 0.49953,-0.47858 1.06994,-0.73703 1.62664,-0.73703 z m 48.89549,0.5162 c 0,-0.15086 -0.12342,-0.19801 -0.27428,-0.10477 -0.15086,0.0932 -0.27429,0.29294 -0.27429,0.4438 0,0.15086 0.12343,0.198 0.27429,0.10477 0.15086,-0.0932 0.27428,-0.29295 0.27428,-0.4438 z m 0.39611,-3.33957 c 0.91877,-1.45964 2.41896,-3.42722 3.33375,-4.3724 1.88341,-1.94599 7.63551,-5.92516 10.99352,-7.60507 1.76235,-0.88164 2.62764,-1.54147 4.0355,-3.077265 1.9236,-2.098402 2.51424,-3.576102 2.31694,-5.796662 l -0.093,-1.04619 -1.37143,1.92702 c -1.29271,1.81641 -1.83832,2.2499 -2.1655,1.72051 -0.0774,-0.12525 0.48686,-1.14354 1.25392,-2.26286 0.76706,-1.11933 1.75493,-2.81732 2.19526,-3.77331 0.79598,-1.72818 0.79793,-1.74514 0.33834,-2.94857 -0.25425,-0.66572 -0.61094,-1.2104 -0.79265,-1.2104 -0.18172,0 -0.92564,1.14171 -1.65315,2.53714 -1.52506,2.92519 -2.50943,4.32 -3.04877,4.32 -0.58084,0 -0.46255,-0.35095 0.56264,-1.66927 0.98601,-1.26793 2.77415,-5.20618 3.06304,-6.74611 0.12736,-0.6789 -0.002,-1.190761 -0.53073,-2.092146 -1.21845,-2.079119 -1.35315,-2.069895 -2.31858,0.158776 -0.47246,1.090669 -1.11359,2.64264 -1.42473,3.44882 -0.60424,1.56566 -2.11327,3.5954 -2.67909,3.60356 -0.49685,0.007 -0.43858,-0.16852 0.51628,-1.55636 0.80141,-1.16481 3.52944,-7.737936 3.52944,-8.504109 0,-0.189641 -0.27772,-0.523321 -0.61715,-0.741512 -0.75434,-0.48491 -3.80062,-1.06788 -4.08647,-0.78203 -0.1137,0.1137 0.0372,0.751504 0.33528,1.417341 l 0.542,1.210612 -1.41208,2.49193 c -0.77665,1.370558 -1.59656,2.842388 -1.82201,3.270728 -0.77142,1.4656 -3.57699,4.15773 -5.57735,5.35183 -1.64112,0.97966 -2.16676,1.16632 -2.93382,1.04185 -1.19513,-0.19394 -1.55079,-0.50226 -2.25324,-1.95334 -0.71159,-1.46994 -0.77096,-3.67975 -0.14809,-5.51223 0.7858,-2.311852 0.84548,-3.784923 0.19559,-4.828267 -0.31276,-0.50211 -0.81192,-1.061645 -1.10926,-1.243409 -0.50399,-0.308097 -0.61033,-0.150511 -1.5703,2.327029 -0.56634,1.461631 -1.19407,3.203677 -1.39497,3.871217 -0.74479,2.47474 -0.33507,8.84044 0.89194,13.857892 0.59437,2.430465 0.62125,2.768475 0.25254,3.175885 -0.22694,0.25076 -0.41261,0.54996 -0.41261,0.66488 0,0.11491 -0.53611,0.84577 -1.19134,1.62411 -1.90843,2.26699 -4.02009,5.08073 -4.02009,5.35669 0,0.13991 1.38857,1.42256 3.08571,2.85034 1.69715,1.42777 3.51772,2.98102 4.04572,3.45166 0.528,0.47063 1.0744,0.81967 1.21423,0.77564 0.13982,-0.044 1.00595,-1.27432 1.92473,-2.73395 z m -11.80743,-5.15454 c 0.32258,0.26772 0.66856,-0.0144 1.92515,-1.56962 0.84254,-1.0428 1.53189,-1.98776 1.53189,-2.09992 0,-0.32176 -4.50259,0.15742 -4.72723,0.50309 -0.11083,0.17054 -0.20341,1.10063 -0.20572,2.06687 -0.004,1.73397 0.003,1.75041 0.53923,1.265 0.42919,-0.38841 0.6261,-0.42318 0.93668,-0.16542 z m -34.66868,-2.23246 c 1.17519,-0.49151 4.50988,-4.0015 6.68895,-7.040565 1.77821,-2.480002 1.75432,-2.119952 0.31102,-4.687672 -0.83357,-1.48298 -0.88017,-2.55833 -0.14282,-3.29568 0.65676,-0.65676 1.0536,-0.68569 1.84096,-0.1342 0.37447,0.26229 0.65448,0.31262 0.76293,0.13714 0.22748,-0.36806 1.42958,-0.3556 1.65999,0.0172 0.2376,0.38445 0.73341,-0.34756 1.3141,-1.94014 0.81211,-2.22727 1.69109,-9.881688 1.68509,-14.674288 -0.005,-4.365186 -0.0104,-4.400265 -0.93293,-6.582858 -0.5101,-1.206857 -1.02582,-2.322678 -1.14605,-2.479603 -0.15014,-0.195955 -1.0177,-0.162267 -2.76992,0.107559 -1.93109,0.297369 -5.82496,0.40007 -16.01754,0.422463 -10.88868,0.02392 -13.55192,0.100674 -13.91395,0.400997 -0.24624,0.20428 -1.20303,1.685423 -2.12618,3.291429 -1.97933,3.443418 -2.56324,5.629075 -2.31232,8.655354 0.20901,2.520886 0.9172,7.436837 1.24823,8.664657 0.14235,0.528 0.2595,1.34603 0.26034,1.81785 8.3e-4,0.47181 0.18323,1.00864 0.40532,1.19295 0.34619,0.28731 0.34898,0.3899 0.0196,0.7193 -0.49486,0.49485 -0.69766,0.48616 -0.69766,-0.0299 0,-0.22776 -0.58629,-0.69899 -1.30286,-1.04718 -0.71657,-0.3482 -1.2738,-0.77357 -1.2383,-0.94528 0.17826,-0.86214 -0.78509,-4.85176 -1.47968,-6.127962 -1.04222,-1.914896 -3.5045,-4.36916 -5.16784,-5.151023 -3.62867,-1.705681 -6.41998,0.815476 -6.11465,5.522858 0.21079,3.249697 1.34244,4.960847 4.83302,7.307917 2.58461,1.73788 4.10417,3.24327 4.95267,4.90646 0.72676,1.42457 1.31703,1.897092 1.90586,1.52566 0.54605,-0.34444 1.09292,-2.0266 1.12213,-3.45165 0.0177,-0.86141 0.11642,-1.02857 0.60775,-1.02857 0.55216,0 0.57769,0.0989 0.43415,1.68193 -0.14702,1.6214 -0.12124,1.7107 0.71619,2.48103 2.00634,1.845582 8.16434,5.711077 12.89378,8.093687 4.24442,2.13826 4.88705,2.31384 7.99778,2.18513 1.52536,-0.0631 3.16898,-0.29171 3.70286,-0.515 z m -6.15281,-7.862375 c -0.23438,-0.37923 0.0938,-0.52012 1.71143,-0.73471 1.67493,-0.22218 2.03361,0.30266 0.39567,0.57898 -0.56571,0.0954 -1.23418,0.22948 -1.48549,0.29787 -0.2513,0.0684 -0.53103,0.004 -0.62161,-0.14214 z m -9.48147,-0.40149 c 0,-0.0534 0.33223,-0.45454 0.73829,-0.891422 l 0.73829,-0.79434 -0.66972,-0.0962 c -0.81106,-0.11653 -1.07141,-0.47946 -1.07695,-1.50131 -0.003,-0.55541 0.37322,-1.17031 1.32927,-2.17253 l 1.33346,-1.39786 0.85247,0.93825 c 1.93086,2.12515 2.01906,3.57421 0.2457,4.03666 l -0.8851,0.23081 0.95256,0.872532 0.95256,0.87254 h -2.25542 c -1.24047,0 -2.25541,-0.0437 -2.25541,-0.0971 z m 13.57714,-0.17719 c 0.0932,-0.15086 0.77938,-0.27429 1.52476,-0.27429 0.74538,0 1.35524,0.12343 1.35524,0.27429 0,0.15086 -0.68614,0.27429 -1.52476,0.27429 -0.94666,0 -1.46048,-0.104 -1.35524,-0.27429 z m -27.2097,-6.272382 c 0.14468,-1.22161 0.10138,-1.36111 -0.50887,-1.63916 -0.36686,-0.16715 -1.02088,-0.23314 -1.45338,-0.14664 -1.0219,0.20438 -2.27659,-0.45145 -3.65225,-1.90905 -1.4683,-1.55575 -2.06915,-2.81664 -2.0848,-4.375 -0.007,-0.722512 -0.15358,-1.482821 -0.32517,-1.689575 -0.24293,-0.292715 -0.17416,-0.472444 0.3107,-0.812053 1.49843,-1.049546 4.76322,-0.04429 6.65431,2.048917 1.09199,1.208701 1.17558,1.773731 0.53885,3.642431 -0.54054,1.58637 -0.39358,2.01045 0.88124,2.54311 0.98705,0.41242 0.99665,0.43182 0.82671,1.67161 -0.0946,0.6899 -0.17192,1.42227 -0.17192,1.6275 0,0.20523 -0.26405,0.37315 -0.58678,0.37315 -0.54081,0 -0.57439,-0.1046 -0.42864,-1.33524 z m -1.94322,-3.32762 c -0.12216,-0.83235 -0.57955,-1.02671 -1.54464,-0.65637 -0.65615,0.25179 -0.52689,0.542 0.45756,1.0273 1.19366,0.58842 1.22625,0.5773 1.08708,-0.37093 z m -1.30159,-1.75451 c 1.0812,-0.28475 1.43091,-0.523 1.69327,-1.15361 0.30786,-0.73994 0.26207,-0.86566 -0.664,-1.82331 -0.93987,-0.971913 -1.70619,-1.324516 -1.70619,-0.785062 0,0.133929 -0.43352,0.873742 -0.96338,1.644022 -0.83679,1.21647 -0.91822,1.47282 -0.61974,1.95078 0.39868,0.63837 0.45509,0.64254 2.26004,0.16718 z m -1.77406,-4.29507 c 0,-0.382532 -0.18926,-0.533277 -0.66952,-0.533277 -0.86753,0 -0.99189,0.239317 -0.78544,1.511542 l 0.17018,1.048665 0.64239,-0.74683 c 0.35332,-0.410754 0.64239,-0.986798 0.64239,-1.2801 z m 32.09143,9.64785 c 0,-0.13295 0.43034,-0.56997 0.95632,-0.97115 1.64341,-1.25349 1.6573,-1.46876 0.27778,-4.30313 -1.17884,-2.42207 -1.497,-3.535418 -1.01029,-3.535418 0.1231,0 0.51048,0.709718 0.86084,1.577138 0.35036,0.86743 0.99684,2.22089 1.43662,3.00768 0.92352,1.65226 0.86043,1.90562 -0.86196,3.4617 -1.08905,0.98388 -1.65931,1.24617 -1.65931,0.76318 z m -13.30286,-6.06684 c 0.0932,-0.15086 0.35022,-0.27429 0.57108,-0.27429 0.33735,0 0.328,-0.11227 -0.0584,-0.70204 -0.2807,-0.42838 -0.5104,-1.4874 -0.5893,-2.71686 l -0.1293,-2.014826 -0.90057,-0.105136 c -0.77985,-0.09104 -1.10572,0.09201 -2.43113,1.365698 l -1.53057,1.470836 0.81982,0.689838 c 0.4509,0.3794 0.81982,0.80229 0.81982,0.93973 0,0.52778 -1.02771,0.21524 -1.74126,-0.52953 -0.9812,-1.024154 -0.73271,-1.673699 1.31122,-3.42755 l 1.54646,-1.326984 4.44751,0.306018 c 2.44612,0.168308 4.78693,0.374115 5.20179,0.45735 1.13177,0.227067 0.90754,0.656316 -0.34286,0.656316 -0.69196,0 -1.09915,0.126619 -1.10258,0.342857 -0.009,0.5948 -0.54852,4.161393 -0.7048,4.662853 -0.12868,0.41293 -0.5134,0.48 -2.75301,0.48 -1.66576,0 -2.54236,-0.0988 -2.4339,-0.27428 z m 4.70474,-1.30286 c 0.11213,-0.56571 0.2103,-1.707427 0.21814,-2.537141 l 0.0143,-1.508572 -2.2942,-0.137143 -2.2942,-0.137142 0.17975,1.749693 c 0.18591,1.809635 0.71111,3.171455 1.31716,3.415305 0.19174,0.0771 0.86761,0.15001 1.50191,0.16192 1.11899,0.021 1.15935,-0.009 1.35717,-1.00692 z m 14.27095,-0.52145 c -0.0982,-0.0982 0.001,-0.31423 0.22085,-0.48 0.33456,-0.25245 0.35135,-0.620403 0.10338,-2.265428 l -0.29604,-1.964023 -0.80737,0.28145 c -0.83479,0.291011 -1.34757,0.116316 -0.89822,-0.30601 0.29869,-0.280731 5.87562,-1.670252 6.70366,-1.670252 0.80311,0 3.83805,1.585791 3.83805,2.005427 0,0.193497 -0.47952,0.820048 -1.06559,1.392337 -0.76575,0.74773 -1.12538,0.943784 -1.27807,0.69673 -0.13473,-0.218 0.1142,-0.63568 0.68035,-1.141528 0.49105,-0.438756 0.85018,-0.835817 0.79807,-0.882355 -0.4752,-0.424351 -2.97846,-1.46366 -3.09014,-1.282969 -0.0794,0.128489 -0.26746,1.316785 -0.41789,2.640661 -0.15043,1.323873 -0.31739,2.45093 -0.37104,2.50458 -0.13294,0.13294 -2.89797,0.64997 -3.47598,0.64997 -0.25598,0 -0.54579,-0.0804 -0.64402,-0.17859 z m 3.56014,-1.011581 c 0.0244,-0.02427 0.13412,-1.075962 0.24376,-2.337117 l 0.19936,-2.293007 -0.92947,0.202237 c -1.94993,0.42427 -2.16387,0.592745 -2.16223,1.702702 8.2e-4,0.569448 0.13339,1.510242 0.29455,2.090656 0.2869,1.03322 0.31412,1.05135 1.30133,0.866965 0.55457,-0.103579 1.02828,-0.208178 1.0527,-0.232436 z m -29.80259,-4.501253 c 0.008,-0.896429 3.73296,-4.775476 5.31162,-5.531144 0.62276,-0.298102 1.97782,-0.686946 3.01124,-0.864096 2.03588,-0.348991 6.34736,-0.237131 6.74346,0.174955 0.13458,0.140015 0.28616,0.624856 0.33685,1.077428 0.0777,0.694044 0.006,0.808311 -0.45641,0.729948 -1.26413,-0.214096 -8.44332,-0.365011 -9.34219,-0.196383 -1.12339,0.21075 -2.70187,1.541935 -4.12137,3.475677 -0.89313,1.21669 -1.48792,1.671292 -1.4832,1.133615 z m 14.53533,-5.397406 c 0,-0.562551 -2.60291,-0.829898 -4.87045,-0.500247 l -1.84955,0.268882 1.78286,0.06127 c 1.45366,0.04995 3.073,0.229687 4.73143,0.525136 0.11314,0.02016 0.20571,-0.139614 0.20571,-0.355044 z m -0.65224,4.50736 c -0.82207,-1.242238 -0.85615,-1.372811 -0.35826,-1.372811 0.45372,0 1.65942,2.099893 1.32453,2.306866 -0.13589,0.08399 -0.57072,-0.336337 -0.96627,-0.934055 z m 10.25224,0.01391 c 0,-0.424676 1.3089,-1.813974 1.51516,-1.60823 0.10472,0.104459 -0.0783,0.567316 -0.40677,1.028571 -0.58457,0.820951 -1.10839,1.094897 -1.10839,0.579659 z m 10.10838,-2.65398 -1.23764,-1.23764 -2.30965,0.01015 c -1.39283,0.0061 -3.17089,0.231094 -4.47925,0.566735 -1.19327,0.306128 -2.21156,0.556586 -2.26285,0.556586 -0.0513,0 -0.0933,-0.435055 -0.0933,-0.966789 0,-1.316867 0.76268,-1.594886 4.38857,-1.599749 4.37399,-0.0059 5.05048,0.276773 7.20483,3.010192 0.90547,1.14886 0.033,0.904211 -1.21074,-0.339483 z m -6.44683,-1.973398 c -1.70515,-0.110847 -3.11298,0.15467 -3.11298,0.587109 0,0.262121 0.5023,0.243801 2.22082,-0.081 2.20347,-0.416459 2.21044,-0.420412 0.89216,-0.506107 z m 35.14897,29.299035 1.00582,-1.3702 -0.41466,-1.30409 c -0.22807,-0.717245 -0.56209,-2.229805 -0.74227,-3.361227 -0.18019,-1.13143 -0.43016,-2.12272 -0.55549,-2.20287 -0.26269,-0.16799 -4.36651,-3.87973 -5.51477,-4.98789 -0.42461,-0.40977 -0.772,-0.82658 -0.772,-0.92623 0,-0.0997 0.48215,-1.06039 1.07146,-2.13496 1.52128,-2.773982 1.84302,-4.002163 1.4191,-5.41709 l -0.33912,-1.131889 -1.09443,1.063317 c -1.01252,0.983745 -3.63947,4.577592 -3.96378,5.422742 -0.17932,0.46729 4.03988,7.44713 6.24881,10.33743 1.09325,1.430472 1.58575,2.290792 1.41128,2.465262 -0.17448,0.17447 -0.4433,0.0743 -0.77032,-0.28706 -0.27627,-0.30528 -0.58984,-0.55505 -0.69682,-0.55505 -0.28569,0 -1.02368,2.141815 -1.22861,3.565705 -0.0977,0.67886 -0.23866,1.45029 -0.31324,1.71429 -0.121,0.42838 0.0999,0.48 2.05382,0.48 h 2.18941 z m -0.75839,-12.961237 c -0.0676,-3.60759 0.0725,-4.22498 2.22327,-9.794673 1.0289,-2.664521 1.38238,-2.88336 2.66537,-1.650083 1.93168,1.856843 2.10881,2.806288 1.21731,6.524986 -0.30066,1.25413 -0.54665,2.80959 -0.54665,3.45658 0,1.52314 0.9516,3.00544 2.00819,3.12816 1.57297,0.1827 5.342,-2.30576 6.68717,-4.41513 2.98332,-4.678137 3.6475,-5.843427 3.6475,-6.399428 0,-1.146158 -4.92834,-11.988511 -5.8967,-12.972736 -0.32529,-0.330621 -0.46872,-0.325804 -1.01256,0.03401 -0.84946,0.562016 -4.69216,4.145134 -9.58486,8.937399 l -4.01412,3.931716 -0.11397,1.575527 c -0.0775,1.071618 -0.43852,2.258952 -1.12873,3.712342 -0.55813,1.17526 -1.01292,2.34002 -1.01066,2.58836 0.003,0.37757 4.41635,4.70296 4.79812,4.70296 0.0684,0 0.0959,-1.512 0.0613,-3.36 z m -63.5607,0.16065 c 0,-0.95954 -1.51673,-8.356234 -1.84462,-8.995701 -0.23506,-0.458436 -1.54524,-2.499805 -2.91153,-4.536376 -2.07093,-3.086921 -3.29293,-4.517637 -7.34636,-8.60112 -2.7272,-2.74743 -5.0217,-4.845096 -5.22543,-4.777185 -0.54634,0.182115 -0.80012,2.601888 -0.46818,4.464019 0.16135,0.905143 0.33339,2.070364 0.3823,2.589381 0.0489,0.519017 0.50018,2.221719 1.00281,3.783782 l 0.91387,2.840116 1.09714,-0.191026 c 2.25846,-0.39323 4.3005,-0.156935 6.03429,0.698249 3.08542,1.521874 6.63021,5.996007 6.31524,7.970931 -0.22088,1.38499 0.30616,4.18454 0.86491,4.59428 0.50089,0.36731 1.18556,0.46008 1.18556,0.16065 z m 57.86168,-9.780627 c 1.11653,-1.208473 1.30218,-1.30783 2.14738,-1.149269 0.89721,0.168316 1.049,0.04991 5.01807,-3.914109 2.25108,-2.248221 4.09287,-4.218287 4.09287,-4.377924 0,-0.159637 -0.432,-0.545134 -0.96,-0.856662 l -0.96,-0.566414 v 0.656558 c 0,0.791413 -1.17546,1.793513 -2.10378,1.793513 -1.52911,0 -3.10314,-2.072462 -3.11185,-4.097234 -0.008,-1.896888 -0.33181,-1.908705 -2.37323,-0.08665 -1.72055,1.535663 -3.41911,3.250952 -5.82431,5.881673 l -0.92532,1.012076 0.55371,2.279353 c 0.30454,1.253645 0.77957,3.30971 1.05563,4.569029 l 0.50191,2.289674 0.83337,-1.055388 c 0.45835,-0.580463 1.38335,-1.650665 2.05555,-2.378224 z M 121.9392,77.1231 c 0.0139,-1.056 0.1756,-2.413714 0.35933,-3.017143 l 0.33404,-1.097143 -2.59023,-1.994797 c -3.13283,-2.412664 -8.20782,-5.655786 -11.01144,-7.036759 l -2.05715,-1.01328 3.21649,3.052292 c 4.29547,4.07621 7.75071,8.239286 10.74195,12.942537 0.70201,1.103805 0.97486,0.606418 1.00701,-1.835707 z m -13.09472,-0.09429 c -0.57583,-0.129147 -0.96536,0.318479 -0.75475,0.867314 0.15237,0.397097 0.23604,0.377269 0.67457,-0.159849 0.43108,-0.528008 0.44222,-0.626268 0.0802,-0.707465 z m 55.18867,-4.572233 c 1.13952,-4.389822 1.29411,-5.341514 1.40288,-8.63633 0.11741,-3.5568 0.10439,-3.670401 -0.33019,-2.88 -0.24883,0.452571 -0.7283,1.254857 -1.06547,1.782857 -0.33718,0.528 -0.82782,1.310137 -1.09032,1.738083 -0.2625,0.427946 -0.53782,0.717534 -0.61183,0.643532 -0.074,-0.074 0.43072,-1.226431 1.1216,-2.560943 1.1163,-2.156248 1.27402,-2.685951 1.41669,-4.757815 0.25819,-3.749538 -0.5722,-4.18848 -3.15834,-1.669503 -1.62614,1.583912 -2.95037,4.107769 -3.47469,6.622409 -0.47311,2.269043 -0.33747,2.74393 0.75857,2.655733 0.79287,-0.0638 0.85075,0.01673 1.9238,2.677076 0.97454,2.416106 1.12036,3.069608 1.22405,5.485714 0.11666,2.718377 0.29634,4.138938 0.49801,3.937264 0.0575,-0.05753 0.6809,-2.32467 1.38524,-5.038077 z m 14.65909,-2.122044 c 1.44712,-1.395429 3.39846,-3.26304 4.33632,-4.150248 0.93785,-0.887207 1.70519,-1.819762 1.70519,-2.072346 0,-0.524243 -2.8496,-4.084617 -3.45518,-4.317 -0.21978,-0.08434 -0.91624,0.200569 -1.54769,0.633126 -1.596,1.093297 -6.015,5.484214 -6.92036,6.876389 l -0.74969,1.152779 0.63299,0.904364 c 1.03998,1.485831 2.83294,3.509799 3.10933,3.509944 0.14189,7.4e-5 1.44198,-1.14158 2.88909,-2.537008 z m -55.52506,0.770745 c 0.24626,-0.518946 0.98501,-1.66066 1.64167,-2.537143 l 1.19394,-1.593602 -1.97166,-0.172979 c -3.91364,-0.343351 -6.7074,-1.753689 -9.92714,-5.011381 -2.27517,-2.301998 -3.67019,-4.520733 -4.41116,-7.015844 -0.22489,-0.757317 -0.5308,-1.376939 -0.67978,-1.376939 -0.14898,0 -0.7922,0.524571 -1.42937,1.165714 -1.45423,1.463292 -2.4457,4.125424 -2.20255,5.913893 l 0.16077,1.182465 2.76949,1.389792 c 3.57487,1.793955 9.07444,5.243677 11.69093,7.333388 1.13143,0.903635 2.20564,1.648194 2.38713,1.654577 0.1815,0.0064 0.53148,-0.412992 0.77773,-0.931941 z m 65.91902,-0.79579 c 0.44783,-0.539608 0.66834,-7.376983 0.26636,-8.259232 -0.20898,-0.458663 -0.6902,-0.81437 -1.38225,-1.021711 -0.93552,-0.28029 -1.15012,-0.252096 -1.80625,0.237309 -0.83647,0.623915 -1.08741,1.361288 -0.62175,1.826949 0.23238,0.232383 0.37525,0.208163 0.56287,-0.09541 0.49749,-0.804958 0.79665,0.0711 0.51515,1.508571 -0.41808,2.134961 -0.33593,3.538365 0.27752,4.740823 0.71625,1.40397 1.56361,1.815464 2.18835,1.062704 z m 4.29394,-1.62067 c 0.0847,-0.339428 0.1179,-1.847081 0.0738,-3.350339 l -0.0802,-2.733197 -0.90322,-0.258435 c -1.29814,-0.371432 -1.56535,0.03459 -1.56535,2.378485 0,2.335518 0.23184,3.303895 0.96698,4.039036 0.71603,0.716028 1.318,0.68587 1.50798,-0.07555 z m 2.65848,-0.949689 c 0.72175,-0.710899 1.31227,-1.439869 1.31227,-1.619932 0,-0.18006 -0.56065,-0.518419 -1.2459,-0.751905 -1.2453,-0.424317 -1.24602,-0.424188 -1.50857,0.266359 -0.3051,0.802483 -0.3558,3.398025 -0.0664,3.398025 0.10797,0 0.78682,-0.581645 1.50858,-1.292547 z m -63.65913,-1.882031 c -2.66771,-0.619458 -7.09261,-3.512991 -11.12459,-7.274589 -0.14081,-0.131358 -0.18023,-0.314603 -0.0876,-0.40721 0.0926,-0.09261 1.11133,0.654004 2.26384,1.659138 3.83478,3.344434 6.44989,4.823596 10.21777,5.779397 2.19082,0.55575 3.31608,0.673673 6.37001,0.667565 l 3.70915,-0.0074 -1.81135,-0.772935 c -2.16984,-0.925911 -6.28008,-3.331784 -6.28008,-3.675963 0,-0.307291 -0.11183,-0.360044 3.15607,1.488853 3.9332,2.225305 5.59944,2.715769 9.73536,2.865641 l 3.42857,0.124243 -1.49688,-0.702794 c -0.82329,-0.386534 -2.41786,-1.395974 -3.5435,-2.243199 -2.50923,-1.888594 -6.49429,-5.658399 -6.11512,-5.784793 0.15252,-0.05084 1.2225,0.809417 2.37774,1.911679 2.95228,2.816873 5.83216,4.89406 8.0103,5.777636 1.89643,0.769295 2.72523,0.875981 4.51095,0.580671 l 1.00062,-0.165476 -1.06802,-1.408647 c -0.58741,-0.774755 -1.06855,-1.501218 -1.0692,-1.61436 -0.002,-0.314104 0.39628,-0.245437 0.79505,0.137142 0.29262,0.280737 0.31808,0.119227 0.1405,-0.891428 -0.60535,-3.445243 0.14002,-7.283114 2.01754,-10.388199 1.75587,-2.90389 3.31555,-4.094087 5.36504,-4.094087 0.57364,0 1.12629,-0.08331 1.22811,-0.185132 0.17679,-0.176791 -1.28508,-1.593732 -3.3492,-3.246273 -2.31541,-1.853719 -5.88005,-2.310525 -7.96667,-1.020927 -2.6443,1.634266 -3.80897,7.935958 -2.37156,12.831761 0.25852,0.880531 0.14888,1.074264 -0.3857,0.681515 -0.69373,-0.509673 -2.13453,-3.851331 -2.8712,-6.659197 -0.44603,-1.700069 -0.75808,-3.176618 -0.69343,-3.281217 0.0646,-0.104596 -0.009,-1.323066 -0.16354,-2.707705 -0.45094,-4.039021 0.68852,-8.648928 2.32176,-9.393081 0.92526,-0.421575 2.8493,0.179934 3.78724,1.183992 l 0.77345,0.827992 v -1.08522 c 0,-2.577408 -1.05575,-4.000572 -4.07514,-5.493339 -1.84585,-0.912573 -2.22025,-0.99812 -4.38857,-1.002764 -2.70995,-0.0058 -5.81022,0.806545 -7.08375,1.856122 -0.42489,0.350175 -0.97686,0.711047 -1.22658,0.801937 -0.60734,0.22105 -2.07696,2.390255 -2.5742,3.799579 -0.71371,2.022851 -0.42365,6.875388 0.58014,9.705671 0.17763,0.500843 0.15499,0.511538 -0.26026,0.122894 -0.64051,-0.59946 -1.62565,-5.806958 -1.3983,-7.391465 0.28697,-2.000103 1.2053,-4.450352 2.08168,-5.554286 l 0.81655,-1.028572 -0.90435,8.23e-4 c -1.37609,0.0011 -5.89498,1.290964 -7.40858,2.114768 -1.95862,1.066017 -3.99245,3.165197 -4.21476,4.35018 -0.3441,1.834241 0.49142,6.755448 1.68603,9.930689 0.3815,1.014021 1.19077,2.74975 1.79836,3.857182 1.12155,2.04418 1.2963,2.903372 0.30497,1.499427 -0.81508,-1.154335 -2.10852,-3.83647 -2.81841,-5.844365 -0.34668,-0.980572 -0.71521,-1.906286 -0.81896,-2.057143 -0.2214,-0.321932 -0.71252,-2.917355 -0.96519,-5.100716 -0.24522,-2.119016 -0.32048,-2.199138 -1.72975,-1.841428 -1.52109,0.386092 -3.7625,2.421046 -5.23531,4.753083 -0.88829,1.406499 -1.11419,2.021675 -1.11419,3.034173 0,1.65715 0.69774,4.340331 1.50988,5.806316 0.35518,0.641143 0.52924,1.165715 0.38679,1.165715 -0.37898,0 -1.29906,-1.596373 -1.73895,-3.017143 -0.49753,-1.606895 -1.22617,-3.017143 -1.55889,-3.017143 -0.58308,0 -1.67501,0.963072 -2.29875,2.027482 -0.8399,1.433282 -1.19186,3.387601 -0.64769,3.59642 0.26602,0.102081 0.35209,0.480861 0.28031,1.2336 -0.20087,2.106229 2.63807,6.767855 5.52153,9.066531 3.90585,3.113727 5.33541,3.511151 12.43152,3.456006 4.60374,-0.03578 5.30945,-0.09179 4.25142,-0.337473 z m 41.75429,-3.894906 c -0.93511,-2.129549 -1.10912,-2.252827 -1.5821,-1.120831 -0.29341,0.702216 -0.3567,1.535803 -0.23689,3.119937 l 0.16349,2.161695 1.17257,-1.295144 1.17257,-1.295144 z m -16.55431,1.696069 c 0,-1.1564 0.92785,-4.010494 1.73072,-5.323732 0.92601,-1.514658 2.67545,-3.28926 3.81647,-3.871365 0.95436,-0.486879 1.01772,-0.587117 0.72224,-1.142595 -0.6454,-1.213284 -2.38838,-3.398907 -3.06311,-3.841009 -0.6778,-0.444113 -0.70922,-0.431674 -1.71139,0.677612 -0.5615,0.621515 -1.45807,2.067675 -1.99237,3.213693 -0.81565,1.74949 -0.99082,2.464674 -1.09225,4.459362 -0.17271,3.396362 0.59321,7.39635 1.32916,6.94151 0.14329,-0.08856 0.26053,-0.589621 0.26053,-1.113476 z m 25.23428,-5.049326 c 0,-0.504551 -0.87383,-5.345955 -1.00252,-5.554407 -0.29017,-0.470024 -0.93355,-0.148218 -1.37093,0.685715 -0.30302,0.577777 -0.47439,1.566986 -0.48704,2.811428 -0.0186,1.833836 0.008,1.916188 0.59268,1.835027 0.3367,-0.04674 0.83042,0.04208 1.09714,0.197373 0.62367,0.36311 1.17067,0.374729 1.17067,0.02488 z M 149.0158,50.448814 c 0.016,-2.999259 0.85464,-5.534828 2.29181,-6.929557 0.60617,-0.588261 1.34639,-1.147093 1.64494,-1.241851 0.63834,-0.202601 0.54893,-0.698806 -0.19564,-1.085735 -0.29029,-0.150857 -1.27295,-0.730357 -2.18369,-1.28778 -2.25579,-1.38068 -3.17026,-1.713863 -3.45823,-1.259991 -0.37523,0.59142 -0.25862,6.339807 0.175,8.626499 0.34512,1.820037 1.42687,5.304129 1.64683,5.304129 0.0372,0 0.0727,-0.956571 0.079,-2.125714 z"
     id="path2488"
     inkscape:connector-curvature="0" />
</svg>
