<?xml version="1.0" encoding="UTF-8" standalone="no"?>
<!-- Created with Inkscape (http://www.inkscape.org/) -->

<svg
   xmlns:dc="http://purl.org/dc/elements/1.1/"
   xmlns:cc="http://creativecommons.org/ns#"
   xmlns:rdf="http://www.w3.org/1999/02/22-rdf-syntax-ns#"
   xmlns:svg="http://www.w3.org/2000/svg"
   xmlns="http://www.w3.org/2000/svg"
   xmlns:sodipodi="http://sodipodi.sourceforge.net/DTD/sodipodi-0.dtd"
   xmlns:inkscape="http://www.inkscape.org/namespaces/inkscape"
   version="1.1"
   id="svg2492"
   width="329.14285"
   height="438.85715"
   viewBox="0 0 329.14285 438.85715"
   sodipodi:docname="bar_boy_colorless[down].svg"
   inkscape:version="0.92.4 (5da689c313, 2019-01-14)">
  <metadata
     id="metadata2498">
    <rdf:RDF>
      <cc:Work
         rdf:about="">
        <dc:format>image/svg+xml</dc:format>
        <dc:type
           rdf:resource="http://purl.org/dc/dcmitype/StillImage" />
        <dc:title></dc:title>
      </cc:Work>
    </rdf:RDF>
  </metadata>
  <defs
     id="defs2496" />
  <sodipodi:namedview
     pagecolor="#ffffff"
     bordercolor="#666666"
     borderopacity="1"
     objecttolerance="10"
     gridtolerance="10"
     guidetolerance="10"
     inkscape:pageopacity="0"
     inkscape:pageshadow="2"
     inkscape:window-width="1920"
     inkscape:window-height="1046"
     id="namedview2494"
     showgrid="false"
     inkscape:zoom="2.1510416"
     inkscape:cx="142.34663"
     inkscape:cy="215.12286"
     inkscape:window-x="-32000"
     inkscape:window-y="-32000"
     inkscape:window-maximized="0"
     inkscape:current-layer="svg2492" />
  <path
     style="fill:#000000;stroke-width:0.2742857"
     d="m 144.11798,398.567 c -1.97612,-0.27618 -4.49765,-0.96757 -5.59127,-1.53312 -0.54352,-0.28106 -0.79017,-0.66416 -0.91003,-1.41345 -0.0904,-0.56533 -0.28036,-1.24101 -0.42205,-1.50147 -0.14169,-0.26049 -0.38482,-1.92677 -0.54028,-3.70286 -0.56265,-6.42813 -1.13064,-10.87436 -1.47806,-11.57033 -0.19503,-0.39072 -1.07867,-2.93209 -1.96364,-5.64751 -0.88497,-2.71543 -1.64968,-4.9942 -1.69935,-5.06389 -0.0497,-0.0697 -0.35335,0.0375 -0.67484,0.23827 -0.76374,0.47695 -1.08506,0.0528 -1.81944,-2.40157 -0.67444,-2.25408 -1.95966,-7.99918 -1.95966,-8.76 0,-0.30859 0.47508,-1.07056 1.05573,-1.69327 1.20035,-1.28725 1.15272,-0.41398 0.45686,-8.37669 -0.64179,-7.34411 -1.53035,-20.93902 -1.95407,-29.89714 l -0.15568,-3.29143 1.781,-7.40571 c 0.97955,-4.07315 2.04946,-8.39315 2.37758,-9.6 0.32811,-1.20686 0.71802,-2.74972 0.86646,-3.42858 0.14844,-0.67885 0.38456,-1.61085 0.52472,-2.07107 0.26938,-0.8846 0.61512,-8.18828 1.08369,-22.89319 0.1563,-4.9052 0.40196,-10.21262 0.54589,-11.79428 0.14394,-1.58166 0.45131,-5.7146 0.68304,-9.18431 0.55566,-8.31982 0.79398,-10.58622 1.79337,-17.0545 0.89943,-5.82132 1.33515,-8.08672 2.17798,-11.32362 0.2931,-1.12568 0.50764,-2.06762 0.47675,-2.09321 -0.0309,-0.0256 -0.83325,-0.43606 -1.78302,-0.91217 -0.94976,-0.47611 -1.78623,-1.02043 -1.85882,-1.2096 -0.0726,-0.18918 1.14982,-2.99255 2.71647,-6.22972 2.82941,-5.84639 4.35015,-9.19169 4.68619,-10.30864 0.12924,-0.42957 -0.12284,-0.96015 -0.95839,-2.0172 l -1.13377,-1.43432 1.12616,-1.14746 c 0.61938,-0.63111 1.12615,-1.2942 1.12615,-1.47354 0,-0.17934 -0.87272,-2.93263 -1.93939,-6.11842 -1.06666,-3.18579 -1.87778,-5.95291 -1.80247,-6.14916 0.19459,-0.50708 -4.66926,-13.6673 -6.38748,-17.28273 -0.43016,-0.90514 -1.2192,-2.57143 -1.75342,-3.70286 -0.87201,-1.84684 -2.24718,-5.95769 -2.98202,-8.91428 -0.28484,-1.14603 -0.37384,-5.98427 -0.13623,-7.40572 0.38772,-2.31949 2.74036,-6.84912 4.08981,-7.87428 1.38213,-1.04998 3.4506,-1.86286 4.74026,-1.86286 0.64078,0 2.67298,0.25611 4.516,0.56913 1.84303,0.31303 3.38543,0.52903 3.42756,0.48 0.0421,-0.049 -0.0166,-1.57027 -0.13061,-3.38056 -0.18849,-2.99379 -0.1598,-3.35956 0.3172,-4.0448 0.46669,-0.67041 0.51605,-1.18388 0.44833,-4.66286 -0.0631,-3.23855 -0.14672,-3.91582 -0.48754,-3.94642 -0.22629,-0.0203 -0.53765,-0.0512 -0.69191,-0.0686 -0.15427,-0.0174 -0.51497,-0.46705 -0.80156,-0.99922 -0.35673,-0.6624 -0.60998,-0.87868 -0.80295,-0.68571 -0.15502,0.15503 -0.78175,0.2813 -1.39272,0.2806 -0.85903,-0.001 -1.31295,-0.19068 -2.00229,-0.83676 -0.49028,-0.45952 -0.89143,-0.96335 -0.89143,-1.11961 0,-0.82842 -1.99828,-2.88133 -4.50032,-4.62336 -2.92954,-2.03965 -4.26829,-3.52293 -4.97153,-5.50825 -0.55972,-1.58014 -0.56043,-4.830237 -0.001,-6.168312 0.42007,-1.005389 0.40535,-1.106535 -0.55319,-3.799091 -1.31866,-3.70413 -2.4465,-9.704135 -2.16985,-11.543344 0.11346,-0.754286 0.17744,-2.688121 0.14218,-4.297413 -0.06,-2.737114 -0.0167,-3.006841 0.67,-4.178661 0.40377,-0.688973 1.34028,-1.797668 2.08114,-2.463766 0.95762,-0.86098 1.33305,-1.397409 1.29872,-1.855622 -0.10859,-1.448997 0.65989,-3.565994 1.68603,-4.644694 0.56199,-0.590773 1.19519,-1.07435 1.40712,-1.074621 0.21193,-2.69e-4 0.57047,-0.296218 0.79676,-0.657661 1.79121,-2.861091 3.7677,-5.507495 4.73886,-6.345071 1.34168,-1.157099 2.96218,-2.048206 3.72475,-2.048206 0.29214,0 1.47197,-0.854543 2.62185,-1.898982 3.57278,-3.245165 7.10944,-4.777371 10.76805,-4.665092 1.23423,0.03788 1.9101,-0.109281 2.96937,-0.646514 2.10234,-1.066247 4.43396,-1.638868 6.7103,-1.647985 6.22938,-0.02496 10.66463,4.248228 9.33573,8.994586 -0.3706,1.323659 -0.82317,1.64818 -0.82317,0.590262 0,-1.087861 -1.14016,-2.470113 -2.39936,-2.908802 -1.09656,-0.382031 -1.17691,-0.371756 -1.82043,0.232808 -0.64555,0.606462 -1.45412,2.137703 -1.23427,2.337435 0.058,0.05271 0.84606,0.467594 1.7512,0.92196 0.90515,0.454368 2.32458,1.294137 3.15429,1.866157 1.28662,0.887021 1.80005,1.06624 3.48973,1.218153 3.47165,0.312123 7.27288,2.598561 9.28335,5.583936 0.90225,1.33977 0.87955,2.068172 -0.0359,1.152691 -0.50415,-0.504154 -1.7304,-0.554447 -3.2476,-0.133199 l -1.07045,0.297214 1.48188,1.415544 c 0.81504,0.778547 1.71663,1.940114 2.00354,2.581257 0.51427,1.149207 0.54146,1.165799 1.92,1.171737 1.61893,0.007 3.54842,0.788311 3.99158,1.616374 0.34527,0.645131 -0.0958,0.81972 -0.45403,0.179698 -0.37936,-0.677891 -1.81536,-1.250079 -3.14167,-1.251834 l -1.27676,-0.0016 0.12854,1.165715 c 0.0707,0.641142 0.24409,1.991643 0.38533,3.00111 0.4519,3.229978 0.30408,6.963116 -0.41065,10.370318 -1.30524,6.222339 -1.82557,8.298361 -2.32698,9.284342 -0.28008,0.550754 -0.64361,2.11223 -0.80786,3.469944 -1.12452,9.295909 -0.8771,8.336619 -3.25,12.601169 -3.08091,5.53699 -8.4324,12.38573 -10.52257,13.46661 -0.42521,0.21988 -1.71965,0.54056 -2.87653,0.71263 l -2.10344,0.31284 0.18259,1.95052 c 0.26142,2.79256 0.27475,2.81841 1.38591,2.68869 1.24265,-0.14507 1.38434,0.23018 1.8103,4.79433 0.18062,1.93541 0.43677,3.63868 0.56921,3.78506 0.13259,0.14655 1.41119,0.23416 2.84543,0.19498 2.04188,-0.0558 2.63683,0.0127 2.75366,0.31718 0.0973,0.25368 0.78902,0.4514 1.99482,0.57021 2.46263,0.24267 4.37567,1.1537 5.28326,2.51602 2.11094,3.1686 5.04613,9.02964 8.06544,16.10524 0.95315,2.23365 2.19575,4.73308 2.76133,5.55428 l 1.02833,1.4931 h 2.66368 c 2.0331,0 2.74452,-0.0974 3.00514,-0.41143 0.20637,-0.24866 0.80675,-0.41143 1.5176,-0.41143 0.85963,0 1.681,-0.2857 3.05213,-1.06162 1.03179,-0.5839 4.02258,-2.15086 6.6462,-3.48214 l 4.77021,-2.42052 0.60082,-1.38643 c 0.33046,-0.76254 1.20359,-3.23359 1.9403,-5.49122 1.38153,-4.23376 1.87323,-5.08383 2.94058,-5.08383 0.48083,0 1.14457,-0.73197 2.92247,-3.22286 1.26518,-1.77257 2.65573,-3.60337 3.09011,-4.06845 0.79412,-0.85025 1.55457,-3.32473 2.01603,-6.56012 0.23193,-1.6261 0.52137,-2.05714 1.38135,-2.05714 0.41862,0 0.9513,-0.38838 1.54356,-1.12541 1.22069,-1.51905 3.87824,-3.47875 5.00394,-3.68993 1.1988,-0.2249 2.07184,0.2518 2.07184,1.13125 0,0.37685 -0.31195,1.3008 -0.69323,2.05322 -0.77904,1.53736 -0.8112,1.50022 1.50578,1.73882 1.4476,0.14907 1.56355,0.10923 3.42858,-1.17832 1.84942,-1.27677 3.99714,-2.22106 5.05166,-2.22106 0.68489,0 1.40758,0.86778 1.38854,1.66731 -0.018,0.7562 -0.46946,1.45249 -3.0699,4.7348 -1.01828,1.2853 -1.85143,2.39739 -1.85143,2.47132 0,0.0739 0.35749,0.21293 0.79442,0.3089 1.22796,0.2697 2.49701,2.09459 2.49701,3.5907 0,0.42109 0.34762,1.12761 0.81889,1.66436 1.11049,1.26477 1.29797,2.16013 0.68908,3.29078 -0.48037,0.89199 -0.47732,0.95557 0.12596,2.63295 1.04012,2.89193 1.07733,2.68668 -1.47436,8.13264 -1.29462,2.76307 -2.35386,5.14358 -2.35386,5.29003 0,0.14645 0.62911,1.44385 1.39802,2.88312 l 1.39802,2.61685 -0.83094,3.0115 c -0.45702,1.65631 -1.02409,3.15461 -1.26016,3.32954 -0.23607,0.17493 -0.6199,1.05382 -0.85295,1.95308 -0.49376,1.90522 -1.50187,3.36102 -2.50112,3.61181 -0.38746,0.0973 -1.99721,1.20906 -3.57722,2.4707 l -2.87276,2.2939 h -2.86708 c -2.77511,0 -3.00191,-0.048 -7.07112,-1.49517 -2.31223,-0.82234 -5.67074,-1.88749 -7.46337,-2.36701 -2.99741,-0.8018 -3.48375,-0.85827 -6.05234,-0.70286 -2.4092,0.14577 -2.97458,0.27684 -4.11428,0.95377 -3.18027,1.88895 -8.22207,5.32009 -12.15555,8.27231 -2.33829,1.75497 -5.02286,3.71221 -5.96572,4.34941 -0.94285,0.63721 -1.71428,1.35045 -1.71428,1.58498 0,0.53587 2.95805,9.58959 3.44636,10.5483 0.29566,0.58048 0.29715,0.82977 0.008,1.37142 -0.5433,1.01844 -3.42825,3.78839 -5.00793,4.80832 l -1.41623,0.9144 -0.114,3.22964 c -0.0741,2.09884 0.1538,6.49483 0.65085,12.55535 1.33075,16.22567 2.13442,29.04439 2.4419,38.94857 0.25389,8.17784 0.23984,9.76253 -0.0948,10.69714 -0.21609,0.60343 -1.40765,2.76343 -2.64793,4.8 -1.24028,2.03657 -3.58299,6.41829 -5.20602,9.73714 -1.62304,3.31886 -4.8631,9.61372 -7.20014,13.98857 -8.87659,16.61667 -11.0379,21.02911 -15.18669,31.00444 -2.52602,6.07354 -5.89459,14.92325 -6.58692,17.30482 l -0.44614,1.53466 -1.08156,-0.17297 -1.08157,-0.17293 -0.71241,1.58241 c -0.61142,1.35809 -0.72163,2.02006 -0.77738,4.66919 -0.0365,1.7342 -0.19663,3.2454 -0.36545,3.44881 -0.33688,0.40592 -0.008,3.06229 0.48627,3.92975 0.15867,0.27837 0.38917,0.93145 0.51223,1.4513 0.18723,0.79096 0.48579,1.08189 1.82955,1.78286 1.85345,0.96685 3.15171,2.27492 3.66038,3.68802 0.19594,0.54429 0.43078,2.43993 0.52188,4.2125 0.16278,3.16748 0.15548,3.22286 -0.42482,3.22286 -0.32474,0 -0.59044,0.17157 -0.59044,0.38126 0,0.53025 2.14566,3.35034 3.6591,4.80921 1.56636,1.50992 1.81484,2.68748 1.1769,5.5776 -0.24114,1.09243 -0.473,2.23307 -0.51526,2.53476 -0.0541,0.38608 -0.56319,0.74386 -1.71878,1.20782 -1.4453,0.5803 -2.15118,0.66854 -5.89339,0.7367 -2.33829,0.0426 -5.02991,-0.0313 -5.98139,-0.16432 z m 11.42418,-1.52073 c 1.27408,-0.50978 1.56687,-1.07498 0.38578,-0.74468 -0.41486,0.11602 -3.34629,0.20113 -6.51429,0.18917 -4.73384,-0.0178 -6.18756,-0.11997 -8.16,-0.5729 -1.74718,-0.40119 -2.4,-0.46135 -2.4,-0.22118 0,0.56248 3.03415,1.50772 6.03429,1.87987 0.528,0.0655 2.88468,0.0756 5.23708,0.0225 3.16651,-0.0715 4.5731,-0.21504 5.41714,-0.55277 z m 0.24693,-2.04737 c 1.03268,-0.29727 1.19773,-0.46028 1.46286,-1.44494 0.35529,-1.31942 -0.0621,-3.1909 -0.87582,-3.92733 -0.28422,-0.25723 -0.51677,-0.34023 -0.51677,-0.18443 0,0.16432 -1.00756,0.33224 -2.4,0.39993 -1.57627,0.0766 -2.63535,0.26905 -3.08571,0.56064 -1.02371,0.66281 -3.56099,1.31998 -5.2701,1.36493 -2.11606,0.0557 -3.14965,-0.5989 -4.21162,-2.66721 -0.6682,-1.30143 -1.00746,-1.67509 -1.64571,-1.81264 -1.84814,-0.39827 -1.83617,-0.40907 -1.63426,1.47612 0.37305,3.4831 0.74494,5.15133 1.20232,5.39331 0.41669,0.22047 3.74226,0.93775 5.66223,1.22128 1.6096,0.2377 10.16537,-0.0495 11.31258,-0.37966 z m -6.51258,-5.40434 c 1.28228,-0.5303 2.65989,-1.02366 3.06135,-1.09637 l 0.72993,-0.13218 -1.38366,-1.89641 c -0.93431,-1.28053 -1.61673,-1.94532 -2.10136,-2.047 -0.39473,-0.0828 -1.20103,-0.32601 -1.79178,-0.54042 -1.16954,-0.42449 -1.64398,-0.24335 -1.95853,0.7477 -0.17449,0.54975 -3.13714,2.14489 -3.98452,2.1453 -0.77163,0 -0.77908,0.30501 -0.0441,1.80362 1.25913,2.56731 3.11197,2.81916 7.47267,1.01576 z m 5.21143,-1.5513 c 0,-0.0569 -0.216,-0.27294 -0.48,-0.48 -0.43504,-0.34116 -0.44474,-0.33148 -0.10356,0.10357 0.35831,0.45688 0.58356,0.60219 0.58356,0.37643 z m -13.54997,-2.21379 c 1.27993,-0.13391 3.48402,-1.18582 3.32967,-1.58913 -0.0726,-0.18972 -0.40508,-1.57923 -0.73882,-3.0878 -0.33374,-1.50857 -0.74336,-3.02542 -0.91026,-3.37081 -0.1669,-0.34538 -0.31767,-0.96252 -0.33504,-1.37142 -0.10236,-2.40969 0.0181,-2.25044 -1.71558,-2.2684 -0.86743,-0.009 -2.16783,-0.11353 -2.88977,-0.23229 -0.79503,-0.13078 -1.37724,-0.11139 -1.47649,0.0492 -0.0901,0.14581 0.12545,2.89887 0.47906,6.11792 0.70845,6.44944 0.62986,6.26795 2.58434,5.96793 0.45257,-0.0694 1.20537,-0.16629 1.67289,-0.2152 z m 4.44376,-3.37149 c -0.39765,-0.47915 -0.50763,-0.32045 -0.30772,0.44401 0.11909,0.4554 0.22502,0.53014 0.38486,0.27152 0.12157,-0.19672 0.087,-0.51783 -0.0771,-0.71553 z m 6.02241,0.63549 c 0.0608,-0.0607 -0.0743,-0.39889 -0.30018,-0.75141 -0.74033,-1.15545 -2.82965,-6.35986 -3.34045,-8.32095 -0.27506,-1.056 -0.53758,-1.96813 -0.58338,-2.02697 -0.0458,-0.0588 -0.52016,0.31741 -1.05414,0.83605 l -0.97087,0.943 0.39271,1.22112 c 0.72114,2.24234 1.86492,5.33219 2.07656,5.60966 0.11506,0.15086 0.36111,0.7457 0.54678,1.32189 0.19306,0.59913 0.58999,1.15387 0.92717,1.29584 0.53547,0.22546 2.03553,0.14205 2.3058,-0.12823 z m 1.98665,-1.11807 c 0,-0.54857 -0.13714,-0.68572 -0.68571,-0.68572 -0.70526,0 -0.80789,0.18534 -0.51923,0.93757 0.28028,0.73039 1.20494,0.5371 1.20494,-0.25185 z m -6.85714,-0.65417 c 0,-0.33768 -1.27057,-1.13812 -1.47773,-0.93096 -0.23328,0.23328 0.65516,1.1737 1.10881,1.1737 0.20291,0 0.36892,-0.10922 0.36892,-0.24274 z m 6.72386,-2.56869 c -0.30886,-2.40721 -0.6699,-3.44185 -1.40197,-4.01771 l -0.69917,-0.54994 -0.83214,0.94774 c -0.81914,0.93295 -0.8256,0.96384 -0.41357,1.97527 1.31839,3.23629 1.1998,3.08464 2.41241,3.08464 h 1.1192 z m -8.09529,-0.84891 c 0,-0.20292 -0.2346,-0.58124 -0.52134,-0.84074 -0.70354,-0.6367 -1.07461,-0.0416 -0.42302,0.67836 0.56061,0.61947 0.94436,0.68544 0.94436,0.16238 z m -1.09714,-3.90081 c 0,-0.38721 0.30857,-1.10858 0.68571,-1.60304 0.88303,-1.1577 0.91352,-2.08229 0.0686,-2.07944 -0.8327,0.003 -3.93738,0.50661 -5.22819,0.84842 -0.91947,0.24348 -1.03506,0.36582 -0.96,1.01601 0.0814,0.70535 0.17279,0.74669 1.99568,0.90306 1.64893,0.14142 1.98467,0.2634 2.45355,0.89143 0.68376,0.91581 0.98468,0.92302 0.98468,0.0236 z m 5.74499,0.18347 c 0.22575,-0.4218 0.14955,-0.60508 -0.40177,-0.96631 -0.72943,-0.47794 -0.82483,-0.31444 -0.50748,0.8697 0.20206,0.75402 0.5383,0.78973 0.90925,0.0966 z m -14.95233,-0.91946 c -0.0714,-0.49029 -0.17815,-1.79603 -0.23719,-2.90164 -0.059,-1.10562 -0.15802,-2.0609 -0.21997,-2.12287 -0.062,-0.062 -0.49968,-0.19005 -0.97272,-0.28465 l -0.86007,-0.172 0.63591,2.02058 c 0.67378,2.14088 1.53219,4.35201 1.68956,4.35201 0.0519,0 0.0359,-0.40115 -0.0355,-0.89143 z m 2.62448,-0.8603 c 0,-0.21285 -0.36229,-0.43348 -0.82286,-0.50106 -0.89763,-0.13174 -1.19539,0.46949 -0.34285,0.69229 0.89594,0.23413 1.16571,0.18986 1.16571,-0.19123 z m 0.42514,-1.78464 c 0.33772,-0.31743 3.61691,-1.03913 5.83693,-1.28462 1.594,-0.17625 1.72361,-0.2395 1.58089,-0.77123 -0.0855,-0.31856 -0.15715,-0.85388 -0.15921,-1.18955 -0.003,-0.54328 -0.0819,-0.58064 -0.71523,-0.33987 -1.12255,0.42679 -5.57432,1.08505 -7.34643,1.08625 h -1.6122 l 0.18222,1.13955 c 0.10022,0.62677 0.24671,1.24391 0.32553,1.37143 0.18988,0.30723 1.57686,0.29774 1.9075,-0.0132 z m 9.17486,-0.0294 c 0,-0.15086 -0.12343,-0.27428 -0.27428,-0.27428 -0.15086,0 -0.27429,0.12342 -0.27429,0.27428 0,0.15086 0.12343,0.27429 0.27429,0.27429 0.15085,0 0.27428,-0.12343 0.27428,-0.27429 z m -5.93318,-3.9857 c 1.41812,-0.21589 3.05598,-0.67535 3.92754,-1.10178 l 1.495,-0.73144 -0.21159,-4.15339 c -0.34662,-6.80383 -0.22019,-17.7043 0.27882,-24.03912 1.21316,-15.40078 2.04005,-23.44109 3.44144,-33.46286 3.05005,-21.81187 3.73744,-25.47234 10.01818,-53.34857 0.20393,-0.90514 1.39097,-5.81117 2.63786,-10.90229 1.24688,-5.09112 2.20159,-9.32205 2.12157,-9.40207 -0.08,-0.08 -1.04048,0.17735 -2.13436,0.57193 -1.32602,0.47832 -2.08028,0.626 -2.26317,0.44311 -0.15087,-0.15087 -0.19482,-0.40293 -0.0977,-0.56014 0.21335,-0.3452 7.56225,-2.77911 8.39119,-2.77911 1.16056,0 0.45883,0.87879 -1.06902,1.33876 l -1.47738,0.44477 -0.89845,3.97681 c -0.49414,2.18724 -1.32531,5.6651 -1.84704,7.72857 -0.78857,3.11886 -0.9101,3.97487 -0.7204,5.07429 0.1255,0.72738 0.48681,3.54423 0.80291,6.25966 0.79183,6.80213 1.14241,8.72956 3.02122,16.61021 0.90008,3.77543 1.63652,6.9456 1.63652,7.04482 0,0.0992 0.14812,0.0323 0.32914,-0.14875 0.44371,-0.4437 1.31658,-0.41832 1.31658,0.0383 0,0.20208 -0.70972,0.91883 -1.57715,1.59279 -0.86743,0.67395 -3.14117,2.66686 -5.05277,4.42868 l -3.47563,3.20329 -2.19198,5.55821 c -2.29464,5.81851 -6.26618,16.82535 -7.00348,19.40961 -1.05499,3.69781 -2.8874,25.04426 -3.11202,36.25306 l -0.1576,7.86448 1.20531,0.31184 c 0.66292,0.17151 1.40971,0.37086 1.65953,0.44297 0.3551,0.1025 0.58618,-0.27511 1.05906,-1.73063 1.07322,-3.30328 4.89752,-13.11322 7.44083,-19.08686 2.84097,-6.67277 7.32696,-15.73591 13.53563,-27.34629 2.37979,-4.45028 5.95019,-11.36228 7.93423,-15.36 3.69637,-7.44801 4.88133,-9.64434 5.66451,-10.49926 0.24579,-0.2683 0.80472,-1.19402 1.24206,-2.05714 l 0.79518,-1.56931 -0.0649,-6.44572 c -0.0747,-7.41825 -0.41798,-14.85037 -1.172,-25.37142 -0.72306,-10.08905 -1.92847,-25.10018 -2.07461,-25.83538 l -0.11949,-0.6011 -1.98737,0.82052 c -2.43144,1.00386 -7.45082,2.36544 -10.6116,2.87855 -3.21403,0.52175 -11.48726,0.49999 -14.81049,-0.039 -2.50349,-0.406 -6.2137,-1.30101 -13.52192,-3.26187 -1.92158,-0.51558 -3.54073,-0.85418 -3.59811,-0.75245 -0.58598,1.03884 -2.24941,10.33722 -3.05078,17.05354 -0.92839,7.78088 -1.23388,11.35542 -1.93389,22.62857 -0.0749,1.20686 -0.25327,3.73715 -0.39628,5.62286 -0.14301,1.88572 -0.32474,5.40343 -0.40385,7.81714 -0.81448,24.85301 -0.77879,24.27429 -1.49723,24.27429 -0.5517,0 -0.53235,-0.0659 -3.22117,10.97143 l -1.77071,7.26857 0.28761,5.07429 c 0.15819,2.79085 0.4165,7.60457 0.57403,10.69714 0.52537,10.31408 1.61307,22.68011 2.77944,31.59933 l 0.59922,4.58219 1.39132,0.54493 c 2.31241,0.90571 2.93556,0.918 7.93814,0.15642 z m -10.12279,0.12911 c -0.0989,-0.15999 -0.47099,-2.29449 -0.82691,-4.74331 -0.35592,-2.44882 -0.7583,-4.75293 -0.89417,-5.12023 l -0.24704,-0.6678 -0.43217,0.83572 c -0.39691,0.76756 -0.39159,1.01313 0.0653,3.01111 1.18615,5.18661 1.73001,6.97539 2.12079,6.97539 0.21666,0 0.31304,-0.13089 0.21416,-0.29088 z m 16.97572,-11.56855 c -0.30862,-0.49934 -0.64469,-0.13868 -0.63574,0.68228 l 0.01,0.89143 0.37764,-0.68228 c 0.20771,-0.37523 0.31948,-0.77637 0.24838,-0.89143 z m 5.1026,-56.16343 c 0.94392,-2.64 2.55323,-6.89829 3.57624,-9.46286 1.02302,-2.56457 1.9047,-4.81415 1.95929,-4.99905 0.10092,-0.34176 6.30473,-6.25593 7.81246,-7.44769 l 0.82544,-0.65245 -1.04479,-4.55897 c -0.57463,-2.50744 -1.22124,-5.11441 -1.43692,-5.79327 -0.68315,-2.15028 -2.41701,-13.12038 -2.92625,-18.51428 -0.0142,-0.15086 -0.19231,0.64535 -0.3957,1.76936 -0.20339,1.124 -0.4959,2.29657 -0.65004,2.60571 -0.3413,0.68455 -3.14043,13.06025 -4.65587,20.58493 -2.16975,10.77347 -5.4845,32.10786 -4.876,31.38286 0.0528,-0.0629 0.86822,-2.27429 1.81214,-4.91429 z m 21.54337,-78.27908 c 3.61287,-0.85835 5.98214,-1.61724 8.31603,-2.66369 l 1.73318,-0.7771 -0.0599,-2.13435 c -0.0803,-2.86251 -0.23774,-3.64293 -0.73507,-3.64293 -0.22785,0 -1.601,0.4738 -3.05143,1.05289 -1.45042,0.57908 -3.47028,1.27626 -4.48857,1.54928 -2.00696,0.5381 -2.02412,0.56385 -1.87081,2.80655 0.0503,0.7359 -0.0916,0.97615 -0.85156,1.44214 -2.21727,1.35953 -6.74052,2.63541 -10.66762,3.00904 -2.14896,0.20446 -1.6348,0.23166 3.03571,0.16057 4.92351,-0.075 5.99811,-0.17475 8.64,-0.8024 z m -8.83556,-0.84984 c 2.8389,-0.49506 6.23376,-1.68077 6.72905,-2.35022 0.78131,-1.05605 0.25425,-29.511 -0.59189,-31.95502 -0.41996,-1.21302 -0.23597,-1.18738 -4.70012,-0.65516 -1.2029,0.14341 -4.49999,0.26075 -7.32686,0.26075 -4.45215,0 -5.33409,-0.0727 -6.59236,-0.54349 -1.84865,-0.69167 -4.39013,-3.23538 -6.92471,-6.9308 -1.00882,-1.47086 -1.91725,-2.66767 -2.01874,-2.65959 -0.25523,0.0203 -3.88739,4.88886 -3.88739,5.21064 0,0.14321 -0.10657,0.26038 -0.23683,0.26038 -0.33513,0 -0.22143,0.79799 0.27355,1.92 0.23293,0.528 1.07593,2.93486 1.87334,5.34857 0.7974,2.41371 1.53496,4.48295 1.63903,4.59829 0.10407,0.11535 -0.34196,0.76408 -0.99117,1.44163 l -1.18038,1.23191 0.95695,1.25366 c 0.52632,0.68952 0.95694,1.42479 0.95694,1.63394 0,0.6937 -1.10465,3.21214 -4.27178,9.73902 -1.72366,3.55215 -3.13393,6.609 -3.13393,6.79301 0,0.3622 0.61061,0.66784 3.97714,1.99075 4.28389,1.6834 8.67404,2.81529 14.12572,3.64196 1.9173,0.29074 9.18422,0.143 11.32444,-0.23023 z m 10.89358,-7.01548 c 2.38712,-0.6615 5.86776,-2.05314 6.86784,-2.74591 0.43643,-0.30232 0.87272,-1.03957 1.16625,-1.97074 l 0.46896,-1.48773 -1.10856,-2.5799 c -0.9163,-2.13247 -1.07871,-2.37773 -0.93643,-1.41418 0.15566,1.05418 0.11734,1.16571 -0.40055,1.16571 -0.31497,0 -0.57268,-0.0508 -0.57268,-0.11288 0,-0.0621 -0.36241,-2.68494 -0.80537,-5.82857 -0.44295,-3.14363 -0.94112,-7.19511 -1.10703,-9.00329 -0.16591,-1.80818 -0.38978,-3.37402 -0.49748,-3.47966 -0.10771,-0.10563 -1.49183,0.57542 -3.07583,1.51346 l -2.88,1.7055 -0.0936,1.77415 c -0.1025,1.94368 0.70905,23.03129 0.88636,23.03129 0.0226,0 0.96224,-0.25526 2.08809,-0.56725 z m 12.28711,-4.82961 c 1.08618,-1.02956 1.97486,-2.00576 1.97486,-2.16935 0,-0.34844 -4.42003,-8.09382 -5.81847,-10.19591 -0.52766,-0.79317 -1.55813,-2.60884 -2.28992,-4.03482 -0.7318,-1.42598 -1.36998,-2.55325 -1.4182,-2.50504 -0.32652,0.32653 0.6659,5.92072 1.46469,8.25627 0.51596,1.50857 1.0741,3.17486 1.24032,3.70286 0.16623,0.528 0.73108,1.97011 1.25522,3.20469 l 0.953,2.24469 -0.43618,1.50038 c -0.23989,0.82521 -0.43617,1.82922 -0.43617,2.23113 v 0.73075 l 0.76799,-0.54686 c 0.4224,-0.30077 1.65668,-1.38923 2.74286,-2.41879 z m -2.16637,-15.87832 c -2.42671,-7.7473 -3.46893,-10.61107 -3.51565,-9.66018 -0.0127,0.25869 -0.30083,0.61695 -0.64026,0.79612 -0.33943,0.17918 -0.9377,0.58467 -1.32949,0.90108 l -0.71234,0.57531 1.85453,3.64926 c 1.70659,3.35816 6.61744,11.87678 6.76535,11.73554 0.0351,-0.0335 -1.0549,-3.6322 -2.42214,-7.99713 z m 4.44143,-1.1444 c 3.41161,-2.44406 4.31322,-3.09854 7.84496,-5.6947 1.64177,-1.20686 3.28875,-2.40194 3.65994,-2.65575 0.64825,-0.44323 0.54491,-0.45948 -2.61652,-0.41143 -3.17319,0.0482 -3.30116,0.0279 -3.56219,-0.56711 -0.32964,-0.75136 -0.72687,-0.7634 -6.86067,-0.20783 -2.41372,0.21862 -4.54286,0.4011 -4.73143,0.40552 -0.47438,0.0111 -0.42967,0.46993 0.17276,1.77286 0.28359,0.61334 1.04305,2.84317 1.68769,4.95517 1.2871,4.21689 1.30018,4.25143 1.61022,4.25143 0.11849,0 1.37635,-0.83167 2.79524,-1.84816 z m -12.37679,-6.40037 c 1.67213,-0.9364 3.1187,-1.82948 3.21459,-1.98464 0.0959,-0.15515 0.2665,-1.21787 0.37913,-2.36161 0.11263,-1.14373 0.5245,-4.45309 0.91526,-7.35414 0.39076,-2.90104 0.70579,-5.43133 0.70006,-5.62285 -0.013,-0.4348 -1.44308,-1.43852 -5.4592,-3.83163 -1.726,-1.02848 -3.22248,-1.77631 -3.32552,-1.66185 -0.27716,0.30787 -1.2569,3.54977 -1.59639,5.28239 -0.5146,2.62626 -1.29767,11.01632 -1.25439,13.44 0.0472,2.64319 0.32906,4.58652 0.69835,4.81475 0.13773,0.0851 0.25042,0.43137 0.25042,0.76944 0,1.07778 0.53614,1.33447 1.54455,0.7395 0.49109,-0.28975 2.261,-1.29296 3.93314,-2.22936 z m -12.19769,-0.94205 c 2.56457,-0.2212 4.67563,-0.40381 4.69125,-0.4058 0.0156,-0.002 0.10086,-2.07105 0.18942,-4.59791 0.0886,-2.52686 0.36288,-6.1792 0.60958,-8.11631 0.24671,-1.93711 0.40833,-3.56202 0.35916,-3.61091 -0.0492,-0.0489 -3.4897,-0.16745 -7.64561,-0.26346 -8.67183,-0.20034 -7.95876,-0.40001 -9.02767,2.52782 -0.65976,1.80711 -1.38184,2.30011 -1.38184,0.94344 0,-0.42397 0.29981,-1.53588 0.66625,-2.47092 l 0.66625,-1.70007 -2.04003,-5.4148 c -2.13763,-5.67382 -5.06188,-11.8587 -7.03427,-14.87765 -1.43138,-2.19089 -4.68538,-5.63643 -6.91424,-7.32124 -1.85123,-1.39935 -5.17827,-3.10162 -6.06205,-3.10162 -1.05352,0 -3.34611,3.026 -4.26006,5.62286 -0.74233,2.10926 -0.99967,5.95835 -0.53767,8.04227 0.91452,4.12511 1.79589,6.91691 3.19642,10.12498 2.019,4.62472 4.3681,10.53115 6.13789,15.43275 0.7898,2.18743 1.51374,4.06086 1.60876,4.16319 0.095,0.10232 1.00363,-0.90467 2.01915,-2.23775 l 1.84641,-2.42379 -5.25787,-7.91083 c -2.89183,-4.35095 -5.26557,-8.15767 -5.27498,-8.45939 -0.0515,-1.65111 1.5545,0.31273 5.41573,6.62247 1.8421,3.01022 4.84537,7.35052 5.74431,8.30163 0.41485,0.43893 0.75428,0.87285 0.75428,0.96426 0,0.30341 3.95735,5.97344 4.97989,7.1351 1.35014,1.53384 2.9984,2.63934 4.56315,3.06052 1.74205,0.46891 6.34597,0.45784 11.98839,-0.0288 z m 69.94692,-1.54154 c 0.60119,-0.32095 1.48674,-0.92775 1.96788,-1.34845 l 0.87481,-0.76491 -2.58909,0.15446 c -2.27221,0.13557 -2.58909,0.0998 -2.58909,-0.29203 0,-0.51015 0.45718,-0.63415 3.19584,-0.86679 1.07886,-0.0916 2.74015,-0.38619 3.69176,-0.65453 1.55967,-0.43981 1.79456,-0.60361 2.38319,-1.66187 0.35915,-0.64569 0.54929,-1.27714 0.42253,-1.40322 -0.12676,-0.12608 -1.50647,0.0726 -3.06603,0.44154 -3.31601,0.78442 -5.25586,0.88015 -5.25586,0.25934 0,-0.30901 0.33027,-0.41142 1.32677,-0.41142 1.37583,0 5.84224,-1.21786 7.35688,-2.006 0.81796,-0.42563 1.29158,-1.2851 1.87973,-3.41115 0.2401,-0.86791 -0.24323,-0.80895 -3.97743,0.48512 -2.27728,0.78918 -3.59578,1.09203 -4.75429,1.09203 -2.15614,0 -1.97686,-0.62188 0.24745,-0.85833 0.89306,-0.0949 3.01609,-0.67891 4.71784,-1.2977 4.25166,-1.54599 4.2685,-1.55669 4.06357,-2.58133 -0.1836,-0.918 -1.72509,-3.49122 -2.09142,-3.49122 -0.12383,0 -0.51211,0.5166 -0.86284,1.14799 -0.72361,1.30265 -0.78082,1.32548 -5.43769,2.17029 -3.85365,0.69909 -6.11792,0.58938 -9.25726,-0.44856 -1.90809,-0.63086 -2.35393,-0.89536 -2.843,-1.6867 -0.56724,-0.91781 -0.56946,-0.96693 -0.1004,-2.22648 0.80918,-2.17286 1.56152,-2.91615 4.31772,-4.26585 1.4051,-0.68806 2.84215,-1.55698 3.19346,-1.93092 0.78747,-0.83822 1.16496,-3.18262 0.51246,-3.18262 -0.54118,0 -5.81056,1.96107 -7.27009,2.70566 -1.45298,0.74126 -7.04883,6.26606 -8.37205,8.26577 -0.54903,0.82971 -1.34403,1.91451 -1.76668,2.41067 -0.85329,1.0017 -1.23804,1.06025 -7.82778,1.19136 l -2.94505,0.0586 -0.12945,0.84397 c -0.28396,1.85123 -1.01997,10.35303 -0.90613,10.46687 0.0669,0.0669 1.59079,-0.0885 3.38649,-0.34533 3.979,-0.56906 7.67984,-0.55508 10.32923,0.039 2.61105,0.58548 9.30023,2.75407 10.57946,3.4298 1.518,0.80185 6.07228,0.78563 7.59456,-0.0271 z m -35.23046,-0.96204 1.80217,-0.17026 0.60076,-5.51922 c 0.33042,-3.03557 0.59944,-6.0874 0.59783,-6.78183 l -0.003,-1.26261 -2.11094,-0.17844 c -1.16103,-0.0981 -2.20051,-0.0854 -2.30997,0.0283 -0.21767,0.22614 -1.88766,11.95103 -1.88766,13.25313 0,0.912 0.11115,0.93318 3.31075,0.63091 z m 4.26727,-0.8721 c -0.8586,-0.10221 -1.43906,0.27562 -1.1477,0.74706 0.12531,0.20275 0.46198,0.14617 1.05953,-0.17805 l 0.87587,-0.47523 z m -16.35516,0.23864 c 1.73486,-0.14708 4.17257,-0.34695 5.41714,-0.44416 1.24457,-0.0972 2.26286,-0.28234 2.26286,-0.4114 0,-0.3441 1.06285,-8.07833 1.36914,-9.96304 0.14433,-0.88813 0.18689,-1.737 0.0946,-1.88637 -0.16298,-0.26371 -12.02047,-0.0516 -13.01339,0.23281 -0.32966,0.0944 -0.5273,0.7658 -0.78227,2.65734 -0.18764,1.39205 -0.54457,4.01215 -0.79318,5.82244 -0.6139,4.47024 -0.60127,4.52524 1.00511,4.37781 0.70715,-0.0649 2.70516,-0.23835 4.44002,-0.38543 z m 2.4277,-13.88275 c 0.0529,-0.0468 -0.20705,-0.49428 -0.57778,-0.99448 -0.37072,-0.50019 -1.13872,-2.0203 -1.70665,-3.37801 -2.02697,-4.8457 -2.6697,-6.25038 -4.43165,-9.68531 -4.83322,-9.42238 -5.15208,-9.81017 -8.4581,-10.28645 -1.12716,-0.16238 -2.1003,-0.24031 -2.16254,-0.17317 -0.0623,0.0671 0.30479,1.9735 0.81563,4.23636 0.51083,2.26285 1.05456,4.88707 1.20827,5.8316 0.34586,2.12528 2.00498,7.67985 2.85013,9.54203 0.56937,1.2545 0.86886,1.52596 3.17736,2.88 1.4018,0.82221 2.68509,1.71791 2.85175,1.99042 0.27443,0.44873 0.58772,0.47786 3.32017,0.30877 1.65942,-0.1027 3.06046,-0.22499 3.11341,-0.27176 z m 17.81836,-0.26401 c 0.19834,-0.17259 -1.48915,-2.30569 -1.83157,-2.31522 -0.51171,-0.0142 -2.50592,1.12864 -2.50592,1.43614 0,0.13661 0.26388,0.46205 0.58639,0.72321 0.45067,0.36493 0.94264,0.44658 2.12571,0.35279 0.84663,-0.0671 1.57806,-0.15573 1.62539,-0.19692 z m 5.32764,-0.12896 c 0.58583,-0.002 0.90983,-0.25858 1.47422,-1.16809 0.39786,-0.64115 1.3054,-1.84457 2.01676,-2.67429 l 1.29338,-1.50857 0.18658,-4.36723 c 0.10262,-2.40198 0.31613,-4.52332 0.47445,-4.71409 0.15833,-0.19077 0.98895,-0.43219 1.84582,-0.53649 2.38779,-0.29063 4.33369,-1.11639 5.14868,-2.18489 0.38925,-0.51033 0.62814,-1.05664 0.53088,-1.21402 -0.23078,-0.3734 -3.27055,-0.33589 -6.04161,0.0746 l -2.19429,0.32502 -1.28062,3.84 c -0.70435,2.112 -1.61127,5.22857 -2.01539,6.92571 -0.53903,2.26375 -0.84633,3.08572 -1.15365,3.08572 -0.31917,0 -0.37973,-0.19592 -0.25434,-0.82286 0.10656,-0.53281 0.0534,-0.82286 -0.15097,-0.82286 -0.4641,0 -4.09331,1.85354 -4.82952,2.46657 -0.70811,0.58964 -0.61772,0.93613 0.70701,2.70981 0.66624,0.89204 0.74066,0.91897 2.0913,0.75667 0.77025,-0.0925 1.73835,-0.16935 2.15131,-0.17067 z m 22.62437,-0.26419 c 1.99466,-0.29346 3.89124,-0.67517 4.21462,-0.84824 0.60589,-0.32426 4.11743,-7.32352 5.60668,-11.17533 0.66672,-1.72441 0.71938,-2.05114 0.3826,-2.37367 -0.42811,-0.41 -10.6733,-1.65555 -16.21622,-1.97147 l -3.20854,-0.18288 -0.96874,0.85057 c -0.86206,0.75689 -2.61946,1.44289 -5.45919,2.13099 -0.42704,0.10348 -0.81871,0.32655 -0.87038,0.49571 -0.185,0.60571 -0.34081,6.4788 -0.17163,6.46972 0.095,-0.005 1.03673,-0.80265 2.09273,-1.77235 1.056,-0.96969 2.50709,-2.08452 3.22464,-2.47739 1.55821,-0.85315 7.70367,-3.14671 8.43142,-3.14671 0.70776,0 0.87716,0.74166 0.55608,2.43467 -0.43212,2.27856 -0.91733,2.7633 -4.70006,4.69552 -2.25713,1.15294 -3.38213,2.24683 -3.67308,3.57153 -0.36587,1.66579 0.92984,2.68016 4.38434,3.43234 2.20293,0.47966 2.21165,0.47948 6.37473,-0.13301 z m -67.25204,-2.44677 c -0.24456,-0.94378 -0.73793,-1.99315 -1.14056,-2.42591 -0.39026,-0.41946 -2.64043,-3.16818 -5.00037,-6.10826 -2.35995,-2.94009 -5.07464,-6.14923 -6.03266,-7.13143 -0.95801,-0.9822 -2.18948,-2.34125 -2.7366,-3.0201 -1.36242,-1.69049 -6.2104,-6.76014 -7.68491,-8.03633 -0.98213,-0.85002 -1.3487,-1.01274 -1.97275,-0.87568 -0.51634,0.11341 -0.84111,0.0412 -0.99518,-0.2214 -0.40143,-0.68407 -7.31154,-1.80751 -8.80781,-1.43197 -0.68097,0.17091 -0.59546,0.25492 1.24578,1.22379 2.55828,1.34618 4.39202,2.77578 6.95173,5.41961 2.55997,2.6441 4.35756,5.29546 6.47682,9.55304 1.73781,3.49122 1.9262,3.93823 4.44704,10.55179 l 1.62049,4.25143 6.12433,0.0697 c 3.36839,0.0383 6.49462,0.10004 6.94719,0.13714 0.45257,0.0371 0.86012,-0.0134 0.90565,-0.11234 0.0455,-0.0989 -0.11115,-0.92827 -0.34819,-1.84306 z m 2.21518,1.9501 c 0.16724,-0.11084 0.66348,-1.23881 1.10277,-2.5066 0.43928,-1.2678 0.98612,-2.42331 1.2152,-2.56781 0.30253,-0.19083 0.78345,-0.03 1.75747,0.5877 0.73754,0.46773 1.38424,0.80715 1.43713,0.75427 0.0529,-0.0529 -0.39593,-1.64579 -0.99736,-3.5398 -0.60143,-1.89401 -1.46248,-5.21278 -1.91345,-7.37504 -1.05503,-5.0585 -1.62412,-7.54779 -1.98377,-8.67731 -0.27222,-0.85493 -0.35261,-0.90125 -1.42811,-0.82286 -1.07302,0.0782 -1.14768,0.13921 -1.2768,1.04307 -0.0754,0.528 -0.061,4.60115 0.0321,9.05143 0.15902,7.60216 0.29631,9.13395 1.223,13.64572 0.13292,0.64716 0.32665,0.742 0.8318,0.40723 z m -3.12811,-14.3958 c -0.0701,-4.71429 -0.23514,-8.85813 -0.36678,-9.20853 -0.14989,-0.39899 -0.41844,-0.60312 -0.71855,-0.54617 -0.37316,0.0708 -0.50954,0.45457 -0.61634,1.73425 -0.15103,1.80973 -0.0514,1.75706 -2.26245,1.19591 -0.71635,-0.18181 -1.38117,-0.25184 -1.47738,-0.15564 -0.16341,0.16342 1.08438,7.61403 1.42291,8.49622 0.0848,0.22099 -0.0478,0.60379 -0.29469,0.85067 -0.41565,0.41565 -0.36869,0.54959 0.63429,1.80929 1.16387,1.46176 3.66998,4.39542 3.75483,4.39542 0.0284,0 -0.006,-3.85714 -0.0758,-8.57142 z m -6.70117,-0.52429 c -0.79542,-1.27466 -1.93993,-3.26596 -2.54336,-4.42511 -0.60343,-1.15915 -1.15885,-2.10613 -1.23428,-2.10441 -0.0754,0.002 -0.44476,0.23949 -0.82074,0.52835 l -0.68359,0.5252 0.54645,0.6912 c 1.51323,1.91407 6.04175,7.23214 6.10695,7.17168 0.0411,-0.0381 -0.57601,-1.11225 -1.37143,-2.38691 z m 85.6395,-0.88222 c 0,-0.20786 -0.18968,-0.83188 -0.4215,-1.38671 -0.4976,-1.19093 -0.94862,-1.15529 -2.78014,0.21971 -1.20167,0.90215 -1.21785,1.14484 -0.0898,1.34721 1.61854,0.29037 3.29143,0.19877 3.29143,-0.18021 z m -85.14172,-2.69324 c -0.24738,-1.40342 -0.50319,-2.79983 -0.56848,-3.10313 -0.10171,-0.47251 -0.296,-0.53734 -1.3573,-0.45293 l -1.23859,0.0985 0.43259,0.86436 c 1.06928,2.13649 2.95183,5.37461 3.06111,5.26533 0.0662,-0.0662 -0.082,-1.26871 -0.32933,-2.67214 z m 78.28458,1.12183 c 0,-0.96819 -0.0675,-1.09764 -0.48,-0.92121 -1.11011,0.47476 -1.87613,0.43224 -2.60976,-0.14484 -1.4063,-1.10619 -0.83539,-4.00118 1.1633,-5.89889 l 0.86663,-0.82286 -1.87008,-0.33232 c -1.02855,-0.18278 -3.84495,-0.40852 -6.25867,-0.50164 l -4.38857,-0.16931 -1.30917,1.87306 c -0.72004,1.03019 -1.86176,2.60728 -2.53714,3.50465 -0.67539,0.89737 -1.22797,1.73051 -1.22797,1.85143 0,0.12091 1.2424,0.21985 2.76089,0.21985 2.91714,0 3.82196,0.25218 3.82196,1.06523 0,0.43993 0.43547,0.53604 3.77143,0.83236 2.07429,0.18425 4.01829,0.37129 4.32,0.41564 0.30172,0.0443 1.32,0.0974 2.26286,0.11798 l 1.71429,0.0374 z m 2.88,0.0496 c 0.45257,-0.28944 1.54112,-1.20429 2.41899,-2.03301 l 1.59614,-1.50675 -0.42028,-0.81274 c -0.23115,-0.447 -0.59352,-0.8792 -0.80525,-0.96045 -0.55447,-0.21277 -3.58427,2.33311 -4.11989,3.46186 -0.98931,2.08481 -0.37399,2.94103 1.33029,1.85109 z m -1.77593,-3.7917 c 1.56602,-1.16915 3.08086,-2.52753 3.36631,-3.01864 0.50986,-0.8772 0.50968,-0.91087 -0.0107,-1.91357 -0.4021,-0.77484 -0.75457,-1.06665 -1.4635,-1.21164 -0.97873,-0.20018 -1.62478,0.10213 -1.62478,0.76029 0,0.20781 0.18515,0.37784 0.41143,0.37784 0.89293,0 0.32289,0.73275 -1.28027,1.64572 -1.83073,1.04255 -3.24545,2.83551 -3.24545,4.11312 0,0.66185 0.42924,1.37259 0.82895,1.37259 0.0939,0 1.45196,-0.95657 3.01798,-2.12571 z m -84.75071,-1.17404 c 0.94978,-0.75224 1.03678,-0.92807 0.91608,-1.85143 -0.36473,-2.79022 -0.26135,-2.61968 -2.17831,-3.59346 -0.98921,-0.5025 -1.83848,-0.86967 -1.88725,-0.81593 -0.0975,0.10745 1.07843,6.05585 1.32339,6.69418 0.22726,0.59224 0.66119,0.48926 1.82609,-0.43336 z m 8.3034,-3.28311 c -0.22757,-1.88571 -0.46556,-3.48226 -0.52887,-3.54789 -0.0633,-0.0656 -0.61313,0.36637 -1.22182,0.96 l -1.10671,1.07932 0.12796,2.01049 c 0.0704,1.10577 0.20987,2.0932 0.30999,2.19429 0.1459,0.1473 2.62449,0.81313 2.78937,0.74933 0.0241,-0.009 -0.14236,-1.55982 -0.36992,-3.44554 z m -3.88473,1.12353 c -0.12192,-1.66137 -0.52872,-2.22067 -1.61516,-2.22067 -1.01602,0 -1.04691,0.11862 -0.56949,2.18692 0.32126,1.39177 0.33433,1.40509 1.29891,1.32379 0.97184,-0.0819 0.97416,-0.0853 0.88574,-1.29004 z m -7.98043,0.1488 c -0.15134,-0.39807 -0.47065,-0.72376 -0.70957,-0.72376 -0.45936,0 -0.35788,0.32065 0.36943,1.1674 0.54407,0.63341 0.68149,0.45417 0.34014,-0.44364 z m -0.37143,-2.18933 c -0.0778,-0.20263 -0.22862,-1.06663 -0.33524,-1.92 -0.19319,-1.54625 -0.19135,-1.55157 0.53708,-1.55157 0.40202,0 1.0951,0.18831 1.54018,0.41847 0.44508,0.23016 0.80203,0.32273 0.79322,0.20572 -0.009,-0.11702 -1.01454,-0.70648 -2.23495,-1.3099 -2.9109,-1.43928 -5.20264,-2.91137 -7.14332,-4.58848 l -1.57714,-1.36287 v 1.91285 c 0,2.85223 0.21015,3.60323 1.06356,3.80065 0.39562,0.0915 1.615,1.04425 2.70976,2.11718 1.24698,1.22211 2.37395,2.06995 3.01714,2.26985 1.40936,0.43801 1.79539,0.43995 1.62971,0.008 z m 86.99555,0.19728 c 0.98147,-0.19629 1.25721,-0.89682 1.56787,-3.98334 0.16234,-1.61291 0.12413,-1.85424 -0.33148,-2.0935 -1.77487,-0.93206 -11.65384,-1.44233 -12.15935,-0.62805 -0.13402,0.21589 -0.38532,1.20332 -0.55844,2.19428 -0.17311,0.99097 -0.3759,2.13245 -0.45063,2.53661 -0.12731,0.68848 -0.0612,0.74406 1.04735,0.88073 0.65078,0.0802 3.09638,0.37949 5.43467,0.66501 2.33829,0.28552 4.32857,0.53719 4.42286,0.55927 0.0943,0.0221 0.5565,-0.0369 1.02715,-0.13101 z m -73.83407,-1.80021 c -0.0876,-0.2188 -0.15255,-0.15381 -0.16571,0.16572 -0.0119,0.28914 0.0529,0.45114 0.14406,0.36 0.0911,-0.0911 0.10088,-0.32772 0.0216,-0.52572 z m -4.85022,-0.71576 c 0,-0.84619 0.19725,-1.23409 1.05198,-2.06871 l 1.05198,-1.02723 -0.35619,-1.83986 c -0.1959,-1.01193 -0.36072,-2.52779 -0.36626,-3.3686 l -0.0101,-1.52873 -1.60896,-0.29922 c -2.04445,-0.3802 -6.18988,-2.34397 -11.34797,-5.37574 -2.22345,-1.30688 -4.10573,-2.37615 -4.18285,-2.37615 -0.0771,0 -0.14021,2.12016 -0.14021,4.71145 v 4.71146 l 0.89143,0.77867 c 1.86907,1.63265 4.28993,3.22807 7.2,4.74501 2.62866,1.37024 3.04586,1.68353 3.24016,2.43308 0.32093,1.23802 0.88807,1.54605 2.84655,1.54605 h 1.73044 z m 3.49307,-1.4271 c 0.6643,0 0.88922,0.13897 0.9989,0.61715 0.0779,0.33943 0.0825,-0.11711 0.0103,-1.01452 -0.0722,-0.89741 -0.19209,-1.69247 -0.26641,-1.76679 -0.21804,-0.21802 -3.13871,2.79197 -3.13871,3.23468 0,0.27593 0.24327,0.17048 0.76929,-0.33348 0.49953,-0.47858 1.06994,-0.73704 1.62664,-0.73704 z m 80.55046,-3.36 c 0.99268,-1.24457 1.80555,-2.41714 1.80638,-2.60571 0.004,-0.97758 -2.98479,0.0713 -4.63443,1.62616 -0.91268,0.86027 -0.92018,0.88527 -0.34286,1.14288 0.32463,0.14485 0.59023,0.48126 0.59023,0.74759 0,0.65797 0.28458,1.35194 0.5544,1.35194 0.12178,0 1.0336,-1.01828 2.02628,-2.26286 z m -10.62421,-1.09714 c 0.47776,-0.64945 1.55344,-3.22152 1.40808,-3.36687 -0.50861,-0.50861 -4.82198,2.87097 -4.44426,3.48214 0.22351,0.36164 2.75608,0.2655 3.03618,-0.11527 z m -67.11075,-5.75322 c 1.17518,-0.49152 4.50987,-4.0015 6.68894,-7.04057 1.77821,-2.48 1.75433,-2.11995 0.31103,-4.68768 -0.83358,-1.48298 -0.88018,-2.55833 -0.14283,-3.29567 0.65676,-0.65676 1.0536,-0.68569 1.84096,-0.1342 0.37447,0.26228 0.65448,0.31262 0.76294,0.13714 0.22747,-0.36806 1.42957,-0.3556 1.65998,0.0172 0.2376,0.38445 0.73341,-0.34757 1.3141,-1.94015 0.81212,-2.22726 1.6911,-9.881676 1.68509,-14.674276 -0.005,-4.365186 -0.0104,-4.400264 -0.93293,-6.582857 -0.51009,-1.206857 -1.02582,-2.322679 -1.14605,-2.479603 -0.15014,-0.195955 -1.0177,-0.162268 -2.76992,0.107558 -1.93109,0.29737 -5.82496,0.400071 -16.01754,0.422463 -10.88867,0.02392 -13.55192,0.100674 -13.91394,0.400998 -0.24625,0.20428 -1.20303,1.685422 -2.12619,3.291428 -1.97933,3.443419 -2.56324,5.629076 -2.31232,8.655355 0.20902,2.520886 0.9172,7.436834 1.24823,8.664654 0.14235,0.528 0.25951,1.34603 0.26035,1.81784 8.2e-4,0.47182 0.18323,1.00864 0.40531,1.19295 0.34619,0.28732 0.34898,0.38991 0.0196,0.7193 -0.49485,0.49486 -0.69766,0.48617 -0.69766,-0.0299 0,-0.22775 -0.58628,-0.69898 -1.30286,-1.04717 -0.71657,-0.3482 -1.2738,-0.77358 -1.2383,-0.94528 0.17826,-0.86214 -0.78509,-4.85176 -1.47968,-6.12796 -1.04222,-1.914895 -3.50449,-4.36916 -5.16783,-5.151022 -3.62868,-1.705682 -6.41999,0.815476 -6.11465,5.522852 0.21078,3.2497 1.34243,4.96085 4.83302,7.30791 2.5846,1.73789 4.10416,3.24327 4.95266,4.90647 0.72676,1.42456 1.31703,1.89708 1.90586,1.52566 0.54605,-0.34444 1.09293,-2.02661 1.12213,-3.45165 0.0177,-0.86141 0.11642,-1.02857 0.60775,-1.02857 0.55216,0 0.5777,0.0989 0.43415,1.68193 -0.14702,1.62139 -0.12124,1.7107 0.71619,2.48103 2.00634,1.84557 8.16435,5.71108 12.89379,8.09368 4.24441,2.13826 4.88705,2.31384 7.99777,2.18514 1.52536,-0.0631 3.16898,-0.29172 3.70286,-0.51501 z m -6.15282,-7.86238 c -0.23438,-0.37924 0.0938,-0.52012 1.71143,-0.73471 1.67493,-0.22219 2.03361,0.30265 0.39567,0.57898 -0.56571,0.0954 -1.23418,0.22948 -1.48549,0.29787 -0.2513,0.0684 -0.53103,0.004 -0.62161,-0.14214 z m -9.48147,-0.40149 c 0,-0.0534 0.33223,-0.45454 0.73829,-0.89143 l 0.7383,-0.79434 -0.66973,-0.0962 c -0.81106,-0.11653 -1.0714,-0.47947 -1.07695,-1.50131 -0.003,-0.55542 0.37322,-1.17032 1.32927,-2.17253 l 1.33346,-1.39786 0.85247,0.93825 c 1.93086,2.12514 2.01906,3.57421 0.2457,4.03665 l -0.88509,0.23081 0.95255,0.87254 0.95256,0.87253 h -2.25542 c -1.24047,0 -2.25541,-0.0437 -2.25541,-0.0971 z m 13.57714,-0.17719 c 0.0932,-0.15086 0.77938,-0.27429 1.52476,-0.27429 0.74539,0 1.35524,0.12343 1.35524,0.27429 0,0.15085 -0.68614,0.27428 -1.52476,0.27428 -0.94665,0 -1.46048,-0.10399 -1.35524,-0.27428 z m -27.2097,-6.27239 c 0.14469,-1.22161 0.10138,-1.36111 -0.50887,-1.63916 -0.36686,-0.16715 -1.02088,-0.23314 -1.45338,-0.14664 -1.0219,0.20438 -2.27658,-0.45144 -3.65225,-1.90904 -1.4683,-1.55575 -2.06915,-2.81664 -2.08479,-4.375 -0.007,-0.72251 -0.15358,-1.48282 -0.32517,-1.68957 -0.24294,-0.29272 -0.17417,-0.47245 0.31069,-0.812055 1.49843,-1.049547 4.76323,-0.04429 6.65431,2.048915 1.09199,1.2087 1.17558,1.77373 0.53885,3.64242 -0.54053,1.58638 -0.39358,2.01046 0.88124,2.54312 0.98705,0.41241 0.99665,0.43182 0.82672,1.67161 -0.0946,0.68989 -0.17193,1.42227 -0.17193,1.6275 0,0.20523 -0.26405,0.37314 -0.58678,0.37314 -0.54081,0 -0.57439,-0.10459 -0.42864,-1.33524 z m -1.94322,-3.32761 c -0.12216,-0.83235 -0.57955,-1.02671 -1.54464,-0.65637 -0.65615,0.25179 -0.52689,0.542 0.45756,1.02729 1.19366,0.58843 1.22625,0.57731 1.08708,-0.37092 z m -1.30159,-1.75451 c 1.0812,-0.28475 1.43091,-0.52301 1.69328,-1.15361 0.30785,-0.73994 0.26207,-0.86566 -0.66401,-1.82331 -0.93987,-0.97191 -1.70618,-1.32451 -1.70618,-0.78506 0,0.13393 -0.43353,0.87373 -0.96339,1.64402 -0.83678,1.21647 -0.91822,1.47282 -0.61973,1.95077 0.39867,0.63838 0.45509,0.64255 2.26003,0.16719 z m -1.77406,-4.29507 c 0,-0.38253 -0.18925,-0.53327 -0.66952,-0.53327 -0.86753,0 -0.99189,0.23931 -0.78543,1.51153 l 0.17017,1.04866 0.64239,-0.74682 c 0.35332,-0.41075 0.64239,-0.98679 0.64239,-1.2801 z m 32.09143,9.64785 c 0,-0.13296 0.43034,-0.56997 0.95632,-0.97115 1.64341,-1.2535 1.65731,-1.46876 0.27779,-4.30313 -1.17885,-2.42207 -1.497,-3.53542 -1.01029,-3.53542 0.12309,0 0.51047,0.70972 0.86083,1.57714 0.35036,0.86743 0.99684,2.22089 1.43662,3.00768 0.92352,1.65225 0.86043,1.90562 -0.86196,3.46169 -1.08904,0.98389 -1.65931,1.24618 -1.65931,0.76319 z m -13.30286,-6.06684 c 0.0932,-0.15086 0.33792,-0.27429 0.54374,-0.27429 0.3006,0 0.28573,-0.17537 -0.0756,-0.89143 -0.24738,-0.49028 -0.49803,-1.71261 -0.557,-2.71628 l -0.1072,-1.824859 -0.90552,-0.105712 c -0.78597,-0.09176 -1.10757,0.08846 -2.43608,1.365121 l -1.53057,1.47083 0.81982,0.68983 c 0.4509,0.37941 0.81982,0.8023 0.81982,0.93974 0,0.52778 -1.02771,0.21524 -1.74126,-0.52953 -0.9812,-1.02416 -0.73271,-1.6737 1.31122,-3.427548 l 1.54646,-1.326983 4.44751,0.306018 c 2.44612,0.168307 4.78693,0.374115 5.20179,0.457349 1.13178,0.227068 0.90754,0.656317 -0.34286,0.656317 -0.69196,0 -1.09915,0.126618 -1.10258,0.342857 -0.009,0.5948 -0.54852,4.16139 -0.7048,4.66285 -0.12868,0.41293 -0.5134,0.48 -2.753,0.48 -1.66577,0 -2.54237,-0.0988 -2.43391,-0.27428 z m 4.70474,-1.30286 c 0.11214,-0.56571 0.2103,-1.70743 0.21814,-2.53714 l 0.0143,-1.50857 -2.2942,-0.137143 -2.2942,-0.137143 0.17975,1.749696 c 0.18591,1.80963 0.71112,3.17145 1.31716,3.4153 0.19175,0.0772 0.86761,0.15001 1.50192,0.16192 1.11899,0.021 1.15934,-0.009 1.35716,-1.00692 z m 14.27096,-0.52145 c -0.0982,-0.0982 0.001,-0.31423 0.22084,-0.48 0.33456,-0.25245 0.35135,-0.6204 0.10338,-2.265426 l -0.29604,-1.964023 -0.80737,0.28145 c -0.83479,0.291012 -1.34757,0.116317 -0.89822,-0.306009 0.29869,-0.280732 5.87563,-1.670252 6.70366,-1.670252 0.80311,0 3.83805,1.585791 3.83805,2.005426 0,0.193498 -0.47951,0.820049 -1.06559,1.392338 -0.76574,0.747726 -1.12538,0.943786 -1.27807,0.696726 -0.13473,-0.218 0.11421,-0.635676 0.68035,-1.141525 0.49105,-0.438755 0.85019,-0.835817 0.79807,-0.882355 -0.4752,-0.42435 -2.97846,-1.46366 -3.09013,-1.282969 -0.0794,0.12849 -0.26747,1.316786 -0.4179,2.640662 -0.15042,1.323877 -0.31739,2.450927 -0.37104,2.504577 -0.13294,0.13294 -2.89797,0.64997 -3.47598,0.64997 -0.25598,0 -0.54579,-0.0804 -0.64401,-0.17859 z m 3.54114,-1.01158 c 0.014,-0.0243 0.14374,-1.01396 0.28836,-2.199344 0.18125,-1.485652 0.17336,-2.189519 -0.0254,-2.265587 -0.1586,-0.06069 -0.84379,0.04989 -1.52264,0.245725 -1.1445,0.330171 -1.2404,0.428815 -1.31833,1.355959 -0.0462,0.549937 0.0544,1.514017 0.2236,2.142397 0.3048,1.13196 0.31698,1.14076 1.31833,0.95373 0.55587,-0.10382 1.02212,-0.20862 1.03609,-0.23288 z m -29.7836,-4.501252 c 0.008,-0.896428 3.73297,-4.775476 5.31162,-5.531144 0.62276,-0.298102 1.97782,-0.686946 3.01125,-0.864096 2.03587,-0.34899 6.34735,-0.237131 6.74345,0.174956 0.13458,0.140015 0.28616,0.624856 0.33685,1.077427 0.0777,0.694045 0.006,0.808312 -0.45641,0.729949 -1.26412,-0.214097 -8.44332,-0.365012 -9.34219,-0.196383 -1.12339,0.21075 -2.70187,1.541935 -4.12137,3.475677 -0.89313,1.21669 -1.48792,1.671291 -1.4832,1.133614 z m 14.53534,-5.397405 c 0,-0.562552 -2.60292,-0.829898 -4.87046,-0.500248 l -1.84954,0.268883 1.78285,0.06127 c 1.45366,0.04996 3.073,0.229687 4.73143,0.525137 0.11314,0.02016 0.20572,-0.139614 0.20572,-0.355044 z m -0.65225,4.507359 c -0.82207,-1.242237 -0.85615,-1.372811 -0.35826,-1.372811 0.45372,0 1.65942,2.099893 1.32454,2.306867 -0.1359,0.08399 -0.57072,-0.336338 -0.96628,-0.934056 z m 10.25225,0.01391 c 0,-0.424677 1.30889,-1.813975 1.51515,-1.60823 0.10472,0.104459 -0.0783,0.567316 -0.40677,1.028571 -0.58456,0.820951 -1.10838,1.094897 -1.10838,0.579659 z m 10.10838,-2.65398 -1.23764,-1.237641 -2.30966,0.01015 c -1.39283,0.0061 -3.17089,0.231094 -4.47925,0.566735 -1.19327,0.306127 -2.21156,0.556586 -2.26285,0.556586 -0.0513,0 -0.0933,-0.435056 -0.0933,-0.966789 0,-0.796622 0.12962,-1.016072 0.73644,-1.246782 1.3887,-0.527986 4.77869,-0.605867 6.88141,-0.158096 2.04477,0.435432 2.16939,0.523686 3.97555,2.815321 0.90547,1.14886 0.033,0.90421 -1.21073,-0.339483 z m -6.44684,-1.973398 c -1.70515,-0.110847 -3.11297,0.154669 -3.11297,0.587108 0,0.262121 0.50229,0.243802 2.22081,-0.081 2.20347,-0.416459 2.21044,-0.420411 0.89216,-0.506106 z m -29.17012,16.498436 c 0,-0.95953 -1.51673,-8.356224 -1.84461,-8.995691 -0.23506,-0.458435 -1.54525,-2.499804 -2.91154,-4.536375 -2.07093,-3.086922 -3.29293,-4.517637 -7.34635,-8.601121 -2.72721,-2.747429 -5.02171,-4.845095 -5.22544,-4.777185 -0.54634,0.182115 -0.80012,2.601888 -0.46818,4.46402 0.16136,0.905143 0.33339,2.070363 0.3823,2.58938 0.0489,0.519017 0.50018,2.22172 1.00281,3.783783 l 0.91387,2.840116 1.09714,-0.191026 c 2.25846,-0.39323 4.3005,-0.156936 6.03429,0.698249 3.08542,1.521874 6.63021,5.996 6.31524,7.97092 -0.22088,1.385 0.30616,4.18455 0.86492,4.59429 0.50088,0.3673 1.18555,0.46008 1.18555,0.16064 z m -1.35454,-12.846352 c 0.0139,-1.056 0.1756,-2.413714 0.35932,-3.017143 l 0.33404,-1.097143 -2.59023,-1.994798 c -3.13283,-2.412661 -8.20782,-5.655783 -11.01144,-7.036757 l -2.05715,-1.01328 3.21649,3.052293 c 4.29547,4.076209 7.75071,8.239285 10.74195,12.942536 0.70201,1.103806 0.97486,0.606419 1.00702,-1.835706 z m -13.09473,-0.09429 c -0.57583,-0.129148 -0.96536,0.318479 -0.75475,0.867313 0.15238,0.397097 0.23604,0.377269 0.67457,-0.159848 0.43108,-0.528008 0.44222,-0.626268 0.0802,-0.707465 z m 55.18868,-4.572233 c 1.13951,-4.389823 1.2941,-5.341514 1.40287,-8.63633 0.11741,-3.556801 0.10439,-3.670401 -0.33019,-2.880001 -0.24883,0.452572 -0.72829,1.254858 -1.06547,1.782858 -0.33718,0.528 -0.82782,1.310136 -1.09032,1.738082 -0.2625,0.427946 -0.53782,0.717535 -0.61183,0.643532 -0.074,-0.074 0.43072,-1.22643 1.1216,-2.560942 1.1163,-2.156248 1.27403,-2.685952 1.41669,-4.757815 0.25819,-3.749538 -0.5722,-4.18848 -3.15833,-1.669503 -1.62615,1.583912 -2.95038,4.107768 -3.4747,6.622409 -0.47311,2.269042 -0.33746,2.743929 0.75857,2.655733 0.79287,-0.0638 0.85075,0.01673 1.9238,2.677075 0.97454,2.416106 1.12037,3.069608 1.22405,5.485715 0.11666,2.718377 0.29634,4.138938 0.49802,3.937264 0.0575,-0.05753 0.68089,-2.32467 1.38524,-5.038077 z M 144.2128,89.329006 c 0.24625,-0.518946 0.985,-1.66066 1.64167,-2.537143 l 1.19393,-1.593603 -1.97166,-0.172978 c -3.91364,-0.343351 -6.7074,-1.75369 -9.92713,-5.011381 -2.27518,-2.301998 -3.67019,-4.520733 -4.41116,-7.015845 -0.2249,-0.757316 -0.5308,-1.376939 -0.67979,-1.376939 -0.14898,0 -0.7922,0.527199 -1.42937,1.171551 -1.4503,1.466642 -2.43962,4.124322 -2.20009,5.910205 l 0.15832,1.180317 2.76948,1.389792 c 3.57487,1.793955 9.07444,5.243676 11.69094,7.333388 1.13142,0.903634 2.20563,1.648194 2.38713,1.654577 0.18149,0.0064 0.53147,-0.412992 0.77773,-0.931941 z m 9.21231,-5.24818 c -0.69773,-0.162018 -1.82403,-0.57961 -2.50289,-0.927988 -2.90867,-1.492672 -9.13797,-6.325183 -8.70785,-6.755301 0.0918,-0.09179 1.10985,0.655493 2.26235,1.660627 3.83478,3.344434 6.44989,4.823597 10.21777,5.779398 2.19082,0.555749 3.31608,0.673673 6.37001,0.667565 l 3.70915,-0.0074 -1.81135,-0.772934 c -2.16984,-0.925912 -6.28008,-3.331784 -6.28008,-3.675964 0,-0.30729 -0.11183,-0.360043 3.15608,1.488854 3.93319,2.225304 5.59943,2.715768 9.73535,2.865641 l 3.42857,0.124243 -1.49688,-0.702794 c -0.82329,-0.386535 -2.41786,-1.395975 -3.5435,-2.243199 -2.50922,-1.888595 -6.49429,-5.658399 -6.11512,-5.784793 0.15252,-0.05084 1.2225,0.809417 2.37775,1.911678 2.95227,2.816873 5.83215,4.894061 8.0103,5.777637 1.89642,0.769294 2.72523,0.875981 4.51094,0.580671 l 1.00063,-0.165477 -1.06802,-1.408646 c -0.58741,-0.774756 -1.06856,-1.501218 -1.06921,-1.614361 -0.002,-0.314104 0.39628,-0.245436 0.79505,0.137143 0.29263,0.280737 0.31808,0.119227 0.1405,-0.891429 -0.60535,-3.445242 0.14002,-7.283114 2.01754,-10.388198 1.75587,-2.90389 3.31555,-4.094087 5.36504,-4.094087 0.57364,0 1.12629,-0.08331 1.22811,-0.185132 0.1768,-0.176791 -1.28507,-1.593732 -3.3492,-3.246273 -2.31541,-1.853719 -5.88005,-2.310526 -7.96667,-1.020927 -2.64429,1.634265 -3.80897,7.935958 -2.37156,12.83176 0.25852,0.880531 0.14888,1.074265 -0.3857,0.681515 -0.69373,-0.509672 -2.13452,-3.851331 -2.8712,-6.659196 -0.44603,-1.70007 -0.75807,-3.176618 -0.69343,-3.281217 0.0647,-0.104596 -0.009,-1.323067 -0.16354,-2.707705 -0.45094,-4.039022 0.68852,-8.648928 2.32176,-9.393082 0.92526,-0.421574 2.8493,0.179934 3.78724,1.183993 l 0.77346,0.827992 v -1.08522 c 0,-2.577408 -1.05575,-4.000572 -4.07515,-5.493339 -1.84585,-0.912574 -2.22025,-0.998121 -4.38857,-1.002764 -2.70995,-0.0058 -5.81022,0.806545 -7.08375,1.856121 -0.42489,0.350175 -0.97685,0.711048 -1.22658,0.801938 -0.60733,0.221049 -2.07696,2.390254 -2.5742,3.799578 -0.72887,2.065846 -0.50636,5.779554 0.57332,9.568529 0.17912,0.628564 0.15774,0.650235 -0.25643,0.260036 -0.63769,-0.600773 -1.62172,-5.813521 -1.39531,-7.391465 0.28697,-2.000102 1.2053,-4.450351 2.08168,-5.554286 l 0.81655,-1.028571 -0.90435,8.23e-4 c -1.37609,0.0011 -5.89498,1.290964 -7.40858,2.114767 -1.95862,1.066017 -3.99245,3.165197 -4.21475,4.35018 -0.55775,2.973024 1.16245,9.635496 3.62964,14.057928 1.00643,1.80404 1.10586,2.569327 0.15971,1.22937 -0.81507,-1.154334 -2.10852,-3.83647 -2.81841,-5.844365 -0.34668,-0.980571 -0.71521,-1.906285 -0.81896,-2.057143 -0.2214,-0.321931 -0.71252,-2.917355 -0.96519,-5.100716 -0.24522,-2.119016 -0.32048,-2.199137 -1.72975,-1.841428 -1.52108,0.386093 -3.76249,2.421046 -5.23531,4.753084 -0.88829,1.406499 -1.11418,2.021675 -1.11418,3.034173 0,1.657149 0.69773,4.34033 1.50987,5.806316 0.35519,0.641143 0.52924,1.165714 0.38679,1.165714 -0.37898,0 -1.29906,-1.596373 -1.73895,-3.017142 -0.49752,-1.606895 -1.22616,-3.017143 -1.55888,-3.017143 -0.58309,0 -1.67502,0.963072 -2.29876,2.027481 -0.8399,1.433283 -1.19186,3.387602 -0.64769,3.596421 0.26602,0.102081 0.35209,0.480861 0.28031,1.2336 -0.20086,2.106229 2.63807,6.767855 5.52153,9.066531 3.90585,3.113727 5.33541,3.51115 12.43152,3.456005 4.60374,-0.03578 5.30945,-0.09179 4.25143,-0.337473 z m 25.19997,-2.198834 c 0,-1.156399 0.92785,-4.010493 1.73072,-5.323732 0.92601,-1.514658 2.67545,-3.289259 3.81647,-3.871365 0.95436,-0.486879 1.01772,-0.587116 0.72224,-1.142594 -0.6454,-1.213284 -2.38838,-3.398908 -3.06311,-3.84101 -0.6778,-0.444112 -0.70922,-0.431673 -1.71139,0.677612 -0.5615,0.621515 -1.45807,2.067676 -1.99237,3.213694 -0.81565,1.74949 -0.99082,2.464673 -1.09225,4.459361 -0.1727,3.396363 0.59322,7.396351 1.32916,6.941511 0.14329,-0.08856 0.26053,-0.589621 0.26053,-1.113477 z m -8.56367,-13.209448 c 0.0161,-2.99926 0.85464,-5.534828 2.29182,-6.929557 0.60616,-0.588261 1.34638,-1.147093 1.64494,-1.241851 0.63833,-0.202601 0.54892,-0.698806 -0.19565,-1.085735 -0.29029,-0.150857 -1.27295,-0.730357 -2.18368,-1.28778 -2.2558,-1.38068 -3.17027,-1.713863 -3.45823,-1.259992 -0.37523,0.591421 -0.25862,6.339807 0.17499,8.6265 0.34512,1.820037 1.42687,5.304129 1.64683,5.304129 0.0372,0 0.0727,-0.956571 0.079,-2.125714 z"
     id="path3045"
     inkscape:connector-curvature="0" />
</svg>
